<svg width="16" height="16" viewBox="0 0 16 16" fill="none" xmlns="http://www.w3.org/2000/svg">
<path d="M5.10758 15.5507C4.73514 15.5507 4.38339 15.3852 4.14544 15.0852L0.524515 10.5849C0.286568 10.2849 0.193458 9.90209 0.286568 9.52965L1.57976 3.91204C1.66252 3.5396 1.91081 3.23958 2.25222 3.07405L7.48705 0.570435C7.65258 0.487671 7.83879 0.446289 8.02501 0.446289C8.21123 0.446289 8.39745 0.487671 8.56298 0.570435L13.7978 3.0637C14.1392 3.22923 14.3875 3.52925 14.4703 3.90169L15.7635 9.51931C15.8462 9.89174 15.7635 10.2745 15.5255 10.5745L11.9046 15.0748C11.6666 15.3645 11.3149 15.5404 10.9424 15.5404L5.10758 15.5507Z" fill="#326DE6"/>
<path d="M8.01552 0.704989C8.16035 0.704989 8.30519 0.736026 8.43968 0.798099L13.6745 3.29137C13.9435 3.42586 14.1504 3.67415 14.2125 3.96383L15.5057 9.58144C15.5781 9.88146 15.5057 10.1918 15.3091 10.4298L11.6882 14.9301C11.502 15.168 11.2123 15.3025 10.9123 15.3025H5.10843C4.80841 15.3025 4.51873 15.168 4.33251 14.9301L0.711584 10.4298C0.525364 10.1918 0.452946 9.88146 0.515019 9.58144L1.80821 3.96383C1.88063 3.66381 2.07719 3.41551 2.34618 3.29137L7.58101 0.787753C7.7155 0.736026 7.87068 0.704989 8.01552 0.704989ZM8.01552 0.21875C7.79826 0.21875 7.58101 0.270478 7.3741 0.363587L2.13927 2.8672C1.72544 3.06377 1.43577 3.42586 1.33231 3.87072L0.0391252 9.48833C-0.06433 9.93319 0.0391252 10.3884 0.3288 10.7505L3.94973 15.2508C4.22906 15.6025 4.65322 15.7991 5.09808 15.7991H10.9019C11.3468 15.7991 11.7709 15.6025 12.0503 15.2508L15.6712 10.7505C15.9609 10.3987 16.0643 9.93319 15.9609 9.48833L14.6677 3.87072C14.5642 3.42586 14.2746 3.06377 13.8607 2.8672L8.6466 0.363587C8.45003 0.270478 8.23277 0.21875 8.01552 0.21875Z" fill="white"/>
<path d="M13.2611 9.13642C13.2508 9.13642 13.2508 9.13642 13.2611 9.13642H13.2508C13.2404 9.13642 13.2301 9.13642 13.2301 9.12607C13.2094 9.12607 13.1887 9.11573 13.168 9.11573C13.0956 9.10538 13.0335 9.09504 12.9714 9.09504C12.9404 9.09504 12.9094 9.09504 12.868 9.08469H12.8576C12.6404 9.064 12.4645 9.04331 12.299 8.99158C12.2266 8.96055 12.2059 8.91916 12.1852 8.87778C12.1852 8.86744 12.1748 8.86744 12.1748 8.85709L12.0404 8.81571C12.1024 8.33981 12.0817 7.84323 11.9679 7.35699C11.8541 6.87075 11.6576 6.41555 11.3886 6.00173L11.492 5.90862V5.88793C11.492 5.8362 11.5024 5.78447 11.5438 5.73274C11.6679 5.61894 11.8231 5.52583 12.0093 5.41203C12.0404 5.39134 12.0714 5.381 12.1024 5.36031C12.1645 5.32927 12.2162 5.29823 12.2783 5.25685C12.2886 5.2465 12.3093 5.23616 12.33 5.21547C12.3404 5.20512 12.3507 5.20512 12.3507 5.19478C12.4956 5.07063 12.5266 4.86372 12.4231 4.72923C12.3714 4.65681 12.2783 4.61543 12.1852 4.61543C12.1024 4.61543 12.03 4.64646 11.9576 4.69819C11.9472 4.70854 11.9472 4.70854 11.9369 4.71888C11.9162 4.72923 11.9059 4.74992 11.8852 4.76027C11.8334 4.81199 11.7921 4.85337 11.7507 4.9051C11.73 4.92579 11.7093 4.95683 11.6783 4.97752C11.5334 5.1327 11.3989 5.25685 11.2644 5.34996C11.2334 5.37065 11.2024 5.381 11.1713 5.381C11.1506 5.381 11.1299 5.381 11.1093 5.37065H11.0886L10.9644 5.45341C10.8299 5.30858 10.6851 5.18443 10.5403 5.06029C9.91952 4.57405 9.1643 4.27403 8.37804 4.20161L8.36769 4.06712C8.35735 4.05677 8.35735 4.05677 8.347 4.04642C8.31597 4.01539 8.27458 3.98435 8.26424 3.91193C8.25389 3.74641 8.27458 3.56019 8.29527 3.35328V3.34293C8.29527 3.31189 8.30562 3.27051 8.31597 3.23947C8.32631 3.1774 8.33666 3.11533 8.347 3.04291V2.98084V2.9498C8.347 2.76358 8.20216 2.6084 8.02629 2.6084C7.94353 2.6084 7.86076 2.64978 7.79869 2.71185C7.73662 2.77393 7.70558 2.85669 7.70558 2.9498V2.97049V3.03256C7.70558 3.10498 7.71593 3.16706 7.73662 3.22913C7.74696 3.26017 7.74696 3.2912 7.75731 3.33258V3.34293C7.778 3.54984 7.80904 3.73606 7.78834 3.90159C7.778 3.97401 7.73662 4.00504 7.70558 4.03608C7.69523 4.04642 7.69523 4.04642 7.68489 4.05677L7.67454 4.19126C7.48832 4.21195 7.3021 4.23264 7.11589 4.27403C6.31928 4.4499 5.61579 4.85337 5.06747 5.43272L4.96402 5.36031H4.94333C4.92264 5.36031 4.90194 5.37065 4.88125 5.37065C4.85022 5.37065 4.81918 5.36031 4.78814 5.33961C4.65365 5.2465 4.51916 5.11201 4.37432 4.95683C4.35363 4.93614 4.33294 4.9051 4.3019 4.88441C4.26052 4.83268 4.21914 4.7913 4.16741 4.73957C4.15707 4.72923 4.13638 4.71888 4.11569 4.69819C4.10534 4.68785 4.09499 4.68785 4.09499 4.6775C4.03292 4.62577 3.95016 4.59474 3.86739 4.59474C3.77428 4.59474 3.68117 4.63612 3.62945 4.70854C3.52599 4.84303 3.55703 5.04994 3.70186 5.17409C3.71221 5.17409 3.71221 5.18443 3.72256 5.18443C3.74325 5.19478 3.75359 5.21547 3.77428 5.22581C3.83636 5.2672 3.88808 5.29823 3.95016 5.32927C3.98119 5.33961 4.01223 5.36031 4.04327 5.381C4.22949 5.4948 4.38467 5.58791 4.50882 5.70171C4.56054 5.75344 4.56054 5.80516 4.56054 5.85689V5.87758L4.664 5.97069C4.64331 6.00173 4.62262 6.02242 4.61227 6.05346C4.09499 6.87075 3.89843 7.83288 4.03292 8.78467L3.89843 8.82605C3.89843 8.8364 3.88808 8.8364 3.88808 8.84674C3.86739 8.88813 3.83636 8.92951 3.77428 8.96055C3.6191 9.01227 3.43288 9.03296 3.21563 9.05365H3.20528C3.17424 9.05365 3.13286 9.05365 3.10182 9.064C3.03975 9.064 2.97768 9.07435 2.90526 9.08469C2.88457 9.08469 2.86388 9.09504 2.84319 9.09504C2.83284 9.09504 2.8225 9.09504 2.81215 9.10538C2.62593 9.14676 2.51213 9.32264 2.54317 9.48817C2.5742 9.633 2.7087 9.72611 2.87422 9.72611C2.90526 9.72611 2.92595 9.72611 2.95699 9.71577C2.96733 9.71577 2.97768 9.71577 2.97768 9.70542C2.99837 9.70542 3.01906 9.69508 3.03975 9.69508C3.11217 9.67439 3.1639 9.65369 3.22597 9.62266C3.25701 9.61231 3.28804 9.59162 3.31908 9.58128H3.32943C3.52599 9.50886 3.70186 9.44678 3.86739 9.42609H3.88808C3.95016 9.42609 3.99154 9.45713 4.02258 9.47782C4.03292 9.47782 4.03292 9.48817 4.04327 9.48817L4.1881 9.46747C4.4364 10.233 4.91229 10.9158 5.54337 11.4124C5.6882 11.5262 5.83304 11.6193 5.98822 11.7125L5.92615 11.8469C5.92615 11.8573 5.9365 11.8573 5.9365 11.8676C5.95719 11.909 5.97788 11.9607 5.95719 12.0332C5.89511 12.1883 5.802 12.3435 5.6882 12.5194V12.5297C5.66751 12.5608 5.64682 12.5815 5.62613 12.6125C5.58475 12.6642 5.55371 12.716 5.51233 12.778C5.50198 12.7884 5.49164 12.8091 5.48129 12.8298C5.48129 12.8401 5.47095 12.8505 5.47095 12.8505C5.38818 13.0263 5.45026 13.2229 5.60544 13.2953C5.64682 13.316 5.6882 13.3264 5.72959 13.3264C5.85373 13.3264 5.97788 13.2436 6.03995 13.1298C6.03995 13.1194 6.0503 13.1091 6.0503 13.1091C6.06064 13.0884 6.07099 13.0677 6.08133 13.0574C6.11237 12.985 6.12272 12.9332 6.14341 12.8712C6.15375 12.8401 6.1641 12.8091 6.17444 12.778C6.24686 12.5711 6.29859 12.4056 6.3917 12.2608C6.43308 12.1987 6.48481 12.1883 6.52619 12.1677C6.53654 12.1677 6.53654 12.1677 6.54688 12.1573L6.6193 12.0228C7.0745 12.1987 7.57109 12.2918 8.06767 12.2918C8.36769 12.2918 8.67806 12.2608 8.96773 12.1883C9.15395 12.147 9.32983 12.0952 9.5057 12.0332L9.56777 12.147C9.57812 12.147 9.57812 12.147 9.58846 12.1573C9.64019 12.1677 9.68157 12.1883 9.72296 12.2504C9.80572 12.3953 9.86779 12.5711 9.94021 12.7677V12.778C9.95056 12.8091 9.9609 12.8401 9.97125 12.8712C9.99194 12.9332 10.0023 12.9953 10.0333 13.0574C10.0437 13.0781 10.054 13.0884 10.0644 13.1091C10.0644 13.1194 10.0747 13.1298 10.0747 13.1298C10.1368 13.2539 10.2609 13.3264 10.3851 13.3264C10.4265 13.3264 10.4678 13.316 10.5092 13.2953C10.5816 13.2539 10.6437 13.1919 10.6644 13.1091C10.6851 13.0263 10.6851 12.9332 10.6437 12.8505C10.6437 12.8401 10.6334 12.8401 10.6334 12.8298C10.623 12.8091 10.6127 12.7884 10.6023 12.778C10.5713 12.716 10.5299 12.6642 10.4885 12.6125C10.4678 12.5815 10.4471 12.5608 10.4265 12.5297V12.5194C10.3126 12.3435 10.2092 12.1883 10.1575 12.0332C10.1368 11.9607 10.1575 11.9194 10.1678 11.8676C10.1678 11.8573 10.1782 11.8573 10.1782 11.8469L10.1264 11.7228C10.6747 11.4021 11.1403 10.9469 11.492 10.3882C11.6783 10.0986 11.8231 9.77784 11.9265 9.45713L12.0507 9.47782C12.061 9.47782 12.061 9.46747 12.0714 9.46747C12.1128 9.44678 12.1438 9.41575 12.2059 9.41575H12.2266C12.3921 9.43644 12.568 9.49851 12.7645 9.57093H12.7749C12.8059 9.58128 12.837 9.60197 12.868 9.61231C12.9301 9.64335 12.9818 9.66404 13.0542 9.68473C13.0749 9.68473 13.0956 9.69508 13.1163 9.69508C13.1266 9.69508 13.137 9.69508 13.1473 9.70542C13.1784 9.71577 13.199 9.71577 13.2301 9.71577C13.3853 9.71577 13.5198 9.61231 13.5611 9.47782C13.5611 9.35367 13.4473 9.18815 13.2611 9.13642ZM8.47115 8.62949L8.01595 8.84674L7.56074 8.62949L7.44694 8.14325L7.75731 7.75012H8.26424L8.5746 8.14325L8.47115 8.62949ZM11.1713 7.55356C11.2541 7.9053 11.2748 8.25705 11.2437 8.59845L9.66088 8.14325C9.51605 8.10187 9.43328 7.95703 9.46432 7.81219C9.47466 7.77081 9.49535 7.72943 9.52639 7.69839L10.7782 6.57073C10.9541 6.86041 11.0886 7.19146 11.1713 7.55356ZM10.2816 5.95L8.92635 6.91213C8.81255 6.98455 8.65737 6.96386 8.56426 6.85006C8.53322 6.81902 8.52288 6.77764 8.51253 6.73626L8.41942 5.04994C9.13326 5.1327 9.78503 5.45341 10.2816 5.95ZM7.28141 5.10167C7.39521 5.08098 7.49867 5.06029 7.61247 5.03959L7.51936 6.69488C7.50902 6.83971 7.39521 6.96386 7.24003 6.96386C7.19865 6.96386 7.14692 6.95351 7.11589 6.93282L5.73993 5.95C6.1641 5.52583 6.69172 5.23616 7.28141 5.10167ZM5.24335 6.57073L6.47446 7.66736C6.58826 7.76047 6.59861 7.93634 6.5055 8.05014C6.47446 8.09152 6.43308 8.12256 6.38135 8.1329L4.7778 8.59845C4.71573 7.89496 4.87091 7.18112 5.24335 6.57073ZM4.96402 9.37437L6.60895 9.09504C6.74345 9.08469 6.86759 9.1778 6.89863 9.31229C6.90898 9.37437 6.90898 9.42609 6.88828 9.47782L6.25721 10.9986C5.67786 10.6262 5.21231 10.0572 4.96402 9.37437ZM8.74013 11.4331C8.50218 11.4848 8.26424 11.5159 8.01595 11.5159C7.65385 11.5159 7.3021 11.4538 6.97105 11.3504L7.78834 9.87095C7.87111 9.77784 8.0056 9.73646 8.1194 9.79853C8.17113 9.82957 8.21251 9.87095 8.24355 9.91233L9.04015 11.3504C8.94704 11.3814 8.84359 11.4021 8.74013 11.4331ZM10.7575 9.9951C10.4989 10.4089 10.1575 10.74 9.76434 10.9986L9.11257 9.43644C9.08153 9.31229 9.13326 9.1778 9.25741 9.11573C9.29879 9.09504 9.35052 9.08469 9.40224 9.08469L11.0575 9.36402C10.9955 9.59162 10.892 9.79853 10.7575 9.9951Z" fill="white"/>
</svg>
