<svg width="16" height="16" viewBox="0 0 16 16" fill="none" xmlns="http://www.w3.org/2000/svg">
<path fill-rule="evenodd" clip-rule="evenodd" d="M2.46692 10.3862L1.6299 10.6868L1.58496 13.1344L4.48243 12.094C3.48863 11.7658 2.7629 11.1885 2.46692 10.3862Z" fill="#FDBD39"/>
<path fill-rule="evenodd" clip-rule="evenodd" d="M2.90417 7.79736L0 8.84021L1.62912 10.6867L2.46614 10.3861C2.17102 9.58619 2.35302 8.68195 2.90417 7.79736Z" fill="#F69833"/>
<path fill-rule="evenodd" clip-rule="evenodd" d="M7.79068 4.26578C4.09249 5.59374 1.7083 8.33398 2.46544 10.3863L15.8578 5.57733C15.1006 3.52501 11.4889 2.93782 7.79068 4.26578Z" fill="#FECF33"/>
<path fill-rule="evenodd" clip-rule="evenodd" d="M10.5329 11.6977C14.2311 10.3697 16.6198 7.6416 15.8581 5.57715L2.46582 10.3861C3.22744 12.4506 6.83472 13.0256 10.5329 11.6977Z" fill="#EE6723"/>
<path fill-rule="evenodd" clip-rule="evenodd" d="M15.8581 5.57715L2.46582 10.3861C2.72806 11.0969 3.72809 11.4471 5.13124 11.4471C6.4992 11.4471 8.25032 11.1145 10.0759 10.459C13.7741 9.13102 16.376 6.98097 15.8581 5.57715Z" fill="#F69833"/>
<path fill-rule="evenodd" clip-rule="evenodd" d="M13.194 4.5166C11.826 4.5166 10.0749 4.84921 8.24926 5.50476C4.55107 6.83273 1.94915 8.98276 2.46706 10.3866L15.8594 5.57764C15.5971 4.8668 14.5971 4.5166 13.194 4.5166Z" fill="#FDBD39"/>
<path fill-rule="evenodd" clip-rule="evenodd" d="M12.4539 13.2641H12.4538C12.0598 13.2641 11.4784 12.9143 10.726 12.2243C9.83578 11.408 8.81606 10.2124 7.85461 8.85778C6.8932 7.50319 6.10319 6.14892 5.63013 5.04441C5.11471 3.84077 5.04122 3.10069 5.4117 2.84472C5.49293 2.78866 5.59085 2.76025 5.70272 2.76025C6.00408 2.76025 6.59126 2.98079 7.67705 4.03149L7.7008 4.05445L7.69759 4.08711C7.69016 4.16259 7.68332 4.23875 7.67722 4.3135L7.66512 4.46193L7.5586 4.35643C6.38869 3.1979 5.87369 3.07283 5.70656 3.07283C5.6589 3.07283 5.62094 3.08236 5.59373 3.10116C5.43304 3.21215 5.42269 3.75575 5.92239 4.92255C6.38701 6.00737 7.16552 7.34116 8.11452 8.67821C9.06356 10.0154 10.0677 11.1933 10.942 11.995C11.8848 12.8595 12.3096 12.9528 12.4485 12.9528C12.4965 12.9528 12.5354 12.9427 12.5643 12.9227C12.7339 12.8056 12.7341 12.2233 12.1768 10.9674L12.1512 10.9098L12.2072 10.8797C12.2632 10.8495 12.3174 10.8198 12.3682 10.7915L12.4353 10.754L12.4662 10.8236C12.8613 11.7135 13.2307 12.8445 12.7464 13.1792C12.6647 13.2355 12.5663 13.2641 12.4539 13.2641ZM12.4538 13.1269H12.4539L12.4538 13.1955L12.4538 13.1269Z" fill="#EE6723"/>
<path fill-rule="evenodd" clip-rule="evenodd" d="M10.6229 11.6604L10.6173 11.7288C10.5238 12.866 10.2776 14.2331 9.63576 14.2885C9.62285 14.2896 9.60945 14.2902 9.59606 14.2902C9.16002 14.2902 8.7475 13.6761 8.36996 12.4649C8.01276 11.3191 7.73557 9.78067 7.58946 8.13301C7.44334 6.4857 7.44554 4.92315 7.59563 3.73324C7.75922 2.4366 8.07068 1.75945 8.52128 1.72058C8.5346 1.71937 8.54841 1.71875 8.56205 1.71875C8.87837 1.71875 9.35509 2.07082 9.84313 3.71067L9.52447 3.77113C9.36152 3.22313 9.18394 2.77743 9.00765 2.47117C8.84457 2.1879 8.68601 2.03189 8.56114 2.03189C8.55704 2.03189 8.55291 2.03206 8.54883 2.0324C8.35352 2.04926 8.06908 2.51495 7.9105 3.7719C7.76308 4.94047 7.7613 6.4796 7.90549 8.10577C8.04976 9.73218 8.32242 11.2476 8.67322 12.3729C8.83032 12.8769 9.00264 13.2923 9.17154 13.5741C9.3273 13.834 9.47803 13.9772 9.59597 13.9772C9.60002 13.9772 9.60406 13.977 9.60809 13.9766C9.79497 13.9605 10.1471 13.4759 10.2954 11.7709L10.6229 11.6604Z" fill="#EE6723"/>
</svg>
