<svg width="16" height="16" viewBox="0 0 16 16" fill="none" xmlns="http://www.w3.org/2000/svg">
<g clip-path="url(#clip0_598_15927)">
<mask id="mask0_598_15927" style="mask-type:luminance" maskUnits="userSpaceOnUse" x="0" y="4" width="16" height="9">
<path d="M0.324219 8.12043C0.324219 10.3706 3.80529 12.1948 8.09923 12.1948C12.3932 12.1948 15.8743 10.3706 15.8743 8.12043C15.8743 5.87026 12.3932 4.04604 8.09923 4.04604C3.80529 4.04604 0.324219 5.87026 0.324219 8.12043Z" fill="white"/>
</mask>
<g mask="url(#mask0_598_15927)">
<path d="M0.324219 8.12043C0.324219 10.3706 3.80529 12.1948 8.09923 12.1948C12.3932 12.1948 15.8743 10.3706 15.8743 8.12043C15.8743 5.87026 12.3932 4.04604 8.09923 4.04604C3.80529 4.04604 0.324219 5.87026 0.324219 8.12043Z" fill="url(#paint0_radial_598_15927)"/>
</g>
<mask id="mask1_598_15927" style="mask-type:luminance" maskUnits="userSpaceOnUse" x="0" y="3" width="17" height="10">
<path d="M0 3.58201H16.1979V12.6587H0V3.58201Z" fill="white"/>
</mask>
<g mask="url(#mask1_598_15927)">
<path d="M8.09923 11.8921C12.2255 11.8921 15.5705 10.2034 15.5705 8.1202C15.5705 6.03707 12.2255 4.34831 8.09923 4.34831C3.973 4.34831 0.62793 6.03707 0.62793 8.1202C0.62793 10.2034 3.973 11.8921 8.09923 11.8921Z" fill="#777BB3"/>
</g>
<mask id="mask2_598_15927" style="mask-type:luminance" maskUnits="userSpaceOnUse" x="0" y="3" width="17" height="10">
<path d="M0 3.58201H16.1979V12.6587H0V3.58201Z" fill="white"/>
</mask>
<g mask="url(#mask2_598_15927)">
<path d="M4.54819 8.58786C4.88748 8.58786 5.14077 8.52553 5.30103 8.40266C5.45958 8.28105 5.56909 8.07035 5.62648 7.77645C5.68 7.50174 5.65961 7.30993 5.56591 7.20641C5.4701 7.10069 5.26296 7.04707 4.95025 7.04707H4.40804L4.10745 8.58786H4.54819ZM2.77477 10.4858C2.7496 10.4858 2.7257 10.4746 2.7097 10.4552C2.69367 10.4359 2.68717 10.4104 2.69198 10.3858L3.48861 6.30264C3.49631 6.26317 3.53104 6.23465 3.57142 6.23465H5.28835C5.82794 6.23465 6.22957 6.3806 6.48202 6.66851C6.73582 6.95793 6.81419 7.36248 6.71495 7.87092C6.67457 8.07806 6.60511 8.27043 6.50851 8.44266C6.4118 8.61509 6.28399 8.77463 6.12856 8.91695C5.94251 9.09041 5.73194 9.2162 5.50325 9.29021C5.2782 9.36325 4.98917 9.40028 4.6442 9.40028H3.94898L3.75044 10.4178C3.74274 10.4573 3.70804 10.4858 3.66765 10.4858H2.77477Z" fill="#12141A"/>
<path d="M4.47699 7.13105H4.94965C5.32707 7.13105 5.45817 7.21355 5.50272 7.26272C5.57662 7.34435 5.59057 7.51647 5.54307 7.76045C5.4897 8.03359 5.39077 8.22726 5.24898 8.33601C5.10382 8.44734 4.86782 8.50376 4.5476 8.50376H4.20919L4.47699 7.13105ZM5.28776 6.15055H3.5708C3.49004 6.15055 3.42061 6.20758 3.4052 6.28656L2.60857 10.3697C2.59895 10.419 2.61195 10.4699 2.64398 10.5087C2.67604 10.5474 2.72379 10.5698 2.77418 10.5698H3.66704C3.74783 10.5698 3.81726 10.5128 3.83267 10.4338L4.01793 9.48426H4.64361C4.99743 9.48426 5.29529 9.44583 5.52884 9.37005C5.76903 9.29231 5.99001 9.1605 6.18559 8.9783C6.34735 8.83004 6.48058 8.66364 6.58154 8.48364C6.68252 8.3036 6.75508 8.10282 6.79718 7.88688C6.90165 7.35169 6.81678 6.92313 6.54495 6.61318C6.27578 6.30619 5.85277 6.15055 5.28776 6.15055ZM4.00449 8.67185H4.5476C4.90758 8.67185 5.17572 8.6043 5.3519 8.46919C5.52811 8.33405 5.64695 8.1085 5.70871 7.79244C5.76779 7.48899 5.74088 7.27485 5.62797 7.1501C5.51492 7.02535 5.28885 6.96297 4.94965 6.96297H4.3379L4.00449 8.67185ZM5.28776 6.31863C5.80426 6.31863 6.18106 6.45366 6.4179 6.72375C6.65471 6.99384 6.72603 7.37083 6.63154 7.85483C6.59265 8.05421 6.52687 8.2365 6.43427 8.40165C6.34155 8.5669 6.22049 8.71801 6.07088 8.85503C5.89259 9.02124 5.69453 9.13969 5.47659 9.21023C5.25865 9.28096 4.98107 9.31618 4.64361 9.31618H3.87882L3.66704 10.4017H2.77418L3.5708 6.31863H5.28776Z" fill="white"/>
<path d="M8.76202 9.40039C8.73683 9.40039 8.71295 9.38918 8.69695 9.3698C8.68089 9.35044 8.6744 9.32498 8.6792 9.30032L9.03159 7.4937C9.06511 7.32189 9.05685 7.19857 9.00834 7.14646C8.97864 7.11461 8.88944 7.06119 8.62569 7.06119H7.98728L7.54422 9.33237C7.53652 9.37187 7.50179 9.40039 7.46141 9.40039H6.57558C6.55038 9.40039 6.52651 9.38918 6.51048 9.3698C6.49445 9.35044 6.48795 9.32495 6.49276 9.30032L7.28939 5.21719C7.29709 5.17772 7.33182 5.1492 7.3722 5.1492H8.25803C8.28323 5.1492 8.3071 5.16041 8.32313 5.17976C8.33916 5.19915 8.34566 5.22461 8.34085 5.24927L8.14861 6.23476H8.83539C9.35859 6.23476 9.71337 6.32665 9.92001 6.51569C10.1306 6.70854 10.1964 7.01689 10.1154 7.43229L9.74473 9.33237C9.73702 9.37187 9.70232 9.40039 9.66191 9.40039H8.76202Z" fill="#12141A"/>
<path d="M8.25744 5.0651H7.37161C7.29082 5.0651 7.22139 5.12213 7.20598 5.20111L6.40935 9.28424C6.39974 9.33352 6.41273 9.38448 6.44479 9.42322C6.47684 9.46196 6.52459 9.48438 6.57499 9.48438H7.46081C7.54158 9.48438 7.61104 9.42734 7.62645 9.34837L8.05623 7.14517H8.6251C8.8884 7.14517 8.94366 7.2012 8.94588 7.20361C8.96185 7.22072 8.98286 7.30001 8.94818 7.47762L8.59579 9.28424C8.58618 9.33352 8.59917 9.38448 8.63123 9.42322C8.66329 9.46196 8.71104 9.48438 8.76143 9.48438H9.66132C9.74208 9.48438 9.81154 9.42734 9.82695 9.34837L10.1976 7.44829C10.2845 7.00227 10.2101 6.66769 9.9765 6.45377C9.75355 6.2498 9.3801 6.15066 8.8348 6.15066H8.25032L8.42307 5.26526C8.43266 5.21598 8.4197 5.165 8.38764 5.12628C8.35558 5.08754 8.30783 5.0651 8.25744 5.0651ZM8.25744 5.23318L8.04566 6.31874H8.8348C9.33134 6.31874 9.67383 6.40508 9.86233 6.57754C10.0508 6.75011 10.1073 7.02972 10.032 7.41624L9.66132 9.31629H8.76143L9.11382 7.50969C9.15392 7.30418 9.13919 7.164 9.06956 7.08925C8.9999 7.01451 8.85173 6.97708 8.6251 6.97708H7.91711L7.46081 9.31629H6.57499L7.37161 5.23318H8.25744Z" fill="white"/>
<path d="M11.5169 8.58786C11.8562 8.58786 12.1095 8.52553 12.2698 8.40266C12.4283 8.28108 12.5378 8.07038 12.5953 7.77645C12.6488 7.50174 12.6284 7.30993 12.5347 7.20641C12.4388 7.10069 12.2317 7.04707 11.919 7.04707H11.3768L11.0762 8.58786H11.5169ZM9.74355 10.4858C9.71838 10.4858 9.69447 10.4746 9.67847 10.4552C9.66244 10.4359 9.65592 10.4104 9.66073 10.3858L10.4574 6.30264C10.4651 6.26317 10.4998 6.23465 10.5402 6.23465H12.2571C12.7967 6.23465 13.1983 6.3806 13.4508 6.66851C13.7046 6.9579 13.7829 7.36245 13.6837 7.87092C13.6433 8.07806 13.5739 8.27043 13.4773 8.44266C13.3805 8.61509 13.2527 8.77463 13.0973 8.91695C12.9113 9.09041 12.7007 9.2162 12.472 9.29021C12.2469 9.36325 11.9579 9.40028 11.6129 9.40028H10.9177L10.7192 10.4178C10.7115 10.4573 10.6768 10.4858 10.6364 10.4858H9.74355Z" fill="#12141A"/>
<path d="M11.4457 7.13105H11.9184C12.2958 7.13105 12.4269 7.21355 12.4714 7.26272C12.5454 7.34435 12.5593 7.51647 12.5118 7.76042C12.4584 8.03359 12.3595 8.22726 12.2177 8.33601C12.0725 8.44734 11.8365 8.50376 11.5163 8.50376H11.1779L11.4457 7.13105ZM12.2565 6.15055H10.5396C10.4588 6.15055 10.3894 6.20758 10.3739 6.28656L9.57732 10.3697C9.5677 10.419 9.5807 10.4699 9.61273 10.5087C9.64479 10.5474 9.69254 10.5698 9.74293 10.5698H10.6358C10.7165 10.5698 10.786 10.5128 10.8014 10.4338L10.9867 9.48426H11.6123C11.9662 9.48426 12.264 9.44583 12.4976 9.37005C12.7377 9.29231 12.9588 9.16047 13.1544 8.97824C13.3161 8.83002 13.4493 8.66364 13.5503 8.48364C13.6512 8.3036 13.7238 8.10282 13.7659 7.88688C13.8704 7.35167 13.7855 6.9231 13.5137 6.61315C13.2445 6.30619 12.8215 6.15055 12.2565 6.15055ZM10.9732 8.67185H11.5163C11.8763 8.67185 12.1444 8.6043 12.3206 8.46919C12.4969 8.33405 12.6157 8.1085 12.6774 7.79244C12.7365 7.48899 12.7096 7.27485 12.5967 7.1501C12.4836 7.02535 12.2576 6.96297 11.9184 6.96297H11.3066L10.9732 8.67185ZM12.2565 6.31863C12.773 6.31863 13.1498 6.45366 13.3866 6.72375C13.6235 6.99384 13.6948 7.37083 13.6003 7.85483C13.5614 8.05421 13.4956 8.2365 13.403 8.40165C13.3103 8.5669 13.1892 8.71801 13.0396 8.85503C12.8613 9.02124 12.6633 9.13969 12.4453 9.21023C12.2274 9.28096 11.9498 9.31618 11.6123 9.31618H10.8475L10.6358 10.4017H9.74293L10.5396 6.31863H12.2565Z" fill="white"/>
</g>
</g>
<defs>
<radialGradient id="paint0_radial_598_15927" cx="0" cy="0" r="1" gradientUnits="userSpaceOnUse" gradientTransform="translate(4.99238 5.47847) scale(10.2097 10.1709)">
<stop stop-color="#AEB2D5"/>
<stop offset="0.3" stop-color="#AEB2D5"/>
<stop offset="0.75" stop-color="#484C89"/>
<stop offset="1" stop-color="#484C89"/>
</radialGradient>
<clipPath id="clip0_598_15927">
<rect width="16" height="16" fill="white"/>
</clipPath>
</defs>
</svg>
