<svg width="16" height="16" viewBox="0 0 16 16" fill="none" xmlns="http://www.w3.org/2000/svg">
<g clip-path="url(#clip0_598_15933)">
<path d="M0 5.79048C0 3.76362 0 2.75019 0.394453 1.97603C0.741423 1.29507 1.29507 0.741423 1.97603 0.394453C2.75019 0 3.76362 0 5.79048 0H10.2095C12.2364 0 13.2498 0 14.024 0.394453C14.7049 0.741423 15.2586 1.29507 15.6055 1.97603C16 2.75019 16 3.76362 16 5.79048V10.2095C16 12.2364 16 13.2498 15.6055 14.024C15.2586 14.7049 14.7049 15.2586 14.024 15.6055C13.2498 16 12.2364 16 10.2095 16H5.79048C3.76362 16 2.75019 16 1.97603 15.6055C1.29507 15.2586 0.741423 14.7049 0.394453 14.024C0 13.2498 0 12.2364 0 10.2095V5.79048Z" fill="#00005B"/>
<path d="M6.73718 10.0363H4.25779L3.75333 11.6467C3.73932 11.7064 3.68433 11.7487 3.62452 11.7457H2.36873C2.29711 11.7457 2.27207 11.7054 2.2936 11.6247L4.44024 5.30993C4.46173 5.24389 4.48318 5.17933 4.50466 5.09486C4.53274 4.94799 4.54712 4.7987 4.5476 4.64903C4.54144 4.60481 4.57961 4.56566 4.62273 4.57196H6.3293C6.3793 4.57196 6.40793 4.59031 6.41518 4.62701L8.85167 11.6357C8.87312 11.7091 8.85165 11.7458 8.78725 11.7457H7.3919C7.34296 11.7513 7.29623 11.7178 7.28458 11.6687L6.73718 10.0363ZM4.64418 8.67856H6.34005C6.06142 7.72646 5.74698 6.78686 5.49213 5.82734C5.20333 6.82267 4.93666 7.74575 4.64418 8.67856Z" fill="#9999FF"/>
<path d="M10.6637 9.41454C10.7624 10.2322 11.449 10.622 12.2093 10.6054C12.6381 10.597 13.0963 10.5305 13.4969 10.3683C13.5326 10.3391 13.5505 10.3573 13.5505 10.4234V11.4692C13.5539 11.5236 13.5312 11.5722 13.4861 11.6013C12.9882 11.8275 12.4166 11.8957 11.8766 11.887C10.2664 11.887 9.16062 10.7525 9.16108 9.10185C9.15687 7.53762 10.1717 6.21796 11.7478 6.21796C13.0838 6.18332 14.0088 7.25302 14.0125 8.58446C14.0125 8.82697 13.999 9.0703 13.9696 9.31102C13.9639 9.36061 13.9217 9.39911 13.873 9.3991C12.8059 9.3991 11.7337 9.41454 10.6637 9.41454ZM10.6637 8.41169C11.2584 8.41169 11.8565 8.43272 12.4508 8.40619C12.5402 8.39703 12.6065 8.38011 12.6065 8.28722C12.5941 7.79361 12.1775 7.38766 11.6942 7.40654C11.1101 7.37034 10.7363 7.86333 10.6637 8.41169Z" fill="#9999FF"/>
</g>
<defs>
<clipPath id="clip0_598_15933">
<rect width="16" height="16" fill="white"/>
</clipPath>
</defs>
</svg>
