<svg width="16" height="16" viewBox="0 0 16 16" fill="none" xmlns="http://www.w3.org/2000/svg">
<g clip-path="url(#clip0_598_15948)">
<path d="M9.53393 1.78331C8.80885 0.98658 8.18449 0.177397 8.05693 0.00933669C8.0435 -0.00311223 8.02335 -0.00311223 8.00993 0.00933669C7.88237 0.177397 7.25799 0.98658 6.53292 1.78331C0.309374 9.13439 7.51312 14.0953 7.51312 14.0953L7.57354 14.1327C7.62725 14.8983 7.76152 16 7.76152 16H8.03007H8.29861C8.29861 16 8.43289 14.9045 8.4866 14.1327L8.54701 14.0891C8.55373 14.0891 15.7575 9.13439 9.53393 1.78331ZM8.03007 13.9833C8.03007 13.9833 7.70781 13.7281 7.62054 13.5973V13.5849L8.00993 5.58024C8.00993 5.55534 8.05021 5.55534 8.05021 5.58024L8.4396 13.5849V13.5973C8.35232 13.7281 8.03007 13.9833 8.03007 13.9833Z" fill="#00684A"/>
</g>
<defs>
<clipPath id="clip0_598_15948">
<rect width="8" height="16" fill="white" transform="translate(4)"/>
</clipPath>
</defs>
</svg>
