<svg width="16" height="16" viewBox="0 0 16 16" fill="none" xmlns="http://www.w3.org/2000/svg">
<g clip-path="url(#clip0_598_15932)">
<path d="M15.1593 4.69183C15.1592 4.42351 15.1017 4.18623 14.9857 3.98287C14.8717 3.78287 14.7009 3.61487 14.472 3.48239C12.5816 2.39247 10.6896 1.30591 8.79998 0.214706C8.29038 -0.0793737 7.79646 -0.0684937 7.29086 0.229746C6.53838 0.673426 2.7715 2.83167 1.64894 3.48159C1.1867 3.74927 0.961738 4.15887 0.961738 4.69119C0.960938 6.88319 0.961737 9.07519 0.960938 11.2672C0.960938 11.5296 1.01598 11.7621 1.12686 11.9625C1.24094 12.1686 1.41406 12.3409 1.64846 12.4766C2.77086 13.1269 6.53838 15.2848 7.29054 15.7286C7.79646 16.0272 8.29054 16.0377 8.79998 15.7435C10.6897 14.6523 12.5821 13.5659 14.4726 12.476C14.7069 12.3405 14.88 12.168 14.9941 11.9619C15.1048 11.7616 15.16 11.5289 15.16 11.2665C15.16 11.2665 15.1601 6.88383 15.1593 4.69183Z" fill="#A179DC"/>
<path d="M8.08215 7.95801L1.12695 11.9626C1.24087 12.1687 1.41399 12.341 1.64823 12.4767C2.77111 13.127 6.53847 15.2849 7.29047 15.7287C7.79639 16.0273 8.29047 16.0378 8.79991 15.7436C10.6897 14.6524 12.582 13.566 14.4726 12.4761C14.7068 12.3406 14.8799 12.1681 14.994 11.962L8.08215 7.95801Z" fill="#280068"/>
<path d="M15.1592 4.69187C15.159 4.42355 15.1016 4.18627 14.9856 3.98291L8.08203 7.95795L14.9939 11.962C15.1046 11.7616 15.1596 11.529 15.1598 11.2666C15.1598 11.2666 15.16 6.88387 15.1592 4.69187Z" fill="#390091"/>
<path d="M12.1764 6.46094V7.20942H12.9249V6.46094H13.2993V7.20942H14.0476V7.58382H13.2993V8.3323H14.0478V8.70654H13.2993V9.45502H12.9249V8.70654H12.1766V9.45502H11.8022V8.70654H11.0537V8.33214H11.8022V7.58366H11.0537V7.20942H11.8022V6.46094H12.1764ZM12.9249 7.58366H12.1764V8.3323H12.9249V7.58366Z" fill="white"/>
<path d="M8.0971 2.70166C10.0496 2.70166 11.7542 3.76198 12.6672 5.33814L12.6584 5.32294L10.3611 6.64566C9.90862 5.87926 9.07886 5.36214 8.12702 5.35158L8.0971 5.35142C6.64574 5.35142 5.46894 6.5279 5.46894 7.97942C5.46894 8.45398 5.5955 8.89894 5.81566 9.28326C6.26846 10.0741 7.12014 10.6076 8.09726 10.6076C9.07998 10.6076 9.93646 10.0673 10.3872 9.26806L10.3763 9.28726L12.6699 10.6161C11.767 12.1788 10.0856 13.2357 8.15582 13.2569L8.0971 13.2572C6.13854 13.2572 4.4291 12.1903 3.51822 10.606C3.05893 9.80691 2.81791 8.90108 2.81934 7.97942C2.81934 5.0647 5.18222 2.70166 8.0971 2.70166Z" fill="white"/>
</g>
<defs>
<clipPath id="clip0_598_15932">
<rect width="16" height="16" fill="white"/>
</clipPath>
</defs>
</svg>
