<svg width="16" height="16" viewBox="0 0 16 16" fill="none" xmlns="http://www.w3.org/2000/svg">
<path d="M5.92538 12.3735C5.92538 12.3735 5.31395 12.7291 6.36051 12.8494C7.62839 12.9941 8.27639 12.9733 9.6736 12.7089C9.6736 12.7089 10.0409 12.9392 10.554 13.1387C7.42178 14.4811 3.46522 13.061 5.92538 12.3735Z" fill="#5382A1"/>
<path d="M5.5418 10.6221C5.5418 10.6221 4.85603 11.1297 5.90336 11.238C7.25775 11.3778 8.32734 11.3892 10.1781 11.0328C10.1781 11.0328 10.4341 11.2923 10.8367 11.4342C7.04967 12.5416 2.83165 11.5216 5.5418 10.6221Z" fill="#5382A1"/>
<path d="M8.7694 7.65053C9.54117 8.53908 8.56662 9.33866 8.56662 9.33866C8.56662 9.33866 10.5263 8.32703 9.6263 7.06023C8.78574 5.87886 8.14115 5.29189 11.6307 3.26807C11.6307 3.26807 6.15326 4.63608 8.7694 7.65053Z" fill="#E76F00"/>
<path d="M12.9118 13.6695C12.9118 13.6695 13.3643 14.0423 12.4135 14.3307C10.6056 14.8784 4.88871 15.0438 3.30058 14.3526C2.72969 14.1042 3.80027 13.7596 4.13704 13.6872C4.48825 13.6111 4.68895 13.6253 4.68895 13.6253C4.05406 13.178 0.585293 14.5035 2.92699 14.883C9.31313 15.9187 14.5683 14.4167 12.9118 13.6695Z" fill="#5382A1"/>
<path d="M6.21968 8.8068C6.21968 8.8068 3.31171 9.4975 5.1899 9.74831C5.98292 9.85449 7.56381 9.83047 9.03636 9.70708C10.2398 9.60557 11.4482 9.38973 11.4482 9.38973C11.4482 9.38973 11.0239 9.57146 10.7169 9.78109C7.76386 10.5577 2.05923 10.1964 3.70152 9.40202C5.09041 8.73064 6.21968 8.8068 6.21968 8.8068Z" fill="#5382A1"/>
<path d="M11.4363 11.7228C14.4382 10.1629 13.0502 8.66388 12.0815 8.86583C11.844 8.91525 11.7381 8.95808 11.7381 8.95808C11.7381 8.95808 11.8263 8.81999 11.9947 8.76022C13.9112 8.08643 15.3851 10.7475 11.376 11.8014C11.376 11.8014 11.4224 11.7599 11.4363 11.7228Z" fill="#5382A1"/>
<path d="M9.62531 0C9.62531 0 11.2878 1.66303 8.04852 4.22031C5.45097 6.27169 7.4562 7.44133 8.04744 8.77769C6.53121 7.40967 5.41849 6.20541 6.16499 5.08458C7.26067 3.43932 10.2961 2.64163 9.62531 0Z" fill="#E76F00"/>
<path d="M6.51497 15.9496C9.39638 16.1341 13.8211 15.8473 13.9259 14.4839C13.9259 14.4839 13.7245 15.0007 11.5446 15.4112C9.08523 15.874 6.05198 15.82 4.25293 15.5234C4.25297 15.5233 4.62122 15.8282 6.51497 15.9496Z" fill="#5382A1"/>
</svg>
