<svg width="16" height="16" viewBox="0 0 16 16" fill="none" xmlns="http://www.w3.org/2000/svg">
<g clip-path="url(#clip0_598_15966)">
<path d="M0 5.79048C0 3.76362 0 2.75019 0.394453 1.97603C0.741423 1.29507 1.29507 0.741423 1.97603 0.394453C2.75019 0 3.76362 0 5.79048 0H10.2095C12.2364 0 13.2498 0 14.024 0.394453C14.7049 0.741423 15.2586 1.29507 15.6055 1.97603C16 2.75019 16 3.76362 16 5.79048V10.2095C16 12.2364 16 13.2498 15.6055 14.024C15.2586 14.7049 14.7049 15.2586 14.024 15.6055C13.2498 16 12.2364 16 10.2095 16H5.79048C3.76362 16 2.75019 16 1.97603 15.6055C1.29507 15.2586 0.741423 14.7049 0.394453 14.024C0 13.2498 0 12.2364 0 10.2095V5.79048Z" fill="#470137"/>
<path d="M8.36886 4.70503L6.37244 8.08466L8.50838 11.6735C8.55278 11.7548 8.50838 11.7728 8.44399 11.7728H6.91987C6.81251 11.7728 6.73738 11.7689 6.69445 11.6955C6.55122 11.4093 6.40811 11.1249 6.26512 10.8423C6.12189 10.5599 5.96984 10.2718 5.80897 9.97813C5.64796 9.68469 5.48875 9.38746 5.33133 9.08643C5.1881 9.38005 5.02888 9.67362 4.87514 9.96712C4.72121 10.2607 4.56915 10.5525 4.41899 10.8423C4.26873 11.1323 4.11489 11.4204 3.95747 11.7065C3.92879 11.7725 3.87863 11.7793 3.80718 11.7793H2.33673C2.27896 11.7793 2.27199 11.7359 2.30454 11.6845L4.37606 8.19473L2.35819 4.69402C2.32153 4.64407 2.35308 4.59084 2.41186 4.59494H3.92524C3.99077 4.59123 4.04869 4.61597 4.08625 4.67201C4.21505 4.96562 4.35816 5.25918 4.51557 5.55269C4.6729 5.84631 4.83211 6.1362 4.99321 6.42237C5.15421 6.70859 5.31344 6.99848 5.4494 7.29204C5.59243 6.99119 5.73733 6.69763 5.8841 6.41137C6.03068 6.12514 6.18094 5.83708 6.33488 5.54718C6.48869 5.25735 6.63717 4.9693 6.78032 4.68301C6.79934 4.62022 6.8448 4.5884 6.90913 4.59494H8.31518C8.36886 4.59494 8.39106 4.66822 8.36886 4.70503Z" fill="#FF61F6"/>
<path d="M11.4492 11.9157C10.5027 11.9305 9.51116 11.5408 9.01278 10.6773C8.76942 10.2627 8.64777 9.74347 8.64783 9.11955C8.6438 8.6143 8.76967 8.11688 9.01278 7.67743C9.64002 6.55619 10.9037 6.13608 12.104 6.24632V4.07764C12.104 4.02637 12.1254 4.00058 12.1684 4.00058H13.5208C13.5577 3.99516 13.5904 4.02871 13.5852 4.06662V10.5727C13.5852 10.8411 13.6118 11.1086 13.6281 11.3763C13.6307 11.422 13.6043 11.4672 13.5637 11.4864C12.8955 11.7722 12.1725 11.9124 11.4492 11.9157ZM12.104 10.5507V7.54533C11.1236 7.27295 10.1718 8.01966 10.172 9.05349C10.1487 10.1223 11.07 10.8608 12.104 10.5507Z" fill="#FF61F6"/>
</g>
<defs>
<clipPath id="clip0_598_15966">
<rect width="16" height="16" fill="white"/>
</clipPath>
</defs>
</svg>
