<svg width="16" height="16" viewBox="0 0 16 16" fill="none" xmlns="http://www.w3.org/2000/svg">
<path d="M12.4722 4.49991L12.8174 4.7499C13.4179 5.23425 13.7632 5.78111 13.8383 6.40608C14.4838 6.28109 15.3094 6.37483 15.6697 6.62482L16 6.82794L15.94 6.95293C15.8349 7.1873 15.8048 7.2498 15.7898 7.28105C15.2044 8.45287 14.0484 8.4685 13.508 8.45287C12.1419 11.8746 9.22955 13.7652 5.29638 13.7652C3.47992 13.7652 2.09881 13.1871 1.16806 12.0465C-0.0629357 10.5465 -0.0629357 8.59349 0.0421489 7.96852L0.0721731 7.84352H10.9259C11.4964 7.84352 11.9317 7.68728 12.1419 7.56229C11.9167 7.21855 11.8417 6.82794 11.8266 6.6092C11.7816 5.98422 11.9317 5.328 12.232 4.85927L12.4722 4.49991ZM2.89445 5.9686V7.53104H1.24312V5.9686H2.89445ZM4.84602 5.9686V7.53104H3.19469V5.9686H4.84602ZM6.79759 5.9686V7.53104H5.14626V5.9686H6.79759ZM8.74916 5.9686V7.53104H7.09783V5.9686H8.74916ZM10.7007 5.9686V7.53104H9.0494V5.9686H10.7007ZM8.74916 4.09367V5.65611H7.09783V4.09367H8.74916ZM6.79759 4.09367V5.65611H5.14626V4.09367H6.79759ZM4.84602 4.09367V5.65611H3.19469V4.09367H4.84602ZM8.74916 2.21875V3.78119H7.09783V2.21875H8.74916Z" fill="#2396ED"/>
</svg>
