<svg width="16" height="16" viewBox="0 0 16 16" fill="none" xmlns="http://www.w3.org/2000/svg">
<path d="M13.8086 2.11698C12.3228 -0.00945924 9.38856 -0.639745 7.26693 0.712012L3.54083 3.08683C2.52303 3.72715 1.82198 4.76652 1.6096 5.95008C1.43186 6.93606 1.58808 7.95316 2.05354 8.84034C1.7346 9.32416 1.51706 9.86763 1.41409 10.4379C1.19965 11.6442 1.48015 12.886 2.19227 13.883C3.6783 16.0096 6.6126 16.6397 8.7339 15.288L12.46 12.9132C13.4779 12.2729 14.1789 11.2335 14.3912 10.0499C14.569 9.06393 14.4128 8.04685 13.9476 7.15957C14.2665 6.67576 14.4839 6.13231 14.5868 5.56208C14.8014 4.35579 14.5209 3.11392 13.8086 2.11698" fill="#FF3E00"/>
<path d="M6.90305 14.0855C5.70164 14.3979 4.43292 13.9276 3.72538 12.9076C3.29693 12.3079 3.12815 11.5609 3.25716 10.8352C3.27878 10.7173 3.30855 10.601 3.34623 10.4872L3.41642 10.2731L3.60738 10.4134C4.04838 10.7374 4.54146 10.9838 5.06538 11.1419L5.2039 11.1839L5.19114 11.3221C5.17422 11.5188 5.22747 11.7151 5.34147 11.8763C5.5544 12.1836 5.93639 12.3253 6.29821 12.2314C6.37922 12.2098 6.45642 12.1758 6.52715 12.1308L10.2545 9.75556C10.4389 9.63945 10.5659 9.45115 10.6046 9.2367C10.6433 9.01798 10.5924 8.79292 10.4635 8.61206C10.2505 8.30475 9.86839 8.16291 9.50642 8.25675C9.42552 8.2784 9.34841 8.31231 9.27778 8.3573L7.85547 9.26398C7.62159 9.41268 7.36636 9.52477 7.09861 9.59635C5.89721 9.90872 4.62851 9.43844 3.92098 8.41847C3.49251 7.81878 3.32373 7.07174 3.45276 6.34609C3.58049 5.63416 4.00224 5.00899 4.61453 4.62397L8.3415 2.24852C8.57548 2.09957 8.8309 1.98735 9.09887 1.91575C10.3003 1.60339 11.5689 2.07366 12.2765 3.09361C12.7049 3.69332 12.8737 4.44035 12.7447 5.16601C12.723 5.28393 12.6932 5.40022 12.6556 5.51407L12.5854 5.72811L12.3946 5.58806C11.9536 5.26385 11.4605 5.01737 10.9365 4.85928L10.798 4.81724L10.8107 4.67898C10.8275 4.48232 10.7743 4.28604 10.6604 4.12482C10.4475 3.81758 10.0655 3.6758 9.70365 3.76971C9.62264 3.79136 9.54543 3.8253 9.47471 3.87033L5.74741 6.24567C5.56303 6.3617 5.43602 6.54998 5.39749 6.7644C5.35862 6.9831 5.40938 7.20824 5.53833 7.38911C5.75139 7.69641 6.13347 7.83825 6.49544 7.74441C6.57643 7.72272 6.65362 7.68879 6.72437 7.6438L8.14649 6.73746C8.38027 6.58856 8.63549 6.47638 8.90327 6.40482C10.1047 6.09245 11.3734 6.56273 12.0809 7.5827C12.5094 8.18239 12.6781 8.92942 12.5491 9.65508C12.4213 10.367 11.9996 10.9923 11.3873 11.3775L7.66036 13.7527C7.42638 13.9017 7.17096 14.0139 6.90299 14.0855" fill="white"/>
</svg>
