<svg width="16" height="16" viewBox="0 0 16 16" fill="none" xmlns="http://www.w3.org/2000/svg">
<g clip-path="url(#clip0_598_15934)">
<path d="M0 5.79048C0 3.76362 0 2.75019 0.394453 1.97603C0.741423 1.29507 1.29507 0.741423 1.97603 0.394453C2.75019 0 3.76362 0 5.79048 0H10.2095C12.2364 0 13.2498 0 14.024 0.394453C14.7049 0.741423 15.2586 1.29507 15.6055 1.97603C16 2.75019 16 3.76362 16 5.79048V10.2095C16 12.2364 16 13.2498 15.6055 14.024C15.2586 14.7049 14.7049 15.2586 14.024 15.6055C13.2498 16 12.2364 16 10.2095 16H5.79048C3.76362 16 2.75019 16 1.97603 15.6055C1.29507 15.2586 0.741423 14.7049 0.394453 14.024C0 13.2498 0 12.2364 0 10.2095V5.79048Z" fill="#49021F"/>
<path d="M5.48119 4.68314V11.6956C5.48119 11.769 5.449 11.8057 5.38461 11.8057H4.08584C4.02852 11.8057 3.9999 11.769 4 11.6956V4.68314C4 4.62448 4.03219 4.59513 4.09658 4.59507H5.39532C5.44459 4.58789 5.48819 4.63261 5.48119 4.68314Z" fill="#FF3366"/>
<path d="M9.32374 11.9157C8.82971 11.9234 8.34021 11.8181 7.89083 11.6075C6.9368 11.1546 6.52224 10.1523 6.52234 9.11955C6.51411 8.08934 7.05974 7.10774 7.94988 6.6206C8.56434 6.27151 9.28712 6.18283 9.97847 6.24632V4.07764C9.97847 4.02637 9.99995 4.00058 10.0429 4.00058H11.3953C11.4322 3.99516 11.4649 4.02871 11.4597 4.06662V10.5727C11.4597 10.8411 11.4863 11.1086 11.5026 11.3763C11.5052 11.422 11.4788 11.4673 11.4382 11.4864C11.0893 11.6356 10.7259 11.7463 10.3541 11.8166C10.0142 11.881 9.6694 11.9141 9.32374 11.9157ZM9.97846 10.5507V7.54533C9.00257 7.27418 8.04634 8.01927 8.04647 9.0535C8.02288 10.1366 8.98862 10.8476 9.97846 10.5507Z" fill="#FF3366"/>
</g>
<defs>
<clipPath id="clip0_598_15934">
<rect width="16" height="16" fill="white"/>
</clipPath>
</defs>
</svg>
