<svg width="16" height="16" viewBox="0 0 16 16" fill="none" xmlns="http://www.w3.org/2000/svg">
<g clip-path="url(#clip0_598_15926)">
<path d="M15.1577 4.69122C15.1577 4.42306 15.1003 4.18594 14.9843 3.98242C14.8702 3.78242 14.6995 3.61474 14.4707 3.4821C12.5803 2.39202 10.6885 1.30562 8.79886 0.214904C8.28958 -0.0793363 7.79566 -0.0686164 7.29006 0.229784C6.53774 0.673464 2.77118 2.83138 1.64878 3.48146C1.18654 3.74898 0.961578 4.15858 0.961578 4.6909C0.960938 6.88258 0.961737 9.07426 0.960938 11.2661C0.960938 11.5285 1.01598 11.761 1.12686 11.9613C1.24094 12.1675 1.41406 12.3399 1.64846 12.4754C2.7707 13.1255 6.5379 15.2834 7.29006 15.7271C7.79566 16.0255 8.28974 16.0362 8.79918 15.7419C10.6888 14.6511 12.5808 13.5645 14.4712 12.4747C14.7054 12.3392 14.8785 12.1667 14.9926 11.9608C15.1033 11.7603 15.1584 11.5279 15.1585 11.2655C15.1585 11.2655 15.1585 6.8829 15.1577 4.69122Z" fill="#5C8DBC"/>
<path d="M8.08054 7.95703L1.12598 11.9612C1.24006 12.1674 1.41318 12.3398 1.64758 12.4753C2.76982 13.1254 6.53702 15.2833 7.28918 15.727C7.79478 16.0255 8.28886 16.0361 8.7983 15.742C10.6879 14.6508 12.5799 13.5644 14.4703 12.4748C14.7045 12.3391 14.8777 12.1666 14.9917 11.9607L8.08054 7.95703Z" fill="#1A4674"/>
<path d="M6.02148 9.14311C6.42628 9.84951 7.18692 10.326 8.05956 10.326C8.93764 10.326 9.70276 9.84343 10.1055 9.12951L8.08148 7.95703L6.02148 9.14311Z" fill="#1A4674"/>
<path d="M15.1574 4.69122C15.1574 4.4229 15.0999 4.18578 14.9839 3.98242L8.08105 7.95666L14.9923 11.9605C15.103 11.7602 15.158 11.5275 15.1582 11.2651C15.1582 11.2651 15.1582 6.8829 15.1574 4.69122Z" fill="#1B598E"/>
<path d="M10.1054 9.12959C9.70265 9.84367 8.93753 10.3262 8.05945 10.3262C7.18681 10.3262 6.42601 9.84959 6.02137 9.14319C5.81806 8.78869 5.7113 8.38706 5.71177 7.97839C5.71177 6.68175 6.76297 5.63071 8.05945 5.63071C8.92665 5.63071 9.68345 6.10127 10.09 6.80047L12.1422 5.61887C11.3265 4.21087 9.80377 3.26367 8.05961 3.26367C5.45561 3.26367 3.34473 5.37455 3.34473 7.97839C3.34473 8.83279 3.57193 9.63375 3.96921 10.3248C4.78265 11.7402 6.31001 12.6933 8.05961 12.6933C9.81241 12.6933 11.3418 11.7363 12.1543 10.3168L10.1054 9.12959Z" fill="white"/>
</g>
<defs>
<clipPath id="clip0_598_15926">
<rect width="16" height="16" fill="white"/>
</clipPath>
</defs>
</svg>
