<svg width="16" height="16" viewBox="0 0 16 16" fill="none" xmlns="http://www.w3.org/2000/svg">
<g clip-path="url(#clip0_598_15937)">
<path d="M8.39065 15.6102C12.378 15.6102 15.6104 12.203 15.6104 8.00015C15.6104 3.79726 12.378 0.390137 8.39065 0.390137C4.40329 0.390137 1.1709 3.79726 1.1709 8.00015C1.1709 12.203 4.40329 15.6102 8.39065 15.6102Z" fill="#616161"/>
<path d="M9.75718 12.0726C12.9902 12.0726 15.611 9.53632 15.611 6.40765C15.611 3.27897 12.9902 0.742676 9.75718 0.742676C6.52418 0.742676 3.90332 3.27897 3.90332 6.40765C3.90332 9.53632 6.52418 12.0726 9.75718 12.0726Z" fill="#212121"/>
<path d="M9.3649 1.17041C9.3649 1.17041 11.3162 1.95092 10.4963 2.64636C10.0814 2.99798 9.55418 3.18414 9.06245 3.41439C8.49151 3.68171 7.90339 3.91392 7.38747 4.28778C6.9976 4.57033 6.6292 4.87395 6.36461 5.28216C6.04772 5.77076 5.86117 6.30541 5.82917 6.88924C5.80029 7.41491 5.89786 7.91991 6.1164 8.39563C6.42822 9.07468 6.93438 9.57147 7.5986 9.91334C8.07159 10.1569 8.57307 10.2696 9.10226 10.2572C9.72199 10.2427 10.2929 10.0671 10.8053 9.71353C11.0961 9.51293 11.3279 9.25849 11.5464 8.97984C11.7993 8.65749 12.0034 8.31094 12.1787 7.94566C12.3968 7.4914 12.5611 7.01529 12.7418 6.54542C12.8803 6.1856 13.0216 5.82383 13.2366 5.50265C14.048 4.29247 14.8285 5.46324 14.8285 5.46324C14.8285 5.46324 14.4382 3.90221 13.2675 2.73144C12.0967 1.56067 9.3649 1.17041 9.3649 1.17041Z" fill="#3949AB"/>
<path d="M13.6588 6.24419C13.4871 8.4347 13.055 10.0722 12.4646 11.2886C11.567 13.51 9.30389 15.0328 6.71336 14.808C3.99132 14.5715 1.78715 12.3427 1.57797 9.61835C1.41211 7.45906 2.46034 5.53392 4.10957 4.44627C5.45908 3.45151 7.35143 3.05657 8.97568 2.73187C10.2916 2.46884 10.9418 2.07234 11.2259 1.66296C11.5053 1.26021 11.2887 0.698634 10.831 0.523799C9.78 0.123005 8.62601 -0.0674408 7.41426 0.0215378C3.22134 0.329451 -0.0759401 3.94635 0.00133076 8.14981C0.085236 12.7482 4.04947 16.3987 8.75753 15.9659C12.3385 15.6365 15.3045 12.8754 15.8903 9.32761C16.1474 7.77087 15.9398 6.29024 15.4013 4.97936C15.1488 4.36549 14.284 4.30968 13.9846 4.90209C13.7552 5.35674 13.6806 5.96554 13.6588 6.24419Z" fill="#E0E0E0"/>
</g>
<defs>
<clipPath id="clip0_598_15937">
<rect width="16" height="16" fill="white"/>
</clipPath>
</defs>
</svg>
