<svg width="16" height="16" viewBox="0 0 16 16" fill="none" xmlns="http://www.w3.org/2000/svg">
<g clip-path="url(#clip0_598_15936)">
<path d="M14.25 0H1.75C0.783502 0 0 0.783502 0 1.75V14.25C0 15.2165 0.783502 16 1.75 16H14.25C15.2165 16 16 15.2165 16 14.25V1.75C16 0.783502 15.2165 0 14.25 0Z" fill="#092E20"/>
<path d="M11.6484 5.88738V10.0265C11.6484 11.4528 11.544 12.1368 11.231 12.7281C10.941 13.2963 10.5584 13.6557 9.77004 14.0499L8.11191 13.2615C8.90041 12.8905 9.28304 12.5659 9.52648 12.0671C9.7816 11.5571 9.86285 10.9657 9.86285 9.41207V5.88738H11.6484ZM8.80779 3.12988V11.3948C7.89185 11.5687 7.21935 11.6383 6.48891 11.6383C4.3091 11.6383 3.17285 10.6528 3.17285 8.76282C3.17285 6.94245 4.37873 5.75988 6.24535 5.75988C6.53523 5.75988 6.75554 5.78301 7.02223 5.85257V3.13001L8.80779 3.12988ZM6.41935 7.19751C5.51498 7.19751 4.99316 7.75407 4.99316 8.72795C4.99316 9.67882 5.49179 10.2005 6.40779 10.2005C6.60479 10.2005 6.76716 10.1889 7.02223 10.1543V7.2902C6.81354 7.2207 6.63966 7.19751 6.41935 7.19751ZM11.6484 3.13938V4.97138H9.86285V3.13945L11.6484 3.13938Z" fill="#FFFFFD"/>
</g>
<defs>
<clipPath id="clip0_598_15936">
<rect width="16" height="16" fill="white"/>
</clipPath>
</defs>
</svg>
