<svg width="16" height="16" viewBox="0 0 16 16" fill="none" xmlns="http://www.w3.org/2000/svg">
<path d="M9.2446 6.36616e-05C9.14489 6.36616e-05 9.04996 0.0271984 8.96454 0.059811C9.14967 0.201217 9.24932 0.386001 9.30154 0.598047C9.30627 0.625245 9.311 0.646966 9.31578 0.674164C9.32056 0.701363 9.32523 0.723083 9.32523 0.750282C9.33952 1.11456 9.23982 1.158 9.17342 1.37546C9.06898 1.65273 9.09745 1.95179 9.22558 2.19097C9.23503 2.21817 9.24932 2.25084 9.26829 2.28339C9.13065 1.23412 9.89485 1.07647 10.0372 0.750218C10.0467 0.462118 9.84263 0.271857 9.68125 0.141406C9.51514 0.0326126 9.37272 6.36616e-05 9.2446 6.36616e-05ZM10.3932 0.23383C10.379 0.331668 10.3885 0.304533 10.3838 0.353388C10.379 0.386001 10.379 0.429506 10.3742 0.462118C10.3648 0.494731 10.36 0.527344 10.3505 0.56002L10.3221 0.657858C10.3078 0.690471 10.2983 0.717669 10.2841 0.755696L10.2556 0.804615C10.2461 0.815507 10.2414 0.831813 10.2319 0.842705C10.2128 0.869904 10.1939 0.902516 10.1796 0.924237C10.1559 0.951435 10.1417 0.978634 10.1132 1.00035V1.00577C10.0894 1.02755 10.0705 1.04927 10.0467 1.07106C9.97076 1.13628 9.88534 1.1852 9.80465 1.25043C9.78091 1.27221 9.75243 1.28852 9.73347 1.3103C9.70972 1.33196 9.68598 1.35374 9.66702 1.37546L9.60056 1.45158C9.5816 1.47878 9.56258 1.50598 9.54834 1.53311C9.52938 1.56031 9.51036 1.59299 9.49612 1.62012C9.48189 1.65273 9.47243 1.68 9.45814 1.71802C9.44869 1.75064 9.43445 1.77777 9.42967 1.81586C9.42022 1.85389 9.41071 1.88656 9.40598 1.91918C9.4012 1.93548 9.4012 1.9572 9.39647 1.97351C9.39174 1.98982 9.39174 2.00612 9.38702 2.02243C9.38702 2.05504 9.38223 2.09313 9.38223 2.12575C9.38223 2.15294 9.38223 2.17466 9.38696 2.20186C9.38696 2.23447 9.39174 2.26709 9.39641 2.30518C9.4012 2.33779 9.40598 2.3704 9.41543 2.40302L9.44391 2.50085C9.45341 2.52264 9.46292 2.54436 9.46765 2.56073L8.63705 2.19097C8.49463 2.14747 8.357 2.10402 8.21936 2.06593C8.1434 2.04421 8.06743 2.02243 7.99153 2.00612C7.77316 1.95706 7.55303 1.91897 7.33176 1.89198C7.32231 1.89198 7.32231 1.8865 7.31274 1.8865C7.09442 1.85937 6.88082 1.84847 6.66722 1.84847C6.50589 1.84847 6.34923 1.8593 6.19258 1.87019C5.97425 1.8865 5.7512 1.91918 5.53282 1.96262C5.4806 1.97351 5.42365 1.9844 5.37143 1.99529C5.25754 2.02243 5.15311 2.04963 5.04394 2.07683C4.99173 2.09313 4.93478 2.10944 4.88256 2.12575C4.83034 2.15294 4.77813 2.18014 4.72596 2.20186C4.68731 2.22408 4.6477 2.24405 4.60729 2.26167C4.59778 2.26709 4.59305 2.26709 4.58827 2.2725C4.55454 2.29132 4.52131 2.31129 4.48862 2.33238C4.47916 2.33779 4.46965 2.3432 4.46487 2.3432C4.42689 2.36493 4.38424 2.38671 4.35098 2.40843C4.32723 2.41932 4.29871 2.43563 4.2798 2.45193C4.27029 2.46276 4.25605 2.46824 4.24654 2.47372C4.21334 2.49538 4.18009 2.51716 4.15162 2.53347C4.11836 2.55525 4.08989 2.57697 4.0662 2.59334C4.04245 2.615 4.01393 2.63137 3.99502 2.65309C3.99023 2.6585 3.98551 2.6585 3.98551 2.66392C3.96139 2.68083 3.93908 2.70092 3.91905 2.72379L3.90954 2.73462C3.89058 2.75093 3.87156 2.7673 3.85733 2.7836C3.84787 2.78902 3.84309 2.79443 3.83358 2.79991C3.81462 2.81622 3.79565 2.83794 3.78136 2.85424C3.77663 2.86507 3.77191 2.86507 3.76713 2.87055C3.74344 2.89775 3.72442 2.91405 3.70067 2.94125C3.69594 2.94125 3.69594 2.94667 3.69122 2.95208C3.66747 2.97386 3.64851 2.99558 3.62476 3.02278C3.62004 3.0282 3.62004 3.03361 3.61531 3.03361C3.59629 3.0554 3.57727 3.07718 3.56303 3.0989C3.55358 3.10973 3.54407 3.11521 3.53934 3.1261C3.52033 3.1533 3.50136 3.17502 3.47762 3.20222C3.47289 3.21304 3.46816 3.21305 3.46338 3.22394C3.43491 3.25655 3.41116 3.28916 3.37796 3.32177L3.36845 3.33267C3.31151 3.40337 3.24978 3.47407 3.18333 3.53382C3.11687 3.59905 3.05042 3.66434 2.97924 3.71867C2.90805 3.77848 2.83687 3.8274 2.76091 3.87632C2.68973 3.91982 2.61376 3.96333 2.53307 4.00135C2.45583 4.03967 2.37656 4.07237 2.29573 4.09926C2.14385 4.13728 1.9872 4.20798 1.85434 4.21888C1.82582 4.21888 1.79262 4.22971 1.76414 4.22971C1.73089 4.24053 1.70242 4.24601 1.67394 4.2569C1.64547 4.2678 1.617 4.2841 1.58853 4.29493C1.56005 4.30576 1.53158 4.32213 1.50311 4.33844C1.47936 4.36022 1.45083 4.37653 1.42242 4.39831C1.39867 4.41997 1.37014 4.44175 1.35124 4.46895C1.32743 4.49067 1.29896 4.51787 1.28 4.54507C1.25625 4.5722 1.23729 4.5994 1.21827 4.6266C1.19931 4.65921 1.18035 4.68641 1.16611 4.72444C1.14709 4.75164 1.12813 4.78431 1.11383 4.82234C1.09954 4.86036 1.08542 4.89304 1.07591 4.93107C1.06645 4.96368 1.05216 5.00177 1.04265 5.0398C1.0332 5.07241 1.02842 5.10502 1.02369 5.13764C1.02369 5.14305 1.01896 5.14846 1.01896 5.14846C1.00945 5.18656 1.00945 5.23547 1.00945 5.26267C1.00473 5.28987 1 5.31707 1 5.3442C1 5.36051 1 5.3823 1.00473 5.3986C1.00945 5.4258 1.01418 5.45293 1.01896 5.47472C1.02842 5.50192 1.0332 5.52364 1.04265 5.55084V5.55625C1.05216 5.58345 1.0664 5.60517 1.08064 5.63237C1.09487 5.65957 1.10911 5.68129 1.12813 5.70848C1.14709 5.73021 1.16611 5.75199 1.18985 5.77371C1.21354 5.80091 1.23251 5.81721 1.25625 5.83894C1.34173 5.92594 1.36542 5.95314 1.47458 6.02378L1.53158 6.0564C1.53631 6.0564 1.54104 6.06187 1.54104 6.06187C1.54104 6.0727 1.54104 6.0727 1.54582 6.08359C1.55054 6.11621 1.55527 6.14882 1.56478 6.1815C1.57427 6.21954 1.58376 6.25216 1.59325 6.27933C1.60749 6.3201 1.61227 6.32825 1.62173 6.35545C1.62651 6.36628 1.63124 6.37176 1.63124 6.37717C1.64547 6.40978 1.65971 6.43705 1.67394 6.46959C1.69296 6.49679 1.71193 6.52947 1.72622 6.5566C1.74513 6.5838 1.76414 6.61094 1.78789 6.63272C1.81158 6.65992 1.8306 6.67623 1.85434 6.70342C1.85434 6.70342 1.85907 6.70884 1.8638 6.70884C1.88754 6.73056 1.90651 6.75234 1.93025 6.76865C1.954 6.79037 1.98253 6.80668 2.01094 6.82298C2.03469 6.83929 2.06322 6.8556 2.09642 6.86649C2.12011 6.87732 2.14385 6.88821 2.1676 6.89369C2.17233 6.8991 2.17705 6.8991 2.18184 6.90451C2.19607 6.90999 2.21503 6.91541 2.22927 6.91541C2.21982 7.13835 2.21503 7.35033 2.24351 7.42644C2.27676 7.50798 2.43342 7.2579 2.59474 6.96433C2.57105 7.25249 2.55682 7.58409 2.59474 7.68741C2.63267 7.79073 2.85111 7.46995 3.04096 7.11115C5.60405 6.4315 7.94403 8.45941 8.19083 11.33C8.1434 10.8841 7.66398 10.6341 7.44093 10.6939C7.33176 10.9984 7.14663 11.3952 6.85234 11.6398C6.87609 11.368 6.86658 11.0853 6.81436 10.8134C6.73373 11.194 6.57707 11.5528 6.3682 11.8573C6.02647 11.8845 5.67996 11.6942 5.49956 11.4115C5.48538 11.4007 5.48065 11.3735 5.47114 11.3572C5.46169 11.33 5.4474 11.2973 5.44267 11.2701C5.43316 11.243 5.42365 11.2103 5.41893 11.1831C5.4142 11.1559 5.4142 11.1234 5.4142 11.0908V11.0309C5.41893 11.0038 5.42365 10.9712 5.43316 10.944C5.44267 10.9168 5.4474 10.8841 5.45691 10.8569C5.47114 10.8298 5.4806 10.7971 5.49962 10.77C5.56134 10.5689 5.56134 10.4111 5.4474 10.3133C5.42365 10.297 5.40469 10.2861 5.38094 10.2698C5.36671 10.2644 5.34774 10.259 5.33351 10.2535C5.324 10.2481 5.31449 10.2427 5.30498 10.2427C5.28129 10.2318 5.25282 10.2263 5.22907 10.2209C5.20533 10.21 5.17685 10.21 5.15311 10.21C5.12936 10.2046 5.10089 10.1992 5.07247 10.1992C5.05345 10.1992 5.03443 10.2046 5.0202 10.2046C4.99173 10.2046 4.96798 10.21 4.93956 10.2154C4.91582 10.2209 4.88729 10.2263 4.8636 10.2318C4.83985 10.2426 4.81132 10.2481 4.78763 10.259C4.76394 10.2699 4.7402 10.2861 4.71645 10.297C4.69271 10.3079 4.67374 10.3242 4.65 10.3405C3.80511 10.9711 4.30827 12.4445 4.88729 12.8686C4.66896 12.912 4.45063 12.9664 4.38896 13.0208L4.37945 13.0316C4.53502 13.1402 4.6986 13.233 4.86833 13.3089C5.10089 13.3959 5.34769 13.4719 5.45212 13.51V13.5155C5.7512 13.5862 6.05494 13.6134 6.36347 13.5916C7.96305 13.4611 9.2778 12.0693 9.51514 10.2263C9.5246 10.2644 9.52938 10.297 9.53883 10.3351C9.54834 10.4111 9.56258 10.4873 9.57209 10.5688V10.5743C9.58154 10.6123 9.58154 10.6504 9.58632 10.683V10.6993C9.59105 10.7374 9.59578 10.7754 9.59578 10.808C9.60056 10.8515 9.60529 10.9005 9.60529 10.944V11.0092C9.60529 11.031 9.61007 11.0527 9.61007 11.0744C9.61007 11.1016 9.60529 11.1234 9.60529 11.1505V11.2104C9.60529 11.2375 9.60056 11.2647 9.60056 11.2919C9.60056 11.3082 9.60056 11.3245 9.59583 11.3463C9.59583 11.3735 9.59105 11.4061 9.59105 11.4387C9.58632 11.4495 9.58632 11.4659 9.58632 11.4767C9.5816 11.5094 9.57687 11.5366 9.57687 11.5746C9.57687 11.5854 9.57687 11.6018 9.57209 11.6126C9.56736 11.6561 9.56263 11.6888 9.55785 11.7323V11.7431C9.5484 11.7812 9.54362 11.8193 9.53411 11.8573V11.8681C9.52465 11.9062 9.51987 11.9443 9.51036 11.9823C9.51036 11.9878 9.50563 11.9932 9.50563 11.9986C9.49618 12.0367 9.4914 12.0748 9.48189 12.1129V12.1237C9.47243 12.1672 9.45814 12.1998 9.45341 12.2379C9.44869 12.2433 9.44869 12.2487 9.44869 12.2487C9.43923 12.2922 9.42494 12.3303 9.41543 12.3738C9.4012 12.4173 9.39174 12.4499 9.37745 12.4934C9.36316 12.5369 9.35376 12.5749 9.33953 12.613C9.32529 12.6565 9.31105 12.6891 9.29682 12.7326H9.29203C9.2778 12.7706 9.26356 12.8087 9.2446 12.8468C9.23982 12.8576 9.23509 12.8686 9.23509 12.874C9.23036 12.8794 9.23036 12.8848 9.22563 12.8848C8.98829 13.4285 8.64172 13.9015 8.20985 14.2766C8.18138 14.2983 8.15291 14.3201 8.12443 14.3473C8.11493 14.3582 8.10542 14.3582 8.10069 14.369C8.07564 14.3921 8.0486 14.4121 8.02 14.4289L8.02945 14.456H8.03423C8.08645 14.4452 8.13389 14.4397 8.18611 14.4289H8.19083C8.28582 14.4126 8.38074 14.3908 8.47089 14.369C8.49463 14.3636 8.52316 14.3582 8.55158 14.3473C8.5706 14.3419 8.58483 14.3364 8.60385 14.3364C8.62754 14.331 8.65602 14.3255 8.67976 14.3201C8.70351 14.3092 8.72247 14.3092 8.74622 14.2983C9.10691 14.2005 9.45814 14.0646 9.79514 13.9015C9.22085 14.7985 8.45192 15.5271 7.55009 16C7.96771 15.9675 8.38127 15.8855 8.78414 15.7554C10.2414 15.2606 11.4659 14.1407 12.2016 12.6293C12.0545 13.5862 11.7223 14.4995 11.2286 15.2933C11.5799 15.0268 11.9026 14.7224 12.1921 14.3745C13.0038 13.4067 13.5354 12.1726 13.7157 10.8515C13.8392 11.5039 13.8771 12.1835 13.8202 12.8468C16.4308 8.67687 14.0385 4.34933 13.037 3.21304C13.0323 3.20222 13.0276 3.20222 13.0276 3.19132C13.0228 3.19674 13.0228 3.19674 13.0228 3.20215C13.0228 3.19674 13.0228 3.19674 13.018 3.19132C13.018 3.24024 13.0133 3.28916 13.0085 3.33808C12.9991 3.43598 12.9848 3.52293 12.9706 3.61535C12.9516 3.70778 12.9326 3.8002 12.9088 3.88721C12.8851 3.97422 12.8567 4.06664 12.8234 4.15359C12.7902 4.23512 12.757 4.32213 12.7143 4.40366C12.6743 4.48355 12.6316 4.56154 12.5861 4.63743C12.5386 4.71361 12.4864 4.78966 12.439 4.86036C12.3867 4.93648 12.325 5.00177 12.2681 5.06693C12.2301 5.10502 12.2016 5.13764 12.1637 5.17025C12.1352 5.19745 12.1114 5.22465 12.0782 5.25178C12.0118 5.31166 11.9501 5.36599 11.8741 5.41484C11.8077 5.46389 11.7318 5.51274 11.6605 5.55625C11.5846 5.59975 11.5087 5.63237 11.4327 5.67039C11.3567 5.70307 11.2761 5.73027 11.1954 5.7574C11.1147 5.78454 11.034 5.80091 10.9533 5.81721C10.8716 5.83309 10.7892 5.84398 10.7065 5.84983C10.6495 5.85524 10.5926 5.86066 10.5309 5.86066C10.4455 5.86066 10.3648 5.84983 10.2841 5.84441C10.1986 5.83352 10.1179 5.82263 10.0372 5.80091C9.9518 5.7846 9.87583 5.7574 9.79514 5.73021H9.79042C9.87111 5.71938 9.9518 5.7139 10.0278 5.69759C10.1132 5.68129 10.1891 5.65957 10.2698 5.63778C10.3505 5.61065 10.4312 5.58345 10.5071 5.55084C10.5878 5.51822 10.6638 5.47472 10.735 5.43663C10.8109 5.39319 10.8773 5.34968 10.9533 5.30076C11.0197 5.24637 11.091 5.19203 11.1574 5.13764C11.2238 5.07783 11.2856 5.01801 11.3426 4.95279C11.4042 4.89298 11.4565 4.82234 11.5134 4.75164C11.5656 4.67552 11.6178 4.60482 11.6653 4.5287C11.6747 4.51787 11.6795 4.50156 11.689 4.48526C11.7266 4.42012 11.7614 4.353 11.7935 4.2841C11.8314 4.20257 11.8694 4.12104 11.9026 4.03403C11.9359 3.94702 11.9643 3.86001 11.988 3.76759C12.0118 3.68064 12.0307 3.58822 12.0498 3.49579C12.064 3.39789 12.0782 3.31095 12.0877 3.21852C12.0972 3.12062 12.102 3.0282 12.102 2.93577C12.102 2.87055 12.0972 2.80532 12.0925 2.73462C12.083 2.63678 12.0735 2.54977 12.064 2.45735C12.0498 2.35951 12.0307 2.2725 12.0117 2.18014C11.988 2.09313 11.9596 2.00071 11.9311 1.9137C11.9026 1.82669 11.8646 1.73974 11.8314 1.65821C11.7935 1.57668 11.7507 1.49515 11.708 1.41355L11.5656 1.1852C11.5133 1.1145 11.4565 1.0438 11.3995 0.973156C11.371 0.940543 11.3377 0.902453 11.3045 0.869904C11.1431 0.723083 10.9723 0.587155 10.8014 0.462118C10.7777 0.445812 10.754 0.434984 10.7302 0.418614C10.6163 0.320776 10.5071 0.277335 10.3932 0.23383Z" fill="#FF1744"/>
</svg>
