<svg width="16" height="16" viewBox="0 0 16 16" fill="none" xmlns="http://www.w3.org/2000/svg">
<path d="M6.34473 5.32505L14.9319 7.99985L6.34473 2.30225V5.32505Z" fill="#004D40"/>
<path d="M10.6594 0H3.18021L1.33301 3.2H6.93301L10.6594 0Z" fill="#26A69A"/>
<path d="M14.9326 8L10.659 0L6.93262 3.2L14.9326 8Z" fill="#00897B"/>
<path d="M6.46191 13.6264L14.9319 8L6.46191 10.2512V13.6264Z" fill="#004D40"/>
<path d="M6.9335 10.8386L14.9335 7.99983L6.9327 5.16943L5.4375 7.99983L6.9335 10.8386Z" fill="#00897B"/>
<path d="M6.93301 5.16913L5.37061 4.62354L1.75541 7.99954L5.37061 11.3839L6.93301 10.8379V5.16913ZM6.93301 12.8079H1.33301L3.18021 15.9995H10.6594L6.93861 12.8043L6.93301 12.8079Z" fill="#26A69A"/>
<path d="M1.33301 3.19971L5.80661 4.77571L6.93301 3.19971H1.33301Z" fill="#00796B"/>
<path d="M6.93848 12.8048L10.6593 16L14.9329 8L6.93848 12.8048Z" fill="#00897B"/>
<path d="M6.93301 12.7998L5.84061 11.2202L1.33301 12.8082H6.93301V12.7998Z" fill="#00796B"/>
<path d="M6.93252 10.8381L5.37012 11.3841L6.93252 12.7997V10.8381ZM6.93252 3.19971L5.37012 4.62371L6.93252 5.16931V3.19971Z" fill="#00695C"/>
</svg>
