<svg width="16" height="16" viewBox="0 0 16 16" fill="none" xmlns="http://www.w3.org/2000/svg">
<path d="M2.1875 12.9147L2.28436 12.779L6.86636 4.08489L6.87604 3.99286L4.85619 0.198884C4.68697 -0.11893 4.21057 -0.0385757 4.15503 0.317192L2.1875 12.9147Z" fill="#FFC24A"/>
<path d="M2.24512 12.8114L2.31839 12.6686L6.85238 4.06552L4.83759 0.256113C4.67014 -0.0583702 4.24492 0.0217981 4.18996 0.373838L2.24512 12.8114Z" fill="#FFA712"/>
<path d="M8.34928 6.86283L9.8532 5.32259L8.34884 2.45076C8.20604 2.17892 7.80731 2.17813 7.66601 2.45076L6.8623 3.98359V4.11413L8.34928 6.86283Z" fill="#F4BD62"/>
<path d="M8.32159 6.79865L9.78368 5.30124L8.32159 2.51717C8.18276 2.25289 7.84547 2.22521 7.70811 2.49025L6.90013 4.04683L6.87598 4.1264L8.32159 6.79865Z" fill="#FFA50E"/>
<path d="M2.1875 12.9147L2.23141 12.8706L2.39093 12.8057L8.25403 6.96442L8.32831 6.76221L6.86571 3.9751L2.1875 12.9147Z" fill="#F6820C"/>
<path d="M8.5363 15.8605L13.8425 12.9012L12.3273 3.56903C12.2799 3.27706 11.9216 3.16162 11.7127 3.37098L2.1875 12.9146L7.4633 15.8602C7.79672 16.0464 8.2028 16.0465 8.5363 15.8605Z" fill="#FDE068"/>
<path d="M13.7948 12.8763L12.291 3.61501C12.2439 3.32525 11.9461 3.20534 11.7387 3.41311L2.24609 12.8964L7.46395 15.8129C7.79484 15.9977 8.19783 15.9978 8.5288 15.8132L13.7948 12.8763Z" fill="#FCCA3F"/>
<path d="M8.5363 15.7734C8.2028 15.9594 7.79672 15.9593 7.4633 15.7731L2.22999 12.8698L2.1875 12.9147L7.4633 15.8603C7.79672 16.0465 8.2028 16.0466 8.5363 15.8606L13.8425 12.9012L13.8295 12.8213L8.5363 15.7734Z" fill="#EEAB37"/>
</svg>
