<svg width="16" height="16" viewBox="0 0 16 16" fill="none" xmlns="http://www.w3.org/2000/svg">
<g clip-path="url(#clip0_598_15967)">
<path d="M1.25 0H14.75C15.4404 0 16 0.559644 16 1.25V14.75C16 15.4404 15.4404 16 14.75 16H1.25C0.559644 16 0 15.4404 0 14.75V1.25C0 0.559644 0.559644 0 1.25 0Z" fill="#3178C6"/>
<path d="M9.40738 12.5297V14.2559C9.68813 14.3998 10.0202 14.5077 10.4035 14.5796C10.7868 14.6516 11.1908 14.6875 11.6156 14.6875C12.0294 14.6875 12.4227 14.6479 12.7952 14.5688C13.1677 14.4897 13.4944 14.3593 13.7751 14.1777C14.0558 13.9961 14.2781 13.7587 14.4419 13.4656C14.6056 13.1726 14.6875 12.8103 14.6875 12.3787C14.6875 12.0658 14.6407 11.7916 14.5471 11.556C14.4536 11.3204 14.3186 11.1109 14.1422 10.9276C13.9659 10.7441 13.7544 10.5796 13.5079 10.4339C13.2613 10.2883 12.9833 10.1508 12.6737 10.0213C12.4469 9.92775 12.2436 9.837 12.0636 9.74887C11.8837 9.66075 11.7307 9.57087 11.6047 9.47913C11.4787 9.38744 11.3816 9.29031 11.3132 9.18781C11.2448 9.08531 11.2106 8.96938 11.2106 8.83988C11.2106 8.72119 11.2412 8.61425 11.3024 8.51894C11.3636 8.42362 11.45 8.34181 11.5616 8.2735C11.6731 8.20513 11.8099 8.15212 11.9719 8.11431C12.1338 8.07656 12.3138 8.05769 12.5118 8.05769C12.6558 8.05769 12.8078 8.0685 12.9679 8.09006C13.1281 8.11162 13.2892 8.14487 13.4512 8.18987C13.6131 8.23481 13.7706 8.29144 13.9236 8.35981C14.0765 8.42813 14.2178 8.50725 14.3474 8.59713V6.98419C14.0846 6.8835 13.7976 6.80888 13.4862 6.76031C13.1749 6.71175 12.8177 6.6875 12.4146 6.6875C12.0042 6.6875 11.6156 6.73156 11.2484 6.81969C10.8813 6.90775 10.5582 7.04531 10.2793 7.23231C10.0004 7.41938 9.77994 7.65762 9.61794 7.94712C9.456 8.23662 9.375 8.58275 9.375 8.98556C9.375 9.49981 9.52344 9.93856 9.82044 10.3018C10.1174 10.665 10.5681 10.9725 11.1728 11.2242C11.4104 11.3214 11.6318 11.4166 11.8369 11.5102C12.0421 11.6037 12.2193 11.7007 12.3687 11.8014C12.5181 11.9021 12.6359 12.0118 12.7223 12.1305C12.8087 12.2492 12.8519 12.3841 12.8519 12.5351C12.8519 12.6466 12.8249 12.75 12.7709 12.8453C12.7169 12.9406 12.635 13.0233 12.5253 13.0934C12.4155 13.1636 12.2787 13.2184 12.1149 13.2579C11.9512 13.2975 11.7595 13.3173 11.5399 13.3173C11.1656 13.3173 10.7949 13.2517 10.4278 13.1204C10.0606 12.9891 9.7205 12.7923 9.40738 12.5297ZM6.53013 8.23388H8.75V6.8125H2.5625V8.23388H4.77154V14.5625H6.53013V8.23388Z" fill="white"/>
</g>
<defs>
<clipPath id="clip0_598_15967">
<rect width="16" height="16" fill="white"/>
</clipPath>
</defs>
</svg>
