<svg width="16" height="16" viewBox="0 0 16 16" fill="none" xmlns="http://www.w3.org/2000/svg">
<g clip-path="url(#clip0_598_15941)">
<path d="M3.55563 0C3.64938 0 12.2619 0 12.4181 0C12.8494 0 13.2681 0.06875 13.6744 0.2125C14.2619 0.425 14.7931 0.8 15.1931 1.2875C15.5994 1.775 15.8681 2.375 15.9619 3C15.9994 3.23125 16.0056 3.4625 16.0056 3.69375C16.0056 3.90625 16.0056 11.3938 16.0056 11.7312C16.0056 11.9312 16.0056 12.1375 16.0056 12.3375C16.0056 12.6125 15.9931 12.8938 15.9369 13.1625C15.8119 13.7812 15.5181 14.3625 15.0931 14.8313C14.6744 15.3 14.1244 15.65 13.5306 15.8375C13.1681 15.95 12.7931 16 12.4119 16C12.2431 16 3.53063 16 3.39938 15.9937C2.76188 15.9625 2.13063 15.7562 1.59938 15.4C1.08063 15.05 0.655626 14.5625 0.380626 14C0.143126 13.5188 0.0243758 12.9813 0.0243758 12.4438C0.0243758 12.3188 0.0243758 3.68125 0.0243758 3.55625C0.0118758 3.025 0.124376 2.5 0.355626 2.025C0.624376 1.4625 1.04313 0.96875 1.56188 0.61875C2.09313 0.25625 2.71813 0.04375 3.35563 0.0125C3.41813 0 3.48688 0 3.55563 0Z" fill="url(#paint0_linear_598_15941)"/>
<path d="M13.5 13.0875C13.4438 13 13.3813 12.9125 13.3125 12.8313C13.1562 12.6438 12.975 12.4813 12.775 12.3438C12.525 12.175 12.2312 12.0688 11.9312 12.0563C11.7188 12.0438 11.5062 12.0813 11.3062 12.1563C11.1062 12.225 10.9125 12.325 10.725 12.425C10.5063 12.5375 10.2875 12.65 10.0562 12.7438C9.78125 12.8563 9.49375 12.9438 9.2 13.0063C8.83125 13.075 8.45625 13.1 8.0875 13.0938C7.41875 13.0813 6.75 12.9813 6.1125 12.7938C5.55 12.625 5.0125 12.3938 4.50625 12.1C4.0625 11.8438 3.65 11.55 3.2625 11.2188C2.94375 10.9438 2.65 10.65 2.375 10.3375C2.1875 10.1188 2.00625 9.8875 1.8375 9.65C1.76875 9.55625 1.70625 9.45625 1.65 9.35625L0 7.575V3.54375C0 1.5875 1.58125 0 3.5375 0H6.69375L9.03125 2.375C14.3062 5.9625 12.6 9.91875 12.6 9.91875C12.6 9.91875 14.1 11.6063 13.5 13.0875Z" fill="url(#paint1_linear_598_15941)"/>
<path d="M9.04316 2.375C14.3182 5.9625 12.6119 9.91875 12.6119 9.91875C12.6119 9.91875 14.1119 11.6125 13.5057 13.0938C13.5057 13.0938 12.8869 12.0562 11.8494 12.0562C10.8494 12.0562 10.2619 13.0938 8.24941 13.0938C3.76816 13.0938 1.64941 9.35 1.64941 9.35C5.68691 12.0063 8.44316 10.125 8.44316 10.125C6.62441 9.06875 2.75566 4.01875 2.75566 4.01875C6.12441 6.8875 7.58066 7.64375 7.58066 7.64375C6.71191 6.925 4.27441 3.4125 4.27441 3.4125C6.22441 5.3875 10.0994 8.14375 10.0994 8.14375C11.1994 5.09375 9.04316 2.375 9.04316 2.375Z" fill="white"/>
</g>
<defs>
<linearGradient id="paint0_linear_598_15941" x1="9.5175" y1="-0.570925" x2="6.49458" y2="16.5729" gradientUnits="userSpaceOnUse">
<stop stop-color="#FAAE42"/>
<stop offset="1" stop-color="#EF3E31"/>
</linearGradient>
<linearGradient id="paint1_linear_598_15941" x1="8.16323" y1="0.258519" x2="5.95081" y2="12.8058" gradientUnits="userSpaceOnUse">
<stop stop-color="#E39F3A"/>
<stop offset="1" stop-color="#D33929"/>
</linearGradient>
<clipPath id="clip0_598_15941">
<rect width="16" height="16" fill="white"/>
</clipPath>
</defs>
</svg>
