<svg width="16" height="16" viewBox="0 0 16 16" fill="none" xmlns="http://www.w3.org/2000/svg">
<g clip-path="url(#clip0_598_15952)">
<path d="M18.7651 18.6954C19.5934 18.3451 20.5809 18.2176 21.8552 18.2494C21.8194 18.0109 21.364 17.7277 21.0304 17.5203C20.9184 17.4506 20.8202 17.3895 20.7561 17.3415C20.2464 16.9752 19.7048 16.5928 19.1633 16.2584C18.9888 16.1518 18.7376 16.0629 18.496 15.9773C18.3405 15.9222 18.1889 15.8685 18.0642 15.8124C17.9367 15.7605 17.7632 15.7086 17.5758 15.6525C17.1307 15.5193 16.6077 15.3628 16.4395 15.1275C16.0064 14.5645 15.7041 13.8836 15.4023 13.2037C15.3711 13.1334 15.3399 13.0632 15.3086 12.9931C15.1506 12.6319 14.9748 12.2637 14.7981 11.8933C14.6006 11.4797 14.402 11.0634 14.2255 10.6516C14.1486 10.4839 14.0901 10.3253 14.0325 10.1692C13.9589 9.96956 13.8868 9.774 13.7795 9.56849C12.6166 7.32263 10.8965 5.443 8.80983 4.12097C8.12482 3.69088 7.36038 3.29257 6.5161 3.02187C6.25828 2.94456 5.97266 2.93211 5.68422 2.91954C5.43806 2.90882 5.18985 2.898 4.95514 2.8467H4.62058C4.42746 2.79305 4.256 2.63818 4.09651 2.49412C4.01925 2.42433 3.94479 2.35707 3.87203 2.30509C3.37819 1.97064 2.88445 1.7475 2.29508 1.50867C2.08804 1.41314 1.49867 1.19011 1.29162 1.36538C1.16411 1.39726 1.10046 1.44502 1.06858 1.57243C0.941175 1.76359 1.05279 2.05028 1.13234 2.22545C1.29022 2.56228 1.48986 2.80869 1.69443 3.0612C1.79945 3.19083 1.90576 3.32206 2.0084 3.46795C2.05742 3.53714 2.10853 3.60789 2.1605 3.67984C2.3956 4.00533 2.64826 4.35513 2.80482 4.69435C3.02573 5.17025 3.1832 5.67334 3.34009 6.17458C3.47728 6.61291 3.61404 7.04982 3.7924 7.46593C3.93569 7.80048 4.15873 8.1827 4.36578 8.48538C4.43071 8.57395 4.51537 8.65376 4.60107 8.73456C4.74655 8.8717 4.89503 9.01168 4.95515 9.20216C5.11005 9.4603 4.82566 10.1995 4.65286 10.6487C4.61242 10.7538 4.57809 10.8431 4.55694 10.9065C4.14274 12.2126 4.22238 14.0284 4.70023 15.1593C4.71731 15.1992 4.73426 15.2396 4.75134 15.2804C4.92538 15.6961 5.1122 16.1423 5.57629 16.2584C5.59073 16.244 5.59211 16.2394 5.59521 16.2371C5.59896 16.2345 5.60522 16.2353 5.64005 16.2265C5.66336 16.0434 5.68319 15.8617 5.70274 15.6826C5.77675 15.0046 5.84676 14.3631 6.08602 13.8214C6.20003 13.5416 6.3881 13.3158 6.5714 13.0957C6.66991 12.9774 6.76705 12.8607 6.85056 12.7383C6.95165 12.7989 6.98859 12.9365 7.02653 13.0778C7.04837 13.1592 7.07054 13.2418 7.10548 13.3117C7.12052 13.3475 7.13564 13.3836 7.15085 13.42C7.34509 13.8838 7.55407 14.3829 7.79038 14.8407C8.31599 15.8602 8.90546 16.8477 9.57437 17.7397C9.79731 18.0583 10.116 18.4087 10.4027 18.6954C10.4463 18.7336 10.4917 18.7661 10.5365 18.7982C10.6226 18.8598 10.7061 18.9197 10.769 19.014H10.8009V19.0619C10.4985 18.9509 10.2663 18.7124 10.0396 18.4796C9.90808 18.3445 9.77843 18.2114 9.63803 18.1062C8.92126 17.5645 8.06118 16.7521 7.56734 15.9717C7.41181 15.6367 7.2473 15.3106 7.08053 14.9801C7.02529 14.8706 6.96981 14.7606 6.91432 14.6497C6.91432 14.6497 6.9144 14.6337 6.91432 14.6178C6.85345 14.699 6.84431 14.7801 6.8333 14.8778C6.82704 14.9334 6.82017 14.9944 6.8028 15.0638C6.74376 15.2909 6.71451 15.527 6.68624 15.7553C6.61536 16.3275 6.55065 16.8499 6.03826 17.0548C5.22595 17.3894 4.62059 16.5131 4.36578 16.115C3.55347 14.793 3.33043 12.563 3.90381 10.7631C3.94817 10.6246 3.97904 10.4764 4.00981 10.3287C4.06749 10.0517 4.12487 9.77623 4.27025 9.56849C4.23829 9.37707 4.12828 9.27791 4.02077 9.181C3.96726 9.13277 3.91438 9.0851 3.87204 9.02689C3.649 8.72431 3.45794 8.37387 3.28267 8.03941C3.02799 7.54222 2.82879 6.97115 2.63573 6.4177C2.57518 6.24412 2.51524 6.07226 2.45437 5.90497C2.4 5.76519 2.36459 5.62537 2.32964 5.48741C2.29292 5.3424 2.25671 5.19945 2.19956 5.06078C2.04899 4.73453 1.79965 4.40833 1.56817 4.1055C1.50577 4.02387 1.44467 3.94393 1.38715 3.86615C1.3251 3.7771 1.24294 3.67389 1.15135 3.55884C0.70224 2.99465 0.0264535 2.14571 0.383689 1.28574C1.0527 -0.354865 3.39429 0.887429 4.30203 1.46091C4.3928 1.51927 4.48886 1.604 4.58803 1.69148C4.73254 1.81895 4.88369 1.95227 5.03479 2.0184C5.23394 2.0264 5.43311 2.03834 5.63227 2.05029C5.83134 2.06223 6.03041 2.07416 6.22942 2.08216C6.29463 2.09742 6.35948 2.11243 6.42392 2.12736C7.09931 2.28376 7.7302 2.42986 8.26823 2.73518C11.0079 4.344 12.7919 5.98461 14.4325 8.69243C14.6553 9.05684 14.8072 9.4406 14.962 9.8314C15.0507 10.0555 15.1404 10.2819 15.2448 10.5083C15.643 11.4321 16.0892 12.4036 16.551 13.2798C16.609 13.3959 16.6633 13.5158 16.7178 13.6359C16.8574 13.9442 16.9977 14.2541 17.2041 14.5063C17.2783 14.6123 17.4442 14.6689 17.6033 14.7231C17.6832 14.7503 17.7614 14.777 17.8253 14.809C18.0313 14.9151 18.2544 15.0114 18.4794 15.1085C18.8283 15.2592 19.1816 15.4117 19.4818 15.6054C20.4057 16.1788 21.2977 16.8636 22.11 17.5646C22.2742 17.7115 22.4103 17.8912 22.5462 18.0707C22.6608 18.222 22.7753 18.3732 22.9064 18.5044V18.6477C22.6516 18.7273 22.3967 18.8069 22.1419 18.8707C21.8646 18.942 21.6031 18.9699 21.3437 18.9976C21.0814 19.0256 20.8213 19.0534 20.5491 19.1255C20.5147 19.1353 20.4796 19.1455 20.4437 19.1558C20.1302 19.2463 19.7645 19.3518 19.45 19.3804C19.4659 19.3963 19.4818 19.4122 19.4818 19.4122C19.6354 19.8492 20.2882 20.2249 20.8232 20.5328C21.0097 20.6402 21.1819 20.7393 21.3136 20.8299C21.9348 21.2758 22.5082 21.8174 22.9702 22.4386C23.0496 22.518 23.129 22.5935 23.2085 22.6689C23.2883 22.7448 23.3682 22.8207 23.448 22.9006C23.502 22.9777 23.5373 23.066 23.572 23.1529C23.609 23.2454 23.6453 23.3363 23.7029 23.4103V23.458C23.5635 23.4083 23.4677 23.3087 23.3727 23.21C23.3157 23.1507 23.2589 23.0917 23.1931 23.044C23.0431 22.9417 22.8931 22.8306 22.7431 22.7195C22.5428 22.5711 22.3424 22.4227 22.1419 22.2953C21.8337 22.1006 21.5007 21.9473 21.166 21.7931C20.8435 21.6446 20.5194 21.4954 20.2145 21.3077C19.8642 21.0847 19.5296 20.8299 19.1951 20.5751C18.8925 20.352 18.5581 19.9218 18.3668 19.6034C18.3186 19.5277 18.2883 19.446 18.2591 19.3674C18.2207 19.2641 18.1843 19.166 18.1119 19.0936C18.1358 18.8674 18.3556 18.8102 18.5649 18.7559C18.6354 18.7375 18.7048 18.7195 18.7651 18.6954Z" fill="#00546B"/>
<path d="M4.95507 4.4873C5.14623 4.43953 5.33729 4.40755 5.60809 4.40755C5.65858 4.45808 5.72158 4.50107 5.78519 4.54448C5.88213 4.61063 5.9805 4.67776 6.03818 4.77399C6.07356 4.82353 6.09636 4.87308 6.11916 4.92263C6.14768 4.9846 6.1762 5.04657 6.22934 5.10854C6.22934 5.49077 6.11792 5.74558 5.89478 5.90496C5.89478 5.90496 5.8789 5.92085 5.86301 5.93684C5.79935 5.80957 5.7397 5.6823 5.68005 5.55504C5.62023 5.42741 5.56042 5.29979 5.49657 5.1722C5.43455 5.08539 5.36289 5.0058 5.29097 4.92593C5.1782 4.8007 5.0648 4.67476 4.98695 4.51918H4.95507V4.4873Z" fill="#00546B"/>
</g>
<defs>
<clipPath id="clip0_598_15952">
<rect width="16" height="16" fill="white"/>
</clipPath>
</defs>
</svg>
