<svg width="16" height="16" viewBox="0 0 16 16" fill="none" xmlns="http://www.w3.org/2000/svg">
<path d="M4.50853 6.69365C4.50853 6.89054 4.52981 7.05018 4.56706 7.16725C4.60964 7.28432 4.66285 7.41204 4.73735 7.5504C4.76396 7.59297 4.7746 7.63554 4.7746 7.67279C4.7746 7.726 4.74267 7.77922 4.67349 7.83243L4.33824 8.05593C4.29035 8.08786 4.24246 8.10382 4.19988 8.10382C4.14667 8.10382 4.09346 8.07722 4.04024 8.02932C3.96574 7.9495 3.90188 7.86436 3.84867 7.77922C3.79546 7.68875 3.74224 7.58765 3.68371 7.46525C3.26863 7.95482 2.74713 8.19961 2.11921 8.19961C1.6722 8.19961 1.31567 8.0719 1.05492 7.81647C0.794169 7.56104 0.661133 7.22047 0.661133 6.79475C0.661133 6.34243 0.820776 5.97525 1.14538 5.69854C1.46999 5.42182 1.90103 5.28347 2.44913 5.28347C2.63006 5.28347 2.81631 5.29943 3.01321 5.32604C3.2101 5.35264 3.41231 5.39522 3.62517 5.44311V5.05464C3.62517 4.65022 3.54003 4.36818 3.37506 4.20321C3.20478 4.03825 2.91742 3.95843 2.50767 3.95843C2.32142 3.95843 2.12985 3.97971 1.93296 4.02761C1.73606 4.0755 1.54449 4.13404 1.35824 4.20854C1.2731 4.24579 1.20924 4.26707 1.17199 4.27771C1.13474 4.28836 1.10813 4.29368 1.08685 4.29368C1.01235 4.29368 0.975097 4.24046 0.975097 4.12871V3.86796C0.975097 3.78282 0.98574 3.71896 1.01235 3.68171C1.03895 3.64446 1.08685 3.60721 1.16135 3.56996C1.3476 3.47418 1.5711 3.39436 1.83185 3.3305C2.0926 3.26132 2.36931 3.22939 2.66199 3.22939C3.29524 3.22939 3.75821 3.37307 4.05621 3.66043C4.34888 3.94779 4.49789 4.38414 4.49789 4.9695V6.69365H4.50853ZM2.34803 7.5025C2.52363 7.5025 2.70456 7.47057 2.89613 7.40672C3.08771 7.34286 3.25799 7.22579 3.40167 7.06615C3.48681 6.96504 3.55067 6.85329 3.5826 6.72557C3.61453 6.59786 3.63581 6.44354 3.63581 6.26261V6.03911C3.48149 6.00186 3.31653 5.96993 3.14624 5.94864C2.97596 5.92736 2.81099 5.91672 2.64603 5.91672C2.28949 5.91672 2.02874 5.98589 1.85313 6.12957C1.67753 6.27325 1.59238 6.47547 1.59238 6.74154C1.59238 6.99165 1.65624 7.1779 1.78928 7.30561C1.91699 7.43865 2.10324 7.5025 2.34803 7.5025ZM6.62114 8.07722C6.52535 8.07722 6.46149 8.06125 6.41892 8.024C6.37635 7.99207 6.3391 7.91757 6.30717 7.81647L5.05664 3.703C5.02471 3.59657 5.00874 3.52739 5.00874 3.49014C5.00874 3.405 5.05131 3.35711 5.13646 3.35711H5.65796C5.75906 3.35711 5.82824 3.37307 5.86549 3.41032C5.90806 3.44225 5.93999 3.51675 5.97192 3.61786L6.86592 7.14065L7.69607 3.61786C7.72267 3.51143 7.7546 3.44225 7.79717 3.41032C7.83974 3.37839 7.91424 3.35711 8.01003 3.35711H8.43574C8.53685 3.35711 8.60603 3.37307 8.6486 3.41032C8.69117 3.44225 8.72842 3.51675 8.74971 3.61786L9.5905 7.18322L10.5111 3.61786C10.543 3.51143 10.5803 3.44225 10.6175 3.41032C10.6601 3.37839 10.7293 3.35711 10.8251 3.35711H11.32C11.4051 3.35711 11.453 3.39968 11.453 3.49014C11.453 3.51675 11.4477 3.54336 11.4424 3.57529C11.437 3.60721 11.4264 3.64979 11.4051 3.70832L10.1226 7.82179C10.0907 7.92822 10.0535 7.9974 10.0109 8.02932C9.96832 8.06125 9.89914 8.08254 9.80867 8.08254H9.35103C9.24992 8.08254 9.18075 8.06657 9.13817 8.02932C9.0956 7.99207 9.05835 7.9229 9.03707 7.81647L8.21224 4.38414L7.39274 7.81115C7.36614 7.91757 7.33421 7.98675 7.29164 8.024C7.24907 8.06125 7.17457 8.07722 7.07878 8.07722H6.62114ZM13.4592 8.2209C13.1825 8.2209 12.9057 8.18897 12.6397 8.12511C12.3736 8.06125 12.1661 7.99207 12.0277 7.91225C11.9426 7.86436 11.884 7.81115 11.8627 7.76325C11.8415 7.71536 11.8308 7.66215 11.8308 7.61425V7.34286C11.8308 7.23111 11.8734 7.1779 11.9532 7.1779C11.9851 7.1779 12.0171 7.18322 12.049 7.19386C12.0809 7.2045 12.1288 7.22579 12.182 7.24707C12.363 7.3269 12.5599 7.39075 12.7674 7.43332C12.9802 7.4759 13.1878 7.49718 13.4006 7.49718C13.7359 7.49718 13.9966 7.43865 14.1776 7.32157C14.3585 7.2045 14.4543 7.03422 14.4543 6.81604C14.4543 6.66704 14.4064 6.54465 14.3106 6.44354C14.2148 6.34243 14.0339 6.25197 13.7731 6.16682L13.0015 5.92736C12.6131 5.80497 12.3257 5.62404 12.1501 5.38457C11.9745 5.15043 11.884 4.88968 11.884 4.61297C11.884 4.38946 11.9319 4.19257 12.0277 4.02229C12.1235 3.852 12.2512 3.703 12.4109 3.58593C12.5705 3.46354 12.7514 3.37307 12.9643 3.30921C13.1771 3.24536 13.4006 3.21875 13.6348 3.21875C13.7519 3.21875 13.8742 3.22407 13.9913 3.24004C14.1137 3.256 14.2255 3.27729 14.3372 3.29857C14.4436 3.32518 14.5447 3.35179 14.6405 3.38371C14.7363 3.41564 14.8108 3.44757 14.864 3.4795C14.9385 3.52207 14.9917 3.56464 15.0237 3.61254C15.0556 3.65511 15.0716 3.71364 15.0716 3.78814V4.03825C15.0716 4.15 15.029 4.20854 14.9492 4.20854C14.9066 4.20854 14.8374 4.18725 14.747 4.14468C14.4436 4.00632 14.1031 3.93714 13.7252 3.93714C13.4219 3.93714 13.1825 3.98504 13.0175 4.08614C12.8525 4.18725 12.7674 4.34157 12.7674 4.55975C12.7674 4.70875 12.8206 4.83647 12.927 4.93757C13.0335 5.03868 13.2304 5.13979 13.5124 5.23025L14.268 5.46972C14.6512 5.59211 14.9279 5.76239 15.0929 5.98057C15.2578 6.19875 15.3376 6.44886 15.3376 6.72557C15.3376 6.9544 15.2897 7.16193 15.1993 7.34286C15.1035 7.52379 14.9758 7.68343 14.8108 7.81115C14.6459 7.94418 14.449 8.03997 14.2201 8.10915C13.9807 8.18365 13.7306 8.2209 13.4592 8.2209Z" fill="#252F3E"/>
<path d="M14.4654 10.807C12.7146 12.1002 10.171 12.7866 7.98385 12.7866C4.91871 12.7866 2.15688 11.6532 0.0708824 9.76936C-0.094082 9.62036 0.0549181 9.41815 0.251811 9.53522C2.5081 10.8443 5.29121 11.6372 8.1701 11.6372C10.1124 11.6372 12.2463 11.2328 14.2099 10.4026C14.5026 10.2696 14.7527 10.5942 14.4654 10.807ZM15.1944 9.9769C14.9709 9.68954 13.715 9.83854 13.1456 9.90772C12.9754 9.92901 12.9487 9.78001 13.1031 9.66826C14.1035 8.96583 15.7478 9.16804 15.9394 9.40219C16.131 9.64165 15.8862 11.286 14.9496 12.0735C14.8059 12.1959 14.6676 12.1321 14.7314 11.9724C14.9443 11.4456 15.4179 10.2589 15.1944 9.9769Z" fill="#FF9900"/>
</svg>
