<svg width="17" height="17" viewBox="0 0 17 17" fill="none" xmlns="http://www.w3.org/2000/svg">
<g clip-path="url(#clip0_598_15960)">
<path fill-rule="evenodd" clip-rule="evenodd" d="M15.6982 7.28723L8.71238 0.301784C8.31036 -0.100595 7.65782 -0.100595 7.25528 0.301784L5.80467 1.75242L7.64483 3.59262C8.07248 3.44813 8.56281 3.54504 8.90373 3.88597C9.24624 4.22901 9.34244 4.72356 9.19445 5.15263L10.9679 6.92611C11.397 6.77829 11.892 6.87397 12.2347 7.21719C12.7136 7.69593 12.7136 8.4719 12.2347 8.951C11.7556 9.43009 10.9797 9.43009 10.5004 8.951C10.1402 8.5904 10.0512 8.06127 10.2336 7.61746L8.57966 5.96353L8.57948 10.316C8.69623 10.3739 8.80648 10.451 8.90373 10.5479C9.38265 11.0266 9.38265 11.8026 8.90373 12.282C8.42464 12.761 7.64834 12.761 7.16996 12.282C6.69104 11.8026 6.69104 11.0266 7.16996 10.5479C7.28828 10.4297 7.42521 10.3404 7.57127 10.2803V5.88733C7.42521 5.82765 7.28846 5.73881 7.16996 5.61978C6.80708 5.25743 6.71983 4.72497 6.90575 4.2794L5.09192 2.46518L0.30191 7.25493C-0.100637 7.65766 -0.100637 8.31021 0.30191 8.71259L7.28775 15.6982C7.68995 16.1006 8.34231 16.1006 8.74503 15.6982L15.6982 8.74507C16.1006 8.34251 16.1006 7.68961 15.6982 7.28723Z" fill="#DE4C36"/>
</g>
<defs>
<clipPath id="clip0_598_15960">
<rect width="16" height="16" fill="white" transform="translate(0.28125 0.328125)"/>
</clipPath>
</defs>
</svg>
