<svg width="16" height="16" viewBox="0 0 16 16" fill="none" xmlns="http://www.w3.org/2000/svg">
<g clip-path="url(#clip0_598_15947)">
<path fill-rule="evenodd" clip-rule="evenodd" d="M9.36195 1.83357L12.6519 3.73309C12.7445 3.63496 12.8528 3.54832 12.9755 3.47702C13.6578 3.08478 14.5281 3.31767 14.9244 4C15.3167 4.68233 15.0838 5.5526 14.4015 5.94893C14.2796 6.01895 14.1517 6.06906 14.0215 6.10023V9.90075C14.1503 9.93199 14.2768 9.98178 14.3974 10.0511C15.0838 10.4474 15.3167 11.3177 14.9204 12C14.5281 12.6823 13.6538 12.9152 12.9714 12.523C12.8356 12.4449 12.7176 12.3477 12.6187 12.2367L9.34883 14.1246C9.39557 14.2659 9.42087 14.417 9.42087 14.5741C9.42087 15.3585 8.78348 16 7.99492 16C7.20636 16 6.56898 15.3626 6.56898 14.5741C6.56898 14.4339 6.58911 14.2985 6.62666 14.1706L3.33757 12.2716C3.24592 12.3678 3.13921 12.4528 3.01841 12.523C2.332 12.9152 1.46172 12.6823 1.06949 12C0.67725 11.3177 0.910141 10.4474 1.59247 10.0511C1.71311 9.98172 1.83963 9.93191 1.96836 9.90068V6.10023C1.83814 6.06906 1.7102 6.01895 1.58838 5.94893C0.906055 5.55669 0.673164 4.68233 1.0654 4C1.45764 3.31767 2.332 3.08478 3.01433 3.47702C3.13642 3.54793 3.24412 3.63402 3.33642 3.73149L6.62727 1.83146C6.58933 1.70297 6.56898 1.56687 6.56898 1.42594C6.56898 0.637385 7.20636 0 7.99492 0C8.78348 0 9.42087 0.637385 9.42087 1.42594C9.42087 1.56764 9.40028 1.70446 9.36195 1.83357ZM9.01917 2.41882L12.317 4.32286C12.215 4.68089 12.2524 5.07787 12.4525 5.42594C12.6533 5.77515 12.9803 6.00664 13.3432 6.09686V9.90213C13.3247 9.90667 13.3063 9.91158 13.288 9.91685L8.98088 2.45685C8.99388 2.44442 9.00665 2.43174 9.01917 2.41882ZM7.00986 2.45771L2.70278 9.91759C2.68416 9.91218 2.66543 9.90715 2.64661 9.9025V6.09686C3.00954 6.00664 3.33657 5.77515 3.53731 5.42594C3.7378 5.07718 3.77496 4.67932 3.67227 4.32074L6.96914 2.41723C6.98244 2.431 6.99602 2.44449 7.00986 2.45771ZM8.39334 2.79567L12.6995 10.2538C12.6031 10.3457 12.5181 10.4528 12.4484 10.5741C12.3792 10.6946 12.3294 10.8211 12.2981 10.9499H3.69179C3.66056 10.8212 3.61075 10.6947 3.5414 10.5741C3.47142 10.4536 3.38666 10.3471 3.29077 10.2556L7.5977 2.79602C7.72375 2.8324 7.85702 2.85189 7.99492 2.85189C8.13326 2.85189 8.26694 2.83227 8.39334 2.79567ZM9.04945 13.6134L12.3258 11.7217C12.316 11.6909 12.3072 11.6597 12.2995 11.6282H3.68997C3.6854 11.6467 3.68047 11.6651 3.67517 11.6834L6.96764 13.5843C7.22688 13.3153 7.59107 13.1481 7.99492 13.1481C8.41313 13.1481 8.78881 13.3274 9.04945 13.6134Z" fill="#E535AB"/>
</g>
<defs>
<clipPath id="clip0_598_15947">
<rect width="16" height="16" fill="white"/>
</clipPath>
</defs>
</svg>
