<svg width="138" height="138" viewBox="0 0 138 138" fill="none" xmlns="http://www.w3.org/2000/svg">
<path d="M69 2.07339C69 0.92829 68.0713 -0.00325261 66.9267 0.0311456C54.0054 0.419469 41.4373 4.43121 30.6657 11.6286C19.3187 19.2104 10.4748 29.9867 5.25231 42.5948C0.0298657 55.2029 -1.33656 69.0765 1.32582 82.4612C3.9882 95.8459 10.5598 108.141 20.2096 117.79C29.8595 127.44 42.1541 134.012 55.5388 136.674C68.9235 139.337 82.7971 137.97 95.4052 132.748C108.013 127.525 118.79 118.681 126.371 107.334C133.569 96.5627 137.581 83.9946 137.969 71.0733C138.003 69.9287 137.072 69 135.927 69C134.781 69 133.857 69.9287 133.82 71.0732C133.433 83.1742 129.665 94.9408 122.923 105.031C115.797 115.696 105.669 124.008 93.8183 128.917C81.9679 133.825 68.9281 135.109 56.3478 132.607C43.7675 130.105 32.2117 123.928 23.1419 114.858C14.072 105.788 7.8953 94.2325 5.39293 81.6522C2.89055 69.0719 4.17486 56.0321 9.08345 44.1818C13.992 32.3314 22.3044 22.2027 32.9695 15.0765C43.0592 8.33482 54.8258 4.56686 66.9268 4.17993C68.0713 4.14333 69 3.2185 69 2.07339Z" fill="#0066FF"/>
<ellipse cx="68.5485" cy="69.5507" rx="35.5504" ry="35.5507" fill="#237BFF"/>
<path d="M51.2843 65.7852C45.4077 65.7852 40.6289 70.566 40.6289 76.4406C40.6289 82.3153 45.4097 87.0961 51.2843 87.0961C57.1589 87.0961 61.9397 82.3153 61.9397 76.4406C61.9397 70.566 57.1589 65.7852 51.2843 65.7852ZM51.2843 84.6387C46.7651 84.6387 43.0883 80.962 43.0883 76.4427C43.0883 71.9234 46.7651 68.2467 51.2843 68.2467C55.8035 68.2467 59.4803 71.9234 59.4803 76.4427C59.4803 80.962 55.8035 84.6387 51.2843 84.6387Z" fill="white"/>
<path d="M51.3093 68.2695C46.79 68.2695 43.1133 71.9463 43.1133 76.4656C43.1133 80.9848 46.79 84.6616 51.3093 84.6616C55.8285 84.6616 59.5052 80.9848 59.5052 76.4656C59.5052 71.9463 55.8285 68.2695 51.3093 68.2695Z" fill="#237BFF"/>
<path d="M100.706 48.5977C94.8295 48.5977 90.0508 53.3785 90.0508 59.2531C90.0508 65.1278 94.8316 69.9086 100.706 69.9086C106.581 69.9086 111.362 65.1278 111.362 59.2531C111.362 53.3785 106.581 48.5977 100.706 48.5977ZM100.706 67.4512C96.187 67.4512 92.5102 63.7745 92.5102 59.2552C92.5102 54.7359 96.187 51.0592 100.706 51.0592C105.225 51.0592 108.902 54.7359 108.902 59.2552C108.902 63.7745 105.225 67.4512 100.706 67.4512Z" fill="white"/>
<path d="M100.747 51.0664C96.2275 51.0664 92.5508 54.7432 92.5508 59.2625C92.5508 63.7817 96.2275 67.4585 100.747 67.4585C105.266 67.4585 108.943 63.7817 108.943 59.2625C108.943 54.7432 105.266 51.0664 100.747 51.0664Z" fill="#237BFF"/>
<path d="M64.8561 67.0186C66.1531 67.0186 67.2045 64.747 67.2045 61.9449C67.2045 59.1427 66.1531 56.8711 64.8561 56.8711C63.5592 56.8711 62.5078 59.1427 62.5078 61.9449C62.5078 64.747 63.5592 67.0186 64.8561 67.0186Z" fill="white"/>
<path d="M72.2038 67.0186C73.5007 67.0186 74.5521 64.747 74.5521 61.9449C74.5521 59.1427 73.5007 56.8711 72.2038 56.8711C70.9069 56.8711 69.8555 59.1427 69.8555 61.9449C69.8555 64.747 70.9069 67.0186 72.2038 67.0186Z" fill="white"/>
</svg>
