<svg width="134" height="100" viewBox="0 0 134 100" fill="none" xmlns="http://www.w3.org/2000/svg">
<rect width="134" height="100" fill="white"/>
<path d="M128.003 72.1645V43.3335H72.0876V99.332H128.003V87.3126C131.476 86.504 134 83.3871 134 79.7385C134 76.09 131.476 72.9731 128.003 72.1645ZM126.077 85.6492V97.405H74.0118V45.262H126.077V73.8309L126.926 73.9321C129.862 74.2806 132.074 76.7765 132.074 79.74C132.074 82.7036 129.862 85.2009 126.926 85.5479L126.077 85.6492Z" fill="white"/>
<path d="M126.928 73.9304L126.078 73.8291V45.2603H74.0131V97.4032H126.078V85.6474L126.928 85.5462C129.863 85.1977 132.076 82.7018 132.076 79.7383C132.076 76.7748 129.863 74.2774 126.928 73.9304Z" fill="#0066FF"/>
<path d="M83.803 51.5344C78.5227 46.2462 71.5011 43.3333 64.0334 43.3333C56.5658 43.3333 49.5457 46.2462 44.2639 51.5344C38.9836 56.8225 36.0751 63.8545 36.0751 71.3333C36.0751 78.8121 38.9836 85.8426 44.2639 91.1323C49.5442 96.4204 56.5658 99.3333 64.0334 99.3333C71.5011 99.3333 78.5212 96.4204 83.803 91.1323C89.0833 85.8441 91.9918 78.8121 91.9918 71.3333C91.9918 63.8545 89.0833 56.824 83.803 51.5344ZM64.0349 97.4048C49.681 97.4048 38.0022 85.7086 38.0022 71.3333C38.0022 56.958 49.681 45.2618 64.0349 45.2618C78.3888 45.2618 90.0677 56.958 90.0677 71.3333C90.0677 85.7086 78.3888 97.4048 64.0349 97.4048Z" fill="white"/>
<path d="M64.0331 45.2617C49.6792 45.2617 38.0004 56.9579 38.0004 71.3332C38.0004 85.7085 49.6792 97.4047 64.0331 97.4047C78.387 97.4047 90.0658 85.7085 90.0658 71.3332C90.0658 56.9579 78.387 45.2617 64.0331 45.2617Z" fill="#0066FF"/>
<path d="M61.1519 63.9217C62.0647 63.9217 62.8046 62.4469 62.8046 60.6276C62.8046 58.8083 62.0647 57.3335 61.1519 57.3335C60.2391 57.3335 59.4991 58.8083 59.4991 60.6276C59.4991 62.4469 60.2391 63.9217 61.1519 63.9217Z" fill="white"/>
<path d="M66.1105 63.9217C67.0233 63.9217 67.7633 62.4469 67.7633 60.6276C67.7633 58.8083 67.0233 57.3335 66.1105 57.3335C65.1977 57.3335 64.4578 58.8083 64.4578 60.6276C64.4578 62.4469 65.1977 63.9217 66.1105 63.9217Z" fill="white"/>
<path d="M60.8595 99.3321L30.4297 46.5488L15.2297 72.9152C14.0922 72.2882 12.8193 71.9606 11.4974 71.9606C7.21486 71.9606 3.72936 75.4498 3.72936 79.7387C3.72936 82.4818 5.16579 84.9896 7.46319 86.3865L0 99.3307H60.8595V99.3321ZM11.4974 73.8876C12.7658 73.8876 13.9717 74.2882 14.9844 75.0447L15.8513 75.6925L30.4297 50.4044L57.5256 97.4051H3.33382L10.1725 85.5421L9.18067 85.1132C7.03792 84.1855 5.65352 82.0767 5.65352 79.7402C5.65352 76.5131 8.27509 73.8891 11.4959 73.8891L11.4974 73.8876Z" fill="white"/>
<path d="M57.5251 97.405L30.4291 50.4043L15.8507 75.6925L14.9838 75.0447C13.9697 74.2881 12.7637 73.8875 11.4968 73.8875C8.2745 73.8875 5.65442 76.513 5.65442 79.7386C5.65442 82.0752 7.03882 84.1839 9.18157 85.1117L10.1734 85.5406L3.33472 97.4035H57.5265L57.5251 97.405Z" fill="#0066FF"/>
<path d="M87.0231 64.5022C90.7811 64.5022 93.8276 61.4512 93.8276 57.6876C93.8276 53.924 90.7811 50.873 87.0231 50.873C83.2651 50.873 80.2186 53.924 80.2186 57.6876C80.2186 61.4512 83.2651 64.5022 87.0231 64.5022Z" fill="white"/>
<path d="M48.9852 86.5545C52.7432 86.5545 55.7897 83.5035 55.7897 79.7399C55.7897 75.9763 52.7432 72.9253 48.9852 72.9253C45.2272 72.9253 42.1808 75.9763 42.1808 79.7399C42.1808 83.5035 45.2272 86.5545 48.9852 86.5545Z" fill="white"/>
</svg>
