<svg width="135" height="54" viewBox="0 0 135 54" fill="none" xmlns="http://www.w3.org/2000/svg">
<path d="M128.597 27.8014V0H72.4219V53.9987H128.597V42.4086C132.087 41.6288 134.622 38.6232 134.622 35.105C134.622 31.5867 132.087 28.5811 128.597 27.8014ZM126.663 40.8045V52.1405H74.355V1.85965H126.663V29.4083L127.516 29.5059C130.465 29.8419 132.687 32.2487 132.687 35.1064C132.687 37.9641 130.465 40.3723 127.516 40.7069L126.663 40.8045Z" fill="white"/>
<path d="M127.517 29.5056L126.664 29.408V1.85938H74.3564V52.1402H126.664V40.8043L127.517 40.7066C130.466 40.3706 132.689 37.9638 132.689 35.1061C132.689 32.2484 130.466 29.8402 127.517 29.5056Z" fill="#B7B9C0"/>
<path d="M84.196 7.90817C78.8911 2.80886 71.8369 0 64.3345 0C56.8321 0 49.7794 2.80886 44.473 7.90817C39.1682 13.0075 36.2461 19.7884 36.2461 27.0001C36.2461 34.2118 39.1682 40.9912 44.473 46.092C49.7779 51.1913 56.8321 54.0001 64.3345 54.0001C71.8369 54.0001 78.8896 51.1913 84.196 46.092C89.5008 40.9926 92.4229 34.2118 92.4229 27.0001C92.4229 19.7884 89.5008 13.0089 84.196 7.90817ZM64.336 52.1405C49.9153 52.1405 38.1822 40.862 38.1822 27.0001C38.1822 13.1381 49.9153 1.85965 64.336 1.85965C78.7567 1.85965 90.4898 13.1381 90.4898 27.0001C90.4898 40.862 78.7567 52.1405 64.336 52.1405Z" fill="white"/>
<path d="M64.3335 1.85938C49.9128 1.85938 38.1797 13.1379 38.1797 26.9998C38.1797 40.8617 49.9128 52.1402 64.3335 52.1402C78.7541 52.1402 90.4873 40.8617 90.4873 26.9998C90.4873 13.1379 78.7541 1.85938 64.3335 1.85938Z" fill="#B7B9C0"/>
<path d="M59.4553 20.4552C60.3339 20.4552 61.0462 18.9759 61.0462 17.151C61.0462 15.3261 60.3339 13.8467 59.4553 13.8467C58.5766 13.8467 57.8643 15.3261 57.8643 17.151C57.8643 18.9759 58.5766 20.4552 59.4553 20.4552Z" fill="white"/>
<path d="M64.3342 20.4552C65.2128 20.4552 65.9252 18.9759 65.9252 17.151C65.9252 15.3261 65.2128 13.8467 64.3342 13.8467C63.4555 13.8467 62.7432 15.3261 62.7432 17.151C62.7432 18.9759 63.4555 20.4552 64.3342 20.4552Z" fill="white"/>
<path d="M87.4318 20.4149C91.2073 20.4149 94.2679 17.4729 94.2679 13.8437C94.2679 10.2145 91.2073 7.27246 87.4318 7.27246C83.6563 7.27246 80.5957 10.2145 80.5957 13.8437C80.5957 17.4729 83.6563 20.4149 87.4318 20.4149Z" fill="white"/>
<path d="M61.1426 53.9999L30.5713 3.10156L15.3006 28.5263C14.1577 27.9217 12.879 27.6058 11.5509 27.6058C7.24842 27.6058 3.74671 30.9704 3.74671 35.1062C3.74671 37.7513 5.18982 40.1696 7.4979 41.5166L0 53.9984H61.1426V53.9999ZM11.5509 29.464C12.8252 29.464 14.0367 29.8503 15.0541 30.5798L15.925 31.2045L30.5713 6.81942L57.7932 52.1417H3.34932L10.2198 40.7023L9.22337 40.2888C7.07065 39.3941 5.67981 37.3607 5.67981 35.1076C5.67981 31.9957 8.31357 29.4655 11.5494 29.4655L11.5509 29.464Z" fill="white"/>
<path d="M57.7969 52.1426L30.5749 6.82031L15.9287 31.2054L15.0577 30.5807C14.0389 29.8512 12.8273 29.4649 11.5545 29.4649C8.31725 29.4649 5.68498 31.9966 5.68498 35.107C5.68498 37.3602 7.07582 39.3936 9.22854 40.2882L10.225 40.7018L3.35449 52.1411H57.7984L57.7969 52.1426Z" fill="#B7B9C0"/>
<path d="M49.2092 41.6815C52.9846 41.6815 56.0453 38.7395 56.0453 35.1103C56.0453 31.4811 52.9846 28.5391 49.2092 28.5391C45.4337 28.5391 42.373 31.4811 42.373 35.1103C42.373 38.7395 45.4337 41.6815 49.2092 41.6815Z" fill="white"/>
</svg>
