<svg width="654" height="127" viewBox="0 0 654 127" fill="none" xmlns="http://www.w3.org/2000/svg">
<path d="M437.021 15.8516L492.314 105.443H381.727L437.021 15.8516Z" fill="white"/>
<path d="M408.633 90.7266C399.492 90.7266 392.06 98.1626 392.06 107.3C392.06 116.437 399.496 123.873 408.633 123.873C417.77 123.873 425.205 116.437 425.205 107.3C425.205 98.1626 417.77 90.7266 408.633 90.7266ZM408.633 120.051C401.604 120.051 395.885 114.332 395.885 107.303C395.885 100.274 401.604 94.5551 408.633 94.5551C415.662 94.5551 421.38 100.274 421.38 107.303C421.38 114.332 415.662 120.051 408.633 120.051Z" fill="#DCEAFF"/>
<path d="M408.677 94.5742C401.648 94.5742 395.929 100.293 395.929 107.322C395.929 114.351 401.648 120.07 408.677 120.07C415.706 120.07 421.424 114.351 421.424 107.322C421.424 100.293 415.706 94.5742 408.677 94.5742Z" fill="white"/>
<path d="M466.54 90.7266C457.4 90.7266 449.967 98.1626 449.967 107.3C449.967 116.437 457.403 123.873 466.54 123.873C475.677 123.873 483.113 116.437 483.113 107.3C483.113 98.1626 475.677 90.7266 466.54 90.7266ZM466.54 120.051C459.511 120.051 453.793 114.332 453.793 107.303C453.793 100.274 459.511 94.5551 466.54 94.5551C473.569 94.5551 479.288 100.274 479.288 107.303C479.288 114.332 473.569 120.051 466.54 120.051Z" fill="#DCEAFF"/>
<path d="M466.609 94.5742C459.58 94.5742 453.862 100.293 453.862 107.322C453.862 114.351 459.58 120.07 466.609 120.07C473.638 120.07 479.357 114.351 479.357 107.322C479.357 100.293 473.638 94.5742 466.609 94.5742Z" fill="white"/>
<path d="M438.653 64.9101C440.67 64.9101 442.305 61.377 442.305 57.0185C442.305 52.6601 440.67 49.127 438.653 49.127C436.636 49.127 435 52.6601 435 57.0185C435 61.377 436.636 64.9101 438.653 64.9101Z" fill="#9FA2AB"/>
<path d="M450.082 64.9101C452.099 64.9101 453.735 61.377 453.735 57.0185C453.735 52.6601 452.099 49.127 450.082 49.127C448.065 49.127 446.43 52.6601 446.43 57.0185C446.43 61.377 448.065 64.9101 450.082 64.9101Z" fill="#9FA2AB"/>
<mask id="mask0_1393_46537" style="mask-type:alpha" maskUnits="userSpaceOnUse" x="234" y="15" width="111" height="112">
<ellipse cx="289.431" cy="71.1454" rx="55.294" ry="55.2939" fill="#831313"/>
</mask>
<g mask="url(#mask0_1393_46537)">
<rect x="234.137" y="15.8516" width="110.588" height="89.5901" fill="white"/>
</g>
<path d="M236.711 64.8438C227.57 64.8438 220.138 72.2797 220.138 81.4168C220.138 90.5539 227.574 97.9898 236.711 97.9898C245.848 97.9898 253.284 90.5539 253.284 81.4168C253.284 72.2797 245.848 64.8438 236.711 64.8438ZM236.711 94.1677C229.682 94.1677 223.963 88.449 223.963 81.42C223.963 74.3909 229.682 68.6722 236.711 68.6722C243.74 68.6722 249.459 74.3909 249.459 81.42C249.459 88.449 243.74 94.1677 236.711 94.1677Z" fill="#DCEAFF"/>
<path d="M236.755 68.6895C229.726 68.6895 224.008 74.4081 224.008 81.4372C224.008 88.4662 229.726 94.1849 236.755 94.1849C243.784 94.1849 249.503 88.4662 249.503 81.4372C249.503 74.4081 243.784 68.6895 236.755 68.6895Z" fill="white"/>
<path d="M344.573 29.127C335.433 29.127 328 36.5629 328 45.7C328 54.8371 335.436 62.273 344.573 62.273C353.71 62.273 361.146 54.8371 361.146 45.7C361.146 36.5629 353.71 29.127 344.573 29.127ZM344.573 58.4509C337.544 58.4509 331.826 52.7322 331.826 45.7032C331.826 38.6741 337.544 32.9554 344.573 32.9554C351.602 32.9554 357.321 38.6741 357.321 45.7032C357.321 52.7322 351.602 58.4509 344.573 58.4509Z" fill="#DCEAFF"/>
<path d="M344.643 32.9746C337.614 32.9746 331.895 38.6933 331.895 45.7223C331.895 52.7514 337.614 58.4701 344.643 58.4701C351.672 58.4701 357.391 52.7514 357.391 45.7223C357.391 38.6933 351.672 32.9746 344.643 32.9746Z" fill="white"/>
<path d="M307.081 64.531C309.099 64.531 310.734 60.9979 310.734 56.6395C310.734 52.2812 309.099 48.748 307.081 48.748C305.064 48.748 303.429 52.2812 303.429 56.6395C303.429 60.9979 305.064 64.531 307.081 64.531Z" fill="#9FA2AB"/>
<path d="M318.513 64.9099C320.53 64.9099 322.165 61.3768 322.165 57.0184C322.165 52.6601 320.53 49.127 318.513 49.127C316.495 49.127 314.86 52.6601 314.86 57.0184C314.86 61.3768 316.495 64.9099 318.513 64.9099Z" fill="#9FA2AB"/>
<rect x="523.267" y="15.8516" width="110.587" height="89.5912" fill="white"/>
<path d="M561.037 90.7266C551.897 90.7266 544.464 98.1626 544.464 107.3C544.464 116.437 551.9 123.873 561.037 123.873C570.174 123.873 577.61 116.437 577.61 107.3C577.61 98.1626 570.174 90.7266 561.037 90.7266ZM561.037 120.051C554.008 120.051 548.29 114.332 548.29 107.303C548.29 100.274 554.008 94.5551 561.037 94.5551C568.066 94.5551 573.785 100.274 573.785 107.303C573.785 114.332 568.066 120.051 561.037 120.051Z" fill="#DCEAFF"/>
<path d="M561.083 94.5742C554.054 94.5742 548.336 100.293 548.336 107.322C548.336 114.351 554.054 120.07 561.083 120.07C568.112 120.07 573.831 114.351 573.831 107.322C573.831 100.293 568.112 94.5742 561.083 94.5742Z" fill="white"/>
<path d="M637.427 38.6484C628.287 38.6484 620.854 46.0844 620.854 55.2217C620.854 64.3589 628.29 71.7949 637.427 71.7949C646.564 71.7949 654 64.3589 654 55.2217C654 46.0844 646.564 38.6484 637.427 38.6484ZM637.427 67.9728C630.398 67.9728 624.68 62.254 624.68 55.2249C624.68 48.1957 630.398 42.477 637.427 42.477C644.456 42.477 650.175 48.1957 650.175 55.2249C650.175 62.254 644.456 67.9728 637.427 67.9728Z" fill="#DCEAFF"/>
<path d="M637.498 42.4961C630.469 42.4961 624.75 48.2149 624.75 55.244C624.75 62.2731 630.469 67.9919 637.498 67.9919C644.527 67.9919 650.245 62.2731 650.245 55.244C650.245 48.2149 644.527 42.4961 637.498 42.4961Z" fill="white"/>
<path d="M589.653 64.9101C591.67 64.9101 593.305 61.3769 593.305 57.0185C593.305 52.6601 591.67 49.127 589.653 49.127C587.636 49.127 586 52.6601 586 57.0185C586 61.3769 587.636 64.9101 589.653 64.9101Z" fill="#9FA2AB"/>
<path d="M601.084 64.9101C603.101 64.9101 604.736 61.3769 604.736 57.0185C604.736 52.6601 603.101 49.127 601.084 49.127C599.067 49.127 597.431 52.6601 597.431 57.0185C597.431 61.3769 599.067 64.9101 601.084 64.9101Z" fill="#9FA2AB"/>
<path d="M29.6279 0C13.265 0 0.000137329 13.2651 0 29.6279C0 45.9909 13.2649 59.2559 29.6279 59.2559H135.069C135.258 59.4033 135.45 59.5577 135.646 59.7217C139.8 63.2215 150.94 72.2207 150.94 72.2207C149.949 67.1247 148.31 62.1858 149.979 59.2559H169.862C186.225 59.2559 199.49 45.9909 199.49 29.6279C199.49 13.2651 186.225 0 169.862 0H29.6279Z" fill="white"/>
<path d="M34.3227 32.4551H28.2277V37.5571H26.0705V32.4551H20.0612V30.6746H34.3227V32.4551ZM21.4993 26.0178C21.4993 25.3044 21.7362 24.6824 22.2098 24.1516C22.6835 23.6152 23.3455 23.2014 24.1958 22.9104C25.0518 22.6193 26.0363 22.4738 27.1491 22.4738C28.262 22.4738 29.2464 22.6193 30.1024 22.9104C30.9642 23.2014 31.6347 23.6152 32.1141 24.1516C32.5935 24.6824 32.8332 25.3044 32.8332 26.0178C32.8332 26.714 32.5935 27.3246 32.1141 27.8497C31.6347 28.3747 30.9642 28.7799 30.1024 29.0652C29.2407 29.3506 28.2563 29.4932 27.1491 29.4932C26.042 29.4932 25.0604 29.3506 24.2044 29.0652C23.3483 28.7799 22.6835 28.3747 22.2098 27.8497C21.7362 27.3246 21.4993 26.714 21.4993 26.0178ZM23.7421 26.0178C23.7421 26.383 23.8791 26.6969 24.153 26.9594C24.4269 27.2219 24.8207 27.4217 25.3343 27.5586C25.848 27.6899 26.4529 27.7584 27.1491 27.7641C28.2163 27.7584 29.0524 27.6043 29.6573 27.3018C30.2679 26.9936 30.5733 26.5656 30.5733 26.0178C30.5733 25.4471 30.2679 25.0076 29.6573 24.6995C29.0524 24.3856 28.2163 24.2258 27.1491 24.2201C26.0876 24.2258 25.2516 24.3856 24.641 24.6995C24.036 25.0076 23.7364 25.4471 23.7421 26.0178ZM48.2931 37.5742H46.1188V21.9602H48.2931V37.5742ZM36.0519 23.2613H43.4651V29.2707H38.3289V32.1298C39.5844 32.1184 40.7372 32.0756 41.7873 32.0014C42.8373 31.9272 43.9102 31.7988 45.0059 31.6162L45.1943 33.3796C43.9958 33.5908 42.8002 33.7363 41.6075 33.8162C40.4148 33.8904 39.0365 33.9275 37.4729 33.9275H36.069V27.5415H41.2394V25.0248H36.0519V23.2613ZM62.8285 24.5967H57.4698V25.8123H62.3663V27.4901H57.4698V28.7742C59.0049 28.7685 60.2347 28.7428 61.1592 28.6971C62.0838 28.6515 63.0054 28.5516 63.9242 28.3975L64.1468 30.0925C63.1823 30.258 62.2036 30.3693 61.2106 30.4263C60.2176 30.4777 58.9364 30.5034 57.367 30.5034H56.6137H55.2783V22.8504H62.8285V24.5967ZM57.0246 31.8559H67.4682V37.3687H57.0246V31.8559ZM65.3281 35.6224V33.5508H59.1818V35.6224H65.3281ZM65.2768 21.9773H67.4682V31.2224H65.2768V21.9773ZM83.8184 32.6606H77.7235V37.5399H75.5663V32.6606H69.5569V30.9485H83.8184V32.6606ZM71.2347 22.5594H73.3919V24.3571H79.932V22.5594H82.1235V29.4419H71.2347V22.5594ZM79.932 27.6956V26.0691H73.3919V27.6956H79.932ZM97.8744 37.5742H95.7172V29.2193H92.9779V27.4559H95.7172V21.9602H97.8744V37.5742ZM85.4449 23.2613H92.7211V25.0248H87.6192V27.61H92.1561V29.322H87.6192V32.2668C88.7948 32.2554 89.8306 32.224 90.7266 32.1726C91.6283 32.1156 92.5328 32.0157 93.4402 31.873L93.6628 33.6193C92.5899 33.7791 91.5198 33.8904 90.4526 33.9532C89.3855 34.0102 88.1271 34.0416 86.6775 34.0473H85.4449V23.2613ZM111.862 30.7259H104.38V23.2442H111.862V30.7259ZM106.178 32.2154H108.352V35.5197H116.844V37.266H106.178V32.2154ZM109.705 29.0139V24.9905H106.537V29.0139H109.705ZM114.088 21.9602H116.279V26.4458H118.385V28.2434H116.279V33.3283H114.088V21.9602ZM133.314 29.7501H119.07V28.038H133.314V29.7501ZM120.713 30.6746H131.551V34.7493H122.871V35.708H131.962V37.403H120.73V33.1913H129.394V32.3182H120.713V30.6746ZM120.85 22.2683H131.499V24.0146H123.025V25.4699H131.619V27.182H120.85V22.2683ZM138.519 23.0559C139.215 23.0559 139.846 23.2385 140.411 23.6038C140.981 23.969 141.446 24.494 141.806 25.1788C142.171 25.8637 142.405 26.6683 142.508 27.5929H145.213V21.9602H147.37V37.5742H145.213V29.3392H142.534C142.459 30.3207 142.243 31.1768 141.883 31.9073C141.523 32.6377 141.053 33.197 140.471 33.5851C139.894 33.9731 139.244 34.1672 138.519 34.1672C137.731 34.1672 137.029 33.9418 136.413 33.4909C135.802 33.0344 135.326 32.3866 134.983 31.5477C134.641 30.7031 134.473 29.7215 134.478 28.603C134.473 27.4901 134.641 26.5143 134.983 25.6753C135.326 24.8364 135.802 24.1916 136.413 23.7407C137.029 23.2842 137.731 23.0559 138.519 23.0559ZM136.567 28.603C136.567 29.362 136.647 30.0126 136.807 30.5547C136.967 31.0912 137.195 31.4992 137.492 31.7789C137.788 32.0528 138.131 32.1869 138.519 32.1812C138.913 32.1869 139.255 32.0528 139.546 31.7789C139.843 31.4992 140.071 31.0912 140.231 30.5547C140.391 30.0126 140.471 29.362 140.471 28.603C140.471 27.844 140.391 27.1962 140.231 26.6598C140.071 26.1233 139.843 25.7181 139.546 25.4442C139.255 25.1646 138.913 25.0248 138.519 25.0248C138.131 25.0248 137.788 25.1646 137.492 25.4442C137.195 25.7181 136.967 26.1262 136.807 26.6683C136.647 27.2048 136.567 27.8497 136.567 28.603ZM152.284 25.1446H155.862V23.1929H158.053V30.3664H155.194V32.729C156.541 32.6606 157.722 32.5578 158.738 32.4209L158.892 34.0131C157.888 34.19 156.844 34.3241 155.759 34.4154C154.675 34.501 153.668 34.5552 152.737 34.5781C151.813 34.5952 150.726 34.6066 149.476 34.6123L149.185 32.8318C150.823 32.8318 152.101 32.8232 153.02 32.8061V30.3664H150.144V23.1929H152.284V25.1446ZM155.862 28.6543V26.8053H152.284V28.6543H155.862ZM159.56 21.9602H161.751V28.1921H163.874V30.0069H161.751V37.5399H159.56V21.9602ZM178.787 35.7252H164.525V33.9275H167.709V30.1096C167.093 29.7386 166.617 29.2821 166.28 28.7399C165.943 28.1921 165.775 27.5814 165.775 26.908C165.775 26.0805 166.026 25.3501 166.528 24.7166C167.03 24.0831 167.724 23.5923 168.608 23.2442C169.499 22.8904 170.506 22.7135 171.63 22.7135C172.749 22.7135 173.753 22.8904 174.643 23.2442C175.534 23.5923 176.233 24.0831 176.741 24.7166C177.249 25.3501 177.502 26.0805 177.502 26.908C177.497 27.57 177.331 28.1693 177.006 28.7057C176.681 29.2421 176.218 29.6958 175.619 30.0668V33.9275H178.787V35.7252ZM167.932 26.908C167.932 27.4102 168.083 27.8468 168.386 28.2178C168.694 28.5887 169.125 28.8741 169.678 29.0738C170.238 29.2735 170.888 29.3734 171.63 29.3734C172.361 29.3734 173.005 29.2735 173.565 29.0738C174.124 28.8741 174.561 28.5887 174.874 28.2178C175.188 27.8468 175.345 27.4102 175.345 26.908C175.345 26.3944 175.188 25.9521 174.874 25.5812C174.566 25.2102 174.133 24.9277 173.573 24.7337C173.014 24.534 172.366 24.437 171.63 24.4427C170.888 24.4427 170.238 24.5397 169.678 24.7337C169.125 24.9277 168.694 25.2102 168.386 25.5812C168.083 25.9521 167.932 26.3944 167.932 26.908ZM173.411 33.9275V30.8971C172.84 31.0113 172.246 31.0683 171.63 31.0683C171.031 31.0683 170.443 31.0141 169.867 30.9057V33.9275H173.411Z" fill="#51535A"/>
</svg>
