<svg width="623" height="127" viewBox="0 0 623 127" fill="none" xmlns="http://www.w3.org/2000/svg">
<path d="M424.021 15.8535L479.315 105.445H368.728L424.021 15.8535Z" fill="white"/>
<path d="M395.633 90.7285C386.493 90.7285 379.061 98.1645 379.061 107.302C379.061 116.439 386.496 123.875 395.633 123.875C404.77 123.875 412.206 116.439 412.206 107.302C412.206 98.1645 404.77 90.7285 395.633 90.7285ZM395.633 120.053C388.604 120.053 382.886 114.334 382.886 107.305C382.886 100.276 388.604 94.5571 395.633 94.5571C402.662 94.5571 408.381 100.276 408.381 107.305C408.381 114.334 402.662 120.053 395.633 120.053Z" fill="#DCEAFF"/>
<path d="M395.677 94.5762C388.648 94.5762 382.93 100.295 382.93 107.324C382.93 114.353 388.648 120.072 395.677 120.072C402.706 120.072 408.425 114.353 408.425 107.324C408.425 100.295 402.706 94.5762 395.677 94.5762Z" fill="white"/>
<path d="M453.541 90.7285C444.4 90.7285 436.968 98.1645 436.968 107.302C436.968 116.439 444.404 123.875 453.541 123.875C462.678 123.875 470.113 116.439 470.113 107.302C470.113 98.1645 462.678 90.7285 453.541 90.7285ZM453.541 120.053C446.512 120.053 440.793 114.334 440.793 107.305C440.793 100.276 446.512 94.5571 453.541 94.5571C460.57 94.5571 466.288 100.276 466.288 107.305C466.288 114.334 460.57 120.053 453.541 120.053Z" fill="#DCEAFF"/>
<path d="M453.61 94.5762C446.581 94.5762 440.862 100.295 440.862 107.324C440.862 114.353 446.581 120.072 453.61 120.072C460.639 120.072 466.358 114.353 466.358 107.324C466.358 100.295 460.639 94.5762 453.61 94.5762Z" fill="white"/>
<path d="M417.683 80.3398C419.7 80.3398 421.335 76.8066 421.335 72.4482C421.335 68.0898 419.7 64.5566 417.683 64.5566C415.666 64.5566 414.03 68.0898 414.03 72.4482C414.03 76.8066 415.666 80.3398 417.683 80.3398Z" fill="#9FA2AB"/>
<path d="M429.112 80.3398C431.129 80.3398 432.764 76.8066 432.764 72.4482C432.764 68.0898 431.129 64.5566 429.112 64.5566C427.095 64.5566 425.459 68.0898 425.459 72.4482C425.459 76.8066 427.095 80.3398 429.112 80.3398Z" fill="#9FA2AB"/>
<mask id="mask0_1302_48045" style="mask-type:alpha" maskUnits="userSpaceOnUse" x="234" y="15" width="111" height="112">
<ellipse cx="289.431" cy="71.1474" rx="55.294" ry="55.2939" fill="#831313"/>
</mask>
<g mask="url(#mask0_1302_48045)">
<rect x="234.137" y="15.8535" width="110.588" height="89.5901" fill="white"/>
</g>
<path d="M236.711 64.8457C227.57 64.8457 220.138 72.2816 220.138 81.4187C220.138 90.5558 227.574 97.9917 236.711 97.9917C245.848 97.9917 253.284 90.5558 253.284 81.4187C253.284 72.2816 245.848 64.8457 236.711 64.8457ZM236.711 94.1697C229.682 94.1697 223.963 88.451 223.963 81.4219C223.963 74.3929 229.682 68.6742 236.711 68.6742C243.74 68.6742 249.459 74.3929 249.459 81.4219C249.459 88.451 243.74 94.1697 236.711 94.1697Z" fill="#DCEAFF"/>
<path d="M236.756 68.6895C229.727 68.6895 224.008 74.4081 224.008 81.4372C224.008 88.4662 229.727 94.1849 236.756 94.1849C243.785 94.1849 249.503 88.4662 249.503 81.4372C249.503 74.4081 243.785 68.6895 236.756 68.6895Z" fill="white"/>
<path d="M331.549 90.7285C322.409 90.7285 314.976 98.1644 314.976 107.302C314.976 116.439 322.412 123.875 331.549 123.875C340.686 123.875 348.122 116.439 348.122 107.302C348.122 98.1644 340.686 90.7285 331.549 90.7285ZM331.549 120.052C324.52 120.052 318.801 114.334 318.801 107.305C318.801 100.276 324.52 94.557 331.549 94.557C338.578 94.557 344.297 100.276 344.297 107.305C344.297 114.334 338.578 120.052 331.549 120.052Z" fill="#DCEAFF"/>
<path d="M331.619 94.5762C324.59 94.5762 318.871 100.295 318.871 107.324C318.871 114.353 324.59 120.072 331.619 120.072C338.648 120.072 344.367 114.353 344.367 107.324C344.367 100.295 338.648 94.5762 331.619 94.5762Z" fill="white"/>
<path d="M307.082 64.5349C309.099 64.5349 310.734 61.0018 310.734 56.6434C310.734 52.2851 309.099 48.752 307.082 48.752C305.064 48.752 303.429 52.2851 303.429 56.6434C303.429 61.0018 305.064 64.5349 307.082 64.5349Z" fill="#9FA2AB"/>
<path d="M318.513 64.5349C320.53 64.5349 322.165 61.0018 322.165 56.6434C322.165 52.2851 320.53 48.752 318.513 48.752C316.496 48.752 314.86 52.2851 314.86 56.6434C314.86 61.0018 316.496 64.5349 318.513 64.5349Z" fill="#9FA2AB"/>
<rect x="500.267" y="15.8535" width="110.587" height="89.5912" fill="white"/>
<path d="M528.037 90.7285C518.897 90.7285 511.464 98.1645 511.464 107.302C511.464 116.439 518.9 123.875 528.037 123.875C537.174 123.875 544.61 116.439 544.61 107.302C544.61 98.1645 537.174 90.7285 528.037 90.7285ZM528.037 120.053C521.008 120.053 515.29 114.334 515.29 107.305C515.29 100.276 521.008 94.5571 528.037 94.5571C535.066 94.5571 540.785 100.276 540.785 107.305C540.785 114.334 535.066 120.053 528.037 120.053Z" fill="#DCEAFF"/>
<path d="M528.083 94.5762C521.054 94.5762 515.335 100.295 515.335 107.324C515.335 114.353 521.054 120.072 528.083 120.072C535.112 120.072 540.831 114.353 540.831 107.324C540.831 100.295 535.112 94.5762 528.083 94.5762Z" fill="white"/>
<path d="M606.427 39.6504C597.287 39.6504 589.854 47.0864 589.854 56.2236C589.854 65.3608 597.29 72.7968 606.427 72.7968C615.564 72.7968 623 65.3608 623 56.2236C623 47.0864 615.564 39.6504 606.427 39.6504ZM606.427 68.9747C599.398 68.9747 593.68 63.2559 593.68 56.2268C593.68 49.1977 599.398 43.4789 606.427 43.4789C613.456 43.4789 619.175 49.1977 619.175 56.2268C619.175 63.2559 613.456 68.9747 606.427 68.9747Z" fill="#DCEAFF"/>
<path d="M606.498 43.498C599.469 43.498 593.75 49.2168 593.75 56.2459C593.75 63.2751 599.469 68.9939 606.498 68.9939C613.527 68.9939 619.245 63.2751 619.245 56.2459C619.245 49.2168 613.527 43.498 606.498 43.498Z" fill="white"/>
<path d="M541.015 68.7343C543.032 68.7343 544.667 65.2012 544.667 60.8428C544.667 56.4844 543.032 52.9512 541.015 52.9512C538.998 52.9512 537.362 56.4844 537.362 60.8428C537.362 65.2012 538.998 68.7343 541.015 68.7343Z" fill="#9FA2AB"/>
<path d="M552.446 68.7343C554.463 68.7343 556.098 65.2012 556.098 60.8428C556.098 56.4844 554.463 52.9512 552.446 52.9512C550.429 52.9512 548.793 56.4844 548.793 60.8428C548.793 65.2012 550.429 68.7343 552.446 68.7343Z" fill="#9FA2AB"/>
<path fill-rule="evenodd" clip-rule="evenodd" d="M29.6279 0C13.2651 0.000107202 0.000137329 13.2651 0 29.6279C0 45.9908 13.265 59.2558 29.6279 59.2559H135.069C135.258 59.4034 135.451 59.5576 135.646 59.7217C139.79 63.2126 150.884 72.1748 150.94 72.2207C149.949 67.1249 148.311 62.1858 149.979 59.2559H169.862C186.225 59.2559 199.49 45.9909 199.49 29.6279C199.49 13.2651 186.225 0 169.862 0H29.6279Z" fill="white"/>
<path d="M47.0631 32.4571H40.9682V37.559H38.811V32.4571H32.8016V30.6765H47.0631V32.4571ZM39.8896 22.4757C40.9967 22.4757 41.9811 22.6213 42.8429 22.9123C43.7046 23.2034 44.3752 23.6171 44.8546 24.1536C45.3339 24.69 45.5736 25.3121 45.5736 26.0197C45.5736 26.716 45.3339 27.3266 44.8546 27.8516C44.3752 28.3767 43.7046 28.7818 42.8429 29.0672C41.9811 29.3525 40.9967 29.4952 39.8896 29.4952C38.7824 29.4952 37.8009 29.3525 36.9448 29.0672C36.0888 28.7818 35.4211 28.3767 34.9417 27.8516C34.468 27.3266 34.2341 26.716 34.2398 26.0197C34.2341 25.3121 34.468 24.69 34.9417 24.1536C35.4211 23.6171 36.0888 23.2034 36.9448 22.9123C37.8009 22.6213 38.7824 22.4757 39.8896 22.4757ZM39.8896 24.222C39.1933 24.222 38.5884 24.2934 38.0748 24.4361C37.5612 24.573 37.1645 24.7785 36.8849 25.0524C36.611 25.3206 36.4769 25.6431 36.4826 26.0197C36.4769 26.385 36.611 26.6988 36.8849 26.9613C37.1645 27.2239 37.5612 27.4236 38.0748 27.5606C38.5884 27.6975 39.1933 27.766 39.8896 27.766C40.5915 27.766 41.1993 27.6975 41.7129 27.5606C42.2265 27.4236 42.6203 27.2239 42.8942 26.9613C43.1739 26.6988 43.3137 26.385 43.3137 26.0197C43.3137 25.6431 43.1739 25.3206 42.8942 25.0524C42.6203 24.7785 42.2265 24.573 41.7129 24.4361C41.1993 24.2934 40.5915 24.222 39.8896 24.222ZM61.0335 37.5761H58.8592V21.9621H61.0335V37.5761ZM56.2055 29.2726H51.0693V32.1318C52.2906 32.1261 53.4291 32.0833 54.4849 32.0034C55.5464 31.9235 56.6335 31.7951 57.7464 31.6182L57.9347 33.3816C56.7249 33.5927 55.5207 33.7383 54.3223 33.8182C53.1238 33.8923 51.7542 33.9294 50.2133 33.9294H48.8094V27.5434H53.9798V25.0267H48.7923V23.2633H56.2055V29.2726ZM68.1728 23.0065C68.9832 23.0008 69.7166 23.1634 70.3728 23.4944C71.0348 23.8197 71.5513 24.2734 71.9223 24.8555C72.2989 25.4376 72.4872 26.0939 72.4872 26.8244C72.4872 27.5606 72.2989 28.2197 71.9223 28.8018C71.5513 29.3839 71.0377 29.8405 70.3814 30.1715C69.7251 30.4968 68.9889 30.6594 68.1728 30.6594C67.3568 30.6594 66.6177 30.4968 65.9557 30.1715C65.2994 29.8405 64.783 29.3839 64.4063 28.8018C64.0297 28.2197 63.8413 27.5606 63.8413 26.8244C63.8413 26.0939 64.0297 25.4376 64.4063 24.8555C64.783 24.2734 65.3023 23.8197 65.9643 23.4944C66.6263 23.1634 67.3625 23.0008 68.1728 23.0065ZM68.1728 24.8898C67.762 24.8898 67.391 24.9668 67.06 25.1209C66.729 25.275 66.4693 25.5004 66.281 25.7971C66.0984 26.0882 66.0099 26.4306 66.0156 26.8244C66.0099 27.2239 66.0984 27.5691 66.281 27.8602C66.4693 28.1512 66.7262 28.3738 67.0514 28.5279C67.3824 28.682 67.7562 28.759 68.1728 28.759C68.5894 28.759 68.9604 28.682 69.2857 28.5279C69.6167 28.3738 69.8763 28.1512 70.0647 27.8602C70.2587 27.5691 70.3586 27.2239 70.3643 26.8244C70.3586 26.4249 70.2616 26.0796 70.0732 25.7886C69.8849 25.4975 69.6252 25.275 69.2942 25.1209C68.9632 24.9668 68.5894 24.8898 68.1728 24.8898ZM76.2195 37.5761H74.0452V21.9621H76.2195V37.5761ZM64.0468 32.6112C67.7049 32.6112 70.7409 32.4457 73.1549 32.1147L73.3262 33.6898C71.7967 33.9865 70.2359 34.1777 68.6437 34.2633C67.0514 34.3489 65.3194 34.3917 63.4476 34.3917L63.1907 32.6112H64.0468ZM96.5588 31.0361H82.3145V29.324H88.3752V27.9886H84.0437V22.6469H94.8468V24.3419H86.218V26.2765H94.9324V27.9886H90.5153V29.324H96.5588V31.0361ZM89.4024 31.8236C90.5267 31.8236 91.494 31.9349 92.3044 32.1575C93.1147 32.38 93.7368 32.7082 94.1705 33.1419C94.6042 33.5699 94.824 34.0892 94.8297 34.6999C94.824 35.2991 94.6042 35.8127 94.1705 36.2407C93.7368 36.6687 93.1119 36.994 92.2958 37.2166C91.4854 37.4449 90.521 37.559 89.4024 37.559C88.2725 37.559 87.2966 37.4449 86.4748 37.2166C85.6587 36.994 85.031 36.6687 84.5915 36.2407C84.1578 35.8127 83.9409 35.2991 83.9409 34.6999C83.9409 34.0892 84.1578 33.5699 84.5915 33.1419C85.0252 32.7082 85.6502 32.38 86.4662 32.1575C87.288 31.9349 88.2668 31.8236 89.4024 31.8236ZM89.4024 33.4843C88.3238 33.4843 87.5134 33.587 86.9713 33.7925C86.4291 33.9979 86.1609 34.3004 86.1666 34.6999C86.1609 35.1051 86.4263 35.4075 86.9627 35.6073C87.4992 35.8013 88.3124 35.8983 89.4024 35.8983C90.4696 35.8983 91.2743 35.8013 91.8164 35.6073C92.3586 35.4075 92.6325 35.1051 92.6382 34.6999C92.6325 34.3004 92.3557 33.9979 91.8079 33.7925C91.26 33.587 90.4582 33.4843 89.4024 33.4843ZM111.728 35.8127H97.4662V34.015H101.113V31.6353H99.1098V26.3964H107.927V24.7185H99.0927V22.9722H110.084V28.1427H101.301V29.8719H110.444V31.6353H108.235V34.015H111.728V35.8127ZM106.095 34.015V31.6353H103.236V34.015H106.095ZM124.911 27.9372H127.119V29.7349H124.911V37.5077H122.719V21.9621H124.911V27.9372ZM120.75 23.5543C120.739 26.0368 120.18 28.2311 119.072 30.1372C117.971 32.0376 116.173 33.5984 113.679 34.8197L112.447 33.1419C114.302 32.2117 115.725 31.1102 116.718 29.8376C117.717 28.565 118.319 27.0641 118.525 25.3349H113.337V23.5543H120.75ZM131.605 32.6968C132.661 32.6968 133.693 32.6853 134.704 32.6625V30.0431H132.29V23.366H139.001V25.1294H134.43V28.2968H139.138V30.0431H136.792V32.5855C137.825 32.5398 138.727 32.4685 139.497 32.3715L139.617 33.9294C137.7 34.2947 135.126 34.4773 131.896 34.4773L131.605 32.6968ZM145.472 37.5419H143.384V29.9232H142.168V36.8228H140.131V22.2189H142.168V28.1598H143.384V21.9621H145.472V37.5419ZM159.255 27.8516H161.549V29.6493H159.255V37.5761H157.097V21.9621H159.255V27.8516ZM154.803 29.3069H149.787V32.1318C150.991 32.1261 152.081 32.089 153.057 32.0205C154.033 31.952 155.014 31.835 156.002 31.6695L156.19 33.4158C155.06 33.6213 153.936 33.7611 152.817 33.8353C151.699 33.9095 150.403 33.9466 148.931 33.9466H147.613V27.5777H152.629V25.0267H147.595V23.2633H154.803V29.3069ZM165.435 32.2516H163.244L163.021 23.5715H165.658L165.435 32.2516ZM164.357 36.1209C164.094 36.1209 163.851 36.0553 163.629 35.924C163.406 35.7927 163.229 35.6187 163.098 35.4018C162.973 35.1792 162.913 34.9396 162.918 34.6827C162.913 34.4259 162.973 34.1891 163.098 33.9722C163.229 33.7554 163.406 33.5842 163.629 33.4586C163.851 33.3274 164.094 33.2617 164.357 33.2617C164.602 33.2617 164.833 33.3274 165.05 33.4586C165.272 33.5842 165.449 33.7554 165.581 33.9722C165.712 34.1891 165.778 34.4259 165.778 34.6827C165.778 34.9396 165.712 35.1792 165.581 35.4018C165.449 35.6187 165.272 35.7927 165.05 35.924C164.833 36.0553 164.602 36.1209 164.357 36.1209Z" fill="#51535A"/>
</svg>
