<svg width="222" height="45" viewBox="0 0 222 45" fill="none" xmlns="http://www.w3.org/2000/svg">
<rect width="222" height="45" rx="6" fill="#F2F2F2"/>
<mask id="mask0_5143_105804" style="mask-type:luminance" maskUnits="userSpaceOnUse" x="14" y="12" width="20" height="21">
<path d="M34 12.5H14V32.5H34V12.5Z" fill="white"/>
</mask>
<g mask="url(#mask0_5143_105804)">
<path d="M33.6 22.7271C33.6 22.018 33.5364 21.3362 33.4182 20.6816H24V24.5498H29.3818C29.15 25.7998 28.4455 26.8589 27.3864 27.568V30.0771H30.6182C32.5091 28.3362 33.6 25.7725 33.6 22.7271Z" fill="#4285F4"/>
<path d="M23.9989 32.4999C26.6989 32.4999 28.9625 31.6044 30.617 30.0772L27.3852 27.5681C26.4898 28.1681 25.3443 28.5226 23.9989 28.5226C21.3943 28.5226 19.1898 26.7635 18.4034 24.3999H15.0625V26.9908C16.708 30.259 20.0898 32.4999 23.9989 32.4999Z" fill="#34A853"/>
<path d="M18.4045 24.4002C18.2045 23.8002 18.0909 23.1593 18.0909 22.5002C18.0909 21.8411 18.2045 21.2002 18.4045 20.6002V18.0093H15.0636C14.3864 19.3593 14 20.8866 14 22.5002C14 24.1138 14.3864 25.6411 15.0636 26.9911L18.4045 24.4002Z" fill="#FBBC04"/>
<path d="M23.9989 16.4773C25.467 16.4773 26.7852 16.9818 27.8216 17.9727L30.6898 15.1045C28.958 13.4909 26.6943 12.5 23.9989 12.5C20.0898 12.5 16.708 14.7409 15.0625 18.0091L18.4034 20.6C19.1898 18.2364 21.3943 16.4773 23.9989 16.4773Z" fill="#E94235"/>
</g>
<path d="M88.918 16.024H97.038V17.494H88.918V16.024ZM87.574 21.54H99.306V23.052H87.574V21.54ZM92.432 22.604H94.308V28.246H92.432V22.604ZM96.086 16.024H97.92V17.172C97.92 17.6387 97.9107 18.1333 97.892 18.656C97.8827 19.1787 97.8453 19.7527 97.78 20.378C97.7147 20.994 97.5933 21.6847 97.416 22.45L95.596 22.226C95.8387 21.1527 95.9787 20.2147 96.016 19.412C96.0627 18.6 96.086 17.8533 96.086 17.172V16.024ZM101.895 15.786H110.099V17.256H101.895V15.786ZM100.453 19.832H112.199V21.316H100.453V19.832ZM108.979 15.786H110.813V16.668C110.813 17.1347 110.799 17.6667 110.771 18.264C110.743 18.852 110.645 19.524 110.477 20.28L108.643 20.112C108.811 19.3747 108.909 18.7307 108.937 18.18C108.965 17.6293 108.979 17.1253 108.979 16.668V15.786ZM101.755 22.198H110.785V25.838H103.631V27.154H101.769V24.466H108.923V23.626H101.755V22.198ZM101.769 26.706H111.121V28.148H101.769V26.706ZM116.818 25.306H128.564V26.818H116.818V25.306ZM121.746 22.842H123.594V25.908H121.746V22.842ZM118.148 16.108H127.234V20.434H120.01V22.604H118.162V18.978H125.386V17.592H118.148V16.108ZM118.162 21.876H127.528V23.36H118.162V21.876ZM130.901 16.458H139.105V17.942H130.901V16.458ZM129.697 25.04H141.429V26.552H129.697V25.04ZM138.125 16.458H139.987V17.998C139.987 18.6047 139.978 19.2207 139.959 19.846C139.95 20.4713 139.912 21.1387 139.847 21.848C139.791 22.5573 139.679 23.36 139.511 24.256L137.649 24.088C137.817 23.2573 137.929 22.492 137.985 21.792C138.05 21.092 138.088 20.434 138.097 19.818C138.116 19.1927 138.125 18.586 138.125 17.998V16.458ZM151.48 15.282H153.342V24.592H151.48V15.282ZM144.704 26.524H153.678V28.022H144.704V26.524ZM144.704 23.668H146.566V27.14H144.704V23.668ZM146.286 16.108C146.949 16.108 147.546 16.248 148.078 16.528C148.61 16.808 149.03 17.1953 149.338 17.69C149.655 18.1847 149.814 18.754 149.814 19.398C149.814 20.0233 149.655 20.588 149.338 21.092C149.03 21.5867 148.61 21.9787 148.078 22.268C147.546 22.548 146.949 22.688 146.286 22.688C145.623 22.688 145.026 22.548 144.494 22.268C143.962 21.9787 143.537 21.5867 143.22 21.092C142.912 20.588 142.758 20.0233 142.758 19.398C142.758 18.754 142.912 18.1847 143.22 17.69C143.537 17.1953 143.962 16.808 144.494 16.528C145.026 16.248 145.623 16.108 146.286 16.108ZM146.286 17.704C145.969 17.704 145.679 17.774 145.418 17.914C145.157 18.0447 144.951 18.236 144.802 18.488C144.653 18.7307 144.578 19.034 144.578 19.398C144.578 19.7433 144.653 20.042 144.802 20.294C144.951 20.5367 145.157 20.728 145.418 20.868C145.679 20.9987 145.969 21.064 146.286 21.064C146.603 21.064 146.893 20.9987 147.154 20.868C147.415 20.728 147.621 20.5367 147.77 20.294C147.919 20.042 147.994 19.7433 147.994 19.398C147.994 19.034 147.919 18.7307 147.77 18.488C147.621 18.236 147.415 18.0447 147.154 17.914C146.893 17.774 146.603 17.704 146.286 17.704Z" fill="#1F1F1F" fill-opacity="0.85"/>
</svg>
