<svg width="222" height="45" viewBox="0 0 222 45" fill="none" xmlns="http://www.w3.org/2000/svg">
<rect width="222" height="45" rx="6" fill="#FEE500"/>
<g clip-path="url(#clip0_5143_105805)">
<path fill-rule="evenodd" clip-rule="evenodd" d="M23 14.1001C18.0292 14.1001 14 17.2131 14 21.0524C14 23.4401 15.5584 25.5451 17.9315 26.7971L16.933 30.4446C16.8448 30.7669 17.2134 31.0238 17.4965 30.837L21.8733 27.9483C22.2427 27.9839 22.6181 28.0047 23 28.0047C27.9705 28.0047 31.9999 24.8919 31.9999 21.0524C31.9999 17.2131 27.9705 14.1001 23 14.1001Z" fill="black"/>
</g>
<path d="M86.29 18.17C86.29 22.64 84.31 25.9 80.35 27.95L79.27 26.705C81.22 25.805 82.655 24.475 83.575 22.715L79.87 23.12C79.78 22.5 79.7 21.995 79.63 21.605L84.16 21.275C84.31 20.695 84.405 20.145 84.445 19.625H80.29V18.17H86.29ZM89.89 16.82V21.95H91.765V23.405H89.89V30.185H88.15V16.82H89.89ZM99.2685 18.17C99.2685 22.64 97.2885 25.9 93.3285 27.95L92.2485 26.705C94.1985 25.805 95.6335 24.475 96.5535 22.715L92.8485 23.12C92.7585 22.5 92.6785 21.995 92.6085 21.605L97.1385 21.275C97.2885 20.695 97.3835 20.145 97.4235 19.625H93.2685V18.17H99.2685ZM102.869 16.82V21.95H104.744V23.405H102.869V30.185H101.129V16.82H102.869ZM117.482 28.52H105.407V27.125H110.552V24.995C109.332 24.855 108.357 24.455 107.627 23.795C106.907 23.125 106.547 22.305 106.547 21.335C106.547 20.245 106.997 19.36 107.897 18.68C108.797 18 109.982 17.66 111.452 17.66C112.922 17.66 114.107 18 115.007 18.68C115.907 19.36 116.357 20.245 116.357 21.335C116.357 22.315 115.992 23.14 115.262 23.81C114.532 24.47 113.547 24.865 112.307 24.995V27.125H117.482V28.52ZM114.587 21.35C114.587 20.68 114.302 20.14 113.732 19.73C113.162 19.31 112.402 19.1 111.452 19.1C110.512 19.1 109.757 19.31 109.187 19.73C108.617 20.14 108.332 20.68 108.332 21.35C108.332 22.03 108.617 22.575 109.187 22.985C109.757 23.395 110.512 23.6 111.452 23.6C112.392 23.6 113.147 23.395 113.717 22.985C114.297 22.575 114.587 22.03 114.587 21.35ZM133.261 25.04H129.211V27.125H134.401V28.52H122.326V27.125H127.456V25.04H123.871V20.615H131.131V19.07H123.796V17.675H132.871V22.01H125.611V23.63H133.261V25.04ZM147.379 28.295H135.304V26.915H147.379V28.295ZM145.849 18.185C145.849 21.305 145.644 23.95 145.234 26.12L143.524 25.955C143.684 25.265 143.819 24.295 143.929 23.045C144.049 21.795 144.104 20.635 144.094 19.565H136.684V18.185H145.849ZM159.323 26.51H157.583V16.82H159.323V26.51ZM159.623 29.825H150.353V25.55H152.123V28.445H159.623V29.825ZM148.703 21.11C148.703 20.15 149.033 19.36 149.693 18.74C150.363 18.12 151.238 17.81 152.318 17.81C153.408 17.81 154.283 18.12 154.943 18.74C155.603 19.36 155.933 20.15 155.933 21.11C155.933 22.08 155.603 22.87 154.943 23.48C154.283 24.09 153.408 24.395 152.318 24.395C151.228 24.395 150.353 24.09 149.693 23.48C149.033 22.87 148.703 22.08 148.703 21.11ZM150.503 21.11C150.503 21.65 150.668 22.095 150.998 22.445C151.328 22.785 151.768 22.955 152.318 22.955C152.888 22.955 153.333 22.785 153.653 22.445C153.983 22.095 154.148 21.65 154.148 21.11C154.148 20.59 153.983 20.16 153.653 19.82C153.323 19.48 152.878 19.31 152.318 19.31C151.768 19.31 151.328 19.48 150.998 19.82C150.668 20.16 150.503 20.59 150.503 21.11Z" fill="black" fill-opacity="0.85"/>
<defs>
<clipPath id="clip0_5143_105805">
<rect width="17.9999" height="18" fill="white" transform="translate(14 13.5)"/>
</clipPath>
</defs>
</svg>
