<svg width="124" height="18" viewBox="0 0 124 18" fill="none" xmlns="http://www.w3.org/2000/svg">
<path d="M15.1939 0V8.72838C15.1939 9.11466 15.0943 9.4777 14.9194 9.7947C14.5356 10.4897 13.7883 10.961 12.9289 10.961C12.0695 10.961 11.3222 10.4897 10.9384 9.7947C10.7631 9.4777 10.6639 9.11466 10.6639 8.72838V0H7.59695V8.72838C7.59695 9.11466 7.49731 9.4777 7.3225 9.7947C6.93862 10.4897 6.19134 10.961 5.33196 10.961C4.47259 10.961 3.7253 10.4897 3.34143 9.7947C3.16662 9.4777 3.06698 9.11466 3.06698 8.72838V0H0V18H18.2609V0H15.1939Z" fill="currentColor"/>
<path d="M21.1484 0V18H25.6779V13.5352H34.8793V18H39.4088V0H21.1479H21.1484ZM30.2791 9.17429C29.0282 9.17429 28.0141 8.1746 28.0141 6.94166C28.0141 5.70872 29.0282 4.70903 30.2791 4.70903C31.5299 4.70903 32.544 5.70872 32.544 6.94166C32.544 8.1746 31.5299 9.17429 30.2791 9.17429Z" fill="currentColor"/>
<path d="M53.9718 7.48842V8.70119V8.70207C53.9718 8.70207 53.9718 8.70294 53.9718 8.70338C53.9718 9.17604 53.8219 9.61362 53.5674 9.97447C53.1582 10.5546 52.4776 10.9347 51.7068 10.9347C50.9359 10.9347 50.2549 10.5546 49.8461 9.97447C49.5917 9.61362 49.4423 9.1756 49.4418 8.70338C49.4418 8.70338 49.4418 8.70251 49.4418 8.70207V8.70119V7.48842H49.4369V3.0236H60.5568V0H42.2959V18H60.5568V7.48842H53.9713H53.9718Z" fill="currentColor"/>
<path d="M75.1192 7.48842V8.70119V8.70207C75.1192 8.70207 75.1192 8.70294 75.1192 8.70338C75.1192 9.17604 74.9693 9.61362 74.7149 9.97447C74.3057 10.5546 73.6251 10.9347 72.8543 10.9347C72.0834 10.9347 71.4024 10.5546 70.9936 9.97447C70.7392 9.61362 70.5897 9.1756 70.5893 8.70338C70.5893 8.70338 70.5893 8.70251 70.5893 8.70207V8.70119V7.48842H70.5844V3.0236H81.7042V0H63.4434V18H81.7042V7.48842H75.1188H75.1192Z" fill="currentColor"/>
<path d="M95.3028 10.961C95.1294 10.961 94.959 10.9487 94.7922 10.925C93.2491 10.7071 92.0241 9.51672 91.7777 8.00404C91.7479 7.82077 91.7323 7.63311 91.7323 7.4415V0H84.5913V18H102.852V10.961H95.3028Z" fill="currentColor"/>
<path d="M112.88 14.9768V10.5116H124V7.48842H112.88V3.02317H124V0H105.739V18H124V14.9768H112.88Z" fill="currentColor"/>
</svg>
