<svg width="48" height="48" viewBox="0 0 48 48" fill="none" xmlns="http://www.w3.org/2000/svg">
<rect width="48" height="48" rx="6" fill="#F2F3F4"/>
<path d="M23.6989 7.021C14.3369 7.021 6.71973 14.6382 6.71973 24.0001C6.71973 33.3621 14.3369 40.9793 23.6989 40.9793C33.0608 40.9793 40.678 33.3621 40.678 24.0001C40.678 14.6382 33.0608 7.021 23.6989 7.021Z" fill="#878B96"/>
<path d="M21.8126 17.5856C22.4378 17.5856 22.9445 16.5721 22.9445 15.3217C22.9445 14.0714 22.4378 13.0579 21.8126 13.0579C21.1875 13.0579 20.6807 14.0714 20.6807 15.3217C20.6807 16.5721 21.1875 17.5856 21.8126 17.5856Z" fill="white"/>
<path d="M24.8312 17.5856C25.4563 17.5856 25.9631 16.5721 25.9631 15.3217C25.9631 14.0714 25.4563 13.0579 24.8312 13.0579C24.206 13.0579 23.6992 14.0714 23.6992 15.3217C23.6992 16.5721 24.206 17.5856 24.8312 17.5856Z" fill="white"/>
<path d="M16.0644 19.3718C13.952 19.3718 12.2334 21.0904 12.2334 23.2028C12.2334 25.3152 13.952 27.0338 16.0644 27.0338C18.1767 27.0338 19.8953 25.3152 19.8953 23.2028C19.8953 21.0904 18.1767 19.3718 16.0644 19.3718Z" fill="#878B96"/>
<path d="M16.0714 18.2227C13.3245 18.2227 11.0908 20.4573 11.0908 23.2032C11.0908 25.9491 13.3255 28.1837 16.0714 28.1837C18.8173 28.1837 21.0519 25.9491 21.0519 23.2032C21.0519 20.4573 18.8173 18.2227 16.0714 18.2227ZM16.0714 27.0351C13.959 27.0351 12.2404 25.3165 12.2404 23.2042C12.2404 21.0918 13.959 19.3732 16.0714 19.3732C18.1837 19.3732 19.9023 21.0918 19.9023 23.2042C19.9023 25.3165 18.1837 27.0351 16.0714 27.0351Z" fill="white"/>
<path d="M36.2989 9.28467C33.5526 9.28467 31.3184 11.5191 31.3184 14.2657C31.3184 17.0123 33.5526 19.2457 36.2989 19.2457C39.0452 19.2457 41.2794 17.0113 41.2794 14.2657C41.2794 11.5201 39.0452 9.28467 36.2989 9.28467ZM36.2989 18.0963C34.1869 18.0963 32.4687 16.3779 32.4687 14.2657C32.4687 12.1535 34.1869 10.4351 36.2989 10.4351C38.4109 10.4351 40.1291 12.1535 40.1291 14.2657C40.1291 16.3779 38.4109 18.0963 36.2989 18.0963Z" fill="white"/>
<path d="M36.2941 10.4355C34.1821 10.4355 32.4639 12.154 32.4639 14.2661C32.4639 16.3783 34.1821 18.0967 36.2941 18.0967C38.4061 18.0967 40.1243 16.3783 40.1243 14.2661C40.1243 12.154 38.4061 10.4355 36.2941 10.4355Z" fill="#878B96"/>
</svg>
