<svg width="44" height="44" viewBox="0 0 44 44" fill="none" xmlns="http://www.w3.org/2000/svg">
<rect width="44" height="44" rx="6" fill="#F2F3F4"/>
<path d="M21.7244 6.43604C13.1426 6.43604 6.16016 13.4185 6.16016 22.0002C6.16016 30.582 13.1426 37.5644 21.7244 37.5644C30.3061 37.5644 37.2886 30.582 37.2886 22.0002C37.2886 13.4185 30.3061 6.43604 21.7244 6.43604Z" fill="#878B96"/>
<path d="M19.9946 16.1202C20.5677 16.1202 21.0323 15.1911 21.0323 14.045C21.0323 12.8988 20.5677 11.9697 19.9946 11.9697C19.4216 11.9697 18.957 12.8988 18.957 14.045C18.957 15.1911 19.4216 16.1202 19.9946 16.1202Z" fill="white"/>
<path d="M22.7622 16.1202C23.3353 16.1202 23.7998 15.1911 23.7998 14.045C23.7998 12.8988 23.3353 11.9697 22.7622 11.9697C22.1892 11.9697 21.7246 12.8988 21.7246 14.045C21.7246 15.1911 22.1892 16.1202 22.7622 16.1202Z" fill="white"/>
<path d="M14.7266 17.7568C12.7902 17.7568 11.2148 19.3322 11.2148 21.2685C11.2148 23.2049 12.7902 24.7803 14.7266 24.7803C16.6629 24.7803 18.2383 23.2049 18.2383 21.2685C18.2383 19.3322 16.6629 17.7568 14.7266 17.7568Z" fill="#878B96"/>
<path d="M14.7325 16.7036C12.2145 16.7036 10.167 18.752 10.167 21.2691C10.167 23.7862 12.2154 25.8346 14.7325 25.8346C17.2496 25.8346 19.298 23.7862 19.298 21.2691C19.298 18.752 17.2496 16.7036 14.7325 16.7036ZM14.7325 24.7817C12.7961 24.7817 11.2208 23.2063 11.2208 21.27C11.2208 19.3336 12.7961 17.7583 14.7325 17.7583C16.6688 17.7583 18.2442 19.3336 18.2442 21.27C18.2442 23.2063 16.6688 24.7817 14.7325 24.7817Z" fill="white"/>
<path d="M33.2745 8.51074C30.757 8.51074 28.709 10.559 28.709 13.0767C28.709 15.5944 30.757 17.6417 33.2745 17.6417C35.7919 17.6417 37.84 15.5935 37.84 13.0767C37.84 10.5599 35.7919 8.51074 33.2745 8.51074ZM33.2745 16.5881C31.3385 16.5881 29.7634 15.0128 29.7634 13.0767C29.7634 11.1405 31.3385 9.5653 33.2745 9.5653C35.2105 9.5653 36.7855 11.1405 36.7855 13.0767C36.7855 15.0128 35.2105 16.5881 33.2745 16.5881Z" fill="white"/>
<path d="M33.2698 9.56543C31.3339 9.56543 29.7588 11.1406 29.7588 13.0768C29.7588 15.013 31.3339 16.5882 33.2698 16.5882C35.2058 16.5882 36.7809 15.013 36.7809 13.0768C36.7809 11.1406 35.2058 9.56543 33.2698 9.56543Z" fill="#878B96"/>
</svg>
