<svg width="24" height="24" viewBox="0 0 24 24" fill="none" xmlns="http://www.w3.org/2000/svg">
<path fill-rule="evenodd" clip-rule="evenodd" d="M11.636 6.13991C11.9875 5.78844 11.9875 5.21859 11.636 4.86712C11.2845 4.51565 10.7147 4.51565 10.3632 4.86712L3.86321 11.3671C3.69443 11.5359 3.59961 11.7648 3.59961 12.0035C3.59961 12.2422 3.69443 12.4711 3.86321 12.6399L10.3632 19.1399C10.7147 19.4914 11.2845 19.4914 11.636 19.1399C11.9875 18.7884 11.9875 18.2186 11.636 17.8671L5.7724 12.0035L11.636 6.13991ZM19.6362 6.13991C19.9877 5.78844 19.9877 5.21859 19.6362 4.86712C19.2847 4.51565 18.7149 4.51565 18.3634 4.86712L11.8634 11.3671C11.6946 11.5359 11.5998 11.7648 11.5998 12.0035C11.5998 12.2422 11.6946 12.4711 11.8634 12.6399L18.3634 19.1399C18.7149 19.4914 19.2847 19.4914 19.6362 19.1399C19.9877 18.7884 19.9877 18.2186 19.6362 17.8671L13.7726 12.0035L19.6362 6.13991Z" fill="#171719"/>
</svg>
