<svg className={className} viewBox="0 0 24 24" fill="none" xmlns="http://www.w3.org/2000/svg">
<path fill-rule="evenodd" clip-rule="evenodd" d="M11.637 4.63894C11.9884 4.28746 11.9884 3.71761 11.637 3.36614C11.2855 3.01467 10.7157 3.01467 10.3642 3.36614L2.36419 11.3661C2.01272 11.7176 2.01272 12.2875 2.36419 12.6389L10.3642 20.6389C10.7157 20.9904 11.2855 20.9904 11.637 20.6389C11.9884 20.2875 11.9884 19.7176 11.637 19.3661L4.27338 12.0025L11.637 4.63894ZM21.137 4.63933C21.4885 4.28785 21.4885 3.71801 21.137 3.36653C20.7855 3.01506 20.2157 3.01506 19.8642 3.36653L11.8642 11.3665C11.5127 11.718 11.5127 12.2879 11.8642 12.6393L19.8642 20.6393C20.2157 20.9908 20.7855 20.9908 21.137 20.6393C21.4885 20.2879 21.4885 19.718 21.137 19.3665L13.7734 12.0029L21.137 4.63933Z" fill="currentColor"/>
</svg>
