<svg width="24" height="24" viewBox="0 0 24 24" fill="none" xmlns="http://www.w3.org/2000/svg">
<path d="M4.36328 4.86719C4.71475 4.51572 5.28525 4.51572 5.63672 4.86719L12.1367 11.3672C12.4878 11.7187 12.4881 12.2893 12.1367 12.6406L5.63672 19.1406C5.28538 19.492 4.71479 19.4917 4.36328 19.1406C4.01181 18.7892 4.01181 18.2187 4.36328 17.8672L10.2266 12.0039L4.36328 6.14062C4.01181 5.78915 4.01181 5.21866 4.36328 4.86719ZM12.3633 4.86719C12.7148 4.51572 13.2852 4.51572 13.6367 4.86719L20.1367 11.3672C20.4879 11.7187 20.4881 12.2893 20.1367 12.6406L13.6367 19.1406C13.2853 19.4919 12.7147 19.4918 12.3633 19.1406C12.0118 18.7892 12.0119 18.2187 12.3633 17.8672L18.2266 12.0039L12.3633 6.14062C12.0118 5.78918 12.0119 5.21867 12.3633 4.86719Z" fill="black"/>
<path fill-rule="evenodd" clip-rule="evenodd" d="M4.36321 6.13991C4.01174 5.78844 4.01174 5.21859 4.36321 4.86712C4.71468 4.51565 5.28453 4.51565 5.636 4.86712L12.136 11.3671C12.3048 11.5359 12.3996 11.7648 12.3996 12.0035C12.3996 12.2422 12.3048 12.4711 12.136 12.6399L5.636 19.1399C5.28453 19.4914 4.71469 19.4914 4.36321 19.1399C4.01174 18.7884 4.01174 18.2186 4.36321 17.8671L10.2268 12.0035L4.36321 6.13991ZM12.3634 6.13991C12.0119 5.78844 12.0119 5.21859 12.3634 4.86712C12.7149 4.51565 13.2847 4.51565 13.6362 4.86712L20.1362 11.3671C20.305 11.5359 20.3998 11.7648 20.3998 12.0035C20.3998 12.2422 20.305 12.4711 20.1362 12.6399L13.6362 19.1399C13.2847 19.4914 12.7149 19.4914 12.3634 19.1399C12.0119 18.7884 12.0119 18.2186 12.3634 17.8671L18.227 12.0035L12.3634 6.13991Z" fill="#171719"/>
</svg>
