<svg width="24" height="24" viewBox="0 0 24 24" fill="none" xmlns="http://www.w3.org/2000/svg">
<path fill-rule="evenodd" clip-rule="evenodd" d="M19.9198 6.41748C20.4275 5.9098 20.4275 5.08668 19.9198 4.579C19.4122 4.07132 18.5891 4.07132 18.0814 4.579L11.5814 11.079C11.0737 11.5867 11.0737 12.4098 11.5814 12.9175L18.0814 19.4175C18.5891 19.9252 19.4122 19.9252 19.9198 19.4175C20.4275 18.9098 20.4275 18.0867 19.9198 17.579L14.3391 11.9982L19.9198 6.41748ZM11.9194 6.41768C12.4271 5.90999 12.4271 5.08688 11.9194 4.5792C11.4117 4.07152 10.5886 4.07152 10.081 4.5792L3.58096 11.0792C3.07328 11.5869 3.07327 12.41 3.58096 12.9177L10.081 19.4177C10.5886 19.9254 11.4117 19.9254 11.9194 19.4177C12.4271 18.91 12.4271 18.0869 11.9194 17.5792L6.33867 11.9984L11.9194 6.41768Z" fill="#171719"/>
</svg>
