<svg width="24" height="24" viewBox="0 0 24 24" fill="none" xmlns="http://www.w3.org/2000/svg">
<path d="M2.58105 3.0791C3.08867 2.57149 3.91125 2.57162 4.41895 3.0791L12.4189 11.0791C12.9266 11.5868 12.9266 12.4093 12.4189 12.917L4.41895 20.917C3.91126 21.4247 3.08874 21.4247 2.58105 20.917C2.07357 20.4093 2.07344 19.5867 2.58105 19.0791L9.66211 11.998L2.58105 4.91699C2.07357 4.40929 2.07344 3.58672 2.58105 3.0791ZM12.0811 3.0791C12.5887 2.57149 13.4112 2.57162 13.9189 3.0791L21.9189 11.0791C22.4266 11.5868 22.4266 12.4093 21.9189 12.917L13.9189 20.917C13.4113 21.4247 12.5887 21.4247 12.0811 20.917C11.5736 20.4093 11.5734 19.5867 12.0811 19.0791L19.1621 11.998L12.0811 4.91699C11.5736 4.40929 11.5734 3.58672 12.0811 3.0791Z" fill="black"/>
<path fill-rule="evenodd" clip-rule="evenodd" d="M2.58096 4.91748C2.07327 4.4098 2.07328 3.58668 2.58096 3.079C3.08864 2.57132 3.91175 2.57132 4.41943 3.079L12.4194 11.079C12.9271 11.5867 12.9271 12.4098 12.4194 12.9175L4.41944 20.9175C3.91175 21.4252 3.08864 21.4252 2.58096 20.9175C2.07328 20.4098 2.07328 19.5867 2.58096 19.079L9.66171 11.9982L2.58096 4.91748ZM12.081 4.91748C11.5733 4.4098 11.5733 3.58668 12.081 3.079C12.5886 2.57132 13.4118 2.57132 13.9194 3.079L21.9194 11.079C22.4271 11.5867 22.4271 12.4098 21.9194 12.9175L13.9194 20.9175C13.4118 21.4252 12.5886 21.4252 12.081 20.9175C11.5733 20.4098 11.5733 19.5867 12.081 19.079L19.1617 11.9982L12.081 4.91748Z" fill="#171719"/>
</svg>
