<svg width="24" height="24" viewBox="0 0 24 24" fill="none" xmlns="http://www.w3.org/2000/svg">
<path d="M4.08105 4.58496C4.58867 4.07734 5.41125 4.07747 5.91895 4.58496L12.4189 11.085C12.6627 11.3287 12.7998 11.6592 12.7998 12.0039C12.7998 12.3487 12.6627 12.6791 12.4189 12.9229L5.91895 19.4229C5.41126 19.9305 4.58874 19.9305 4.08105 19.4229C3.57357 18.9152 3.57344 18.0926 4.08105 17.585L9.66211 12.0039L4.08105 6.42285C3.57357 5.91515 3.57344 5.09258 4.08105 4.58496ZM12.0811 4.58496C12.5887 4.07736 13.4112 4.07754 13.9189 4.58496L20.4189 11.085C20.6627 11.3287 20.7998 11.6592 20.7998 12.0039C20.7998 12.3487 20.6627 12.6791 20.4189 12.9229L13.9189 19.4229C13.4113 19.9305 12.5887 19.9305 12.0811 19.4229C11.5737 18.9152 11.5735 18.0926 12.0811 17.585L17.6621 12.0039L12.0811 6.42285C11.5736 5.91517 11.5735 5.09256 12.0811 4.58496Z" fill="black"/>
<path fill-rule="evenodd" clip-rule="evenodd" d="M4.08096 6.42334C3.57327 5.91566 3.57327 5.09254 4.08096 4.58486C4.58864 4.07718 5.41175 4.07718 5.91943 4.58486L12.4194 11.0849C12.6632 11.3287 12.8002 11.6593 12.8002 12.0041C12.8002 12.3489 12.6632 12.6795 12.4194 12.9233L5.91943 19.4233C5.41175 19.931 4.58864 19.931 4.08096 19.4233C3.57328 18.9157 3.57328 18.0925 4.08096 17.5849L9.66172 12.0041L4.08096 6.42334ZM12.0811 6.42334C11.5734 5.91566 11.5734 5.09254 12.0811 4.58486C12.5888 4.07718 13.4119 4.07718 13.9196 4.58486L20.4196 11.0849C20.6634 11.3287 20.8003 11.6593 20.8003 12.0041C20.8003 12.3489 20.6634 12.6795 20.4196 12.9233L13.9196 19.4233C13.4119 19.931 12.5888 19.931 12.0811 19.4233C11.5734 18.9157 11.5734 18.0925 12.0811 17.5849L17.6618 12.0041L12.0811 6.42334Z" fill="#171719"/>
</svg>
