<svg className={className} viewBox="0 0 24 24" fill="none" xmlns="http://www.w3.org/2000/svg">
<path d="M2.86426 3.36719C3.21573 3.01572 3.78622 3.01572 4.1377 3.36719L12.1377 11.3672C12.4888 11.7187 12.489 12.2893 12.1377 12.6406L4.1377 20.6406C3.78635 20.992 3.21576 20.9917 2.86426 20.6406C2.51279 20.2892 2.51279 19.7187 2.86426 19.3672L10.2275 12.0039L2.86426 4.64062C2.51279 4.28915 2.51279 3.71866 2.86426 3.36719ZM12.3643 3.36719C12.7157 3.01572 13.2862 3.01572 13.6377 3.36719L21.6377 11.3672C21.9888 11.7187 21.989 12.2893 21.6377 12.6406L13.6377 20.6406C13.2864 20.992 12.7158 20.9917 12.3643 20.6406C12.0128 20.2892 12.0128 19.7187 12.3643 19.3672L19.7275 12.0039L12.3643 4.64062C12.0128 4.28915 12.0128 3.71866 12.3643 3.36719Z" fill="currentColor"/>
<path fill-rule="evenodd" clip-rule="evenodd" d="M2.86419 4.63991C2.51272 4.28844 2.51272 3.71859 2.86419 3.36712C3.21566 3.01565 3.78551 3.01565 4.13698 3.36712L12.137 11.3671C12.4884 11.7186 12.4884 12.2884 12.137 12.6399L4.13698 20.6399C3.78551 20.9914 3.21566 20.9914 2.86419 20.6399C2.51272 20.2884 2.51272 19.7186 2.86419 19.3671L10.2278 12.0035L2.86419 4.63991ZM12.3642 4.63991C12.0127 4.28844 12.0127 3.71859 12.3642 3.36712C12.7157 3.01565 13.2855 3.01565 13.637 3.36712L21.637 11.3671C21.9884 11.7186 21.9884 12.2884 21.637 12.6399L13.637 20.6399C13.2855 20.9914 12.7157 20.9914 12.3642 20.6399C12.0127 20.2884 12.0127 19.7186 12.3642 19.3671L19.7278 12.0035L12.3642 4.63991Z" fill="currentColor"/>
</svg>
