<svg width="25" height="24" viewBox="0 0 25 24" fill="none" xmlns="http://www.w3.org/2000/svg">
<g clip-path="url(#clip0_6232_185085)">
<path d="M19.2651 18.6954C20.0934 18.3451 21.0809 18.2176 22.3552 18.2494C22.3194 18.0109 21.864 17.7277 21.5304 17.5203C21.4184 17.4506 21.3202 17.3895 21.2561 17.3415C20.7464 16.9752 20.2048 16.5928 19.6633 16.2584C19.4888 16.1518 19.2376 16.0629 18.996 15.9773C18.8405 15.9222 18.6889 15.8685 18.5642 15.8124C18.4367 15.7605 18.2632 15.7086 18.0758 15.6525C17.6307 15.5193 17.1077 15.3628 16.9395 15.1275C16.5064 14.5645 16.2041 13.8836 15.9023 13.2037C15.8711 13.1334 15.8399 13.0632 15.8086 12.9931C15.6506 12.6319 15.4748 12.2637 15.2981 11.8933C15.1006 11.4797 14.902 11.0634 14.7255 10.6516C14.6486 10.4839 14.5901 10.3253 14.5325 10.1692C14.4589 9.96956 14.3868 9.774 14.2795 9.56849C13.1166 7.32263 11.3965 5.443 9.30983 4.12097C8.62482 3.69088 7.86038 3.29257 7.0161 3.02187C6.75828 2.94456 6.47266 2.93211 6.18422 2.91954C5.93806 2.90882 5.68985 2.898 5.45514 2.8467H5.12058C4.92746 2.79305 4.756 2.63818 4.59651 2.49412C4.51925 2.42433 4.44479 2.35707 4.37203 2.30509C3.87819 1.97064 3.38445 1.7475 2.79508 1.50867C2.58804 1.41314 1.99867 1.19011 1.79162 1.36538C1.66411 1.39726 1.60046 1.44502 1.56858 1.57243C1.44117 1.76359 1.55279 2.05028 1.63234 2.22545C1.79022 2.56228 1.98986 2.80869 2.19443 3.0612C2.29945 3.19083 2.40576 3.32206 2.5084 3.46795C2.55742 3.53714 2.60853 3.60789 2.6605 3.67984C2.8956 4.00533 3.14826 4.35513 3.30482 4.69435C3.52573 5.17025 3.6832 5.67334 3.84009 6.17458C3.97728 6.61291 4.11404 7.04982 4.2924 7.46593C4.43569 7.80048 4.65873 8.1827 4.86578 8.48538C4.93071 8.57395 5.01537 8.65376 5.10107 8.73456C5.24655 8.8717 5.39503 9.01168 5.45515 9.20216C5.61005 9.4603 5.32566 10.1995 5.15286 10.6487C5.11242 10.7538 5.07809 10.8431 5.05694 10.9065C4.64274 12.2126 4.72238 14.0284 5.20023 15.1593C5.21731 15.1992 5.23426 15.2396 5.25134 15.2804C5.42538 15.6961 5.6122 16.1423 6.07629 16.2584C6.09073 16.244 6.09211 16.2394 6.09521 16.2371C6.09896 16.2345 6.10522 16.2353 6.14005 16.2265C6.16336 16.0434 6.18319 15.8617 6.20274 15.6826C6.27675 15.0046 6.34676 14.3631 6.58602 13.8214C6.70003 13.5416 6.8881 13.3158 7.0714 13.0957C7.16991 12.9774 7.26705 12.8607 7.35056 12.7383C7.45165 12.7989 7.48859 12.9365 7.52653 13.0778C7.54837 13.1592 7.57054 13.2418 7.60548 13.3117C7.62052 13.3475 7.63564 13.3836 7.65085 13.42C7.84509 13.8838 8.05407 14.3829 8.29038 14.8407C8.81599 15.8602 9.40546 16.8477 10.0744 17.7397C10.2973 18.0583 10.616 18.4087 10.9027 18.6954C10.9463 18.7336 10.9917 18.7661 11.0365 18.7982C11.1226 18.8598 11.2061 18.9197 11.269 19.014H11.3009V19.0619C10.9985 18.9509 10.7663 18.7124 10.5396 18.4796C10.4081 18.3445 10.2784 18.2114 10.138 18.1062C9.42126 17.5645 8.56118 16.7521 8.06734 15.9717C7.91181 15.6367 7.7473 15.3106 7.58053 14.9801C7.52529 14.8706 7.46981 14.7606 7.41432 14.6497C7.41432 14.6497 7.4144 14.6337 7.41432 14.6178C7.35345 14.699 7.34431 14.7801 7.3333 14.8778C7.32704 14.9334 7.32017 14.9944 7.3028 15.0638C7.24376 15.2909 7.21451 15.527 7.18624 15.7553C7.11536 16.3275 7.05065 16.8499 6.53826 17.0548C5.72595 17.3894 5.12059 16.5131 4.86578 16.115C4.05347 14.793 3.83043 12.563 4.40381 10.7631C4.44817 10.6246 4.47904 10.4764 4.50981 10.3287C4.56749 10.0517 4.62487 9.77623 4.77025 9.56849C4.73829 9.37707 4.62828 9.27791 4.52077 9.181C4.46726 9.13277 4.41438 9.0851 4.37204 9.02689C4.149 8.72431 3.95794 8.37387 3.78267 8.03941C3.52799 7.54222 3.32879 6.97115 3.13573 6.4177C3.07518 6.24412 3.01524 6.07226 2.95437 5.90497C2.9 5.76519 2.86459 5.62537 2.82964 5.48741C2.79292 5.3424 2.75671 5.19945 2.69956 5.06078C2.54899 4.73453 2.29965 4.40833 2.06817 4.1055C2.00577 4.02387 1.94467 3.94393 1.88715 3.86615C1.8251 3.7771 1.74294 3.67389 1.65135 3.55884C1.20224 2.99465 0.526453 2.14571 0.883689 1.28574C1.5527 -0.354865 3.89429 0.887429 4.80203 1.46091C4.8928 1.51927 4.98886 1.604 5.08803 1.69148C5.23254 1.81895 5.38369 1.95227 5.53479 2.0184C5.73394 2.0264 5.93311 2.03834 6.13227 2.05029C6.33134 2.06223 6.53041 2.07416 6.72942 2.08216C6.79463 2.09742 6.85948 2.11243 6.92392 2.12736C7.59931 2.28376 8.2302 2.42986 8.76823 2.73518C11.5079 4.344 13.2919 5.98461 14.9325 8.69243C15.1553 9.05684 15.3072 9.4406 15.462 9.8314C15.5507 10.0555 15.6404 10.2819 15.7448 10.5083C16.143 11.4321 16.5892 12.4036 17.051 13.2798C17.109 13.3959 17.1633 13.5158 17.2178 13.6359C17.3574 13.9442 17.4977 14.2541 17.7041 14.5063C17.7783 14.6123 17.9442 14.6689 18.1033 14.7231C18.1832 14.7503 18.2614 14.777 18.3253 14.809C18.5313 14.9151 18.7544 15.0114 18.9794 15.1085C19.3283 15.2592 19.6816 15.4117 19.9818 15.6054C20.9057 16.1788 21.7977 16.8636 22.61 17.5646C22.7742 17.7115 22.9103 17.8912 23.0462 18.0707C23.1608 18.222 23.2753 18.3732 23.4064 18.5044V18.6477C23.1516 18.7273 22.8967 18.8069 22.6419 18.8707C22.3646 18.942 22.1031 18.9699 21.8437 18.9976C21.5814 19.0256 21.3213 19.0534 21.0491 19.1255C21.0147 19.1353 20.9796 19.1455 20.9437 19.1558C20.6302 19.2463 20.2645 19.3518 19.95 19.3804C19.9659 19.3963 19.9818 19.4122 19.9818 19.4122C20.1354 19.8492 20.7882 20.2249 21.3232 20.5328C21.5097 20.6402 21.6819 20.7393 21.8136 20.8299C22.4348 21.2758 23.0082 21.8174 23.4702 22.4386C23.5496 22.518 23.629 22.5935 23.7085 22.6689C23.7883 22.7448 23.8682 22.8207 23.948 22.9006C24.002 22.9777 24.0373 23.066 24.072 23.1529C24.109 23.2454 24.1453 23.3363 24.2029 23.4103V23.458C24.0635 23.4083 23.9677 23.3087 23.8727 23.21C23.8157 23.1507 23.7589 23.0917 23.6931 23.044C23.5431 22.9417 23.3931 22.8306 23.2431 22.7195C23.0428 22.5711 22.8424 22.4227 22.6419 22.2953C22.3337 22.1006 22.0007 21.9473 21.666 21.7931C21.3435 21.6446 21.0194 21.4954 20.7145 21.3077C20.3642 21.0847 20.0296 20.8299 19.6951 20.5751C19.3925 20.352 19.0581 19.9218 18.8668 19.6034C18.8186 19.5277 18.7883 19.446 18.7591 19.3674C18.7207 19.2641 18.6843 19.166 18.6119 19.0936C18.6358 18.8674 18.8556 18.8102 19.0649 18.7559C19.1354 18.7375 19.2048 18.7195 19.2651 18.6954Z" fill="#00546B"/>
<path d="M5.45507 4.4873C5.64623 4.43953 5.83729 4.40755 6.10809 4.40755C6.15858 4.45808 6.22158 4.50107 6.28519 4.54448C6.38213 4.61063 6.4805 4.67776 6.53818 4.77399C6.57356 4.82353 6.59636 4.87308 6.61916 4.92263C6.64768 4.9846 6.6762 5.04657 6.72934 5.10854C6.72934 5.49077 6.61792 5.74558 6.39478 5.90496C6.39478 5.90496 6.3789 5.92085 6.36301 5.93684C6.29935 5.80957 6.2397 5.6823 6.18005 5.55504C6.12023 5.42741 6.06042 5.29979 5.99657 5.1722C5.93455 5.08539 5.86289 5.0058 5.79097 4.92593C5.6782 4.8007 5.5648 4.67476 5.48695 4.51918H5.45507V4.4873Z" fill="#00546B"/>
</g>
<defs>
<clipPath id="clip0_6232_185085">
<rect width="24" height="24" fill="white" transform="translate(0.5)"/>
</clipPath>
</defs>
</svg>
