<svg width="25" height="24" viewBox="0 0 25 24" fill="none" xmlns="http://www.w3.org/2000/svg">
<path d="M8.16186 23.3262C7.6032 23.3262 7.07558 23.0779 6.71866 22.6279L1.28726 15.8775C0.93034 15.4274 0.790676 14.8533 0.93034 14.2946L2.87012 5.86818C2.99427 5.30952 3.36671 4.85949 3.87881 4.6112L11.7311 0.855775C11.9794 0.731629 12.2587 0.669556 12.538 0.669556C12.8173 0.669556 13.0967 0.731629 13.345 0.855775L21.1972 4.59568C21.7093 4.84397 22.0817 5.294 22.2059 5.85266L24.1457 14.2791C24.2698 14.8377 24.1457 15.4119 23.7888 15.8619L18.3574 22.6124C18.0004 23.0469 17.4728 23.3107 16.9142 23.3107L8.16186 23.3262Z" fill="#326DE6"/>
<path d="M12.5233 1.05748C12.7405 1.05748 12.9578 1.10404 13.1595 1.19715L21.0118 4.93705C21.4152 5.13879 21.7256 5.51123 21.8187 5.94574L23.7585 14.3722C23.8671 14.8222 23.7585 15.2877 23.4637 15.6447L18.0323 22.3951C17.7529 22.752 17.3184 22.9538 16.8684 22.9538H8.16264C7.71261 22.9538 7.2781 22.752 6.99877 22.3951L1.56738 15.6447C1.28805 15.2877 1.17942 14.8222 1.27253 14.3722L3.21231 5.94574C3.32094 5.49571 3.61579 5.12327 4.01926 4.93705L11.8715 1.18163C12.0732 1.10404 12.306 1.05748 12.5233 1.05748ZM12.5233 0.328125C12.1974 0.328125 11.8715 0.405716 11.5611 0.545381L3.7089 4.3008C3.08817 4.59565 2.65365 5.13879 2.49847 5.80608L0.558688 14.2325C0.403505 14.8998 0.558688 15.5826 0.993199 16.1257L6.4246 22.8762C6.84359 23.4038 7.47984 23.6986 8.14712 23.6986H16.8529C17.5202 23.6986 18.1564 23.4038 18.5754 22.8762L24.0068 16.1257C24.4413 15.5981 24.5965 14.8998 24.4413 14.2325L22.5015 5.80608C22.3463 5.13879 21.9118 4.59565 21.2911 4.3008L13.4699 0.545381C13.175 0.405716 12.8492 0.328125 12.5233 0.328125Z" fill="white"/>
<path d="M20.3912 13.7049C20.3757 13.7049 20.3757 13.7049 20.3912 13.7049H20.3757C20.3602 13.7049 20.3446 13.7049 20.3446 13.6894C20.3136 13.6894 20.2826 13.6738 20.2515 13.6738C20.1429 13.6583 20.0498 13.6428 19.9567 13.6428C19.9101 13.6428 19.8636 13.6428 19.8015 13.6273H19.786C19.4601 13.5962 19.1963 13.5652 18.948 13.4876C18.8394 13.4411 18.8083 13.379 18.7773 13.3169C18.7773 13.3014 18.7618 13.3014 18.7618 13.2859L18.56 13.2238C18.6531 12.51 18.6221 11.7651 18.4514 11.0357C18.2807 10.3064 17.9859 9.62357 17.5824 9.00284L17.7376 8.86317V8.83213C17.7376 8.75454 17.7531 8.67695 17.8152 8.59936C18.0014 8.42866 18.2342 8.28899 18.5135 8.11829C18.56 8.08726 18.6066 8.07174 18.6531 8.0407C18.7463 7.99415 18.8238 7.94759 18.917 7.88552C18.9325 7.87 18.9635 7.85448 18.9945 7.82345C19.0101 7.80793 19.0256 7.80793 19.0256 7.79241C19.2428 7.60619 19.2894 7.29583 19.1342 7.09409C19.0566 6.98546 18.917 6.92339 18.7773 6.92339C18.6531 6.92339 18.5445 6.96994 18.4359 7.04753C18.4204 7.06305 18.4204 7.06305 18.4049 7.07857C18.3738 7.09409 18.3583 7.12512 18.3273 7.14064C18.2497 7.21823 18.1876 7.28031 18.1255 7.3579C18.0945 7.38893 18.0635 7.43549 18.0169 7.46653C17.7996 7.6993 17.5979 7.88552 17.3962 8.02518C17.3496 8.05622 17.3031 8.07174 17.2565 8.07174C17.2255 8.07174 17.1944 8.07174 17.1634 8.05622H17.1324L16.9461 8.18037C16.7444 7.96311 16.5271 7.77689 16.3099 7.59067C15.3788 6.86131 14.246 6.41128 13.0666 6.30266L13.0511 6.10092C13.0355 6.0854 13.0355 6.0854 13.02 6.06988C12.9735 6.02333 12.9114 5.97677 12.8959 5.86814C12.8803 5.61985 12.9114 5.34052 12.9424 5.03016V5.01464C12.9424 4.96808 12.9579 4.90601 12.9735 4.85946C12.989 4.76635 13.0045 4.67324 13.02 4.56461V4.4715V4.42494C13.02 4.14562 12.8028 3.91284 12.5389 3.91284C12.4148 3.91284 12.2907 3.97491 12.1975 4.06802C12.1044 4.16113 12.0579 4.28528 12.0579 4.42494V4.45598V4.54909C12.0579 4.65772 12.0734 4.75083 12.1044 4.84394C12.12 4.89049 12.12 4.93705 12.1355 4.99912V5.01464C12.1665 5.325 12.2131 5.60433 12.182 5.85263C12.1665 5.96125 12.1044 6.00781 12.0579 6.05436C12.0424 6.06988 12.0424 6.06988 12.0268 6.0854L12.0113 6.28714C11.732 6.31817 11.4527 6.34921 11.1733 6.41128C9.97843 6.67509 8.92319 7.28031 8.10072 8.14933L7.94554 8.0407H7.9145C7.88347 8.0407 7.85243 8.05622 7.82139 8.05622C7.77484 8.05622 7.72828 8.0407 7.68173 8.00967C7.47999 7.87 7.27825 7.66826 7.061 7.43549C7.02996 7.40445 6.99892 7.3579 6.95237 7.32686C6.8903 7.24927 6.82822 7.1872 6.75063 7.10961C6.73511 7.09409 6.70408 7.07857 6.67304 7.04753C6.65752 7.03201 6.642 7.03201 6.642 7.0165C6.54889 6.93891 6.42475 6.89235 6.3006 6.89235C6.16094 6.89235 6.02127 6.95442 5.94368 7.06305C5.7885 7.26479 5.83505 7.57515 6.05231 7.76137C6.06783 7.76137 6.06783 7.77689 6.08335 7.77689C6.11438 7.79241 6.1299 7.82345 6.16094 7.83897C6.25405 7.90104 6.33164 7.94759 6.42475 7.99415C6.4713 8.00967 6.51786 8.0407 6.56441 8.07174C6.84374 8.24244 7.07651 8.3821 7.26273 8.55281C7.34033 8.6304 7.34033 8.70799 7.34033 8.78558V8.81662L7.49551 8.95628C7.46447 9.00284 7.43343 9.03387 7.41792 9.08043C6.642 10.3064 6.34716 11.7496 6.54889 13.1773L6.34716 13.2393C6.34716 13.2548 6.33164 13.2548 6.33164 13.2704C6.3006 13.3324 6.25405 13.3945 6.16094 13.4411C5.92816 13.5187 5.64883 13.5497 5.32295 13.5807H5.30743C5.26088 13.5807 5.1988 13.5807 5.15225 13.5962C5.05914 13.5962 4.96603 13.6118 4.8574 13.6273C4.82637 13.6273 4.79533 13.6428 4.76429 13.6428C4.74877 13.6428 4.73326 13.6428 4.71774 13.6583C4.43841 13.7204 4.26771 13.9842 4.31426 14.2325C4.36082 14.4497 4.56255 14.5894 4.81085 14.5894C4.8574 14.5894 4.88844 14.5894 4.93499 14.5739C4.95051 14.5739 4.96603 14.5739 4.96603 14.5584C4.99707 14.5584 5.0281 14.5429 5.05914 14.5429C5.16777 14.5118 5.24536 14.4808 5.33847 14.4342C5.38502 14.4187 5.43158 14.3877 5.47813 14.3722H5.49365C5.7885 14.2635 6.05231 14.1704 6.3006 14.1394H6.33164C6.42475 14.1394 6.48682 14.1859 6.53338 14.217C6.54889 14.217 6.54889 14.2325 6.56441 14.2325L6.78167 14.2015C7.15411 15.3498 7.86795 16.374 8.81456 17.1189C9.03182 17.2896 9.24907 17.4293 9.48185 17.5689L9.38874 17.7707C9.38874 17.7862 9.40426 17.7862 9.40426 17.8017C9.43529 17.8638 9.46633 17.9414 9.43529 18.05C9.34218 18.2828 9.20252 18.5155 9.03182 18.7793V18.7949C9.00078 18.8414 8.96974 18.8725 8.93871 18.919C8.87663 18.9966 8.83008 19.0742 8.76801 19.1673C8.75249 19.1828 8.73697 19.2139 8.72145 19.2449C8.72145 19.2604 8.70593 19.2759 8.70593 19.2759C8.58179 19.5397 8.6749 19.8346 8.90767 19.9432C8.96974 19.9743 9.03182 19.9898 9.09389 19.9898C9.28011 19.9898 9.46633 19.8656 9.55944 19.6949C9.55944 19.6794 9.57496 19.6639 9.57496 19.6639C9.59048 19.6329 9.60599 19.6018 9.62151 19.5863C9.66807 19.4777 9.68358 19.4001 9.71462 19.307C9.73014 19.2604 9.74566 19.2139 9.76118 19.1673C9.8698 18.8569 9.9474 18.6086 10.0871 18.3914C10.1491 18.2983 10.2267 18.2828 10.2888 18.2517C10.3043 18.2517 10.3043 18.2517 10.3198 18.2362L10.4285 18.0345C11.1113 18.2983 11.8561 18.4379 12.601 18.4379C13.0511 18.4379 13.5166 18.3914 13.9511 18.2828C14.2304 18.2207 14.4943 18.1431 14.7581 18.05L14.8512 18.2207C14.8667 18.2207 14.8667 18.2207 14.8822 18.2362C14.9598 18.2517 15.0219 18.2828 15.0839 18.3759C15.2081 18.5931 15.3012 18.8569 15.4098 19.1518V19.1673C15.4253 19.2139 15.4409 19.2604 15.4564 19.307C15.4874 19.4001 15.5029 19.4932 15.5495 19.5863C15.565 19.6173 15.5805 19.6329 15.596 19.6639C15.596 19.6794 15.6116 19.6949 15.6116 19.6949C15.7047 19.8811 15.8909 19.9898 16.0771 19.9898C16.1392 19.9898 16.2013 19.9743 16.2633 19.9432C16.372 19.8811 16.4651 19.788 16.4961 19.6639C16.5271 19.5397 16.5271 19.4001 16.4651 19.2759C16.4651 19.2604 16.4496 19.2604 16.4496 19.2449C16.434 19.2139 16.4185 19.1828 16.403 19.1673C16.3564 19.0742 16.2944 18.9966 16.2323 18.919C16.2013 18.8725 16.1702 18.8414 16.1392 18.7949V18.7793C15.9685 18.5155 15.8133 18.2828 15.7357 18.05C15.7047 17.9414 15.7357 17.8793 15.7512 17.8017C15.7512 17.7862 15.7667 17.7862 15.7667 17.7707L15.6892 17.5844C16.5116 17.1034 17.2099 16.4206 17.7376 15.5826C18.0169 15.1481 18.2342 14.667 18.3893 14.1859L18.5756 14.217C18.5911 14.217 18.5911 14.2015 18.6066 14.2015C18.6687 14.1704 18.7152 14.1239 18.8083 14.1239H18.8394C19.0877 14.1549 19.3515 14.248 19.6463 14.3566H19.6618C19.7084 14.3722 19.7549 14.4032 19.8015 14.4187C19.8946 14.4653 19.9722 14.4963 20.0808 14.5273C20.1119 14.5273 20.1429 14.5429 20.1739 14.5429C20.1895 14.5429 20.205 14.5429 20.2205 14.5584C20.267 14.5739 20.2981 14.5739 20.3446 14.5739C20.5774 14.5739 20.7792 14.4187 20.8412 14.217C20.8412 14.0308 20.6705 13.7825 20.3912 13.7049ZM13.2062 12.9445L12.5234 13.2704L11.8406 12.9445L11.6699 12.2151L12.1355 11.6254H12.8959L13.3614 12.2151L13.2062 12.9445ZM17.2565 11.3306C17.3806 11.8582 17.4117 12.3858 17.3651 12.8979L14.9908 12.2151C14.7736 12.153 14.6494 11.9358 14.696 11.7185C14.7115 11.6565 14.7425 11.5944 14.7891 11.5478L16.6668 9.85634C16.9306 10.2909 17.1324 10.7874 17.2565 11.3306ZM15.9219 8.92524L13.889 10.3684C13.7183 10.4771 13.4856 10.446 13.3459 10.2753C13.2993 10.2288 13.2838 10.1667 13.2683 10.1046L13.1286 7.57515C14.1994 7.6993 15.1771 8.18037 15.9219 8.92524ZM11.4216 7.65275C11.5923 7.62171 11.7475 7.59067 11.9182 7.55964L11.7786 10.0426C11.763 10.2598 11.5923 10.446 11.3596 10.446C11.2975 10.446 11.2199 10.4305 11.1733 10.3995L9.10941 8.92524C9.74566 8.28899 10.5371 7.85448 11.4216 7.65275ZM8.36453 9.85634L10.2112 11.5013C10.3819 11.6409 10.3974 11.9048 10.2578 12.0755C10.2112 12.1375 10.1491 12.1841 10.0715 12.1996L7.66621 12.8979C7.5731 11.8427 7.80587 10.7719 8.36453 9.85634ZM7.94554 14.0618L10.4129 13.6428C10.6147 13.6273 10.8009 13.7669 10.8475 13.9687C10.863 14.0618 10.863 14.1394 10.8319 14.217L9.88532 16.4982C9.0163 15.9395 8.31798 15.086 7.94554 14.0618ZM13.6097 17.1499C13.2528 17.2275 12.8959 17.2741 12.5234 17.2741C11.9803 17.2741 11.4527 17.181 10.9561 17.0258L12.182 14.8067C12.3062 14.667 12.5079 14.6049 12.6786 14.698C12.7562 14.7446 12.8183 14.8067 12.8648 14.8687L14.0597 17.0258C13.9201 17.0723 13.7649 17.1034 13.6097 17.1499ZM16.6358 14.9929C16.2478 15.6136 15.7357 16.1102 15.146 16.4982L14.1684 14.1549C14.1218 13.9687 14.1994 13.7669 14.3856 13.6738C14.4477 13.6428 14.5253 13.6273 14.6029 13.6273L17.0858 14.0463C16.9927 14.3877 16.8375 14.698 16.6358 14.9929Z" fill="white"/>
</svg>
