<svg width="25" height="24" viewBox="0 0 25 24" fill="none" xmlns="http://www.w3.org/2000/svg">
<path d="M21.9962 11.8166C21.9962 10.5828 20.996 9.58271 19.7622 9.58271C19.6829 9.58271 19.6046 9.58696 19.5275 9.59504L22.5957 0.545532H9.5566L12.6206 9.58718C12.5756 9.58445 12.5305 9.58271 12.4849 9.58271C11.2511 9.58271 10.2509 10.5828 10.2509 11.8166C10.2509 12.8139 10.9045 13.6581 11.8065 13.9454C11.3301 14.7707 10.7306 15.5139 10.05 16.1561C9.12449 17.0292 8.06527 17.6912 6.91963 18.0992C5.5557 17.3985 4.91157 15.8402 5.49279 14.4739C5.55837 14.3196 5.62543 14.1632 5.68942 14.0075C6.67761 13.7769 7.41389 12.8911 7.41389 11.8326C7.41389 10.5989 6.41376 9.59875 5.17995 9.59875C3.94619 9.59875 2.94601 10.5989 2.94601 11.8326C2.94601 12.5892 3.32247 13.2575 3.89786 13.6616C3.34495 14.9205 2.53218 16.238 2.27897 17.765C1.97551 19.595 2.27798 21.5376 3.86075 22.6346C7.5469 25.1894 11.5482 21.0508 15.767 20.0104C17.296 19.6334 18.9743 19.6942 20.3213 18.914C21.3329 18.328 21.9998 17.3571 22.1891 16.267C22.3761 15.1901 22.1035 14.1179 21.4766 13.2485C21.8008 12.8608 21.9962 12.3616 21.9962 11.8166Z" fill="#99425B"/>
<path d="M21.651 16.1737C21.4867 17.1201 20.9022 17.9467 20.0473 18.4419C19.2505 18.9034 18.2956 19.0411 17.2846 19.1869C16.743 19.265 16.1829 19.3458 15.6358 19.4807C14.1892 19.8374 12.788 20.5335 11.4329 21.2065C8.72117 22.5535 6.37926 23.7166 4.17102 22.1862C2.55349 21.0651 2.62818 18.9909 2.81663 17.8543C2.99128 16.8012 3.46344 15.8314 3.92004 14.8935C3.99894 14.7313 4.07625 14.5722 4.15148 14.4144C4.3778 14.5048 4.61851 14.5665 4.86943 14.5945C4.40464 16.1285 5.13557 17.7964 6.66979 18.5845L6.87973 18.6924L7.10212 18.6132C8.31497 18.1813 9.43257 17.4882 10.4239 16.5529C11.0646 15.9484 11.6155 15.2796 12.0683 14.565C12.2041 14.5854 12.3429 14.5962 12.4843 14.5962C13.8924 14.5962 15.0584 13.5435 15.2388 12.1839C15.8152 12.1628 16.4274 12.1627 17.0071 12.1837C17.1874 13.5434 18.3535 14.5962 19.7617 14.5962C20.3504 14.5962 20.8966 14.4117 21.3464 14.0982C21.6588 14.7376 21.7754 15.457 21.651 16.1737ZM5.17938 10.1444C6.11039 10.1444 6.86773 10.9017 6.86773 11.8327C6.86773 12.1671 6.76963 12.4789 6.60115 12.7415C6.32044 13.1792 5.84354 13.4792 5.29538 13.5166C5.25702 13.5192 5.21839 13.521 5.17938 13.521C4.97195 13.521 4.77319 13.4832 4.58943 13.4145C4.21772 13.2754 3.90799 13.0087 3.71315 12.6681C3.57212 12.4216 3.49104 12.1365 3.49104 11.8327C3.49104 10.9017 4.24844 10.1444 5.17938 10.1444ZM10.796 11.8167C10.796 10.9708 11.4212 10.2685 12.2337 10.147C12.3155 10.1347 12.3992 10.1283 12.4843 10.1283C13.0255 10.1283 13.5074 10.3847 13.8165 10.782C13.8933 10.8807 13.9599 10.9878 14.0135 11.1022C14.1154 11.3193 14.1726 11.5614 14.1726 11.8167C14.1726 11.9516 14.1563 12.0828 14.1262 12.2087C13.9617 12.8975 13.3743 13.424 12.6546 13.4964C12.5987 13.5021 12.5418 13.505 12.4843 13.505C12.1472 13.505 11.8332 13.4053 11.5693 13.2344C11.1044 12.9333 10.796 12.4105 10.796 11.8167ZM17.8425 9.80903C17.4808 10.1551 17.2118 10.5972 17.0779 11.0945C16.4527 11.071 15.7897 11.071 15.1681 11.0945C15.0254 10.5645 14.7292 10.097 14.3309 9.74187L16.0779 6.2093L17.8425 9.80903ZM10.317 1.09119H21.834L19.1139 9.11394C18.996 9.14226 18.881 9.17788 18.7693 9.22071L16.0822 3.73901L13.3874 9.18798C13.2709 9.14788 13.1509 9.11558 13.028 9.09108L10.317 1.09119ZM21.45 11.8167C21.45 11.986 21.4247 12.1494 21.3781 12.3037C21.2673 12.6707 21.0346 12.9853 20.7274 13.2003C20.4535 13.3921 20.1206 13.505 19.7617 13.505C18.9821 13.505 18.3245 12.9738 18.1312 12.2543C18.0937 12.1147 18.0733 11.968 18.0733 11.8167C18.0733 11.5859 18.12 11.3658 18.2041 11.1653C18.2475 11.062 18.3016 10.9643 18.3638 10.8726C18.6676 10.4241 19.1804 10.1283 19.7617 10.1283C19.815 10.1283 19.8676 10.1311 19.9196 10.1359C20.7768 10.2158 21.45 10.939 21.45 11.8167ZM22.5412 11.8167C22.5412 10.4597 21.5635 9.32743 20.2757 9.08552L23.3562 0H8.7951L11.8803 9.10401C10.6372 9.38063 9.70477 10.4915 9.70477 11.8167C9.70477 12.8117 10.2307 13.6858 11.0188 14.177C10.6397 14.7418 10.1901 15.2732 9.67503 15.7592C8.858 16.53 7.94784 17.1145 6.96659 17.4991C5.97824 16.8782 5.56043 15.7075 5.99434 14.6875L6.02833 14.6075C6.04961 14.5576 6.07089 14.5076 6.09211 14.4576C7.17768 14.0789 7.95892 13.0457 7.95892 11.8327C7.95892 10.3 6.71202 9.05316 5.17938 9.05316C3.64675 9.05316 2.39985 10.3 2.39985 11.8327C2.39985 12.6063 2.71783 13.3068 3.22959 13.8112C3.13684 14.0089 3.03918 14.21 2.93895 14.4158C2.47105 15.3769 1.94073 16.4662 1.74017 17.6757C1.34184 20.078 1.98438 21.9983 3.54942 23.083C4.49914 23.7412 5.46353 24 6.43409 24C8.26161 24 10.1103 23.0819 11.9184 22.1838C13.2205 21.537 14.5671 20.8682 15.8971 20.5402C16.392 20.4181 16.9012 20.3447 17.4404 20.2669C18.5095 20.1127 19.615 19.9533 20.5942 19.3861C21.7293 18.7286 22.5064 17.6258 22.7261 16.3604C22.9147 15.274 22.6877 14.186 22.1341 13.2632C22.3922 12.8416 22.5412 12.3462 22.5412 11.8167Z" fill="white"/>
</svg>
