<svg width="25" height="24" viewBox="0 0 25 24" fill="none" xmlns="http://www.w3.org/2000/svg">
<g clip-path="url(#clip0_6232_185058)">
<path d="M0.5 8.68571C0.5 5.64543 0.5 4.12529 1.09168 2.96405C1.61213 1.9426 2.4426 1.11213 3.46405 0.591679C4.62529 0 6.14543 0 9.18571 0H15.8143C18.8546 0 20.3747 0 21.5359 0.591679C22.5574 1.11213 23.3879 1.9426 23.9083 2.96405C24.5 4.12529 24.5 5.64543 24.5 8.68571V15.3143C24.5 18.3546 24.5 19.8747 23.9083 21.0359C23.3879 22.0574 22.5574 22.8879 21.5359 23.4083C20.3747 24 18.8546 24 15.8143 24H9.18571C6.14543 24 4.62529 24 3.46405 23.4083C2.4426 22.8879 1.61213 22.0574 1.09168 21.0359C0.5 19.8747 0.5 18.3546 0.5 15.3143V8.68571Z" fill="#470137"/>
<path d="M13.0533 7.05755L10.0587 12.127L13.2626 17.5102C13.3292 17.6322 13.2626 17.6592 13.166 17.6592H10.8798C10.7188 17.6592 10.6061 17.6534 10.5417 17.5432C10.3268 17.1139 10.1122 16.6873 9.89768 16.2635C9.68283 15.8398 9.45476 15.4077 9.21345 14.9672C8.97194 14.527 8.73313 14.0812 8.49699 13.6296C8.28215 14.0701 8.04331 14.5104 7.81272 14.9507C7.58181 15.3911 7.35373 15.8287 7.12849 16.2635C6.9031 16.6985 6.67233 17.1305 6.4362 17.5597C6.39319 17.6588 6.31794 17.669 6.21076 17.669H4.0051C3.91844 17.669 3.90798 17.6039 3.95681 17.5267L7.06408 12.2921L4.03728 7.04102C3.9823 6.96611 4.02962 6.88626 4.1178 6.89241H6.38786C6.48616 6.88685 6.57303 6.92395 6.62937 7.00802C6.82258 7.44842 7.03724 7.88876 7.27336 8.32903C7.50935 8.76947 7.74817 9.2043 7.98982 9.63355C8.23132 10.0629 8.47015 10.4977 8.67409 10.9381C8.88864 10.4868 9.10599 10.0465 9.32614 9.61705C9.54602 9.18771 9.77141 8.75562 10.0023 8.32077C10.233 7.88603 10.4557 7.45394 10.6705 7.02452C10.699 6.93033 10.7672 6.8826 10.8637 6.89241H12.9728C13.0533 6.89241 13.0866 7.00233 13.0533 7.05755Z" fill="#FF61F6"/>
<path d="M17.6739 17.8736C16.254 17.8957 14.7667 17.3112 14.0192 16.0159C13.6541 15.3941 13.4717 14.6152 13.4718 13.6793C13.4657 12.9214 13.6545 12.1753 14.0192 11.5161C14.96 9.83428 16.8555 9.20413 18.6559 9.36948V6.11646C18.6559 6.03956 18.6882 6.00087 18.7526 6.00087H20.7811C20.8366 5.99274 20.8857 6.04306 20.8778 6.09992V15.859C20.8778 16.2617 20.9177 16.6629 20.9422 17.0644C20.9461 17.133 20.9064 17.2009 20.8455 17.2296C19.8432 17.6583 18.7587 17.8686 17.6739 17.8736ZM18.6559 15.826V11.318C17.1855 10.9094 15.7577 12.0295 15.7579 13.5802C15.723 15.1835 17.1051 16.2912 18.6559 15.826Z" fill="#FF61F6"/>
</g>
<defs>
<clipPath id="clip0_6232_185058">
<rect width="24" height="24" fill="white" transform="translate(0.5)"/>
</clipPath>
</defs>
</svg>
