<svg width="25" height="24" viewBox="0 0 25 24" fill="none" xmlns="http://www.w3.org/2000/svg">
<g clip-path="url(#clip0_6232_185090)">
<path fill-rule="evenodd" clip-rule="evenodd" d="M0.5 0H24.5V24H0.5V0Z" fill="#F7DF1E"/>
<path fill-rule="evenodd" clip-rule="evenodd" d="M6.81058 20.0562L8.64723 18.9446C9.00156 19.5729 9.32388 20.1044 10.097 20.1044C10.8381 20.1044 11.3054 19.8145 11.3054 18.6869V11.0183H13.5608V18.7188C13.5608 21.0548 12.1915 22.1181 10.1937 22.1181C8.38948 22.1181 7.34217 21.1836 6.81055 20.056" fill="#12141A"/>
<path fill-rule="evenodd" clip-rule="evenodd" d="M14.7852 19.8144L16.6216 18.7512C17.105 19.5407 17.7333 20.1206 18.8449 20.1206C19.7794 20.1206 20.3753 19.6533 20.3753 19.0089C20.3753 18.2356 19.7631 17.9617 18.7321 17.5108L18.1684 17.269C16.5411 16.5764 15.4617 15.7064 15.4617 13.8698C15.4617 12.1782 16.7505 10.8893 18.7644 10.8893C20.1982 10.8893 21.2292 11.3888 21.9702 12.6938L20.2142 13.8214C19.8275 13.1287 19.4088 12.8549 18.7644 12.8549C18.1039 12.8549 17.685 13.2738 17.685 13.8214C17.685 14.4981 18.1039 14.772 19.0704 15.1909L19.6342 15.4325C21.5513 16.2542 22.6308 17.0919 22.6308 18.9767C22.6308 21.0067 21.0359 22.1182 18.8932 22.1182C16.7989 22.1182 15.4456 21.1194 14.7852 19.8144" fill="#12141A"/>
</g>
<defs>
<clipPath id="clip0_6232_185090">
<rect width="24" height="24" fill="white" transform="translate(0.5)"/>
</clipPath>
</defs>
</svg>
