<svg width="25" height="24" viewBox="0 0 25 24" fill="none" xmlns="http://www.w3.org/2000/svg">
<g clip-path="url(#clip0_6232_185055)">
<path fill-rule="evenodd" clip-rule="evenodd" d="M4.19989 15.5795L2.94436 16.0304L2.87695 19.7018L7.22315 18.1411C5.73246 17.6489 4.64386 16.7829 4.19989 15.5795Z" fill="#FDBD39"/>
<path fill-rule="evenodd" clip-rule="evenodd" d="M4.85625 11.6964L0.5 13.2606L2.94368 16.0303L4.1992 15.5795C3.75653 14.3796 4.02952 13.0233 4.85625 11.6964Z" fill="#F69833"/>
<path fill-rule="evenodd" clip-rule="evenodd" d="M12.1865 6.3988C6.63923 8.39072 3.06293 12.5011 4.19865 15.5796L24.2871 8.36611C23.1514 5.28764 17.7338 4.40685 12.1865 6.3988Z" fill="#FECF33"/>
<path fill-rule="evenodd" clip-rule="evenodd" d="M16.2998 17.5468C21.8471 15.5549 25.4301 11.4627 24.2877 8.36606L4.19922 15.5795C5.34165 18.6762 10.7526 19.5387 16.2998 17.5468Z" fill="#EE6723"/>
<path fill-rule="evenodd" clip-rule="evenodd" d="M24.2877 8.36606L4.19922 15.5795C4.59258 16.6457 6.09262 17.171 8.19735 17.171C10.2493 17.171 12.876 16.6721 15.6144 15.6888C21.1617 13.6969 25.0646 10.4718 24.2877 8.36606Z" fill="#F69833"/>
<path fill-rule="evenodd" clip-rule="evenodd" d="M20.2905 6.77454C18.2385 6.77454 15.6118 7.27345 12.8734 8.25678C7.32612 10.2487 3.42323 13.4738 4.2001 15.5795L24.2886 8.36609C23.8952 7.29983 22.3952 6.77454 20.2905 6.77454Z" fill="#FDBD39"/>
<path fill-rule="evenodd" clip-rule="evenodd" d="M19.1808 19.8962H19.1807C18.5896 19.8962 17.7177 19.3714 16.589 18.3365C15.2537 17.112 13.7241 15.3186 12.2819 13.2867C10.8398 11.2548 9.65479 9.22337 8.94519 7.56661C8.17207 5.76115 8.06184 4.65104 8.61755 4.26708C8.7394 4.18299 8.88628 4.14038 9.05408 4.14038C9.50611 4.14038 10.3869 4.47119 12.0156 6.04724L12.0512 6.08168L12.0464 6.13067C12.0352 6.24389 12.025 6.35813 12.0158 6.47025L11.9977 6.69289L11.8379 6.53465C10.083 4.79685 9.31054 4.60924 9.05984 4.60924C8.98835 4.60924 8.93141 4.62353 8.8906 4.65174C8.64955 4.81822 8.63404 5.63363 9.38359 7.38382C10.0805 9.01105 11.2483 11.0117 12.6718 13.0173C14.0953 15.0231 15.6015 16.79 16.9129 17.9925C18.3271 19.2892 18.9644 19.4293 19.1728 19.4293C19.2447 19.4293 19.3032 19.4141 19.3465 19.3841C19.6008 19.2085 19.6011 18.3349 18.7652 16.4512L18.7269 16.3647L18.8109 16.3195C18.8949 16.2743 18.9761 16.2298 19.0523 16.1872L19.1529 16.131L19.1993 16.2354C19.792 17.5703 20.346 19.2668 19.6196 19.7687C19.4971 19.8533 19.3495 19.8962 19.1808 19.8962ZM19.1807 19.6903H19.1808L19.1807 19.7932L19.1807 19.6903Z" fill="#EE6723"/>
<path fill-rule="evenodd" clip-rule="evenodd" d="M16.4349 17.4907L16.4264 17.5933C16.2862 19.299 15.9169 21.3497 14.9541 21.4327C14.9348 21.4344 14.9147 21.4353 14.8946 21.4353C14.2405 21.4353 13.6217 20.5141 13.0554 18.6974C12.5196 16.9787 12.1038 14.671 11.8847 12.1995C11.6655 9.72855 11.6688 7.38473 11.8939 5.59986C12.1393 3.65489 12.6065 2.63917 13.2824 2.58087C13.3024 2.57906 13.3231 2.57812 13.3436 2.57812C13.818 2.57812 14.5331 3.10622 15.2652 5.56601L14.7872 5.6567C14.5428 4.8347 14.2764 4.16615 14.012 3.70676C13.7673 3.28184 13.5295 3.04784 13.3422 3.04784C13.336 3.04784 13.3298 3.04809 13.3237 3.0486C13.0308 3.0739 12.6041 3.77243 12.3662 5.65785C12.1451 7.4107 12.1424 9.7194 12.3587 12.1587C12.5751 14.5983 12.9841 16.8715 13.5103 18.5594C13.746 19.3154 14.0044 19.9384 14.2578 20.3612C14.4914 20.751 14.7175 20.9657 14.8944 20.9657C14.9005 20.9657 14.9066 20.9655 14.9126 20.965C15.1929 20.9408 15.7212 20.2139 15.9435 17.6564L16.4349 17.4907Z" fill="#EE6723"/>
</g>
<defs>
<clipPath id="clip0_6232_185055">
<rect width="24" height="24" fill="white" transform="translate(0.5)"/>
</clipPath>
</defs>
</svg>
