<svg width="25" height="24" viewBox="0 0 25 24" fill="none" xmlns="http://www.w3.org/2000/svg">
<g clip-path="url(#clip0_6232_185072)">
<path d="M0.5 8.68571C0.5 5.64543 0.5 4.12529 1.09168 2.96405C1.61213 1.9426 2.4426 1.11213 3.46405 0.591679C4.62529 0 6.14543 0 9.18571 0H15.8143C18.8546 0 20.3747 0 21.5359 0.591679C22.5574 1.11213 23.3879 1.9426 23.9083 2.96405C24.5 4.12529 24.5 5.64543 24.5 8.68571V15.3143C24.5 18.3546 24.5 19.8747 23.9083 21.0359C23.3879 22.0574 22.5574 22.8879 21.5359 23.4083C20.3747 24 18.8546 24 15.8143 24H9.18571C6.14543 24 4.62529 24 3.46405 23.4083C2.4426 22.8879 1.61213 22.0574 1.09168 21.0359C0.5 19.8747 0.5 18.3546 0.5 15.3143V8.68571Z" fill="#00005B"/>
<path d="M5.64258 16.9677V6.17825C5.64258 6.10485 5.67267 6.06291 5.74288 6.06291C6.77936 6.06291 7.81537 6 8.85213 6C10.5344 6 12.356 6.58631 12.9945 8.38018C13.1449 8.82057 13.2251 9.27144 13.2251 9.74329C13.2251 10.645 13.0245 11.3895 12.6234 11.9767C11.5027 13.6169 9.56023 13.5914 7.81905 13.5914V16.9572C7.83267 17.0569 7.74936 17.104 7.66861 17.104H5.76294C5.6827 17.104 5.64258 17.0621 5.64258 16.9677ZM7.82909 8.08659V11.6097C8.51947 11.6612 9.24191 11.6668 9.90526 11.4419C10.6376 11.2266 11.0386 10.5804 11.0386 9.8062C11.059 9.14645 10.7063 8.51342 10.1059 8.27533C9.45051 7.99758 8.53651 7.98094 7.82909 8.08659Z" fill="#9999FF"/>
<path d="M14.5847 8.75308H16.3449C16.442 8.75396 16.5291 8.82405 16.5548 8.92191C16.6838 9.22132 16.6997 9.5824 16.7002 9.90565C17.002 9.53823 17.366 9.23207 17.774 9.00252C18.2115 8.74368 18.7076 8.61249 19.2102 8.62268C19.2937 8.6102 19.3675 8.6874 19.3556 8.77461V10.8173C19.3556 10.8961 19.3016 10.9354 19.1941 10.9354C18.4491 10.8817 17.2892 11.0657 16.7478 11.6782V16.9895C16.7478 17.0908 16.7048 17.1414 16.6186 17.1414H14.7301C14.6373 17.1553 14.5555 17.068 14.5686 16.9726V11.2056C14.5686 10.4328 14.5846 9.63676 14.4717 8.87128C14.4543 8.80083 14.5188 8.73533 14.5847 8.75308Z" fill="#9999FF"/>
</g>
<defs>
<clipPath id="clip0_6232_185072">
<rect width="24" height="24" fill="white" transform="translate(0.5)"/>
</clipPath>
</defs>
</svg>
