<svg width="25" height="24" viewBox="0 0 25 24" fill="none" xmlns="http://www.w3.org/2000/svg">
<g clip-path="url(#clip0_6232_185091)">
<path d="M4.15093 3.37501C8.89272 -1.21859 16.4746 -1.0951 21.0682 3.67137C21.5869 2.97986 22.0314 2.21426 22.3525 1.42397C23.859 6.01757 24.7727 9.87027 24.427 12.8586C24.2541 15.3776 23.2662 17.7979 21.6363 19.7243C17.3884 24.7624 9.83119 25.4045 4.79305 21.1567L4.69667 21.0709L4.69154 21.0676C4.67576 21.0566 4.6602 21.0451 4.64487 21.0332C4.59888 20.9974 4.55712 20.9585 4.51959 20.9169L4.50607 20.9015L4.34851 20.7615C4.19484 20.6298 4.04117 20.4981 3.90485 20.3491L3.85457 20.2923C-0.739029 15.5505 -0.590848 7.96861 4.15093 3.37501ZM5.9291 19.4526C5.48456 19.1069 4.84244 19.1563 4.49669 19.6008C4.19266 19.9917 4.19416 20.5353 4.50118 20.8959L4.50607 20.9015L4.69667 21.0709L4.71537 21.0837C5.14705 21.3675 5.72785 21.3089 6.05914 20.9077L6.07728 20.885C6.42304 20.4405 6.34895 19.7984 5.9291 19.4526ZM22.229 2.65881C20.9941 5.25197 17.9317 7.22771 15.2892 7.84513C12.7948 8.43785 10.6215 7.94392 8.32469 8.833C3.08897 10.8334 3.18776 17.057 6.05259 18.4647L6.22546 18.5635C6.22546 18.5635 8.29481 18.1521 10.3412 17.6087L10.5165 17.5618C11.3338 17.3416 12.1379 17.1015 12.7948 16.8595C16.203 15.5999 19.9569 12.4881 21.1917 8.88239C20.5496 12.6363 17.3143 16.2667 14.079 17.9214C12.3503 18.8105 11.0166 19.0081 8.17651 19.9959C7.83075 20.1194 7.55909 20.2429 7.55909 20.2429C7.59374 20.2381 7.6284 20.2335 7.66297 20.2289L7.73199 20.22L7.80064 20.2113C8.42789 20.1336 8.9915 20.0947 8.9915 20.0947C13.0171 19.8972 19.3395 21.2308 22.2784 17.304C25.2914 13.3031 23.612 6.83256 22.229 2.65881Z" fill="#6DB33F"/>
<path d="M5.92934 19.4526C6.34918 19.7984 6.42327 20.4405 6.07752 20.885C5.73176 21.3296 5.08965 21.379 4.6451 21.0332C4.20056 20.6875 4.15117 20.0453 4.49692 19.6008C4.84268 19.1563 5.48479 19.1069 5.92934 19.4526ZM22.2292 2.65881C23.6122 6.83257 25.2916 13.3031 22.2786 17.304C19.3397 21.2308 13.0173 19.8972 8.99174 20.0947C8.99174 20.0947 8.42813 20.1336 7.80088 20.2113L7.73222 20.22C7.67484 20.2273 7.61708 20.235 7.55932 20.2429C7.55932 20.2429 7.83099 20.1194 8.17674 19.996C11.0169 19.0081 12.3505 18.8105 14.0793 17.9214C17.3146 16.2667 20.5498 12.6363 21.1919 8.8824C19.9571 12.4881 16.2032 15.5999 12.795 16.8595C10.4488 17.7238 6.2257 18.5635 6.2257 18.5635L6.05282 18.4648C3.18799 17.057 3.08921 10.8334 8.32492 8.83301C10.6217 7.94392 12.795 8.43786 15.2894 7.84514C17.932 7.22772 20.9944 5.25198 22.2292 2.65881Z" fill="white"/>
</g>
<defs>
<clipPath id="clip0_6232_185091">
<rect width="24" height="24" fill="white" transform="translate(0.5)"/>
</clipPath>
</defs>
</svg>
