<svg width="25" height="24" viewBox="0 0 25 24" fill="none" xmlns="http://www.w3.org/2000/svg">
<g clip-path="url(#clip0_6232_185048)">
<path d="M14.6336 9.54923e-05C14.4627 9.54923e-05 14.2999 0.0407976 14.1535 0.0897165C14.4709 0.301826 14.6417 0.579002 14.7312 0.89707C14.7393 0.937868 14.7474 0.970449 14.7556 1.01125C14.7638 1.05204 14.7718 1.08462 14.7718 1.12542C14.7963 1.67184 14.6254 1.737 14.5116 2.06319C14.3325 2.4791 14.3813 2.92768 14.601 3.28646C14.6172 3.32725 14.6417 3.37627 14.6742 3.42509C14.4383 1.85118 15.7483 1.61471 15.9924 1.12533C16.0087 0.693178 15.6588 0.407785 15.3821 0.212109C15.0974 0.0489189 14.8532 9.54923e-05 14.6336 9.54923e-05ZM16.6027 0.350745C16.5783 0.497502 16.5945 0.4568 16.5865 0.530083C16.5783 0.579002 16.5783 0.644259 16.5701 0.693178C16.5539 0.742097 16.5457 0.791016 16.5295 0.84003L16.4807 0.986787C16.4562 1.03571 16.44 1.0765 16.4155 1.13354L16.3667 1.20692C16.3504 1.22326 16.3423 1.24772 16.326 1.26406C16.2934 1.30486 16.2609 1.35377 16.2365 1.38636C16.1958 1.42715 16.1714 1.46795 16.1226 1.50053V1.50865C16.0819 1.54133 16.0494 1.57391 16.0087 1.60659C15.8784 1.70442 15.732 1.7778 15.5937 1.87564C15.553 1.90832 15.5042 1.93278 15.4717 1.96545C15.431 1.99794 15.3902 2.03061 15.3577 2.06319L15.2438 2.17737C15.2113 2.21817 15.1787 2.25897 15.1543 2.29967C15.1218 2.34047 15.0892 2.38948 15.0648 2.43018C15.0404 2.4791 15.0242 2.51999 14.9997 2.57703C14.9835 2.62595 14.9591 2.66666 14.9509 2.72379C14.9347 2.78083 14.9184 2.82985 14.9102 2.87877C14.9021 2.90323 14.9021 2.93581 14.8939 2.96026C14.8858 2.98472 14.8858 3.00918 14.8777 3.03364C14.8777 3.08256 14.8695 3.1397 14.8695 3.18862C14.8695 3.22942 14.8695 3.262 14.8776 3.30279C14.8776 3.35171 14.8858 3.40063 14.8939 3.45777C14.9021 3.50669 14.9103 3.5556 14.9265 3.60452L14.9753 3.75128C14.9916 3.78396 15.0079 3.81654 15.016 3.84109L13.5921 3.28646C13.3479 3.2212 13.112 3.15604 12.876 3.0989C12.7458 3.06632 12.6156 3.03364 12.4855 3.00918C12.1111 2.93559 11.7338 2.87846 11.3544 2.83797C11.3382 2.83797 11.3382 2.82975 11.3218 2.82975C10.9476 2.78905 10.5814 2.77271 10.2152 2.77271C9.93867 2.77271 9.67012 2.78895 9.40156 2.80529C9.02729 2.82975 8.64491 2.87877 8.27054 2.94393C8.18102 2.96027 8.0834 2.9766 7.99389 2.99294C7.79865 3.03364 7.61961 3.07444 7.43247 3.11524C7.34296 3.1397 7.24534 3.16416 7.15582 3.18862C7.0663 3.22942 6.97679 3.27021 6.88736 3.30279C6.82111 3.33613 6.75321 3.36607 6.68392 3.39251C6.66762 3.40063 6.65952 3.40063 6.65132 3.40875C6.5935 3.43698 6.53653 3.46694 6.48049 3.49856C6.46428 3.50669 6.44798 3.51481 6.43978 3.51481C6.37467 3.54739 6.30155 3.58006 6.24454 3.61265C6.20383 3.62898 6.15493 3.65344 6.12251 3.6779C6.10621 3.69414 6.08181 3.70236 6.0655 3.71058C6.00859 3.74306 5.95158 3.77574 5.90277 3.8002C5.84576 3.83288 5.79695 3.86546 5.75634 3.89001C5.71563 3.9225 5.66673 3.94705 5.63432 3.97963C5.62612 3.98775 5.61801 3.98775 5.61801 3.99588C5.57666 4.02124 5.53843 4.05139 5.50409 4.08569L5.48779 4.10193C5.45528 4.12639 5.42268 4.15094 5.39827 4.1754C5.38207 4.18353 5.37387 4.19165 5.35757 4.19986C5.32506 4.22432 5.29255 4.2569 5.26805 4.28136C5.25994 4.29761 5.25184 4.29761 5.24364 4.30582C5.20303 4.34662 5.17043 4.37108 5.12972 4.41188C5.12162 4.41188 5.12162 4.42 5.11351 4.42812C5.07281 4.4608 5.0403 4.49338 4.99959 4.53417C4.99149 4.5423 4.99149 4.55042 4.98339 4.55042C4.95078 4.58309 4.91818 4.61577 4.89377 4.64835C4.87757 4.66459 4.86127 4.67281 4.85316 4.68915C4.82056 4.72995 4.78805 4.76253 4.74734 4.80332C4.73924 4.81957 4.73114 4.81957 4.72294 4.83591C4.67413 4.88482 4.63342 4.93374 4.57651 4.98266L4.56021 4.999C4.46259 5.10506 4.35677 5.21111 4.24284 5.30073C4.12892 5.39857 4.015 5.4965 3.89297 5.578C3.77095 5.66772 3.64892 5.7411 3.5187 5.81448C3.39667 5.87973 3.26645 5.94499 3.12812 6.00203C2.99571 6.0595 2.85982 6.10855 2.72124 6.14888C2.46089 6.20592 2.19234 6.31198 1.96459 6.32832C1.91569 6.32832 1.85877 6.34456 1.80996 6.34456C1.75295 6.3608 1.70414 6.36902 1.65533 6.38536C1.60652 6.40169 1.55771 6.42615 1.5089 6.4424C1.46009 6.45864 1.41128 6.48319 1.36247 6.50765C1.32177 6.54033 1.27286 6.56479 1.22414 6.59747C1.18344 6.62995 1.13453 6.66263 1.10212 6.70342C1.06132 6.73601 1.01251 6.7768 0.979998 6.8176C0.939292 6.8583 0.906783 6.8991 0.87418 6.9399C0.841671 6.98882 0.809163 7.02962 0.784758 7.08666C0.752154 7.12745 0.719646 7.17647 0.695145 7.23351C0.670645 7.29055 0.64643 7.33956 0.630129 7.3966C0.613922 7.44552 0.589422 7.50266 0.57312 7.5597C0.556913 7.60862 0.548715 7.65754 0.540612 7.70645C0.540612 7.71458 0.532508 7.7227 0.532508 7.7227C0.516206 7.77983 0.516207 7.85321 0.516207 7.89401C0.508103 7.93481 0.5 7.9756 0.5 8.01631C0.5 8.04077 0.5 8.07344 0.508103 8.0979C0.516207 8.1387 0.52431 8.1794 0.532508 8.21208C0.548715 8.25287 0.556913 8.28546 0.57312 8.32625V8.33437C0.589422 8.37517 0.613827 8.40775 0.638232 8.44855C0.662637 8.48935 0.687042 8.52193 0.719646 8.56273C0.752154 8.59531 0.784758 8.62798 0.825465 8.66056C0.866076 8.70136 0.898585 8.72582 0.939292 8.7584C1.08582 8.88892 1.12643 8.92971 1.31357 9.03567L1.41128 9.08459C1.41939 9.08459 1.42749 9.09281 1.42749 9.09281C1.42749 9.10905 1.42749 9.10905 1.43569 9.12539C1.44379 9.17431 1.45189 9.22323 1.4682 9.27224C1.48447 9.32932 1.50074 9.37823 1.51701 9.419C1.54141 9.48015 1.54961 9.49238 1.56582 9.53318C1.57401 9.54942 1.58212 9.55764 1.58212 9.56576C1.60652 9.61468 1.63093 9.65557 1.65533 9.70439C1.68794 9.74519 1.72045 9.7942 1.74495 9.83491C1.77736 9.8757 1.80996 9.91641 1.85067 9.94908C1.89128 9.98988 1.92388 10.0143 1.96459 10.0551C1.96459 10.0551 1.97269 10.0633 1.9808 10.0633C2.0215 10.0958 2.05401 10.1285 2.09472 10.153C2.13543 10.1856 2.18433 10.21 2.23305 10.2345C2.27375 10.2589 2.32266 10.2834 2.37957 10.2997C2.42018 10.316 2.46089 10.3323 2.5016 10.3405C2.5097 10.3487 2.5178 10.3487 2.526 10.3568C2.55041 10.365 2.58292 10.3731 2.60732 10.3731C2.59112 10.7075 2.58292 11.0255 2.63173 11.1397C2.68874 11.262 2.95729 10.8869 3.23385 10.4465C3.19323 10.8787 3.16883 11.3761 3.23385 11.5311C3.29886 11.6861 3.67333 11.2049 3.99879 10.6667C8.39266 9.64726 12.4041 12.6891 12.8271 16.9949C12.7458 16.3262 11.924 15.9511 11.5416 16.0408C11.3544 16.4975 11.0371 17.0928 10.5326 17.4598C10.5733 17.052 10.557 16.628 10.4675 16.2202C10.3292 16.791 10.0607 17.3293 9.70262 17.786C9.11681 17.8268 8.52279 17.5414 8.21353 17.1172C8.18922 17.101 8.18112 17.0602 8.16482 17.0357C8.14861 16.9949 8.12411 16.9459 8.11601 16.9052C8.09971 16.8644 8.0834 16.8155 8.0753 16.7747C8.0672 16.7339 8.0672 16.6851 8.0672 16.6362V16.5464C8.0753 16.5057 8.0834 16.4567 8.09971 16.4159C8.11601 16.3751 8.12411 16.3262 8.14041 16.2854C8.16482 16.2447 8.18102 16.1957 8.21363 16.155C8.31945 15.8533 8.31945 15.6167 8.12411 15.4699C8.0834 15.4455 8.0509 15.4292 8.01019 15.4047C7.98578 15.3966 7.95328 15.3884 7.92887 15.3802C7.91257 15.3721 7.89627 15.364 7.87996 15.364C7.83935 15.3477 7.79054 15.3394 7.74984 15.3313C7.70913 15.3151 7.66032 15.3151 7.61961 15.3151C7.57891 15.3069 7.5301 15.2987 7.48138 15.2987C7.44878 15.2987 7.41617 15.3069 7.39177 15.3069C7.34296 15.3069 7.30225 15.315 7.25354 15.3231C7.21283 15.3313 7.16392 15.3394 7.12331 15.3477C7.0826 15.3639 7.0337 15.3721 6.99309 15.3884C6.95248 15.4048 6.91177 15.4292 6.87106 15.4455C6.83036 15.4618 6.79785 15.4863 6.75714 15.5107C5.30876 16.4566 6.17132 18.6667 7.16392 19.3028C6.78965 19.368 6.41537 19.4496 6.30965 19.5312L6.29335 19.5474C6.56003 19.7104 6.84046 19.8495 7.13141 19.9633C7.53009 20.0938 7.95318 20.2079 8.13221 20.2651V20.2732C8.64491 20.3792 9.16562 20.42 9.69452 20.3874C12.4367 20.1917 14.6905 18.104 15.0974 15.3394C15.1136 15.3966 15.1218 15.4455 15.138 15.5026C15.1543 15.6167 15.1787 15.731 15.195 15.8533V15.8614C15.2112 15.9184 15.2112 15.9756 15.2194 16.0245V16.049C15.2275 16.1061 15.2356 16.1631 15.2356 16.212C15.2438 16.2773 15.2519 16.3507 15.2519 16.4159V16.5138C15.2519 16.5465 15.2601 16.579 15.2601 16.6116C15.2601 16.6524 15.2519 16.6851 15.2519 16.7258V16.8156C15.2519 16.8563 15.2438 16.8971 15.2438 16.9379C15.2438 16.9624 15.2438 16.9868 15.2357 17.0194C15.2357 17.0602 15.2275 17.1091 15.2275 17.158C15.2194 17.1743 15.2194 17.1988 15.2194 17.2151C15.2113 17.2641 15.2032 17.3049 15.2032 17.3619C15.2032 17.3782 15.2032 17.4027 15.195 17.419C15.1869 17.4842 15.1788 17.5331 15.1706 17.5984V17.6146C15.1544 17.6718 15.1462 17.7289 15.1299 17.786V17.8022C15.1137 17.8593 15.1055 17.9165 15.0892 17.9735C15.0892 17.9817 15.0811 17.9898 15.0811 17.998C15.0649 18.0551 15.0567 18.1121 15.0404 18.1693V18.1855C15.0242 18.2508 14.9997 18.2997 14.9916 18.3568C14.9835 18.365 14.9835 18.3731 14.9835 18.3731C14.9673 18.4383 14.9428 18.4954 14.9265 18.5607C14.9021 18.6259 14.8858 18.6748 14.8613 18.7401C14.8368 18.8053 14.8207 18.8624 14.7963 18.9195C14.7719 18.9848 14.7475 19.0337 14.7231 19.0989H14.7149C14.6905 19.156 14.6661 19.2131 14.6336 19.2701C14.6254 19.2864 14.6173 19.3028 14.6173 19.3109C14.6092 19.3191 14.6092 19.3272 14.6011 19.3272C14.1942 20.1428 13.6001 20.8522 12.8597 21.4148C12.8109 21.4475 12.7621 21.4802 12.7133 21.5209C12.697 21.5372 12.6807 21.5372 12.6726 21.5536C12.6297 21.5881 12.5833 21.6182 12.5343 21.6433L12.5505 21.684H12.5587C12.6482 21.6678 12.7295 21.6595 12.819 21.6433H12.8271C12.99 21.6188 13.1527 21.5862 13.3072 21.5535C13.3479 21.5454 13.3968 21.5372 13.4456 21.521C13.4782 21.5128 13.5026 21.5047 13.5352 21.5047C13.5758 21.4964 13.6246 21.4883 13.6653 21.4802C13.706 21.4639 13.7385 21.4639 13.7792 21.4475C14.3976 21.3008 14.9997 21.0969 15.5774 20.8523C14.5929 22.1977 13.2747 23.2906 11.7287 24C12.4446 23.9512 13.1536 23.8283 13.8442 23.6331C16.3423 22.8909 18.4416 21.211 19.7028 18.944C19.4505 20.3792 18.881 21.7493 18.0348 22.9399C18.6369 22.5403 19.1902 22.0837 19.6865 21.5617C21.0779 20.1101 21.9893 18.2589 22.2984 16.2773C22.5101 17.2559 22.5751 18.2752 22.4774 19.2701C26.9527 13.0153 22.8517 6.52399 21.1349 4.81957C21.1268 4.80332 21.1187 4.80333 21.1187 4.78699C21.1105 4.79511 21.1105 4.79511 21.1105 4.80323C21.1105 4.79511 21.1105 4.79511 21.1023 4.78699C21.1023 4.86037 21.0942 4.93374 21.0861 5.00712C21.0699 5.15397 21.0454 5.28439 21.021 5.42303C20.9885 5.56166 20.9558 5.7003 20.9151 5.83081C20.8744 5.96133 20.8257 6.09996 20.7687 6.23038C20.7118 6.35268 20.6548 6.48319 20.5816 6.60549C20.5131 6.72533 20.4398 6.84231 20.3618 6.95614C20.2805 7.07041 20.191 7.18449 20.1097 7.29055C20.0201 7.40472 19.9143 7.50266 19.8167 7.6004C19.7516 7.65754 19.7028 7.70645 19.6377 7.75537C19.5889 7.79617 19.5482 7.83697 19.4913 7.87767C19.3773 7.96748 19.2715 8.04898 19.1414 8.12226C19.0275 8.19583 18.8973 8.26912 18.7752 8.33437C18.645 8.39963 18.5149 8.44855 18.3846 8.50559C18.2544 8.55461 18.1161 8.5954 17.9778 8.63611C17.8394 8.67681 17.7011 8.70136 17.5628 8.72582C17.4227 8.74964 17.2815 8.76597 17.1397 8.77474C17.0421 8.78286 16.9445 8.79098 16.8386 8.79098C16.6922 8.79098 16.5539 8.77474 16.4155 8.76662C16.269 8.75028 16.1307 8.73394 15.9924 8.70136C15.8459 8.6769 15.7157 8.63611 15.5774 8.59531H15.5693C15.7076 8.57907 15.8459 8.57085 15.9762 8.54639C16.1226 8.52193 16.2528 8.48935 16.3911 8.45667C16.5294 8.41597 16.6678 8.37517 16.7979 8.32625C16.9363 8.27734 17.0665 8.21208 17.1885 8.15494C17.3187 8.08978 17.4326 8.02452 17.5628 7.95114C17.6767 7.86955 17.7988 7.78805 17.9126 7.70645C18.0266 7.61674 18.1324 7.52702 18.2301 7.42918C18.3358 7.33947 18.4253 7.23351 18.523 7.12745C18.6125 7.01328 18.702 6.90722 18.7833 6.79305C18.7995 6.7768 18.8077 6.75234 18.824 6.72788C18.8884 6.63018 18.9481 6.52949 19.0031 6.42615C19.0681 6.30386 19.1332 6.18156 19.1902 6.05104C19.2472 5.92053 19.296 5.79002 19.3366 5.65138C19.3773 5.52096 19.4098 5.38233 19.4424 5.24369C19.4669 5.09684 19.4913 4.96642 19.5075 4.82778C19.5238 4.68093 19.532 4.5423 19.532 4.40366C19.532 4.30582 19.5238 4.20799 19.5157 4.10193C19.4995 3.95517 19.4831 3.82466 19.4669 3.68602C19.4424 3.53927 19.4098 3.40875 19.3772 3.27021C19.3366 3.1397 19.2878 3.00106 19.239 2.87055C19.1902 2.74003 19.1251 2.60962 19.0681 2.48732C19.0031 2.36502 18.9298 2.24272 18.8565 2.12033L18.6125 1.7778C18.5229 1.67175 18.4253 1.56569 18.3276 1.45973C18.2788 1.41081 18.2218 1.35368 18.1649 1.30486C17.8882 1.08463 17.5954 0.880732 17.3024 0.693178C17.2617 0.668718 17.2211 0.652476 17.1804 0.627921C16.9851 0.481164 16.7979 0.416002 16.6027 0.350745Z" fill="#FF1744"/>
</g>
<defs>
<clipPath id="clip0_6232_185048">
<rect width="24" height="24" fill="white" transform="translate(0.5)"/>
</clipPath>
</defs>
</svg>
