<svg width="25" height="24" viewBox="0 0 25 24" fill="none" xmlns="http://www.w3.org/2000/svg">
<g clip-path="url(#clip0_6232_185073)">
<path d="M5.83344 0C5.97406 0 18.8928 0 19.1272 0C19.7741 0 20.4022 0.103125 21.0116 0.31875C21.8928 0.6375 22.6897 1.2 23.2897 1.93125C23.8991 2.6625 24.3022 3.5625 24.4428 4.5C24.4991 4.84688 24.5084 5.19375 24.5084 5.54062C24.5084 5.85938 24.5084 17.0906 24.5084 17.5969C24.5084 17.8969 24.5084 18.2062 24.5084 18.5062C24.5084 18.9187 24.4897 19.3406 24.4053 19.7438C24.2178 20.6719 23.7772 21.5438 23.1397 22.2469C22.5116 22.95 21.6866 23.475 20.7959 23.7562C20.2522 23.925 19.6897 24 19.1178 24C18.8647 24 5.79594 24 5.59906 23.9906C4.64281 23.9437 3.69594 23.6344 2.89906 23.1C2.12094 22.575 1.48344 21.8438 1.07094 21C0.714689 20.2781 0.536564 19.4719 0.536564 18.6656C0.536564 18.4781 0.536564 5.52188 0.536564 5.33438C0.517814 4.5375 0.686564 3.75 1.03344 3.0375C1.43656 2.19375 2.06469 1.45312 2.84281 0.928125C3.63969 0.384375 4.57719 0.065625 5.53344 0.01875C5.62719 0 5.73031 0 5.83344 0Z" fill="url(#paint0_linear_6232_185073)"/>
<path d="M20.75 19.6313C20.6656 19.5 20.5719 19.3688 20.4688 19.2469C20.2344 18.9656 19.9625 18.7219 19.6625 18.5156C19.2875 18.2625 18.8469 18.1031 18.3969 18.0844C18.0781 18.0656 17.7594 18.1219 17.4594 18.2344C17.1594 18.3375 16.8688 18.4875 16.5875 18.6375C16.2594 18.8063 15.9312 18.975 15.5844 19.1156C15.1719 19.2844 14.7406 19.4156 14.3 19.5094C13.7469 19.6125 13.1844 19.65 12.6312 19.6406C11.6281 19.6219 10.625 19.4719 9.66875 19.1906C8.825 18.9375 8.01875 18.5906 7.25937 18.15C6.59375 17.7656 5.975 17.325 5.39375 16.8281C4.91563 16.4156 4.475 15.975 4.0625 15.5063C3.78125 15.1781 3.50937 14.8313 3.25625 14.475C3.15313 14.3344 3.05938 14.1844 2.975 14.0344L0.5 11.3625V5.31563C0.5 2.38125 2.87187 0 5.80625 0H10.5406L14.0469 3.5625C21.9594 8.94375 19.4 14.8781 19.4 14.8781C19.4 14.8781 21.65 17.4094 20.75 19.6313Z" fill="url(#paint1_linear_6232_185073)"/>
<path d="M14.0652 3.5625C21.9777 8.94375 19.4184 14.8781 19.4184 14.8781C19.4184 14.8781 21.6684 17.4187 20.759 19.6406C20.759 19.6406 19.8309 18.0844 18.2746 18.0844C16.7746 18.0844 15.8934 19.6406 12.8746 19.6406C6.15273 19.6406 2.97461 14.025 2.97461 14.025C9.03086 18.0094 13.1652 15.1875 13.1652 15.1875C10.4371 13.6031 4.63398 6.02813 4.63398 6.02813C9.68711 10.3313 11.8715 11.4656 11.8715 11.4656C10.5684 10.3875 6.91211 5.11875 6.91211 5.11875C9.83711 8.08125 15.6496 12.2156 15.6496 12.2156C17.2996 7.64063 14.0652 3.5625 14.0652 3.5625Z" fill="white"/>
</g>
<defs>
<linearGradient id="paint0_linear_6232_185073" x1="14.7763" y1="-0.856388" x2="10.2419" y2="24.8594" gradientUnits="userSpaceOnUse">
<stop stop-color="#FAAE42"/>
<stop offset="1" stop-color="#EF3E31"/>
</linearGradient>
<linearGradient id="paint1_linear_6232_185073" x1="12.7448" y1="0.387778" x2="9.42622" y2="19.2087" gradientUnits="userSpaceOnUse">
<stop stop-color="#E39F3A"/>
<stop offset="1" stop-color="#D33929"/>
</linearGradient>
<clipPath id="clip0_6232_185073">
<rect width="24" height="24" fill="white" transform="translate(0.5)"/>
</clipPath>
</defs>
</svg>
