<svg width="25" height="24" viewBox="0 0 25 24" fill="none" xmlns="http://www.w3.org/2000/svg">
<g clip-path="url(#clip0_6232_185066)">
<path d="M19.2082 6.74986L19.7262 7.12485C20.6269 7.85138 21.1448 8.67166 21.2574 9.60912C22.2257 9.42163 23.4642 9.56225 24.0046 9.93723L24.5 10.2419L24.4099 10.4294C24.2523 10.781 24.2073 10.8747 24.1847 10.9216C23.3065 12.6793 21.5726 12.7027 20.762 12.6793C18.7128 17.8119 14.3443 20.6477 8.44457 20.6477C5.71988 20.6477 3.64821 19.7806 2.25208 18.0697C0.405596 15.8198 0.405596 12.8902 0.563223 11.9528L0.60826 11.7653H16.8889C17.7446 11.7653 18.3976 11.5309 18.7128 11.3434C18.3751 10.8278 18.2625 10.2419 18.24 9.9138C18.1724 8.97634 18.3976 7.992 18.8479 7.2889L19.2082 6.74986ZM4.84167 8.9529V11.2966H2.36467V8.9529H4.84167ZM7.76903 8.9529V11.2966H5.29203V8.9529H7.76903ZM10.6964 8.9529V11.2966H8.21939V8.9529H10.6964ZM13.6237 8.9529V11.2966H11.1467V8.9529H13.6237ZM16.5511 8.9529V11.2966H14.0741V8.9529H16.5511ZM13.6237 6.14051V8.48417H11.1467V6.14051H13.6237ZM10.6964 6.14051V8.48417H8.21939V6.14051H10.6964ZM7.76903 6.14051V8.48417H5.29203V6.14051H7.76903ZM13.6237 3.32812V5.67178H11.1467V3.32812H13.6237Z" fill="#2396ED"/>
</g>
<defs>
<clipPath id="clip0_6232_185066">
<rect width="24" height="24" fill="white" transform="translate(0.5)"/>
</clipPath>
</defs>
</svg>
