<svg width="25" height="24" viewBox="0 0 25 24" fill="none" xmlns="http://www.w3.org/2000/svg">
<g clip-path="url(#clip0_6232_185065)">
<path d="M0.5 8.68571C0.5 5.64543 0.5 4.12529 1.09168 2.96405C1.61213 1.9426 2.4426 1.11213 3.46405 0.591679C4.62529 0 6.14543 0 9.18571 0H15.8143C18.8546 0 20.3747 0 21.5359 0.591679C22.5574 1.11213 23.3879 1.9426 23.9083 2.96405C24.5 4.12529 24.5 5.64543 24.5 8.68571V15.3143C24.5 18.3546 24.5 19.8747 23.9083 21.0359C23.3879 22.0574 22.5574 22.8879 21.5359 23.4083C20.3747 24 18.8546 24 15.8143 24H9.18571C6.14543 24 4.62529 24 3.46405 23.4083C2.4426 22.8879 1.61213 22.0574 1.09168 21.0359C0.5 19.8747 0.5 18.3546 0.5 15.3143V8.68571Z" fill="#330000"/>
<path d="M12.1297 15.0825H8.41061L7.65392 17.4934C7.63291 17.583 7.55043 17.6464 7.46071 17.642H5.57702C5.4696 17.642 5.43203 17.5815 5.46432 17.4604L8.6843 7.94897C8.71652 7.84991 8.74873 7.73708 8.78093 7.61046C8.82304 7.39014 8.84461 7.16622 8.84533 6.94171C8.8361 6.87539 8.89439 6.8168 8.95803 6.8261H11.5179C11.5929 6.8261 11.6358 6.85363 11.6467 6.90868L15.3014 17.4769C15.3336 17.587 15.3014 17.6421 15.2048 17.642H13.1118C13.0384 17.6503 12.9683 17.6 12.9508 17.5264L12.1297 15.0825ZM8.99021 13.0019H11.534C11.1161 11.5738 10.6444 10.1644 10.2621 8.72509C9.84968 10.1668 9.39968 11.6027 8.99021 13.0019Z" fill="#FF9A00"/>
<path d="M17.4747 8.57642C17.3105 8.58318 17.1468 8.55432 16.9942 8.49172C16.8416 8.42912 16.7036 8.33419 16.5892 8.21314C16.4752 8.08684 16.3866 7.93867 16.3286 7.77714C16.2705 7.61561 16.2442 7.44391 16.2511 7.27191C16.2452 7.10161 16.2745 6.93196 16.3369 6.77404C16.3993 6.61612 16.4935 6.47348 16.6133 6.35544C16.732 6.23862 16.8721 6.1471 17.0255 6.08616C17.1788 6.02522 17.3425 5.99608 17.5069 6.00042C17.8933 6.00042 18.1965 6.11876 18.4166 6.35544C18.5276 6.47844 18.6139 6.6227 18.6706 6.77996C18.7272 6.93722 18.753 7.10439 18.7466 7.27191C18.7533 7.44458 18.7262 7.61688 18.6667 7.77857C18.6072 7.94026 18.5167 8.08804 18.4005 8.21314C18.279 8.33596 18.134 8.43165 17.9747 8.49418C17.8153 8.5567 17.6451 8.5847 17.4747 8.57642ZM16.3638 17.4768V9.58368C16.3638 9.48462 16.4066 9.43507 16.4926 9.43507H18.4729C18.5587 9.43507 18.6016 9.48461 18.6017 9.58368V17.4768C18.6017 17.587 18.5588 17.642 18.4729 17.642H16.5087C16.4121 17.642 16.3638 17.5869 16.3638 17.4768Z" fill="#FF9A00"/>
</g>
<defs>
<clipPath id="clip0_6232_185065">
<rect width="24" height="24" fill="white" transform="translate(0.5)"/>
</clipPath>
</defs>
</svg>
