<svg width="25" height="24" viewBox="0 0 25 24" fill="none" xmlns="http://www.w3.org/2000/svg">
<g clip-path="url(#clip0_6232_185087)">
<path d="M0.5 8.68571C0.5 5.64543 0.5 4.12529 1.09168 2.96405C1.61213 1.9426 2.4426 1.11213 3.46405 0.591679C4.62529 0 6.14543 0 9.18571 0H15.8143C18.8546 0 20.3747 0 21.5359 0.591679C22.5574 1.11213 23.3879 1.9426 23.9083 2.96405C24.5 4.12529 24.5 5.64543 24.5 8.68571V15.3143C24.5 18.3546 24.5 19.8747 23.9083 21.0359C23.3879 22.0574 22.5574 22.8879 21.5359 23.4083C20.3747 24 18.8546 24 15.8143 24H9.18571C6.14543 24 4.62529 24 3.46405 23.4083C2.4426 22.8879 1.61213 22.0574 1.09168 21.0359C0.5 19.8747 0.5 18.3546 0.5 15.3143V8.68571Z" fill="#00005B"/>
<path d="M10.6063 15.0548H6.88717L6.13048 17.4702C6.10947 17.5598 6.02699 17.6233 5.93727 17.6189H4.05358C3.94616 17.6189 3.90859 17.5583 3.94088 17.4372L7.16085 7.96514C7.19308 7.86609 7.22525 7.76924 7.25748 7.64254C7.2996 7.42222 7.32116 7.1983 7.32188 6.97379C7.31265 6.90745 7.3699 6.84873 7.43458 6.85818H9.99445C10.0694 6.85818 10.1124 6.88571 10.1233 6.94076L13.778 17.4537C13.8102 17.5639 13.778 17.6189 13.6814 17.6189H11.5883C11.5149 17.6272 11.4448 17.5769 11.4274 17.5033L10.6063 15.0548ZM7.46676 13.0181H10.0106C9.59262 11.5899 9.12096 10.1805 8.73869 8.74126C8.30548 10.2343 7.90548 11.6189 7.46676 13.0181Z" fill="#9999FF"/>
<path d="M16.4961 14.1221C16.6441 15.3486 17.674 15.9333 18.8145 15.9084C19.4576 15.8957 20.1449 15.7959 20.7458 15.5527C20.7993 15.5089 20.8263 15.5362 20.8263 15.6353V17.204C20.8314 17.2856 20.7973 17.3585 20.7297 17.4022C19.9828 17.7415 19.1254 17.8438 18.3154 17.8308C15.9001 17.8308 14.2414 16.129 14.2421 13.653C14.2358 11.3067 15.758 9.32719 18.1222 9.32719C20.1262 9.27523 21.5137 10.8798 21.5193 12.8769C21.5193 13.2407 21.499 13.6057 21.4549 13.9668C21.4463 14.0412 21.383 14.0989 21.31 14.0989C19.7094 14.0989 18.101 14.1221 16.4961 14.1221ZM16.4961 12.6178C17.3881 12.6178 18.2853 12.6493 19.1767 12.6095C19.3107 12.5958 19.4102 12.5704 19.4102 12.4311C19.3916 11.6907 18.7668 11.0817 18.0417 11.1101C17.1657 11.0558 16.605 11.7952 16.4961 12.6178Z" fill="#9999FF"/>
</g>
<defs>
<clipPath id="clip0_6232_185087">
<rect width="24" height="24" fill="white" transform="translate(0.5)"/>
</clipPath>
</defs>
</svg>
