<svg width="25" height="24" viewBox="0 0 25 24" fill="none" xmlns="http://www.w3.org/2000/svg">
<path d="M7.26328 10.0405C7.26328 10.3358 7.29521 10.5753 7.35108 10.7509C7.41494 10.9265 7.49476 11.1181 7.60651 11.3256C7.64642 11.3895 7.66239 11.4533 7.66239 11.5092C7.66239 11.589 7.6145 11.6688 7.51073 11.7486L7.00785 12.0839C6.93601 12.1318 6.86417 12.1557 6.80032 12.1557C6.72049 12.1557 6.64067 12.1158 6.56085 12.044C6.4491 11.9243 6.35332 11.7965 6.27349 11.6688C6.19367 11.5331 6.11385 11.3815 6.02605 11.1979C5.40344 11.9322 4.62119 12.2994 3.6793 12.2994C3.0088 12.2994 2.47399 12.1078 2.08287 11.7247C1.69174 11.3416 1.49219 10.8307 1.49219 10.1921C1.49219 9.51365 1.73165 8.96288 2.21856 8.54781C2.70547 8.13273 3.35203 7.9252 4.17419 7.9252C4.44558 7.9252 4.72496 7.94915 5.0203 7.98906C5.31564 8.02897 5.61896 8.09282 5.93824 8.16466V7.58197C5.93824 6.97532 5.81053 6.55227 5.56308 6.30482C5.30765 6.05738 4.87662 5.93764 4.26199 5.93764C3.98262 5.93764 3.69526 5.96957 3.39992 6.04141C3.10458 6.11325 2.81722 6.20105 2.53785 6.3128C2.41013 6.36868 2.31435 6.40061 2.25847 6.41657C2.2026 6.43254 2.16269 6.44052 2.13076 6.44052C2.01901 6.44052 1.96313 6.3607 1.96313 6.19307V5.80195C1.96313 5.67423 1.9791 5.57845 2.01901 5.52257C2.05892 5.4667 2.13076 5.41082 2.24251 5.35495C2.52188 5.21127 2.85713 5.09154 3.24826 4.99575C3.63939 4.89198 4.05446 4.84409 4.49347 4.84409C5.44335 4.84409 6.1378 5.05961 6.5848 5.49064C7.02382 5.92168 7.24732 6.57622 7.24732 7.45425V10.0405H7.26328ZM4.02253 11.2538C4.28594 11.2538 4.55733 11.2059 4.84469 11.1101C5.13205 11.0143 5.38748 10.8387 5.60299 10.5992C5.73071 10.4476 5.82649 10.2799 5.87439 10.0884C5.92228 9.89679 5.95421 9.66531 5.95421 9.39391V9.05866C5.72273 9.00279 5.47528 8.9549 5.21985 8.92297C4.96442 8.89104 4.71698 8.87507 4.46953 8.87507C3.93472 8.87507 3.5436 8.97884 3.28019 9.19436C3.01678 9.40988 2.88906 9.7132 2.88906 10.1123C2.88906 10.4875 2.98485 10.7668 3.1844 10.9584C3.37597 11.158 3.65535 11.2538 4.02253 11.2538ZM10.4322 12.1158C10.2885 12.1158 10.1927 12.0919 10.1289 12.036C10.065 11.9881 10.0091 11.8764 9.96125 11.7247L8.08544 5.5545C8.03755 5.39486 8.0136 5.29109 8.0136 5.23521C8.0136 5.1075 8.07746 5.03566 8.20517 5.03566H8.98742C9.13909 5.03566 9.24285 5.05961 9.29873 5.11548C9.36259 5.16338 9.41048 5.27513 9.45837 5.42679L10.7994 10.711L12.0446 5.42679C12.0845 5.26714 12.1324 5.16338 12.1962 5.11548C12.2601 5.06759 12.3719 5.03566 12.5155 5.03566H13.1541C13.3058 5.03566 13.4095 5.05961 13.4734 5.11548C13.5372 5.16338 13.5931 5.27513 13.6251 5.42679L14.8862 10.7748L16.2671 5.42679C16.315 5.26714 16.3709 5.16338 16.4268 5.11548C16.4906 5.06759 16.5944 5.03566 16.7381 5.03566H17.4804C17.6081 5.03566 17.68 5.09952 17.68 5.23521C17.68 5.27513 17.672 5.31504 17.664 5.36293C17.656 5.41082 17.6401 5.47468 17.6081 5.56248L15.6844 11.7327C15.6366 11.8923 15.5807 11.9961 15.5168 12.044C15.453 12.0919 15.3492 12.1238 15.2135 12.1238H14.527C14.3754 12.1238 14.2716 12.0999 14.2078 12.044C14.1439 11.9881 14.088 11.8843 14.0561 11.7247L12.8189 6.57622L11.5896 11.7167C11.5497 11.8764 11.5018 11.9801 11.4379 12.036C11.3741 12.0919 11.2623 12.1158 11.1187 12.1158H10.4322ZM20.6893 12.3313C20.2742 12.3313 19.8591 12.2835 19.46 12.1877C19.0609 12.0919 18.7496 11.9881 18.5421 11.8684C18.4143 11.7965 18.3265 11.7167 18.2946 11.6449C18.2627 11.573 18.2467 11.4932 18.2467 11.4214V11.0143C18.2467 10.8467 18.3106 10.7668 18.4303 10.7668C18.4782 10.7668 18.5261 10.7748 18.574 10.7908C18.6219 10.8068 18.6937 10.8387 18.7735 10.8706C19.0449 10.9903 19.3403 11.0861 19.6516 11.15C19.9709 11.2138 20.2822 11.2458 20.6015 11.2458C21.1043 11.2458 21.4955 11.158 21.7668 10.9824C22.0382 10.8068 22.1819 10.5513 22.1819 10.2241C22.1819 10.0006 22.1101 9.81697 21.9664 9.66531C21.8227 9.51365 21.5513 9.37795 21.1602 9.25024L20.0028 8.89104C19.4201 8.70745 18.9891 8.43606 18.7256 8.07686C18.4622 7.72564 18.3265 7.33452 18.3265 6.91945C18.3265 6.5842 18.3984 6.28886 18.5421 6.03343C18.6857 5.778 18.8773 5.5545 19.1168 5.37889C19.3562 5.1953 19.6276 5.05961 19.9469 4.96382C20.2662 4.86804 20.6015 4.82812 20.9527 4.82812C21.1283 4.82812 21.3119 4.83611 21.4875 4.86005C21.6711 4.884 21.8387 4.91593 22.0063 4.94786C22.166 4.98777 22.3176 5.02768 22.4613 5.07557C22.605 5.12346 22.7167 5.17136 22.7965 5.21925C22.9083 5.28311 22.9881 5.34696 23.036 5.4188C23.0839 5.48266 23.1078 5.57046 23.1078 5.68221V6.05738C23.1078 6.225 23.044 6.3128 22.9243 6.3128C22.8604 6.3128 22.7566 6.28088 22.6209 6.21702C22.166 6.00948 21.6551 5.90571 21.0884 5.90571C20.6334 5.90571 20.2742 5.97755 20.0267 6.12922C19.7793 6.28088 19.6516 6.51236 19.6516 6.83963C19.6516 7.06313 19.7314 7.2547 19.891 7.40636C20.0507 7.55802 20.346 7.70968 20.7691 7.84538L21.9025 8.20457C22.4773 8.38816 22.8923 8.64359 23.1398 8.97086C23.3872 9.29813 23.507 9.67329 23.507 10.0884C23.507 10.4316 23.4351 10.7429 23.2994 11.0143C23.1557 11.2857 22.9642 11.5251 22.7167 11.7167C22.4693 11.9163 22.1739 12.06 21.8307 12.1637C21.4715 12.2755 21.0963 12.3313 20.6893 12.3313Z" fill="#252F3E"/>
<path d="M22.198 16.2107C19.5719 18.1503 15.7564 19.18 12.4758 19.18C7.87806 19.18 3.73533 17.4798 0.606324 14.6542C0.358877 14.4307 0.582377 14.1273 0.877717 14.3029C4.26215 16.2665 8.43681 17.4559 12.7552 17.4559C15.6686 17.4559 18.8695 16.8492 21.8149 15.604C22.2539 15.4045 22.6291 15.8914 22.198 16.2107ZM23.2916 14.9655C22.9563 14.5344 21.0725 14.7579 20.2185 14.8617C19.963 14.8936 19.9231 14.6701 20.1546 14.5025C21.6552 13.4488 24.1217 13.7522 24.4091 14.1034C24.6964 14.4626 24.3293 16.9291 22.9244 18.1104C22.7089 18.294 22.5014 18.1982 22.5971 17.9588C22.9164 17.1685 23.6268 15.3885 23.2916 14.9655Z" fill="#FF9900"/>
</svg>
