<svg width="25" height="24" viewBox="0 0 25 24" fill="none" xmlns="http://www.w3.org/2000/svg">
<g clip-path="url(#clip0_6232_185059)">
<path d="M9.91624 12.799C10.0035 11.2422 10.7658 9.87077 11.9159 8.89849C13.0437 7.94355 14.5617 7.35986 16.2181 7.35986C17.8728 7.35986 19.3909 7.94355 20.5195 8.89849C21.6687 9.87067 22.4311 11.2422 22.5192 12.7974C22.6064 14.3969 21.9635 15.8829 20.8357 16.9843C19.6856 18.1047 18.0498 18.8078 16.2181 18.8078C14.3864 18.8078 12.7474 18.1047 11.5981 16.9843C10.4695 15.8828 9.82812 14.3968 9.91624 12.799Z" fill="white"/>
<path d="M12.9846 12.9383C13.0293 12.1396 13.4205 11.4358 14.0106 10.9369C14.5893 10.447 15.3682 10.1475 16.2181 10.1475C17.0671 10.1475 17.8461 10.447 18.4252 10.9369C19.0149 11.4358 19.406 12.1396 19.4512 12.9376C19.496 13.7582 19.1662 14.5207 18.5874 15.0858C17.9973 15.6607 17.158 16.0215 16.2181 16.0215C15.2783 16.0215 14.4372 15.6607 13.8476 15.0858C13.2685 14.5207 12.9394 13.7582 12.9846 12.9383Z" fill="#265787"/>
<path d="M7.85101 14.5794C7.85664 14.8925 7.95648 15.5013 8.10639 15.9766C8.42129 16.9828 8.95548 17.9138 9.69882 18.7341C10.4617 19.5773 11.4009 20.2547 12.486 20.7355C13.6264 21.2406 14.862 21.4979 16.1454 21.4958C17.4268 21.4941 18.6625 21.2317 19.8029 20.7228C20.8879 20.2373 21.8263 19.557 22.5879 18.7134C23.3308 17.8896 23.8641 16.957 24.18 15.9508C24.3387 15.4424 24.439 14.9264 24.4792 14.4086C24.5186 13.8979 24.502 13.3843 24.4297 12.8771C24.2884 11.8824 23.9441 10.949 23.4141 10.0981C22.9295 9.31624 22.3047 8.63177 21.5617 8.05559L21.5634 8.05437L14.0663 2.29766C14.0594 2.29259 14.0539 2.28716 14.0467 2.28247C13.5548 1.90485 12.7276 1.90616 12.1867 2.28453C11.6397 2.66722 11.5771 3.30012 12.0638 3.69922L12.0618 3.70137L15.1888 6.24425L5.65792 6.25437H5.64517C4.85739 6.25531 4.10017 6.77215 3.95017 7.42531C3.79614 8.09074 4.33127 8.64274 5.15036 8.64574L5.14905 8.64865L9.97998 8.63927L1.35949 15.2562C1.34852 15.2643 1.33661 15.2727 1.32649 15.2808C0.513302 15.9035 0.250428 16.9389 0.762583 17.5942C1.28243 18.2605 2.38774 18.2618 3.20936 17.598L7.9141 13.7476C7.9141 13.7476 7.84548 14.2674 7.85101 14.5794ZM19.9405 16.3199C18.9712 17.3076 17.6139 17.8675 16.1455 17.8705C14.6749 17.8731 13.3178 17.3181 12.3484 16.3322C11.8747 15.8517 11.5268 15.2989 11.3121 14.71C11.101 14.1306 11.0198 13.5118 11.0742 12.8975C11.1254 12.2917 11.3058 11.7139 11.5936 11.1911C11.8763 10.6772 12.2658 10.2128 12.7467 9.81996C13.6889 9.05215 14.8886 8.63637 16.1433 8.63468C17.3993 8.63299 18.5981 9.04493 19.5413 9.8103C20.0213 10.2013 20.4104 10.6641 20.6931 11.1772C20.9847 11.7028 21.1624 12.2839 21.2147 12.8827C21.2683 13.4966 21.1868 14.1149 20.9759 14.6939C20.7608 15.2845 20.4141 15.8374 19.9405 16.3199Z" fill="#EA7600"/>
</g>
<defs>
<clipPath id="clip0_6232_185059">
<rect width="24" height="24" fill="white" transform="translate(0.5)"/>
</clipPath>
</defs>
</svg>
