<svg width="25" height="24" viewBox="0 0 25 24" fill="none" xmlns="http://www.w3.org/2000/svg">
<path fill-rule="evenodd" clip-rule="evenodd" d="M12.5212 23.6753C12.1989 23.6753 11.898 23.5893 11.6186 23.4389L8.76015 21.741C8.33031 21.5046 8.54523 21.4186 8.67418 21.3756C9.25447 21.1822 9.36193 21.1392 9.9637 20.7953C10.0282 20.7524 10.1141 20.7738 10.1786 20.8168L12.3708 22.1278C12.4568 22.1708 12.5642 22.1708 12.6287 22.1278L21.204 17.1632C21.29 17.1202 21.333 17.0342 21.333 16.9268V7.01898C21.333 6.91152 21.29 6.82556 21.204 6.78257L12.6287 1.83942C12.5427 1.79643 12.4353 1.79643 12.3708 1.83942L3.79551 6.78257C3.70954 6.82556 3.66655 6.93302 3.66655 7.01898V16.9268C3.66655 17.0128 3.70954 17.1202 3.79551 17.1632L6.13813 18.5172C7.40616 19.1619 8.20136 18.4097 8.20136 17.6575V7.87866C8.20136 7.74971 8.30882 7.62076 8.45926 7.62076H9.55536C9.68431 7.62076 9.81326 7.72822 9.81326 7.87866V17.6575C9.81326 19.3554 8.8891 20.344 7.27721 20.344C6.78289 20.344 6.39604 20.344 5.29994 19.8067L3.04329 18.5172C2.4845 18.1948 2.14062 17.593 2.14062 16.9483V7.04048C2.14062 6.39572 2.4845 5.79394 3.04329 5.47156L11.6186 0.506916C12.1559 0.206028 12.8866 0.206028 13.4239 0.506916L21.9992 5.47156C22.558 5.79394 22.9019 6.39572 22.9019 7.04048V16.9483C22.9019 17.593 22.558 18.1948 21.9992 18.5172L13.4239 23.4818C13.1445 23.6108 12.8221 23.6753 12.5212 23.6753ZM15.1648 16.8623C11.4037 16.8623 10.63 15.1429 10.63 13.6815C10.63 13.5525 10.7374 13.4236 10.8879 13.4236H12.0054C12.1344 13.4236 12.2419 13.5096 12.2419 13.6385C12.4138 14.7776 12.9081 15.3364 15.1863 15.3364C16.9916 15.3364 17.7653 14.928 17.7653 13.9609C17.7653 13.4021 17.5504 12.9938 14.7349 12.7144C12.3923 12.4779 10.9308 11.9621 10.9308 10.0923C10.9308 8.35149 12.3923 7.31987 14.8424 7.31987C17.5934 7.31987 18.9473 8.26552 19.1193 10.3287C19.1193 10.3932 19.0978 10.4577 19.0548 10.5222C19.0118 10.5652 18.9473 10.6081 18.8829 10.6081H17.7653C17.6578 10.6081 17.5504 10.5222 17.5289 10.4147C17.271 9.23266 16.6047 8.8458 14.8424 8.8458C12.8651 8.8458 12.6287 9.53354 12.6287 10.0494C12.6287 10.6726 12.9081 10.866 15.5731 11.2099C18.2166 11.5538 19.4632 12.0481 19.4632 13.8964C19.4417 15.7877 17.8942 16.8623 15.1648 16.8623Z" fill="#539E43"/>
</svg>
