<svg width="25" height="24" viewBox="0 0 25 24" fill="none" xmlns="http://www.w3.org/2000/svg">
<path d="M21.2128 3.17548C18.9843 -0.0141889 14.5828 -0.959617 11.4004 1.06802L5.81125 4.63024C4.28455 5.59072 3.23298 7.14979 2.9144 8.92513C2.64779 10.4041 2.88213 11.9297 3.58032 13.2605C3.1019 13.9862 2.7756 14.8014 2.62113 15.6568C2.29948 17.4663 2.72023 19.329 3.78841 20.8245C6.01745 24.0145 10.4189 24.9595 13.6009 22.932L19.19 19.3697C20.7168 18.4094 21.7684 16.8502 22.0868 15.0748C22.3534 13.5959 22.1193 12.0703 21.4214 10.7394C21.8997 10.0136 22.2259 9.19847 22.3802 8.34313C22.7021 6.53369 22.2813 4.67088 21.2129 3.17548" fill="#FF3E00"/>
<path d="M10.8546 21.128C9.05246 21.5965 7.14939 20.8911 6.08807 19.3612C5.44539 18.4616 5.19222 17.341 5.38574 16.2526C5.41818 16.0757 5.46282 15.9012 5.51934 15.7305L5.62463 15.4094L5.91106 15.6198C6.57256 16.1059 7.31219 16.4754 8.09807 16.7125L8.30586 16.7756L8.28671 16.9829C8.26132 17.278 8.34121 17.5724 8.51221 17.8142C8.83161 18.2751 9.40459 18.4877 9.94732 18.3469C10.0688 18.3144 10.1846 18.2635 10.2907 18.1959L15.8817 14.6331C16.1583 14.4589 16.3489 14.1764 16.407 13.8548C16.4649 13.5267 16.3886 13.1891 16.1953 12.9178C15.8757 12.4569 15.3026 12.2441 14.7596 12.3849C14.6383 12.4173 14.5226 12.4682 14.4167 12.5357L12.2832 13.8957C11.9324 14.1187 11.5495 14.2869 11.1479 14.3942C9.34581 14.8628 7.44277 14.1574 6.38147 12.6274C5.73876 11.7279 5.48559 10.6073 5.67914 9.51886C5.87073 8.45097 6.50336 7.51322 7.4218 6.93567L13.0123 3.37251C13.3632 3.14908 13.7463 2.98075 14.1483 2.87335C15.9504 2.40481 17.8534 3.11022 18.9147 4.64015C19.5574 5.53971 19.8106 6.66026 19.617 7.74874C19.5845 7.92561 19.5398 8.10005 19.4834 8.27083L19.3782 8.59188L19.0919 8.38182C18.4304 7.89549 17.6907 7.52578 16.9047 7.28864L16.6969 7.22558L16.7161 7.0182C16.7412 6.7232 16.6614 6.42879 16.4906 6.18695C16.1712 5.7261 15.5982 5.51343 15.0555 5.6543C14.934 5.68677 14.8181 5.73767 14.7121 5.80522L9.12111 9.36823C8.84454 9.54227 8.65402 9.8247 8.59623 10.1463C8.53793 10.4744 8.61406 10.8121 8.8075 11.0834C9.12709 11.5443 9.70021 11.7571 10.2432 11.6163C10.3646 11.5838 10.4804 11.5329 10.5866 11.4654L12.7197 10.1059C13.0704 9.88256 13.4532 9.71429 13.8549 9.60695C15.657 9.1384 17.56 9.84382 18.6213 11.3738C19.264 12.2733 19.5172 13.3939 19.3237 14.4823C19.132 15.5503 18.4994 16.4881 17.581 17.0659L11.9905 20.6288C11.6396 20.8522 11.2564 21.0206 10.8545 21.128" fill="white"/>
</svg>
