<svg width="25" height="24" viewBox="0 0 25 24" fill="none" xmlns="http://www.w3.org/2000/svg">
<g clip-path="url(#clip0_6232_185076)">
<path d="M2.375 0H22.625C23.6605 0 24.5 0.839466 24.5 1.875V22.125C24.5 23.1605 23.6605 24 22.625 24H2.375C1.33947 24 0.5 23.1605 0.5 22.125V1.875C0.5 0.839466 1.33947 0 2.375 0Z" fill="#3178C6"/>
<path d="M14.6111 18.7945V21.3839C15.0322 21.5997 15.5303 21.7615 16.1052 21.8694C16.6802 21.9773 17.2862 22.0312 17.9233 22.0312C18.5442 22.0312 19.134 21.9719 19.6928 21.8532C20.2515 21.7345 20.7416 21.539 21.1626 21.2666C21.5837 20.9942 21.9171 20.6381 22.1628 20.1984C22.4084 19.7588 22.5312 19.2154 22.5312 18.568C22.5312 18.0987 22.461 17.6873 22.3207 17.334C22.1803 16.9807 21.9778 16.6664 21.7133 16.3913C21.4488 16.1162 21.1316 15.8694 20.7618 15.6509C20.392 15.4325 19.9749 15.2261 19.5105 15.032C19.1704 14.8916 18.8654 14.7555 18.5954 14.6233C18.3255 14.4911 18.096 14.3563 17.9071 14.2187C17.7181 14.0812 17.5723 13.9355 17.4698 13.7817C17.3672 13.628 17.3159 13.4541 17.3159 13.2598C17.3159 13.0818 17.3618 12.9214 17.4536 12.7784C17.5453 12.6354 17.675 12.5127 17.8423 12.4103C18.0097 12.3077 18.2148 12.2282 18.4578 12.1715C18.7007 12.1148 18.9707 12.0865 19.2676 12.0865C19.4836 12.0865 19.7117 12.1027 19.9519 12.1351C20.1922 12.1674 20.4338 12.2173 20.6768 12.2848C20.9197 12.3522 21.1558 12.4372 21.3853 12.5397C21.6147 12.6422 21.8267 12.7609 22.0211 12.8957V10.4763C21.6269 10.3253 21.1963 10.2133 20.7294 10.1405C20.2624 10.0676 19.7265 10.0312 19.1218 10.0312C18.5064 10.0312 17.9233 10.0973 17.3727 10.2295C16.822 10.3616 16.3374 10.568 15.919 10.8485C15.5006 11.1291 15.1699 11.4864 14.9269 11.9207C14.684 12.3549 14.5625 12.8741 14.5625 13.4783C14.5625 14.2497 14.7852 14.9078 15.2307 15.4527C15.6761 15.9975 16.3522 16.4587 17.2592 16.8364C17.6156 16.9821 17.9476 17.1249 18.2553 17.2653C18.5631 17.4055 18.829 17.5511 19.053 17.7022C19.2771 17.8532 19.4539 18.0177 19.5835 18.1957C19.713 18.3738 19.7778 18.5761 19.7778 18.8027C19.7778 18.9698 19.7373 19.125 19.6563 19.268C19.5754 19.4108 19.4525 19.535 19.2879 19.6402C19.1233 19.7453 18.918 19.8276 18.6724 19.8869C18.4268 19.9462 18.1393 19.976 17.8099 19.976C17.2484 19.976 16.6924 19.8775 16.1417 19.6806C15.5909 19.4837 15.0808 19.1884 14.6111 18.7945ZM10.2952 12.3508H13.625V10.2188H4.34375V12.3508H7.65732V21.8438H10.2952V12.3508Z" fill="white"/>
</g>
<defs>
<clipPath id="clip0_6232_185076">
<rect width="24" height="24" fill="white" transform="translate(0.5)"/>
</clipPath>
</defs>
</svg>
