<svg width="25" height="24" viewBox="0 0 25 24" fill="none" xmlns="http://www.w3.org/2000/svg">
<g clip-path="url(#clip0_6232_185089)">
<path fill-rule="evenodd" clip-rule="evenodd" d="M14.0883 10.5334C13.8056 10.6124 13.519 10.6926 13.1872 10.7828C13.025 10.8287 12.9882 10.8391 12.8374 10.6558C12.6564 10.4397 12.5237 10.3 12.2704 10.1729C11.5105 9.77901 10.7747 9.89337 10.0872 10.3635C9.26696 10.9226 8.84478 11.7485 8.85685 12.7777C8.86891 13.7943 9.53233 14.6329 10.4852 14.7727C11.3055 14.887 11.993 14.5821 12.5358 13.934C12.6443 13.7943 12.7409 13.6417 12.8615 13.4639H10.5335C10.2802 13.4639 10.2199 13.2987 10.3043 13.0827C10.4611 12.6888 10.7506 12.0281 10.9195 11.6977C10.9557 11.6214 11.0401 11.4944 11.221 11.4944H15.1027C15.277 10.9124 15.5599 10.3625 15.9373 9.84211C16.8179 8.62229 17.8793 7.98696 19.3147 7.72013C20.5451 7.49141 21.7031 7.61848 22.7525 8.36816C23.7054 9.05431 24.2964 9.98188 24.4532 11.2017C24.6583 12.9171 24.1879 14.3148 23.0661 15.5092C22.27 16.3605 21.2929 16.8942 20.1712 17.1356C19.9572 17.1774 19.7432 17.1972 19.5326 17.2167C19.4227 17.2268 19.3137 17.2369 19.2062 17.25C18.1085 17.2246 17.1074 16.8942 16.263 16.1318C15.6692 15.5911 15.2602 14.9266 15.0569 14.153C14.9158 14.4532 14.7471 14.7406 14.5502 15.0141C13.6817 16.2212 12.5479 16.9709 11.1125 17.1742C9.93038 17.3394 8.83272 17.0979 7.86775 16.3356C6.97515 15.624 6.46854 14.6837 6.33585 13.5147C6.17905 12.1297 6.56504 10.8845 7.36114 9.79171C8.21755 8.61001 9.35139 7.86033 10.7385 7.59349C11.8724 7.37748 12.958 7.51725 13.935 8.21611C14.5743 8.66084 15.0327 9.27075 15.3342 10.0077C15.4066 10.1221 15.3584 10.1856 15.2136 10.2237C14.7909 10.3368 14.4427 10.4342 14.0883 10.5334ZM22.0686 11.9807C22.071 12.0234 22.0735 12.0683 22.077 12.1166C22.0167 13.2093 21.498 14.0225 20.5451 14.5435C19.9058 14.8866 19.2424 14.9247 18.5789 14.6198C17.7105 14.2131 17.2521 13.2093 17.4692 12.2182C17.7346 11.0238 18.4583 10.2741 19.5801 10.0073C20.726 9.72775 21.8237 10.4393 22.0408 11.6973C22.0579 11.7872 22.0629 11.8772 22.0686 11.9807Z" fill="#00ACD7"/>
<path d="M2.33345 10.389C2.30933 10.4271 2.32139 10.4525 2.36964 10.4525L5.96195 10.4652C5.99814 10.4652 6.05845 10.4271 6.08257 10.389L6.28763 10.0586C6.31175 10.0205 6.29969 9.98236 6.25144 9.98236H2.71944C2.6712 9.98236 2.61088 10.0078 2.58676 10.0459L2.33345 10.389Z" fill="#00ACD7"/>
<path d="M0.512062 11.5579C0.487938 11.596 0.5 11.6214 0.548249 11.6214L5.47946 11.6087C5.52771 11.6087 5.57595 11.5833 5.58802 11.5325L5.68451 11.2275C5.69658 11.1894 5.67245 11.1513 5.6242 11.1513H0.898051C0.849803 11.1513 0.789492 11.1767 0.765368 11.2148L0.512062 11.5579Z" fill="#00ACD7"/>
<path d="M3.4311 12.7142C3.40697 12.7524 3.41903 12.7905 3.46728 12.7905L5.32264 12.8032C5.35883 12.8032 5.40707 12.7651 5.40707 12.7142L5.4312 12.4093C5.4312 12.3585 5.40707 12.3203 5.35883 12.3203H3.72059C3.67234 12.3203 3.62409 12.3585 3.59997 12.3966L3.4311 12.7142Z" fill="#00ACD7"/>
</g>
<defs>
<clipPath id="clip0_6232_185089">
<rect width="24" height="24" fill="white" transform="translate(0.5)"/>
</clipPath>
</defs>
</svg>
