<svg width="25" height="24" viewBox="0 0 25 24" fill="none" xmlns="http://www.w3.org/2000/svg">
<g clip-path="url(#clip0_6232_185080)">
<path d="M14.1091 2.67497C13.1122 1.47987 12.2537 0.266096 12.0783 0.014005C12.0598 -0.00466834 12.0321 -0.00466834 12.0136 0.014005C11.8383 0.266096 10.9797 1.47987 9.98277 2.67497C1.42539 13.7016 11.3305 21.143 11.3305 21.143L11.4136 21.199C11.4875 22.3474 11.6721 24 11.6721 24H12.0413H12.4106C12.4106 24 12.5952 22.3567 12.6691 21.199L12.7521 21.1337C12.7614 21.1337 22.6665 13.7016 14.1091 2.67497ZM12.0413 20.9749C12.0413 20.9749 11.5982 20.5921 11.4782 20.396V20.3774L12.0136 8.37035C12.0136 8.333 12.069 8.333 12.069 8.37035L12.6045 20.3774V20.396C12.4844 20.5921 12.0413 20.9749 12.0413 20.9749Z" fill="#00684A"/>
</g>
<defs>
<clipPath id="clip0_6232_185080">
<rect width="11" height="24" fill="white" transform="translate(6.5)"/>
</clipPath>
</defs>
</svg>
