<svg width="25" height="24" viewBox="0 0 25 24" fill="none" xmlns="http://www.w3.org/2000/svg">
<path d="M3.78125 19.372L3.92654 19.1686L10.7995 6.1274L10.8141 5.98934L7.78429 0.298386C7.53045 -0.178334 6.81585 -0.0578025 6.73255 0.475849L3.78125 19.372Z" fill="#FFC24A"/>
<path d="M3.86719 19.2169L3.9771 19.0026L10.7781 6.098L7.75589 0.383895C7.50472 -0.0878299 6.86688 0.0324225 6.78445 0.560482L3.86719 19.2169Z" fill="#FFA712"/>
<path d="M13.0234 10.294L15.2793 7.98363L13.0228 3.67589C12.8086 3.26813 12.2105 3.26695 11.9985 3.67589L10.793 5.97514V6.17096L13.0234 10.294Z" fill="#F4BD62"/>
<path d="M12.9829 10.1977L15.176 7.95162L12.9829 3.77551C12.7746 3.3791 12.2687 3.33756 12.0626 3.73512L10.8507 6.06999L10.8145 6.18936L12.9829 10.1977Z" fill="#FFA50E"/>
<path d="M3.78125 19.372L3.84711 19.3058L4.08639 19.2085L12.881 10.4466L12.9925 10.1433L10.7986 5.96259L3.78125 19.372Z" fill="#F6820C"/>
<path d="M13.3045 23.7909L21.2638 19.3519L18.9909 5.35364C18.9198 4.91567 18.3825 4.74253 18.069 5.05656L3.78125 19.372L11.695 23.7905C12.1951 24.0697 12.8042 24.0698 13.3045 23.7909Z" fill="#FDE068"/>
<path d="M21.1921 19.3146L18.9365 5.4227C18.8659 4.98805 18.4191 4.8082 18.108 5.11985L3.86914 19.3448L11.6959 23.7196C12.1923 23.9967 12.7967 23.9968 13.2932 23.7199L21.1921 19.3146Z" fill="#FCCA3F"/>
<path d="M13.3045 23.6601C12.8042 23.9391 12.1951 23.9389 11.695 23.6597L3.84499 19.3047L3.78125 19.372L11.695 23.7905C12.1951 24.0697 12.8042 24.0698 13.3045 23.7909L21.2638 19.3519L21.2443 19.2319L13.3045 23.6601Z" fill="#EEAB37"/>
</svg>
