<svg width="24" height="24" viewBox="0 0 25 24" fill="none" xmlns="http://www.w3.org/2000/svg">
<g clip-path="url(#clip0_6232_185084)">
<path d="M9.38806 18.5605C9.38806 18.5605 8.47092 19.0939 10.0408 19.2743C11.9426 19.4913 12.9146 19.4602 15.0104 19.0635C15.0104 19.0635 15.5614 19.409 16.3309 19.7083C11.6327 21.7219 5.69782 19.5916 9.38806 18.5605Z" fill="#5382A1"/>
<path d="M8.81319 15.9329C8.81319 15.9329 7.78453 16.6944 9.35553 16.8569C11.3871 17.0664 12.9915 17.0836 15.7677 16.549C15.7677 16.549 16.1517 16.9383 16.7555 17.1512C11.075 18.8122 4.74796 17.2822 8.81319 15.9329Z" fill="#5382A1"/>
<path d="M13.6536 11.4756C14.8113 12.8084 13.3494 14.0078 13.3494 14.0078C13.3494 14.0078 16.2889 12.4904 14.939 10.5902C13.6781 8.81811 12.7112 7.93765 17.9456 4.90192C17.9456 4.90192 9.7294 6.95394 13.6536 11.4756Z" fill="#E76F00"/>
<path d="M19.8678 20.5041C19.8678 20.5041 20.5465 21.0633 19.1203 21.4959C16.4084 22.3175 7.83306 22.5655 5.45087 21.5287C4.59454 21.1561 6.20041 20.6391 6.70555 20.5307C7.23237 20.4164 7.53343 20.4377 7.53343 20.4377C6.58109 19.7668 1.37794 21.755 4.89048 22.3244C14.4697 23.8779 22.3525 21.6248 19.8678 20.5041Z" fill="#5382A1"/>
<path d="M9.82952 13.2104C9.82952 13.2104 5.46756 14.2464 8.28484 14.6227C9.47439 14.7819 11.8457 14.7459 14.0545 14.5608C15.8597 14.4085 17.6723 14.0848 17.6723 14.0848C17.6723 14.0848 17.0358 14.3574 16.5753 14.6718C12.1458 15.8368 3.58884 15.2948 6.05228 14.1032C8.13561 13.0962 9.82952 13.2104 9.82952 13.2104Z" fill="#5382A1"/>
<path d="M17.655 17.5842C22.1577 15.2444 20.0758 12.9958 18.6227 13.2987C18.2665 13.3729 18.1077 13.4371 18.1077 13.4371C18.1077 13.4371 18.2399 13.23 18.4925 13.1403C21.3672 12.1296 23.5781 16.1212 17.5645 17.7021C17.5645 17.7022 17.6341 17.6399 17.655 17.5842Z" fill="#5382A1"/>
<path d="M14.9384 0C14.9384 0 17.4322 2.49455 12.5733 6.33047C8.67694 9.40753 11.6848 11.162 12.5717 13.1665C10.2973 11.1145 8.62823 9.30811 9.74797 7.62687C11.3915 5.15897 15.9446 3.96245 14.9384 0Z" fill="#E76F00"/>
<path d="M10.272 23.9246C14.5941 24.2012 21.2312 23.7711 21.3884 21.726C21.3884 21.726 21.0862 22.5012 17.8164 23.1169C14.1274 23.8112 9.57748 23.7301 6.87891 23.2852C6.87897 23.2851 7.43134 23.7424 10.272 23.9246Z" fill="#5382A1"/>
</g>
<defs>
<clipPath id="clip0_6232_185084">
<rect width="24" height="24" fill="white" transform="translate(0.5)"/>
</clipPath>
</defs>
</svg>
