<svg width="25" height="24" viewBox="0 0 25 24" fill="none" xmlns="http://www.w3.org/2000/svg">
<path fill-rule="evenodd" clip-rule="evenodd" d="M14.5429 2.75036L19.4779 5.59963C19.6168 5.45244 19.7791 5.32248 19.9633 5.21553C20.9868 4.62717 22.2922 4.97651 22.8867 6C23.475 7.02349 23.1257 8.32891 22.1022 8.92339C21.9195 9.02843 21.7276 9.10358 21.5322 9.15035V14.8511C21.7254 14.898 21.9152 14.9727 22.0961 15.0766C23.1257 15.6711 23.475 16.9765 22.8805 18C22.2922 19.0235 20.9806 19.3728 19.9571 18.7845C19.7534 18.6673 19.5763 18.5215 19.4281 18.3551L14.5232 21.1869C14.5934 21.3988 14.6313 21.6255 14.6313 21.8611C14.6313 23.0378 13.6752 24 12.4924 24C11.3095 24 10.3535 23.0439 10.3535 21.8611C10.3535 21.6508 10.3837 21.4477 10.44 21.2559L5.50636 18.4074C5.36889 18.5517 5.20882 18.6792 5.02762 18.7845C3.998 19.3728 2.69259 19.0235 2.10423 18C1.51587 16.9765 1.86521 15.6711 2.8887 15.0766C3.06967 14.9726 3.25944 14.8979 3.45254 14.851V9.15035C3.25721 9.10358 3.0653 9.02843 2.88258 8.92339C1.85908 8.33504 1.50975 7.02349 2.0981 6C2.68646 4.97651 3.998 4.62717 5.02149 5.21553C5.20463 5.3219 5.36617 5.45103 5.50463 5.59723L10.4409 2.74719C10.384 2.55445 10.3535 2.3503 10.3535 2.13892C10.3535 0.956078 11.3095 0 12.4924 0C13.6752 0 14.6313 0.956078 14.6313 2.13892C14.6313 2.35146 14.6004 2.55669 14.5429 2.75036ZM14.0288 3.62823L18.9754 6.48429C18.8225 7.02133 18.8787 7.6168 19.1788 8.13892C19.4799 8.66273 19.9704 9.00996 20.5149 9.14529V14.8532C20.4871 14.86 20.4595 14.8674 20.4321 14.8753L13.9713 3.68528C13.9908 3.66662 14.01 3.6476 14.0288 3.62823ZM11.0148 3.68657L4.55417 14.8764C4.52624 14.8683 4.49814 14.8607 4.46991 14.8537V9.14529C5.01431 9.00996 5.50485 8.66273 5.80597 8.13892C6.1067 7.61577 6.16245 7.01897 6.0084 6.4811L10.9537 3.62585C10.9737 3.6465 10.994 3.66674 11.0148 3.68657ZM13.09 4.1935L19.5492 15.3808C19.4046 15.5186 19.2772 15.6792 19.1727 15.8611C19.0687 16.0419 18.994 16.2317 18.9472 16.4249H6.03769C5.99084 16.2318 5.91612 16.042 5.8121 15.8611C5.70712 15.6804 5.57999 15.5207 5.43615 15.3834L11.8965 4.19402C12.0856 4.2486 12.2855 4.27783 12.4924 4.27783C12.6999 4.27783 12.9004 4.24841 13.09 4.1935ZM14.0742 20.4201L18.9888 17.5826C18.974 17.5363 18.9608 17.4895 18.9493 17.4423H6.03496C6.02811 17.47 6.02071 17.4976 6.01276 17.525L10.9515 20.3765C11.3403 19.9729 11.8866 19.7222 12.4924 19.7222C13.1197 19.7222 13.6832 19.9911 14.0742 20.4201Z" fill="#E535AB"/>
</svg>
