<svg width="25" height="24" viewBox="0 0 25 24" fill="none" xmlns="http://www.w3.org/2000/svg">
<g clip-path="url(#clip0_6232_185100)">
<path d="M20.2328 8.23347C19.9838 8.14777 19.7259 8.06669 19.4602 7.99001C19.5039 7.81182 19.544 7.63595 19.5796 7.46306C20.1644 4.62421 19.782 2.33721 18.4763 1.58423C17.2243 0.862228 15.1767 1.61503 13.1087 3.41473C12.9099 3.58779 12.7104 3.77101 12.5111 3.96304C12.3783 3.83599 12.2457 3.71321 12.1134 3.59578C9.94613 1.67142 7.77375 0.860477 6.46931 1.61563C5.21847 2.33973 4.84805 4.48973 5.37449 7.18013C5.42532 7.43999 5.48475 7.70537 5.55194 7.97518C5.24449 8.06246 4.94767 8.1555 4.66367 8.25448C2.12275 9.14036 0.5 10.5288 0.5 11.9689C0.5 13.4562 2.24202 14.9481 4.88859 15.8527C5.09745 15.9241 5.31417 15.9916 5.5375 16.0557C5.46501 16.3475 5.40195 16.6334 5.34903 16.9124C4.84707 19.5561 5.23906 21.6553 6.48656 22.3748C7.77512 23.1179 9.93767 22.3541 12.0435 20.5134C12.2099 20.3679 12.3769 20.2136 12.5443 20.0518C12.7611 20.2607 12.9777 20.4583 13.1931 20.6437C15.2328 22.399 17.2473 23.1077 18.4937 22.3862C19.7809 21.641 20.1993 19.386 19.6561 16.6423C19.6147 16.4328 19.5664 16.2187 19.5122 16.0008C19.664 15.9559 19.8131 15.9096 19.9585 15.8614C22.7099 14.9498 24.5 13.4761 24.5 11.9689C24.5 10.5235 22.8249 9.12579 20.2328 8.23347ZM19.6361 14.8882C19.5048 14.9317 19.3702 14.9736 19.233 15.0144C18.9292 14.0528 18.5193 13.0303 18.0176 11.9739C18.4963 10.9426 18.8904 9.9332 19.1857 8.97786C19.4312 9.0489 19.6695 9.12383 19.8991 9.2029C22.12 9.96746 23.4747 11.0979 23.4747 11.9689C23.4747 12.8967 22.0117 14.1011 19.6361 14.8882ZM18.6504 16.8414C18.8905 18.0546 18.9248 19.1515 18.7657 20.009C18.6228 20.7795 18.3353 21.2932 17.9799 21.4989C17.2236 21.9367 15.6061 21.3676 13.8617 19.8665C13.6618 19.6945 13.4603 19.5107 13.2583 19.3163C13.9345 18.5767 14.6104 17.7169 15.27 16.7619C16.4303 16.659 17.5264 16.4907 18.5204 16.2609C18.5694 16.4584 18.6129 16.6521 18.6504 16.8414ZM8.68214 21.4233C7.94318 21.6842 7.35463 21.6917 6.99886 21.4866C6.24182 21.0499 5.92711 19.3645 6.3564 17.1036C6.40557 16.8446 6.46409 16.5787 6.53155 16.3068C7.5147 16.5242 8.60281 16.6806 9.76581 16.7749C10.4299 17.7093 11.1253 18.5682 11.8261 19.3202C11.6729 19.4681 11.5204 19.6088 11.3688 19.7414C10.4376 20.5553 9.5045 21.1328 8.68214 21.4233ZM5.22018 14.8825C4.04992 14.4825 3.08347 13.9627 2.42102 13.3954C1.82576 12.8856 1.52523 12.3795 1.52523 11.9689C1.52523 11.095 2.82814 9.98027 5.00116 9.22264C5.26482 9.13071 5.54084 9.04407 5.82727 8.96269C6.12759 9.9396 6.52155 10.961 6.99698 11.9938C6.5154 13.042 6.11584 14.0797 5.81258 15.068C5.60838 15.0093 5.41054 14.9475 5.22018 14.8825ZM6.38066 6.98323C5.92963 4.67816 6.22918 2.9393 6.98297 2.50296C7.78588 2.03813 9.56136 2.70088 11.4326 4.36247C11.5523 4.46867 11.6723 4.57982 11.7928 4.69482C11.0955 5.44357 10.4064 6.296 9.74825 7.2249C8.61952 7.32952 7.53905 7.49758 6.54565 7.72262C6.48319 7.47139 6.42787 7.22456 6.38066 6.98323ZM16.7332 9.53953C16.4957 9.12934 16.2519 8.72884 16.0034 8.33928C16.7691 8.43609 17.5028 8.56459 18.1918 8.72184C17.9849 9.38476 17.7271 10.0779 17.4236 10.7884C17.2059 10.3751 16.9757 9.9584 16.7332 9.53953ZM12.5114 5.42755C12.9844 5.93989 13.4579 6.51191 13.9238 7.13254C13.4544 7.11037 12.9791 7.09883 12.5 7.09883C12.0254 7.09883 11.5537 7.11011 11.0872 7.1319C11.5535 6.51703 12.0312 5.94578 12.5114 5.42755ZM8.26268 9.54663C8.02546 9.95797 7.79947 10.3724 7.58519 10.7877C7.28662 10.0796 7.0312 9.38331 6.82255 8.71099C7.50731 8.55775 8.23752 8.43245 8.9984 8.33749C8.74635 8.73064 8.50054 9.13408 8.26268 9.54654V9.54663ZM9.02031 15.6734C8.23418 15.5857 7.493 15.4668 6.80841 15.3178C7.02039 14.6335 7.28145 13.9224 7.58634 13.199C7.80118 13.614 8.02806 14.0286 8.26674 14.4408H8.26678C8.5099 14.8608 8.76177 15.2722 9.02031 15.6734ZM12.5398 18.5825C12.0539 18.0582 11.5692 17.4782 11.0958 16.8544C11.5553 16.8724 12.0238 16.8816 12.5 16.8816C12.9892 16.8816 13.4728 16.8706 13.9488 16.8494C13.4814 17.4845 13.0095 18.0654 12.5398 18.5825ZM17.4334 13.1622C17.7542 13.8933 18.0246 14.6007 18.2393 15.2734C17.5434 15.4322 16.7921 15.56 16.0005 15.655C16.2497 15.2602 16.4956 14.8528 16.7373 14.4338C16.9818 14.0098 17.2139 13.5853 17.4334 13.1622ZM15.8492 13.9216C15.474 14.5721 15.0889 15.1931 14.6978 15.7792C13.9857 15.8301 13.2499 15.8564 12.5 15.8564C11.7531 15.8564 11.0266 15.8332 10.3271 15.7878C9.92029 15.1939 9.52675 14.5711 9.15398 13.9272H9.15407C8.78228 13.285 8.44009 12.6374 8.13003 11.9935C8.44001 11.348 8.78129 10.6997 9.15095 10.0587L9.15086 10.0588C9.5215 9.41612 9.91157 8.79634 10.3146 8.20621C11.0283 8.15226 11.7603 8.1241 12.5 8.1241H12.5C13.243 8.1241 13.9759 8.15247 14.6894 8.20689C15.0863 8.79271 15.4737 9.41048 15.8458 10.0533C16.2221 10.7033 16.5678 11.3473 16.8804 11.9789C16.5688 12.6214 16.2238 13.2719 15.8492 13.9216ZM17.9642 2.47246C18.7679 2.93593 19.0804 4.80508 18.5755 7.25613C18.5433 7.41252 18.507 7.57182 18.4676 7.73326C17.4719 7.50351 16.3907 7.33255 15.2586 7.22635C14.5992 6.28724 13.9158 5.43349 13.2298 4.69435C13.4142 4.51694 13.5984 4.34777 13.7818 4.18813C15.5536 2.64616 17.2097 2.03736 17.9642 2.47246ZM12.5 9.82576C13.6836 9.82576 14.6431 10.7852 14.6431 11.9689C14.6431 13.1525 13.6836 14.112 12.5 14.112C11.3164 14.112 10.3569 13.1525 10.3569 11.9689C10.3569 10.7852 11.3164 9.82576 12.5 9.82576Z" fill="#00D8FF"/>
</g>
<defs>
<clipPath id="clip0_6232_185100">
<rect width="24" height="24" fill="white" transform="translate(0.5)"/>
</clipPath>
</defs>
</svg>
