<svg width="16" height="16" viewBox="0 0 16 16" fill="none" xmlns="http://www.w3.org/2000/svg">
<g clip-path="url(#clip0_598_15928)">
<path d="M14.7132 12.0403C14.3255 12.0403 13.9537 11.8562 13.7183 11.5484L11.492 8.6374L9.26529 11.5484C9.0299 11.8562 8.65812 12.0403 8.27043 12.0403H7.3877L10.7409 7.65525L7.40479 3.29248H8.28753C8.67521 3.29248 9.04739 3.47618 9.28239 3.78395L11.4916 6.67311L13.7012 3.78395C13.9362 3.47618 14.3084 3.29248 14.6961 3.29248H15.5788L12.2423 7.65525L15.5959 12.0403H14.7132Z" fill="#B0C1D4"/>
<path d="M15.1784 3.49138L11.9942 7.65534L15.1955 11.8416H14.7152C14.3872 11.8416 14.0774 11.6885 13.8782 11.428L11.494 8.31023L9.10984 11.428C8.91063 11.6889 8.60088 11.8416 8.27284 11.8416H7.7925L10.9938 7.65534L7.8088 3.49138H8.28914C8.61718 3.49138 8.92693 3.64446 9.12615 3.90491L11.4936 7.00045L13.8611 3.90491C14.0603 3.64407 14.3701 3.49138 14.6981 3.49138H15.1784ZM15.9832 3.09375H15.1784H14.6981C14.2492 3.09375 13.8182 3.30688 13.5454 3.66355L11.494 6.34635L9.44266 3.66355C9.16949 3.30688 8.73846 3.09375 8.28954 3.09375H7.8092H7.0044L7.49309 3.73274L10.4928 7.65534L7.47639 11.5998L6.9873 12.2392H7.7921H8.27244C8.72136 12.2392 9.15239 12.0261 9.42516 11.6694L11.4936 8.96433L13.5621 11.6694C13.8349 12.0261 14.2659 12.2392 14.7152 12.2392H15.1955H16.0003L15.5117 11.6002L12.4952 7.65574L15.495 3.73314L15.9832 3.09375Z" fill="#66798F"/>
<path d="M3.97668 12.4381C1.89391 12.4381 0.199219 10.6849 0.199219 8.5302V6.80251C0.199219 4.64816 1.89391 2.89502 3.97668 2.89502C6.05946 2.89502 7.75415 4.64776 7.75415 6.80251V8.46141L1.3921 8.46181V8.5302C1.3921 10.0273 2.55159 11.2452 3.97668 11.2452C4.76279 11.2452 5.52465 10.8492 6.01453 10.1863C6.26424 9.84794 6.63125 9.6543 7.02132 9.6543H7.60544L7.50683 9.9219C6.95253 11.4269 5.53419 12.4381 3.97668 12.4381ZM6.56127 7.26893V6.80251C6.56127 5.30544 5.40178 4.0879 3.97668 4.0879C2.55159 4.0879 1.3921 5.30544 1.3921 6.80251V7.26893H6.56127Z" fill="#B0C1D4"/>
<path d="M3.97628 3.09392C5.94931 3.09392 7.55493 4.75799 7.55493 6.80259V8.26308H1.19288V8.53029C1.19288 10.1371 2.44144 11.4441 3.97628 11.4441C4.84629 11.4441 5.65546 11.0059 6.17397 10.3045C6.37597 10.0313 6.68095 9.85359 7.02092 9.85359H7.31993L7.32033 9.85399C6.79467 11.2807 5.44989 12.2398 3.97628 12.2398C2.00325 12.2398 0.397628 10.5757 0.397628 8.53068V6.80299C0.397628 4.75799 2.00325 3.09392 3.97628 3.09392ZM1.19288 7.46782H6.75968V6.80259C6.75968 5.19618 5.51112 3.88917 3.97628 3.88917C2.44144 3.88917 1.19288 5.19618 1.19288 6.80259V7.46782ZM3.97628 2.69629C1.78376 2.69629 0 4.5385 0 6.80259V8.53029C0 10.7948 1.78376 12.637 3.97628 12.637C5.6165 12.637 7.10999 11.5737 7.69331 9.99117L7.89013 9.45676L7.32073 9.45597H7.02132C6.56722 9.45597 6.14216 9.67903 5.85428 10.0683C5.40138 10.6807 4.69957 11.0465 3.97628 11.0465C2.70228 11.0465 1.65811 9.98759 1.59369 8.66071H7.55493H7.95256V8.26308V6.80299C7.95256 4.5385 6.1688 2.69629 3.97628 2.69629ZM1.59051 7.0702V6.80259C1.59051 5.41527 2.66093 4.2868 3.97628 4.2868C5.29163 4.2868 6.36205 5.41527 6.36205 6.80259V7.0702H1.59051Z" fill="#66798F"/>
</g>
<defs>
<clipPath id="clip0_598_15928">
<rect width="16" height="16" fill="white"/>
</clipPath>
</defs>
</svg>
