<svg width="16" height="16" viewBox="0 0 16 16" fill="none" xmlns="http://www.w3.org/2000/svg">
<g clip-path="url(#clip0_598_15935)">
<path d="M0 5.79048C0 3.76362 0 2.75019 0.394453 1.97603C0.741423 1.29507 1.29507 0.741423 1.97603 0.394453C2.75019 0 3.76362 0 5.79048 0H10.2095C12.2364 0 13.2498 0 14.024 0.394453C14.7049 0.741423 15.2586 1.29507 15.6055 1.97603C16 2.75019 16 3.76362 16 5.79048V10.2095C16 12.2364 16 13.2498 15.6055 14.024C15.2586 14.7049 14.7049 15.2586 14.024 15.6055C13.2498 16 12.2364 16 10.2095 16H5.79048C3.76362 16 2.75019 16 1.97603 15.6055C1.29507 15.2586 0.741423 14.7049 0.394453 14.024C0 13.2498 0 12.2364 0 10.2095V5.79048Z" fill="#330000"/>
<path d="M7.75281 10.055H5.27342L4.76896 11.6623C4.75495 11.722 4.69996 11.7643 4.64015 11.7613H3.38435C3.31274 11.7613 3.28769 11.721 3.30922 11.6402L5.45587 5.29932C5.47736 5.23328 5.49883 5.15805 5.52029 5.07364C5.54837 4.92676 5.56275 4.77748 5.56323 4.62781C5.55708 4.58359 5.59594 4.54453 5.63836 4.55073H7.34494C7.39494 4.55073 7.42356 4.56909 7.43081 4.60579L9.8673 11.6512C9.88875 11.7247 9.86728 11.7614 9.80288 11.7613H8.40753C8.35859 11.7669 8.31186 11.7333 8.30021 11.6843L7.75281 10.055ZM5.65981 8.66794H7.35568C7.07705 7.71584 6.76261 6.77624 6.50776 5.81672C6.23279 6.77786 5.93279 7.73513 5.65981 8.66794Z" fill="#FF9A00"/>
<path d="M11.3162 5.71761C11.2067 5.72212 11.0975 5.70288 10.9958 5.66115C10.8941 5.61941 10.8021 5.55613 10.7258 5.47543C10.6498 5.39123 10.5907 5.29244 10.552 5.18476C10.5134 5.07707 10.4958 4.96261 10.5004 4.84794C10.4965 4.73441 10.516 4.62131 10.5576 4.51603C10.5992 4.41075 10.662 4.31566 10.7419 4.23696C10.821 4.15908 10.9144 4.09806 11.0166 4.05744C11.1189 4.01681 11.228 3.99739 11.3376 4.00028C11.5952 4.00028 11.7974 4.07917 11.9441 4.23696C12.0181 4.31896 12.0756 4.41513 12.1134 4.51997C12.1511 4.62481 12.1684 4.73626 12.1641 4.84794C12.1686 4.96305 12.1504 5.07792 12.1108 5.18571C12.0712 5.2935 12.0108 5.39203 11.9333 5.47543C11.8523 5.55731 11.7557 5.6211 11.6495 5.66279C11.5432 5.70447 11.4298 5.72314 11.3162 5.71761ZM10.5755 11.6512V6.38912C10.5755 6.32308 10.604 6.29004 10.6614 6.29004H11.9816C12.0388 6.29004 12.0674 6.32307 12.0675 6.38912V11.6512C12.0675 11.7247 12.0389 11.7614 11.9816 11.7613H10.6721C10.6078 11.7613 10.5756 11.7246 10.5755 11.6512Z" fill="#FF9A00"/>
</g>
<defs>
<clipPath id="clip0_598_15935">
<rect width="16" height="16" fill="white"/>
</clipPath>
</defs>
</svg>
