<svg width="16" height="16" viewBox="0 0 16 16" fill="none" xmlns="http://www.w3.org/2000/svg">
<path d="M6.27782 8.53286C6.33601 7.49498 6.84419 6.58067 7.61094 5.93249C8.36282 5.29586 9.37482 4.90674 10.4791 4.90674C11.5822 4.90674 12.5942 5.29586 13.3467 5.93249C14.1128 6.58061 14.6211 7.49498 14.6798 8.53173C14.7379 9.59811 14.3093 10.5887 13.5574 11.323C12.7907 12.07 11.7002 12.5387 10.4791 12.5387C9.25794 12.5387 8.16526 12.07 7.39907 11.323C6.64663 10.5887 6.21907 9.59804 6.27782 8.53286Z" fill="white"/>
<path d="M8.32306 8.6257C8.35287 8.0932 8.61368 7.62401 9.00706 7.29145C9.39287 6.96482 9.91212 6.76514 10.4787 6.76514C11.0447 6.76514 11.5641 6.96482 11.9501 7.29145C12.3432 7.62401 12.604 8.0932 12.6341 8.6252C12.664 9.17232 12.4441 9.68063 12.0582 10.0574C11.6649 10.4406 11.1053 10.6811 10.4787 10.6811C9.85218 10.6811 9.2915 10.4406 8.89837 10.0574C8.51231 9.68063 8.29293 9.17232 8.32306 8.6257Z" fill="#265787"/>
<path d="M4.90067 9.71973C4.90442 9.92848 4.97099 10.3344 5.07092 10.6512C5.28086 11.322 5.63699 11.9427 6.13255 12.4895C6.64111 13.0517 7.2673 13.5033 7.99067 13.8239C8.75092 14.1605 9.57467 14.3321 10.4303 14.3307C11.2845 14.3295 12.1084 14.1546 12.8686 13.8154C13.5919 13.4917 14.2175 13.0382 14.7253 12.4757C15.2205 11.9265 15.5761 11.3049 15.7867 10.634C15.8925 10.2951 15.9593 9.95111 15.9862 9.60592C16.0124 9.2654 16.0013 8.92304 15.9532 8.58492C15.8589 7.92174 15.6294 7.29949 15.2761 6.73224C14.953 6.21099 14.5365 5.75468 14.0412 5.37055L14.0423 5.36974L9.04417 1.53193C9.0396 1.52856 9.03592 1.52493 9.0311 1.52181C8.70323 1.27006 8.15173 1.27093 7.79111 1.52318C7.42648 1.77831 7.38473 2.20025 7.70923 2.46631L7.70786 2.46775L9.79254 4.16299L3.43861 4.16974H3.43011C2.90493 4.17037 2.40011 4.51493 2.30011 4.95037C2.19743 5.39399 2.55418 5.76199 3.10024 5.76399L3.09936 5.76593L6.31998 5.75968L0.572992 10.171C0.56568 10.1764 0.557742 10.182 0.550992 10.1874C0.0088682 10.6025 -0.166382 11.2928 0.175055 11.7296C0.521617 12.1739 1.25849 12.1747 1.80624 11.7322L4.94274 9.16524C4.94274 9.16524 4.89699 9.51173 4.90067 9.71973ZM12.9604 10.8801C12.3141 11.5385 11.4093 11.9119 10.4304 11.9139C9.44992 11.9155 8.54517 11.5455 7.89892 10.8883C7.58311 10.568 7.35117 10.1994 7.20805 9.80686C7.06731 9.42055 7.01318 9.00803 7.04948 8.59849C7.08361 8.19461 7.20386 7.80942 7.39573 7.46086C7.58423 7.1183 7.84386 6.80868 8.16448 6.5468C8.79261 6.03493 9.59242 5.75774 10.4289 5.75662C11.2662 5.75549 12.0654 6.03011 12.6942 6.54036C13.0142 6.80105 13.2736 7.10955 13.4621 7.45161C13.6565 7.80203 13.7749 8.18942 13.8098 8.58861C13.8456 8.99791 13.7912 9.41007 13.6506 9.79611C13.5072 10.1899 13.2761 10.5584 12.9604 10.8801Z" fill="#EA7600"/>
</svg>
