<svg width="16" height="16" viewBox="0 0 16 16" fill="none" xmlns="http://www.w3.org/2000/svg">
<g clip-path="url(#clip0_598_15962)">
<path d="M8.61161 2.86222L11.1151 4.32444C11.2052 4.37556 11.2074 4.52 11.1151 4.56889L8.13945 6.30667C8.04941 6.36 7.944 6.35556 7.85835 6.30667L4.88486 4.56889C4.79482 4.51778 4.79043 4.37333 4.88486 4.32444L7.3862 2.86222V0L1 3.73111V11.1933L3.45082 9.76222V6.83778C3.44863 6.73333 3.57161 6.66 3.66165 6.71556L6.63733 8.45333C6.72737 8.50667 6.77788 8.60222 6.77788 8.7V12.1756C6.78008 12.28 6.65929 12.3533 6.56925 12.2978L4.06573 10.8356L1.61271 12.2689L7.9989 16L14.3851 12.2689L11.9365 10.8378L9.43294 12.3C9.3451 12.3533 9.21992 12.2844 9.22431 12.1778V8.70222C9.22431 8.59778 9.28141 8.50445 9.36486 8.45556L12.3384 6.71778C12.4262 6.66222 12.5514 6.73333 12.5492 6.84V9.76444L15 11.1956V3.73111L8.61161 0V2.86222Z" fill="#12141A"/>
</g>
<defs>
<clipPath id="clip0_598_15962">
<rect width="14" height="16" fill="white" transform="translate(1)"/>
</clipPath>
</defs>
</svg>
