<svg width="16" height="16" viewBox="0 0 16 16" fill="none" xmlns="http://www.w3.org/2000/svg">
<path d="M5.35417 15.9998C6.82617 15.9998 8.02083 14.8052 8.02083 13.3332V10.6665H5.35417C3.88217 10.6665 2.6875 11.8612 2.6875 13.3332C2.6875 14.8052 3.88217 15.9998 5.35417 15.9998Z" fill="#0ACF83"/>
<path d="M2.6875 8.00016C2.6875 6.52816 3.88217 5.3335 5.35417 5.3335H8.02083V10.6668H5.35417C3.88217 10.6668 2.6875 9.47216 2.6875 8.00016Z" fill="#A259FF"/>
<path d="M2.6875 2.66667C2.6875 1.19467 3.88217 0 5.35417 0H8.02083V5.33333H5.35417C3.88217 5.33333 2.6875 4.13867 2.6875 2.66667Z" fill="#F24E1E"/>
<path d="M8.02051 0H10.6872C12.1592 0 13.3538 1.19467 13.3538 2.66667C13.3538 4.13867 12.1592 5.33333 10.6872 5.33333H8.02051V0Z" fill="#FF7262"/>
<path d="M13.3538 8.00016C13.3538 9.47216 12.1592 10.6668 10.6872 10.6668C9.21517 10.6668 8.02051 9.47216 8.02051 8.00016C8.02051 6.52816 9.21517 5.3335 10.6872 5.3335C12.1592 5.3335 13.3538 6.52816 13.3538 8.00016Z" fill="#1ABCFE"/>
</svg>
