<svg width="16" height="16" viewBox="0 0 16 16" fill="none" xmlns="http://www.w3.org/2000/svg">
<path fill-rule="evenodd" clip-rule="evenodd" d="M8.01417 15.7835C7.79925 15.7835 7.59865 15.7262 7.41239 15.6259L5.50677 14.494C5.22021 14.3364 5.36349 14.2791 5.44946 14.2504C5.83631 14.1215 5.90795 14.0928 6.30914 13.8636C6.35212 13.8349 6.40943 13.8492 6.45241 13.8779L7.91387 14.7519C7.97118 14.7806 8.04282 14.7806 8.08581 14.7519L13.8027 11.4421C13.86 11.4135 13.8886 11.3562 13.8886 11.2845V4.67932C13.8886 4.60768 13.86 4.55037 13.8027 4.52171L8.08581 1.22628C8.02849 1.19762 7.95685 1.19762 7.91387 1.22628L2.197 4.52171C2.13969 4.55037 2.11104 4.62201 2.11104 4.67932V11.2845C2.11104 11.3418 2.13969 11.4135 2.197 11.4421L3.75875 12.3448C4.60411 12.7746 5.13424 12.2732 5.13424 11.7717V5.25244C5.13424 5.16647 5.20588 5.08051 5.30618 5.08051H6.0369C6.12287 5.08051 6.20884 5.15215 6.20884 5.25244V11.7717C6.20884 12.9036 5.59274 13.5627 4.51814 13.5627C4.18859 13.5627 3.93069 13.5627 3.19996 13.2045L1.69553 12.3448C1.323 12.1299 1.09375 11.7287 1.09375 11.2989V4.69365C1.09375 4.26381 1.323 3.86263 1.69553 3.64771L7.41239 0.337944C7.77059 0.137352 8.25774 0.137352 8.61594 0.337944L14.3328 3.64771C14.7053 3.86263 14.9346 4.26381 14.9346 4.69365V11.2989C14.9346 11.7287 14.7053 12.1299 14.3328 12.3448L8.61594 15.6546C8.42968 15.7405 8.21476 15.7835 8.01417 15.7835ZM9.77651 11.2415C7.26911 11.2415 6.7533 10.0953 6.7533 9.121C6.7533 9.03503 6.82494 8.94906 6.92524 8.94906H7.67029C7.75626 8.94906 7.8279 9.00637 7.8279 9.09234C7.94253 9.85172 8.27207 10.2243 9.79084 10.2243C10.9944 10.2243 11.5102 9.95202 11.5102 9.30726C11.5102 8.93473 11.3669 8.6625 9.48995 8.47624C7.9282 8.31863 6.95389 7.97476 6.95389 6.72822C6.95389 5.56766 7.9282 4.87991 9.56159 4.87991C11.3956 4.87991 12.2982 5.51034 12.4129 6.88583C12.4129 6.92882 12.3985 6.9718 12.3699 7.01478C12.3412 7.04344 12.2982 7.07209 12.2552 7.07209H11.5102C11.4386 7.07209 11.3669 7.01478 11.3526 6.94314C11.1806 6.1551 10.7365 5.8972 9.56159 5.8972C8.24341 5.8972 8.08581 6.3557 8.08581 6.69957C8.08581 7.11508 8.27207 7.24403 10.0487 7.47328C11.8111 7.70253 12.6421 8.03207 12.6421 9.26428C12.6278 10.5251 11.5962 11.2415 9.77651 11.2415Z" fill="#539E43"/>
</svg>
