<svg width="16" height="16" viewBox="0 0 16 16" fill="none" xmlns="http://www.w3.org/2000/svg">
<g clip-path="url(#clip0_598_15965)">
<path d="M2.43396 2.24973C5.59514 -0.812667 10.6498 -0.730344 13.7122 2.44731C14.0579 1.9863 14.3543 1.4759 14.5683 0.949037C15.5726 4.01144 16.1818 6.5799 15.9513 8.57211C15.8361 10.2515 15.1775 11.865 14.0908 13.1492C11.2589 16.508 6.2208 16.9361 2.86203 14.1042L2.79778 14.047L2.79436 14.0448C2.78384 14.0374 2.77347 14.0298 2.76325 14.0219C2.73259 13.998 2.70475 13.9721 2.67973 13.9444L2.67072 13.9341L2.56567 13.8408C2.46323 13.7529 2.36078 13.6651 2.2699 13.5658L2.23638 13.5279C-0.826019 10.3667 -0.727232 5.31213 2.43396 2.24973ZM3.6194 12.9681C3.32304 12.7376 2.89496 12.7706 2.66446 13.0669C2.46178 13.3275 2.46277 13.69 2.66745 13.9304L2.67072 13.9341L2.79778 14.047L2.81024 14.0555C3.09803 14.2448 3.48523 14.2056 3.70609 13.9382L3.71819 13.9231C3.94869 13.6267 3.8993 13.1986 3.6194 12.9681ZM14.486 1.77226C13.6628 3.50104 11.6212 4.8182 9.85945 5.22981C8.19654 5.62496 6.74766 5.29567 5.21646 5.88839C1.72598 7.22202 1.79184 11.3711 3.70172 12.3096L3.81698 12.3754C3.81698 12.3754 5.19654 12.1011 6.56077 11.7389L6.67764 11.7076C7.22252 11.5608 7.75858 11.4007 8.19654 11.2394C10.4686 10.3997 12.9712 8.32514 13.7945 5.92132C13.3664 8.42393 11.2095 10.8442 9.05269 11.9473C7.90018 12.5401 7.01109 12.6718 5.11767 13.3304C4.88717 13.4127 4.70606 13.495 4.70606 13.495C4.72916 13.4918 4.75227 13.4887 4.77532 13.4857L4.82133 13.4797L4.8671 13.474C5.28526 13.4221 5.661 13.3962 5.661 13.3962C8.34472 13.2645 12.5596 14.1536 14.5189 11.5357C16.5276 8.86847 15.408 4.55477 14.486 1.77226Z" fill="#6DB33F"/>
<path d="M3.61988 12.9683C3.89978 13.1988 3.94917 13.6269 3.71867 13.9233C3.48817 14.2196 3.06009 14.2526 2.76373 14.0221C2.46737 13.7916 2.43444 13.3635 2.66494 13.0671C2.89544 12.7708 3.32352 12.7378 3.61988 12.9683ZM14.4865 1.77246C15.4085 4.55496 16.5281 8.86867 14.5194 11.5359C12.5601 14.1538 8.3452 13.2647 5.66148 13.3964C5.66148 13.3964 5.28574 13.4223 4.86758 13.4742L4.82181 13.4799C4.78355 13.4848 4.74505 13.4899 4.70654 13.4952C4.70654 13.4952 4.88765 13.4129 5.11815 13.3306C7.01157 12.672 7.90066 12.5403 9.05317 11.9475C11.21 10.8444 13.3669 8.42413 13.795 5.92152C12.9717 8.32534 10.4691 10.3999 8.19702 11.2396C6.63289 11.8158 3.81746 12.3756 3.81746 12.3756L3.70221 12.3098C1.79232 11.3713 1.72646 7.22222 5.21694 5.88859C6.74814 5.29587 8.19702 5.62516 9.85994 5.23001C11.6216 4.8184 13.6632 3.50124 14.4865 1.77246Z" fill="white"/>
</g>
<defs>
<clipPath id="clip0_598_15965">
<rect width="16" height="16" fill="white"/>
</clipPath>
</defs>
</svg>
