<svg width="16" height="16" viewBox="0 0 16 16" fill="none" xmlns="http://www.w3.org/2000/svg">
<g clip-path="url(#clip0_598_15953)">
<path d="M7.92321 0.0625C3.87119 0.0625003 4.12422 1.8197 4.12422 1.8197L4.12874 3.64014H7.99548V4.18672H2.59289C2.59289 4.18672 0 3.89267 0 7.98119C-2.89e-07 12.0697 2.26313 11.9247 2.26313 11.9247H3.61378V10.0275C3.61378 10.0275 3.54097 7.76436 5.84077 7.76436H9.67589C9.67589 7.76436 11.8306 7.79919 11.8306 5.68192V2.18108C11.8306 2.18108 12.1577 0.0625 7.92321 0.0625ZM5.79108 1.28667C6.17579 1.28667 6.48673 1.59761 6.48673 1.98232C6.48673 2.36703 6.17579 2.67797 5.79108 2.67797C5.40637 2.67797 5.09543 2.36703 5.09543 1.98232C5.09543 1.59761 5.40637 1.28667 5.79108 1.28667Z" fill="url(#paint0_linear_598_15953)"/>
<path d="M8.03826 15.941C12.0903 15.941 11.8372 14.1838 11.8372 14.1838L11.8327 12.3633H7.96598V11.8168H13.3686C13.3686 11.8168 15.9615 12.1108 15.9615 8.0223C15.9615 3.93377 13.6983 4.07876 13.6983 4.07876H12.3477V5.97599C12.3477 5.97599 12.4205 8.23912 10.1207 8.23912H6.28557C6.28557 8.23912 4.13086 8.20429 4.13086 10.3216V13.8224C4.13086 13.8224 3.80371 15.941 8.03826 15.941ZM10.1704 14.7168C9.78567 14.7168 9.47473 14.4059 9.47473 14.0212C9.47473 13.6365 9.78567 13.3255 10.1704 13.3255C10.5551 13.3255 10.866 13.6365 10.866 14.0212C10.866 14.4059 10.5551 14.7168 10.1704 14.7168Z" fill="url(#paint1_linear_598_15953)"/>
</g>
<defs>
<linearGradient id="paint0_linear_598_15953" x1="1.53393" y1="1.49072" x2="9.44387" y2="9.32174" gradientUnits="userSpaceOnUse">
<stop stop-color="#387EB8"/>
<stop offset="1" stop-color="#366994"/>
</linearGradient>
<linearGradient id="paint1_linear_598_15953" x1="6.38902" y1="6.5194" x2="14.8835" y2="14.5494" gradientUnits="userSpaceOnUse">
<stop stop-color="#FFE052"/>
<stop offset="1" stop-color="#FFC331"/>
</linearGradient>
<clipPath id="clip0_598_15953">
<rect width="16" height="16" fill="white"/>
</clipPath>
</defs>
</svg>
