<svg width="16" height="16" viewBox="0 0 16 16" fill="none" xmlns="http://www.w3.org/2000/svg">
<g clip-path="url(#clip0_598_15961)">
<path d="M0 5.79048C0 3.76362 0 2.75019 0.394453 1.97603C0.741423 1.29507 1.29507 0.741423 1.97603 0.394453C2.75019 0 3.76362 0 5.79048 0H10.2095C12.2364 0 13.2498 0 14.024 0.394453C14.7049 0.741423 15.2586 1.29507 15.6055 1.97603C16 2.75019 16 3.76362 16 5.79048V10.2095C16 12.2364 16 13.2498 15.6055 14.024C15.2586 14.7049 14.7049 15.2586 14.024 15.6055C13.2498 16 12.2364 16 10.2095 16H5.79048C3.76362 16 2.75019 16 1.97603 15.6055C1.29507 15.2586 0.741423 14.7049 0.394453 14.024C0 13.2498 0 12.2364 0 10.2095V5.79048Z" fill="#00005B"/>
<path d="M3.42871 11.3118V4.11883C3.42871 4.0699 3.44877 4.04194 3.49558 4.04194C4.18656 4.04194 4.87724 4 5.56841 4C6.68993 4 7.9043 4.39088 8.32996 5.58679C8.43026 5.88038 8.48375 6.18096 8.48375 6.49552C8.48375 7.09669 8.35002 7.593 8.08256 7.98445C7.33543 9.07794 6.04048 9.06095 4.8797 9.06095V11.3048C4.88877 11.3713 4.83323 11.4027 4.7794 11.4027H3.50895C3.45546 11.4027 3.42871 11.3747 3.42871 11.3118ZM4.88638 5.39106V7.73979C5.34664 7.77416 5.82827 7.77789 6.2705 7.62795C6.75871 7.4844 7.02608 7.05363 7.02608 6.53747C7.03965 6.09763 6.80452 5.67562 6.40423 5.51689C5.96733 5.33172 5.358 5.32063 4.88638 5.39106Z" fill="#9999FF"/>
<path d="M9.39015 5.83539H10.5636C10.6283 5.83598 10.6864 5.8827 10.7035 5.94794C10.7895 6.14755 10.8001 6.38826 10.8004 6.60377C11.0017 6.35882 11.2443 6.15471 11.5163 6.00168C11.808 5.82912 12.1387 5.74166 12.4738 5.74845C12.5294 5.74014 12.5787 5.7916 12.5707 5.84974V7.21151C12.5707 7.26409 12.5347 7.29029 12.4631 7.29029C11.9664 7.25446 11.1931 7.37714 10.8322 7.78548V11.3263C10.8322 11.3938 10.8035 11.4276 10.7461 11.4276H9.48706C9.42521 11.4369 9.37065 11.3787 9.37938 11.315V7.47037C9.37938 6.95518 9.39006 6.42451 9.3148 5.91418C9.30321 5.86722 9.34622 5.82355 9.39015 5.83539Z" fill="#9999FF"/>
</g>
<defs>
<clipPath id="clip0_598_15961">
<rect width="16" height="16" fill="white"/>
</clipPath>
</defs>
</svg>
