<svg width="16" height="16" viewBox="0 0 16 16" fill="none" xmlns="http://www.w3.org/2000/svg">
<g clip-path="url(#clip0_598_15930)">
<path d="M14.3311 7.87781C14.3311 7.05531 13.6643 6.38855 12.8418 6.38855C12.7889 6.38855 12.7367 6.39139 12.6853 6.39677L14.7308 0.36377H6.03806L8.08073 6.39154C8.05076 6.38972 8.02064 6.38855 7.99023 6.38855C7.16773 6.38855 6.50094 7.05531 6.50094 7.87781C6.50094 8.54267 6.93665 9.10551 7.53801 9.29701C7.2204 9.84719 6.82073 10.3427 6.36698 10.7708C5.74998 11.3529 5.04384 11.7942 4.28008 12.0662C3.37079 11.5991 2.94137 10.5602 3.32885 9.64935C3.37257 9.54649 3.41728 9.44225 3.45994 9.33844C4.11873 9.18469 4.60958 8.59414 4.60958 7.8885C4.60958 7.066 3.94283 6.39925 3.12029 6.39925C2.29779 6.39925 1.631 7.066 1.631 7.8885C1.631 8.39289 1.88197 8.83838 2.26556 9.1078C1.89696 9.94707 1.35511 10.8254 1.1863 11.8434C0.983997 13.0634 1.18565 14.3585 2.24083 15.0898C4.69826 16.793 7.36578 14.0339 10.1783 13.3404C11.1976 13.089 12.3165 13.1295 13.2146 12.6094C13.8889 12.2188 14.3335 11.5715 14.4597 10.8448C14.5844 10.1268 14.4026 9.41202 13.9847 8.83242C14.2009 8.57391 14.3311 8.24114 14.3311 7.87781Z" fill="#99425B"/>
<path d="M14.1007 10.7824C13.9911 11.4134 13.6014 11.9645 13.0316 12.2946C12.5003 12.6023 11.8637 12.6941 11.1897 12.7913C10.8287 12.8433 10.4553 12.8972 10.0905 12.9872C9.12612 13.225 8.19198 13.689 7.28863 14.1377C5.48078 15.0356 3.9195 15.811 2.44734 14.7908C1.36899 14.0434 1.41879 12.6606 1.54442 11.9028C1.66085 11.2008 1.97562 10.5543 2.28003 9.92899C2.33262 9.82089 2.38416 9.71479 2.43432 9.6096C2.5852 9.66987 2.74568 9.711 2.91296 9.7297C2.60309 10.7523 3.09038 11.8642 4.11319 12.3897L4.25315 12.4616L4.40141 12.4088C5.20998 12.1209 5.95505 11.6588 6.61591 11.0353C7.04307 10.6323 7.41037 10.1864 7.71222 9.70999C7.80272 9.72363 7.89529 9.73079 7.98953 9.73079C8.92825 9.73079 9.70561 9.02901 9.8259 8.12263C10.2101 8.10856 10.6183 8.10845 11.0047 8.12249C11.125 9.02894 11.9024 9.73079 12.8411 9.73079C13.2336 9.73079 13.5977 9.60778 13.8976 9.39882C14.1059 9.82507 14.1836 10.3047 14.1007 10.7824ZM3.11959 6.7629C3.74026 6.7629 4.24515 7.26783 4.24515 7.88846C4.24515 8.11139 4.17975 8.31927 4.06743 8.49433C3.88029 8.78611 3.56236 8.98613 3.19692 9.01108C3.17135 9.01283 3.1456 9.01403 3.11959 9.01403C2.9813 9.01403 2.84879 8.98878 2.72629 8.94299C2.47848 8.85024 2.27199 8.67245 2.1421 8.44541C2.04808 8.28104 1.99403 8.09099 1.99403 7.88846C1.99403 7.26783 2.49896 6.7629 3.11959 6.7629ZM6.86397 7.87777C6.86397 7.31388 7.2808 6.84565 7.82247 6.76468C7.87699 6.7565 7.93279 6.75221 7.98953 6.75221C8.35035 6.75221 8.6716 6.92316 8.87765 7.18803C8.92886 7.25383 8.97328 7.32523 9.00903 7.40147C9.07694 7.54623 9.11509 7.70758 9.11509 7.87777C9.11509 7.96776 9.10418 8.05523 9.08414 8.13915C8.97444 8.59835 8.58288 8.94932 8.10309 8.99762C8.06577 9.00137 8.02787 9.00333 7.98953 9.00333C7.76482 9.00333 7.55546 8.93688 7.37952 8.82296C7.06962 8.62222 6.86397 8.27365 6.86397 7.87777ZM11.5617 6.53935C11.3205 6.77007 11.1412 7.06483 11.0519 7.3963C10.6351 7.38066 10.1932 7.38066 9.77876 7.3963C9.68357 7.04301 9.48614 6.73133 9.22058 6.49458L10.3852 4.13954L11.5617 6.53935ZM6.54469 0.72746H14.2227L12.4093 6.07596C12.3306 6.09484 12.254 6.11859 12.1796 6.14714L10.3881 2.49268L8.59161 6.12532C8.51396 6.09859 8.43394 6.07705 8.35203 6.06072L6.54469 0.72746ZM13.9667 7.87777C13.9667 7.99063 13.9498 8.09957 13.9188 8.20243C13.8449 8.44715 13.6898 8.65684 13.4849 8.80023C13.3024 8.92804 13.0804 9.00333 12.8411 9.00333C12.3214 9.00333 11.883 8.64917 11.7541 8.16955C11.7291 8.07644 11.7155 7.97867 11.7155 7.87777C11.7155 7.72391 11.7466 7.57722 11.8028 7.44355C11.8317 7.37466 11.8678 7.30955 11.9092 7.24837C12.1118 6.94942 12.4536 6.75221 12.8411 6.75221C12.8766 6.75221 12.9117 6.75406 12.9464 6.7573C13.5179 6.81055 13.9667 7.29264 13.9667 7.87777ZM14.6941 7.87777C14.6941 6.9731 14.0423 6.21829 13.1838 6.05701L15.2375 0H5.53006L7.58685 6.06934C6.75812 6.25375 6.13651 6.99431 6.13651 7.87777C6.13651 8.54114 6.48711 9.12387 7.01252 9.4513C6.7598 9.82783 6.46008 10.1821 6.11669 10.5062C5.572 11.02 4.96523 11.4097 4.31106 11.6661C3.65216 11.2522 3.37362 10.4716 3.66289 9.79164L3.68555 9.73836C3.69974 9.70508 3.71392 9.67172 3.72807 9.63837C4.45179 9.38594 4.97261 8.69711 4.97261 7.88846C4.97261 6.86667 4.14134 6.03544 3.11959 6.03544C2.09784 6.03544 1.26657 6.86667 1.26657 7.88846C1.26657 8.4042 1.47855 8.87123 1.81973 9.20749C1.75789 9.33927 1.69279 9.47331 1.62597 9.61054C1.31404 10.2513 0.96049 10.9774 0.826783 11.7838C0.561224 13.3853 0.989588 14.6655 2.03295 15.3887C2.66609 15.8275 3.30902 16 3.95606 16C5.17441 16 6.40684 15.3879 7.61224 14.7892C8.48035 14.358 9.37803 13.9121 10.2647 13.6934C10.5946 13.6121 10.9341 13.5631 11.2936 13.5113C12.0063 13.4085 12.7433 13.3022 13.3962 12.9241C14.1529 12.4858 14.6709 11.7505 14.8174 10.9069C14.9431 10.1827 14.7918 9.4573 14.4227 8.84216C14.5948 8.56104 14.6941 8.23081 14.6941 7.87777Z" fill="white"/>
</g>
<defs>
<clipPath id="clip0_598_15930">
<rect width="16" height="16" fill="white"/>
</clipPath>
</defs>
</svg>
