<svg width="16" height="16" viewBox="0 0 16 16" fill="none" xmlns="http://www.w3.org/2000/svg">
<g clip-path="url(#clip0_598_15942)">
<path d="M0 5.79048C0 3.76362 0 2.75019 0.394453 1.97603C0.741423 1.29507 1.29507 0.741423 1.97603 0.394453C2.75019 0 3.76362 0 5.79048 0H10.2095C12.2364 0 13.2498 0 14.024 0.394453C14.7049 0.741423 15.2586 1.29507 15.6055 1.97603C16 2.75019 16 3.76362 16 5.79048V10.2095C16 12.2364 16 13.2498 15.6055 14.024C15.2586 14.7049 14.7049 15.2586 14.024 15.6055C13.2498 16 12.2364 16 10.2095 16H5.79048C3.76362 16 2.75019 16 1.97603 15.6055C1.29507 15.2586 0.741423 14.7049 0.394453 14.024C0 13.2498 0 12.2364 0 10.2095V5.79048Z" fill="#001E36"/>
<path d="M3.42871 11.7234V4.68753C3.42871 4.63967 3.44871 4.61231 3.49538 4.61231C4.18431 4.61231 4.87293 4.57129 5.56204 4.57129C6.68023 4.57129 7.89099 4.95363 8.31538 6.12343C8.41538 6.41061 8.46871 6.70462 8.46871 7.01232C8.46871 7.60035 8.33538 8.08582 8.06871 8.46873C7.3238 9.53834 6.03271 9.52172 4.87538 9.52172V11.7166C4.88443 11.7816 4.82905 11.8123 4.77538 11.8123H3.50871C3.45538 11.8123 3.42871 11.785 3.42871 11.7234ZM4.88204 5.93197V8.22941C5.34093 8.26303 5.82113 8.26667 6.26204 8.12001C6.7488 7.9796 7.01538 7.55823 7.01538 7.05334C7.02891 6.62311 6.79447 6.21031 6.39538 6.05505C5.95978 5.87393 5.35226 5.86308 4.88204 5.93197Z" fill="#31A8FF"/>
<path d="M12.6268 7.7755C12.4251 7.6692 12.2102 7.59143 11.9882 7.54432C11.7028 7.47716 10.5772 7.24198 10.5767 7.83054C10.5867 8.15913 11.1083 8.32012 11.3388 8.41399C12.1478 8.69176 13.0634 9.18827 13.0454 10.1864C13.0701 11.4289 11.8663 11.9256 10.8343 11.9257C10.2971 11.9313 9.73744 11.8481 9.24578 11.6175C9.19885 11.5926 9.16864 11.5395 9.17065 11.4854V10.2965C9.16536 10.2488 9.21652 10.2071 9.25652 10.2414C9.73825 10.5327 10.3092 10.6742 10.8665 10.6818C11.1125 10.6818 11.6001 10.6579 11.5964 10.2965C11.5964 9.94958 11.0131 9.79011 10.7806 9.70198C10.4436 9.58168 10.1241 9.41503 9.83075 9.20661C9.42082 8.91421 9.16366 8.44539 9.17065 7.92962C9.16825 6.75968 10.2764 6.23455 11.2744 6.2343C11.7409 6.23046 12.2419 6.26501 12.6762 6.45447C12.7387 6.47286 12.7516 6.53864 12.7514 6.59758V7.70945C12.7553 7.77846 12.6787 7.80196 12.6268 7.7755Z" fill="#31A8FF"/>
</g>
<defs>
<clipPath id="clip0_598_15942">
<rect width="16" height="16" fill="white"/>
</clipPath>
</defs>
</svg>
