<svg width="24" height="24" viewBox="0 0 24 24" fill="none" xmlns="http://www.w3.org/2000/svg">
<path fill-rule="evenodd" clip-rule="evenodd" d="M11.9996 5.199C11.6718 4.76839 11.2731 4.41103 10.8359 4.12303C9.70651 3.37903 8.33536 3.09961 7.2496 3.09961C6.16385 3.09961 4.79269 3.37903 3.66328 4.12303C2.49342 4.89368 1.59961 6.1609 1.59961 7.99961V20.4877C1.59961 21.4482 2.76049 21.8057 3.34684 21.1613C4.31295 20.0996 5.70304 19.4353 7.2496 19.4353C8.88085 19.4353 10.3386 20.1746 11.3076 21.3398H12.6916C13.662 20.173 15.1204 19.4289 16.7496 19.4289C18.2961 19.4289 19.6862 20.0933 20.6524 21.155C21.2387 21.7994 22.3996 21.4419 22.3996 20.4814V7.99961C22.3996 6.1609 21.5058 4.89368 20.3359 4.12303C19.2065 3.37903 17.8354 3.09961 16.7496 3.09961C15.6638 3.09961 14.2927 3.37903 13.1633 4.12303C12.7261 4.41103 12.3274 4.76839 11.9996 5.199ZM4.65349 5.62619C3.92584 6.10553 3.39961 6.83832 3.39961 7.99961V18.7737C4.50742 18.0539 5.82992 17.6353 7.2496 17.6353C8.66945 17.6353 9.99184 18.054 11.0996 18.7737V7.99961C11.0996 6.83832 10.5734 6.10553 9.84572 5.62619C9.07761 5.12019 8.07376 4.89961 7.2496 4.89961C6.42545 4.89961 5.4216 5.12019 4.65349 5.62619ZM12.8996 18.7719C14.0067 18.0507 15.3289 17.6289 16.7496 17.6289C18.1693 17.6289 19.4918 18.0476 20.5996 18.7674V7.99961C20.5996 6.83832 20.0734 6.10553 19.3457 5.62619C18.5776 5.12019 17.5738 4.89961 16.7496 4.89961C15.9254 4.89961 14.9216 5.12019 14.1535 5.62619C13.4258 6.10553 12.8996 6.83832 12.8996 7.99961V18.7719Z" fill="#171719"/>
</svg>
