<svg width="24" height="24" viewBox="0 0 24 24" fill="none" xmlns="http://www.w3.org/2000/svg">
<path fill-rule="evenodd" clip-rule="evenodd" d="M12.9005 7.99949V7.09949H11.1005V7.99949V11.0995H8.00046H7.10046V12.8995H8.00046H11.1005V15.9995V16.8995H12.9005V15.9995V12.8995H16.0005H16.9004V11.0995H16.0005H12.9005V7.99949Z" fill="#171719"/>
<path fill-rule="evenodd" clip-rule="evenodd" d="M12.0005 4.14951C7.66502 4.14951 4.15046 7.66407 4.15046 11.9995C4.15046 16.3349 7.66502 19.8495 12.0005 19.8495C13.3617 19.8495 14.6396 19.5038 15.7537 18.896C15.9578 18.7847 16.1971 18.7566 16.4215 18.8178L18.5359 19.3945C18.9957 19.5199 19.2805 19.5966 19.4896 19.6336C19.564 19.6467 19.6111 19.6511 19.6375 19.6526C19.6434 19.6478 19.6488 19.6425 19.6535 19.6365C19.652 19.6101 19.6476 19.563 19.6345 19.4887C19.5976 19.2796 19.5208 18.9948 19.3954 18.535L18.8188 16.4205C18.7576 16.1962 18.7856 15.9569 18.897 15.7527C19.5047 14.6386 19.8504 13.3608 19.8504 11.9995C19.8504 7.66407 16.3359 4.14951 12.0005 4.14951ZM2.35046 11.9995C2.35046 6.66996 6.67091 2.34951 12.0005 2.34951C17.33 2.34951 21.6504 6.66996 21.6504 11.9995C21.6504 13.5379 21.2898 14.9943 20.648 16.2867L21.1423 18.0992C21.2542 18.5094 21.354 18.8752 21.4071 19.1757C21.4608 19.4803 21.4975 19.8664 21.3502 20.252C21.1573 20.7573 20.7582 21.1564 20.253 21.3493C19.8673 21.4966 19.4812 21.4599 19.1767 21.4061C18.8761 21.3531 18.5103 21.2533 18.1002 21.1414L16.2876 20.6471C14.9952 21.2889 13.5388 21.6495 12.0005 21.6495C6.67091 21.6495 2.35046 17.3291 2.35046 11.9995Z" fill="#171719"/>
</svg>
