<svg width="24" height="24" viewBox="0 0 24 24" fill="none" xmlns="http://www.w3.org/2000/svg">
<path d="M7.36628 2.59961C6.97479 2.59959 6.62827 2.59958 6.34112 2.62304C6.03534 2.64802 5.71849 2.70403 5.41003 2.8612C4.95845 3.09129 4.59129 3.45845 4.3612 3.91004C4.20403 4.21849 4.14802 4.53534 4.12304 4.84113C4.09958 5.12827 4.09959 5.47474 4.09961 5.86623L4.09961 21.4996C4.09961 21.8247 4.27493 22.1245 4.55823 22.284C4.84154 22.4434 5.18881 22.4376 5.46669 22.2689L11.9996 18.3025L18.5325 22.2689C18.8104 22.4376 19.1577 22.4434 19.441 22.284C19.7243 22.1245 19.8996 21.8247 19.8996 21.4996L19.8996 5.86628C19.8996 5.47481 19.8996 5.12826 19.8762 4.84113C19.8512 4.53534 19.7952 4.21849 19.638 3.91004C19.4079 3.45845 19.0408 3.09129 18.5892 2.8612C18.2807 2.70403 17.9639 2.64802 17.6581 2.62304C17.3709 2.59958 17.0245 2.59959 16.633 2.59961H7.36628Z" fill="#171719"/>
</svg>
