<svg width="24" height="24" viewBox="0 0 24 24" fill="none" xmlns="http://www.w3.org/2000/svg">
<path fill-rule="evenodd" clip-rule="evenodd" d="M7.36628 2.59961C7.37735 2.59961 7.38846 2.59961 7.39961 2.59961L16.6329 2.59961C17.0244 2.59959 17.3709 2.59958 17.6581 2.62304C17.9639 2.64802 18.2807 2.70403 18.5892 2.8612C19.0408 3.09129 19.4079 3.45845 19.638 3.91003C19.7952 4.21849 19.8512 4.53534 19.8762 4.84113C19.8996 5.12828 19.8996 5.47477 19.8996 5.86628L19.8996 21.4996C19.8996 21.8247 19.7243 22.1245 19.441 22.2839C19.1577 22.4434 18.8104 22.4376 18.5325 22.2689L11.9996 18.3025L5.46669 22.2689C5.18881 22.4376 4.84154 22.4434 4.55823 22.2839C4.27492 22.1245 4.09961 21.8247 4.09961 21.4996V5.89961C4.09961 5.88846 4.09961 5.87735 4.09961 5.86628C4.09959 5.47477 4.09958 5.12828 4.12304 4.84113C4.14802 4.53534 4.20403 4.21849 4.3612 3.91003C4.59129 3.45845 4.95844 3.09129 5.41003 2.8612C5.71849 2.70403 6.03534 2.64802 6.34112 2.62304C6.62828 2.59958 6.97477 2.59959 7.36628 2.59961ZM6.4877 4.41706C6.29323 4.43295 6.23963 4.45868 6.22722 4.46501C6.11432 4.52253 6.02253 4.61432 5.96501 4.72722C5.95868 4.73963 5.93295 4.79323 5.91706 4.9877C5.90031 5.19268 5.89961 5.46472 5.89961 5.89961V19.9003L11.5325 16.4803C11.8195 16.306 12.1797 16.306 12.4667 16.4803L18.0996 19.9003V5.89961C18.0996 5.46472 18.0989 5.19268 18.0822 4.9877C18.0663 4.79323 18.0405 4.73963 18.0342 4.72722C17.9767 4.61432 17.8849 4.52253 17.772 4.46501C17.7596 4.45868 17.706 4.43295 17.5115 4.41706C17.3065 4.40031 17.0345 4.39961 16.5996 4.39961H7.39961C6.96472 4.39961 6.69268 4.40031 6.4877 4.41706Z" fill="#171719"/>
</svg>
