<svg width="24" height="24" viewBox="0 0 24 24" fill="none" xmlns="http://www.w3.org/2000/svg">
<path fill-rule="evenodd" clip-rule="evenodd" d="M2.35059 12.0006C2.35059 6.67104 6.67103 2.35059 12.0006 2.35059C17.3301 2.35059 21.6506 6.67104 21.6506 12.0006C21.6506 13.5389 21.29 14.9953 20.6481 16.2877L21.1425 18.1003C21.2543 18.5104 21.3541 18.8763 21.4072 19.1768C21.461 19.4814 21.4976 19.8674 21.3504 20.2531C21.1574 20.7584 20.7583 21.1575 20.2531 21.3504C19.8674 21.4976 19.4814 21.461 19.1768 21.4072C18.8762 21.3541 18.5104 21.2544 18.1003 21.1425L16.2877 20.6481C14.9953 21.29 13.5389 21.6506 12.0006 21.6506C6.67103 21.6506 2.35059 17.3301 2.35059 12.0006Z" fill="#171719"/>
</svg>
