<svg width="24" height="24" viewBox="0 0 24 24" fill="none" xmlns="http://www.w3.org/2000/svg">
<path d="M9.4996 11.9996H14.4996V10.1996H9.4996V11.9996Z" fill="currentColor"/>
<path fill-rule="evenodd" clip-rule="evenodd" d="M8.7775 2.09961H15.2217C15.3419 2.09958 15.4802 2.09953 15.6013 2.10942C15.7403 2.12078 15.9337 2.14954 16.1352 2.25221C16.3986 2.38643 16.6128 2.60061 16.747 2.86403C16.8497 3.06553 16.8784 3.2589 16.8898 3.39793C16.8997 3.51897 16.8996 3.65728 16.8996 3.77752L16.8996 5.59962L18.6329 5.59962C19.0244 5.5996 19.3709 5.59958 19.6581 5.62304C19.9639 5.64803 20.2807 5.70404 20.5892 5.8612C21.0408 6.0913 21.4079 6.45845 21.638 6.91004C21.7952 7.2185 21.8512 7.53535 21.8762 7.84113C21.8996 8.12829 21.8996 8.47478 21.8996 8.86628V17.633C21.8996 18.0245 21.8996 18.371 21.8762 18.6581C21.8512 18.9639 21.7952 19.2807 21.638 19.5892C21.4079 20.0408 21.0408 20.4079 20.5892 20.638C20.2807 20.7952 19.9639 20.8512 19.6581 20.8762C19.371 20.8997 19.0245 20.8996 18.633 20.8996H5.36627C4.97481 20.8996 4.62825 20.8997 4.34112 20.8762C4.03534 20.8512 3.71849 20.7952 3.41003 20.638C2.95844 20.4079 2.59129 20.0408 2.3612 19.5892C2.20403 19.2807 2.14802 18.9639 2.12304 18.6581C2.09958 18.3709 2.09959 18.0245 2.09961 17.633V8.86629C2.09959 8.47478 2.09958 8.12829 2.12304 7.84113C2.14802 7.53535 2.20403 7.2185 2.3612 6.91004C2.59129 6.45845 2.95844 6.0913 3.41003 5.8612C3.71849 5.70404 4.03534 5.64803 4.34112 5.62304C4.62828 5.59958 4.97476 5.5996 5.36626 5.59962L7.09961 5.59962L7.0996 3.77752C7.09956 3.65728 7.09952 3.51896 7.10941 3.39793C7.12077 3.2589 7.14953 3.06553 7.2522 2.86403C7.38642 2.60061 7.60059 2.38643 7.86402 2.25221C8.06552 2.14954 8.25888 2.12078 8.39792 2.10942C8.51896 2.09953 8.65726 2.09958 8.7775 2.09961ZM15.0996 3.89962V5.59962H8.89961V3.89962H15.0996ZM5.39961 7.39962H18.5996C19.0345 7.39962 19.3065 7.40032 19.5115 7.41707C19.706 7.43296 19.7596 7.45869 19.772 7.46501C19.8849 7.52254 19.9767 7.61433 20.0342 7.72722C20.0405 7.73964 20.0663 7.79324 20.0821 7.98771C20.0989 8.19269 20.0996 8.46473 20.0996 8.89962V17.5996C20.0996 18.0345 20.0989 18.3065 20.0821 18.5115C20.0663 18.706 20.0405 18.7596 20.0342 18.772C19.9767 18.8849 19.8849 18.9767 19.772 19.0342C19.7596 19.0405 19.706 19.0663 19.5115 19.0822C19.3065 19.0989 19.0345 19.0996 18.5996 19.0996H5.39961C4.96472 19.0996 4.69268 19.0989 4.4877 19.0822C4.29323 19.0663 4.23963 19.0405 4.22722 19.0342C4.11432 18.9767 4.02253 18.8849 3.96501 18.772C3.95868 18.7596 3.93295 18.706 3.91706 18.5115C3.90031 18.3065 3.89961 18.0345 3.89961 17.5996V8.89962C3.89961 8.46473 3.90031 8.19269 3.91706 7.98771C3.93295 7.79324 3.95868 7.73964 3.96501 7.72722C4.02253 7.61433 4.11432 7.52254 4.22722 7.46501C4.23963 7.45869 4.29323 7.43296 4.4877 7.41707C4.69268 7.40032 4.96472 7.39962 5.39961 7.39962Z" fill="currentColor"/>
</svg>
