<svg width="24" height="24" viewBox="0 0 24 24" fill="none" xmlns="http://www.w3.org/2000/svg">
<path fill-rule="evenodd" clip-rule="evenodd" d="M12.0006 4.14961C7.66515 4.14961 4.15058 7.66417 4.15058 11.9996C4.15058 16.335 7.66515 19.8496 12.0006 19.8496C13.3619 19.8496 14.6397 19.5039 15.7538 18.8961C15.9579 18.7848 16.1972 18.7567 16.4216 18.8179L18.536 19.3946C18.9958 19.52 19.2806 19.5967 19.4898 19.6337C19.5641 19.6468 19.6112 19.6512 19.6376 19.6527C19.6435 19.6479 19.6489 19.6426 19.6536 19.6366C19.6522 19.6102 19.6477 19.5631 19.6346 19.4888C19.5977 19.2797 19.5209 18.9949 19.3956 18.5351L18.8189 16.4206C18.7577 16.1963 18.7857 15.957 18.8971 15.7528C19.5048 14.6387 19.8506 13.3609 19.8506 11.9996C19.8506 7.66417 16.336 4.14961 12.0006 4.14961ZM2.35059 11.9996C2.35059 6.67006 6.67103 2.34961 12.0006 2.34961C17.3301 2.34961 21.6506 6.67006 21.6506 11.9996C21.6506 13.538 21.29 14.9944 20.6481 16.2868L21.1425 18.0993C21.2543 18.5095 21.3541 18.8753 21.4072 19.1758C21.461 19.4804 21.4976 19.8665 21.3504 20.2521C21.1574 20.7574 20.7583 21.1565 20.2531 21.3494C19.8674 21.4967 19.4814 21.46 19.1768 21.4062C18.8762 21.3532 18.5104 21.2534 18.1003 21.1415L16.2877 20.6472C14.9953 21.289 13.5389 21.6496 12.0006 21.6496C6.67103 21.6496 2.35059 17.3292 2.35059 11.9996Z" fill="#171719"/>
</svg>
