<svg width="24" height="24" viewBox="0 0 24 24" fill="none" xmlns="http://www.w3.org/2000/svg">
<path d="M2.91638 4.84319C3.98651 4.23169 5.22997 4.09961 6.05041 4.09961C6.87122 4.09961 8.09071 4.23228 9.1404 4.75713C10.2395 5.30666 11.2004 6.32685 11.2004 7.99961V19.9996L9.60843 20.5751C8.75863 19.5532 7.48061 18.9051 6.05041 18.9051C4.75296 18.9051 3.58162 19.4382 2.74068 20.2996L2.73062 20.3099C2.69076 20.3508 2.6301 20.4131 2.57315 20.4631C2.54011 20.4922 2.48092 20.5419 2.40283 20.5887C2.32673 20.6344 2.18266 20.708 1.98725 20.725C1.66555 20.7531 1.35296 20.6258 1.14235 20.381C0.928663 20.1326 0.90985 19.8435 0.906583 19.7932L0.906223 19.788C0.900261 19.7124 0.900347 19.6261 0.900402 19.571L0.900411 8.49961C0.900411 6.65664 1.77877 5.49326 2.91638 4.84319Z" fill="#171719"/>
<path d="M21.0843 4.84319C20.0142 4.23169 18.7707 4.09961 17.9503 4.09961C17.1295 4.09961 15.91 4.23228 14.8603 4.75713C13.7613 5.30666 12.8003 6.32685 12.8003 7.99961V19.9996L14.3923 20.5751C15.2421 19.5532 16.5201 18.9051 17.9503 18.9051C19.2478 18.9051 20.4191 19.4382 21.26 20.2996L21.2701 20.3099C21.31 20.3508 21.3706 20.4131 21.4276 20.4631C21.4606 20.4922 21.5198 20.5419 21.5979 20.5887C21.674 20.6344 21.8181 20.708 22.0135 20.725C22.3352 20.7531 22.6478 20.6258 22.8584 20.381C23.0721 20.1326 23.0909 19.8435 23.0941 19.7932L23.0945 19.788C23.1005 19.7124 23.1004 19.6261 23.1003 19.571L23.1003 8.49961C23.1003 6.65664 22.2219 5.49326 21.0843 4.84319Z" fill="#171719"/>
</svg>
