<svg width="24" height="24" viewBox="0 0 24 24" fill="none" xmlns="http://www.w3.org/2000/svg">
<path fill-rule="evenodd" clip-rule="evenodd" d="M11.9996 2.09961C9.77436 2.09961 7.94497 2.8874 6.68748 4.37394C5.44734 5.83995 4.8496 7.88271 4.8496 10.2496L4.84961 10.9996C4.84961 13.4647 4.16637 14.9244 3.19325 15.8677C2.81171 16.2376 2.77211 16.7494 2.90849 17.1259C3.04719 17.5089 3.4273 17.8996 3.99916 17.8996H20C20.5719 17.8996 20.952 17.5089 21.0907 17.1259C21.2271 16.7494 21.1875 16.2376 20.8059 15.8677C19.8328 14.9244 19.1496 13.4647 19.1496 10.9996L19.1496 10.2496C19.1496 7.88271 18.5519 5.83995 17.3117 4.37394C16.0542 2.8874 14.2248 2.09961 11.9996 2.09961Z" fill="#171719"/>
<path d="M9.09972 20.0996V21.8996H14.8997V20.0996H9.09972Z" fill="#171719"/>
</svg>
