<svg width="24" height="24" viewBox="0 0 24 24" fill="none" xmlns="http://www.w3.org/2000/svg">
<path fill-rule="evenodd" clip-rule="evenodd" d="M8.77752 2.09961H15.2217C15.342 2.09958 15.4803 2.09953 15.6013 2.10942C15.7403 2.12078 15.9337 2.14954 16.1352 2.25221C16.3986 2.38643 16.6128 2.60061 16.747 2.86403C16.8497 3.06553 16.8785 3.2589 16.8898 3.39793C16.8997 3.51897 16.8997 3.65728 16.8996 3.77752L16.8996 5.59961L18.6329 5.59961C19.0244 5.59959 19.3709 5.59958 19.6581 5.62304C19.9639 5.64802 20.2807 5.70403 20.5892 5.8612C21.0408 6.09129 21.4079 6.45845 21.638 6.91004C21.7952 7.21849 21.8512 7.53534 21.8762 7.84113C21.8996 8.12828 21.8996 8.47476 21.8996 8.86628V17.633C21.8996 18.0245 21.8996 18.3709 21.8762 18.6581C21.8512 18.9639 21.7952 19.2807 21.638 19.5892C21.4079 20.0408 21.0408 20.4079 20.5892 20.638C20.2807 20.7952 19.9639 20.8512 19.6581 20.8762C19.371 20.8996 19.0245 20.8996 18.633 20.8996H5.36628C4.97481 20.8996 4.62826 20.8996 4.34113 20.8762C4.03534 20.8512 3.71849 20.7952 3.41004 20.638C2.95845 20.4079 2.5913 20.0408 2.3612 19.5892C2.20403 19.2807 2.14802 18.9639 2.12304 18.6581C2.09958 18.371 2.0996 18.0246 2.09961 17.6331V8.86628C2.0996 8.47484 2.09958 8.12824 2.12304 7.84113C2.14802 7.53534 2.20403 7.21849 2.3612 6.91004C2.5913 6.45845 2.95845 6.09129 3.41004 5.8612C3.71849 5.70403 4.03534 5.64802 4.34113 5.62304C4.62827 5.59958 4.97475 5.59959 5.36623 5.59961L7.09962 5.59961L7.09961 3.77752C7.09957 3.65728 7.09953 3.51896 7.10942 3.39793C7.12078 3.2589 7.14954 3.06553 7.25221 2.86403C7.38643 2.60061 7.6006 2.38643 7.86403 2.25221C8.06553 2.14954 8.2589 2.12078 8.39793 2.10942C8.51897 2.09953 8.65728 2.09958 8.77752 2.09961ZM15.0996 3.89962V5.59962L8.89962 5.59961V3.89962H15.0996ZM9.24951 11.8995H14.7495V10.0995H9.24951V11.8995Z" fill="#171719"/>
</svg>
