<svg width="24" height="24" viewBox="0 0 24 24" fill="none" xmlns="http://www.w3.org/2000/svg">
<path fill-rule="evenodd" clip-rule="evenodd" d="M12.0006 2.34961C6.67103 2.34961 2.35059 6.67006 2.35059 11.9996C2.35059 17.3292 6.67103 21.6496 12.0006 21.6496C13.5389 21.6496 14.9953 21.289 16.2877 20.6472L18.0624 21.1312L18.1003 21.1415C18.5104 21.2534 18.8762 21.3532 19.1768 21.4062C19.4814 21.46 19.8674 21.4967 20.2531 21.3494C20.7583 21.1565 21.1574 20.7574 21.3504 20.2521C21.4976 19.8665 21.461 19.4804 21.4072 19.1758C21.3541 18.8753 21.2543 18.5095 21.1425 18.0993L21.1321 18.0615L20.6481 16.2868C21.29 14.9944 21.6506 13.538 21.6506 11.9996C21.6506 6.67006 17.3301 2.34961 12.0006 2.34961ZM12.9006 11.0996V7.09959H11.1006V11.0996H7.10058V12.8996H11.1006V16.8996H12.9006V12.8996H16.9006V11.0996H12.9006Z" fill="#171719"/>
</svg>
