<svg width="24" height="24" viewBox="0 0 24 24" fill="none" xmlns="http://www.w3.org/2000/svg">
<path fill-rule="evenodd" clip-rule="evenodd" d="M17.1454 9.62644L10.6761 16.2918L6.85378 12.3537L8.14543 11.1001L10.6761 13.7074L15.8538 8.37278L17.1454 9.62644Z" fill="#171719"/>
<path fill-rule="evenodd" clip-rule="evenodd" d="M11.9996 3.89961C7.5261 3.89961 3.89961 7.5261 3.89961 11.9996C3.89961 16.4731 7.5261 20.0996 11.9996 20.0996C16.4731 20.0996 20.0996 16.4731 20.0996 11.9996C20.0996 7.5261 16.4731 3.89961 11.9996 3.89961ZM2.09961 11.9996C2.09961 6.53199 6.53199 2.09961 11.9996 2.09961C17.4672 2.09961 21.8996 6.53199 21.8996 11.9996C21.8996 17.4672 17.4672 21.8996 11.9996 21.8996C6.53199 21.8996 2.09961 17.4672 2.09961 11.9996Z" fill="#171719"/>
</svg>
