<svg width="24" height="24" viewBox="0 0 24 24" fill="none" xmlns="http://www.w3.org/2000/svg">
<path fill-rule="evenodd" clip-rule="evenodd" d="M4.28242 2.14475C4.61548 2.09997 5.02145 2.10003 5.44884 2.1001H12.5504C12.9778 2.10003 13.3837 2.09997 13.7168 2.14475C14.0889 2.19478 14.5016 2.31507 14.8431 2.65661C15.1846 2.99814 15.3049 3.4108 15.355 3.78291C15.3997 4.11597 15.3997 4.52194 15.3996 4.94934L15.3996 10.1001H18.5504C18.9778 10.1 19.3837 10.1 19.7168 10.1447C20.0889 10.1948 20.5015 10.3151 20.8431 10.6566C21.1846 10.9981 21.3049 11.4108 21.3549 11.7829C21.3997 12.116 21.3997 12.5219 21.3996 12.9493L21.3996 21.9001H2.59962L2.59961 4.94933C2.59955 4.52194 2.59948 4.11597 2.64426 3.78291C2.69429 3.4108 2.81458 2.99814 3.15612 2.65661C3.49765 2.31507 3.91031 2.19478 4.28242 2.14475ZM4.3996 3.9999C4.3996 3.94467 4.44437 3.8999 4.4996 3.8999H13.4996C13.5548 3.8999 13.5996 3.94467 13.5996 3.9999V20.0999H9.89959V15.9999H8.09959V20.0999H4.3996V3.9999ZM15.3996 20.0999H19.5996V11.9999C19.5996 11.9447 19.5548 11.8999 19.4996 11.8999H15.3996L15.3996 20.0999ZM11.4996 11.9001H6.49963V10.1001H11.4996V11.9001ZM11.4996 7.9001H6.49963V6.1001H11.4996V7.9001Z" fill="#171719"/>
</svg>
