<svg width="24" height="24" viewBox="0 0 24 24" fill="none" xmlns="http://www.w3.org/2000/svg">
<path fill-rule="evenodd" clip-rule="evenodd" d="M3.12517 7C3.12517 6.24569 3.53596 5.63184 4.04837 5.17754C4.5618 4.72233 5.25482 4.35236 6.03608 4.05939C7.60506 3.47102 9.71388 3.125 12.0002 3.125C14.2864 3.125 16.3953 3.47102 17.9642 4.05939C18.7455 4.35236 19.4385 4.72233 19.952 5.17754C20.4644 5.63184 20.8752 6.24569 20.8752 7V11.5806C20.8754 11.5932 20.8754 11.6059 20.8752 11.6185V14.8804C20.8754 14.893 20.8754 14.9057 20.8752 14.9183V16.7958C20.8752 17.848 20.2947 18.8722 19.2713 19.3269C13.3273 21.9677 7.6265 20.6863 4.63753 19.3176C3.64134 18.8614 3.12517 17.8584 3.12517 16.8676V14.9165C3.12494 14.905 3.12494 14.8934 3.12517 14.8818V11.6167C3.12494 11.6051 3.12494 11.5936 3.12517 11.582V7ZM19.1252 9.40487V11.0353C13.2027 13.5999 7.4361 12.2333 4.87517 11.0568V9.40487C5.2278 9.60619 5.61939 9.78435 6.03608 9.94061C7.60506 10.529 9.71388 10.875 12.0002 10.875C14.2864 10.875 16.3953 10.529 17.9642 9.94061C18.3809 9.78435 18.7725 9.60619 19.1252 9.40487ZM4.87517 16.8676V16.2548C7.90663 17.4355 13.3973 18.448 19.1252 16.2264V16.7958C19.1252 17.2253 18.8914 17.5807 18.5608 17.7276C13.2014 20.1087 8.04117 18.9514 5.36612 17.7265C5.08483 17.5977 4.87517 17.2819 4.87517 16.8676ZM4.87517 14.3566C7.4361 15.5331 13.2027 16.8997 19.1252 14.3351V12.9266C13.3973 15.1482 7.90663 14.1357 4.87517 12.955V14.3566Z" fill="#171719"/>
</svg>
