<svg width="24" height="24" viewBox="0 0 24 24" fill="none" xmlns="http://www.w3.org/2000/svg">
<path fill-rule="evenodd" clip-rule="evenodd" d="M11.9996 2.09961C6.53199 2.09961 2.09961 6.53199 2.09961 11.9996C2.09961 17.4672 6.53199 21.8996 11.9996 21.8996C17.4672 21.8996 21.8996 17.4672 21.8996 11.9996C21.8996 6.53199 17.4672 2.09961 11.9996 2.09961ZM11.9996 6.99963C11.4473 6.99963 10.9996 7.44735 10.9996 7.99963C10.9996 8.55192 11.4473 8.99963 11.9996 8.99963C12.5519 8.99963 12.9996 8.55192 12.9996 7.99963C12.9996 7.44735 12.5519 6.99963 11.9996 6.99963ZM11.0996 16.9996V10.4996H12.8996V16.9996H11.0996Z" fill="#171719"/>
</svg>
