<svg width="24" height="24" viewBox="0 0 24 24" fill="none" xmlns="http://www.w3.org/2000/svg">
<path fill-rule="evenodd" clip-rule="evenodd" d="M11.9994 22.1854C17.6246 22.1854 22.1844 17.6256 22.1844 12.0004C22.1844 6.37531 17.6246 1.81543 11.9994 1.81543C6.37433 1.81543 1.81445 6.37531 1.81445 12.0004C1.81445 17.6256 6.37433 22.1854 11.9994 22.1854ZM17.1024 7.44951C17.1815 7.266 17.1576 7.07602 17.0407 6.95915C16.9238 6.84228 16.7339 6.81841 16.5504 6.89749L10.0448 9.69911C9.89208 9.76475 9.76377 9.89331 9.69812 10.0457L6.89651 16.5514C6.86194 16.6317 6.84702 16.713 6.85075 16.7888C6.85573 16.8868 6.89228 16.9758 6.95817 17.0417C7.07504 17.1588 7.26502 17.1827 7.44852 17.1036L13.9541 14.302C14.1068 14.2361 14.2351 14.1078 14.3008 13.9551L17.1024 7.44951ZM10.559 10.5602C9.76352 11.3557 9.76352 12.6454 10.559 13.4409C11.3544 14.2364 12.6445 14.2364 13.4399 13.4409C14.2354 12.6454 14.2354 11.3557 13.4399 10.5602C12.6445 9.76475 11.3544 9.76475 10.559 10.5602Z" fill="#171719"/>
</svg>
