<svg width="24" height="24" viewBox="0 0 24 24" fill="none" xmlns="http://www.w3.org/2000/svg">
<path fill-rule="evenodd" clip-rule="evenodd" d="M12.0006 2.6001C12.3421 2.6001 12.6542 2.7934 12.8064 3.09916L15.2017 7.91297L20.568 4.97174C20.8761 4.80286 21.2544 4.82874 21.5366 5.03799C21.8189 5.24725 21.9535 5.60163 21.8815 5.94552L19.6315 16.6847C19.5441 17.1015 19.1765 17.4001 18.7506 17.4001H5.25062C4.82469 17.4001 4.45709 17.1015 4.36974 16.6847L2.11975 5.94552C2.0477 5.60163 2.18236 5.24725 2.46461 5.03799C2.74686 4.82874 3.12507 4.80286 3.43319 4.97174L8.79952 7.91297L11.1949 3.09916C11.347 2.7934 11.6591 2.6001 12.0006 2.6001ZM12.0006 5.52034L9.99387 9.55321C9.88478 9.77246 9.69106 9.93778 9.45739 10.011C9.22372 10.0843 8.97029 10.0592 8.75555 9.9415L4.28237 7.4898L5.9816 15.6001H18.0196L19.7188 7.4898L15.2457 9.9415C15.0309 10.0592 14.7775 10.0843 14.5438 10.011C14.3102 9.93778 14.1164 9.77246 14.0074 9.55321L12.0006 5.52034Z" fill="#171719"/>
<path fill-rule="evenodd" clip-rule="evenodd" d="M4.60062 20.0001C4.60062 19.503 5.00356 19.1001 5.50062 19.1001H18.5006C18.9977 19.1001 19.4006 19.503 19.4006 20.0001C19.4006 20.4972 18.9977 20.9001 18.5006 20.9001H5.50062C5.00356 20.9001 4.60062 20.4972 4.60062 20.0001Z" fill="#171719"/>
</svg>
