<svg width="24" height="24" viewBox="0 0 24 24" fill="none" xmlns="http://www.w3.org/2000/svg">
<path fill-rule="evenodd" clip-rule="evenodd" d="M11.9996 2.09961C6.53199 2.09961 2.09961 6.53199 2.09961 11.9996C2.09961 17.4672 6.53199 21.8996 11.9996 21.8996C17.4672 21.8996 21.8996 17.4672 21.8996 11.9996C21.8996 6.53199 17.4672 2.09961 11.9996 2.09961ZM11.9996 3.89961C7.5261 3.89961 3.89961 7.5261 3.89961 11.9996C3.89961 16.4731 7.5261 20.0996 11.9996 20.0996C16.4731 20.0996 20.0996 16.4731 20.0996 11.9996C20.0996 7.5261 16.4731 3.89961 11.9996 3.89961ZM10.9996 7.99961C10.9996 7.44732 11.4473 6.99961 11.9996 6.99961C12.5519 6.99961 12.9996 7.44732 12.9996 7.99961C12.9996 8.55189 12.5519 8.99961 11.9996 8.99961C11.4473 8.99961 10.9996 8.55189 10.9996 7.99961ZM11.0996 10.4996V16.9996H12.8996V10.4996H11.0996Z" fill="#171719"/>
</svg>
