<svg width="24" height="24" viewBox="0 0 24 24" fill="none" xmlns="http://www.w3.org/2000/svg">
<path fill-rule="evenodd" clip-rule="evenodd" d="M2.09961 11.9996C2.09961 6.53199 6.53199 2.09961 11.9996 2.09961C17.4672 2.09961 21.8996 6.53199 21.8996 11.9996C21.8996 17.4672 17.4672 21.8996 11.9996 21.8996C6.53199 21.8996 2.09961 17.4672 2.09961 11.9996ZM12.9996 16.4996C12.9996 17.0519 12.5519 17.4996 11.9996 17.4996C11.4473 17.4996 10.9996 17.0519 10.9996 16.4996C10.9996 15.9473 11.4473 15.4996 11.9996 15.4996C12.5519 15.4996 12.9996 15.9473 12.9996 16.4996ZM13.5246 6.93831C13.0083 6.69527 12.4367 6.58076 11.8643 6.60214C11.2918 6.62351 10.7309 6.78036 10.2355 7.06239C9.73984 7.34461 9.32286 7.74506 9.03273 8.23187C8.74215 8.71941 8.59084 9.27393 8.6 9.84045L10.3998 9.81138C10.3961 9.58663 10.4556 9.3603 10.5789 9.15341C10.7027 8.94579 10.8886 8.76187 11.1261 8.62662C11.364 8.4912 11.6415 8.41171 11.9314 8.40088C12.2214 8.39005 12.5065 8.44855 12.758 8.56691C13.0092 8.68516 13.2135 8.85665 13.3572 9.0571C13.5004 9.25687 13.5801 9.48007 13.5964 9.70469C13.6128 9.92911 13.566 10.1569 13.4555 10.3676C13.3456 10.5771 13.1739 10.7665 12.949 10.9113C12.4019 11.2471 11.9406 11.7004 11.608 12.2402C11.2733 12.7834 11.0798 13.3968 11.0486 14.0304L11.0475 14.0524V14.3746H12.8475V14.0988C12.8664 13.7822 12.9649 13.4693 13.1404 13.1844C13.32 12.893 13.5766 12.637 13.8954 12.4424L13.9029 12.4378L13.9103 12.4331C14.391 12.1267 14.7863 11.7055 15.0495 11.2038C15.3131 10.7013 15.4328 10.1393 15.3917 9.57409C15.3506 9.00909 15.1509 8.46977 14.82 8.00827C14.4896 7.54745 14.0412 7.18146 13.5246 6.93831Z" fill="#171719"/>
</svg>
