<svg width="24" height="24" viewBox="0 0 24 24" fill="none" xmlns="http://www.w3.org/2000/svg">
<path fill-rule="evenodd" clip-rule="evenodd" d="M16.8153 8.38082C16.9753 8.03787 16.9037 7.63143 16.6361 7.36382C16.3685 7.09622 15.9621 7.02461 15.6191 7.18466L10.1646 9.73011C9.97301 9.81951 9.81902 9.9735 9.72962 10.1651L7.18416 15.6196C7.02412 15.9626 7.09572 16.369 7.36333 16.6366C7.63094 16.9042 8.03737 16.9758 8.38032 16.8158L13.8349 14.2703C14.0264 14.1809 14.1804 14.0269 14.2698 13.8354L16.8153 8.38082ZM12.9997 12.0002C12.9997 12.5525 12.552 13.0002 11.9997 13.0002C11.4474 13.0002 10.9997 12.5525 10.9997 12.0002C10.9997 11.4479 11.4474 11.0002 11.9997 11.0002C12.552 11.0002 12.9997 11.4479 12.9997 12.0002Z" fill="#171719"/>
<path fill-rule="evenodd" clip-rule="evenodd" d="M11.9996 2.1001C6.53199 2.1001 2.09961 6.53248 2.09961 12.0001C2.09961 17.4677 6.53199 21.9001 11.9996 21.9001C17.4672 21.9001 21.8996 17.4677 21.8996 12.0001C21.8996 6.53248 17.4672 2.1001 11.9996 2.1001ZM3.89961 12.0001C3.89961 7.52659 7.5261 3.9001 11.9996 3.9001C16.4731 3.9001 20.0996 7.52659 20.0996 12.0001C20.0996 16.4736 16.4731 20.1001 11.9996 20.1001C7.5261 20.1001 3.89961 16.4736 3.89961 12.0001Z" fill="#171719"/>
</svg>
