<svg width="24" height="24" viewBox="0 0 24 24" fill="none" xmlns="http://www.w3.org/2000/svg">
<path fill-rule="evenodd" clip-rule="evenodd" d="M12.0006 2.59961C12.3421 2.59961 12.6542 2.79291 12.8064 3.09867L15.2017 7.91248L20.568 4.97125C20.8761 4.80237 21.2544 4.82825 21.5366 5.03751C21.8189 5.24676 21.9535 5.60114 21.8815 5.94503L19.6315 16.6842C19.5441 17.101 19.1765 17.3996 18.7506 17.3996H5.25062C4.82469 17.3996 4.45709 17.101 4.36974 16.6842L2.11975 5.94503C2.0477 5.60114 2.18236 5.24676 2.46461 5.03751C2.74686 4.82825 3.12507 4.80237 3.43319 4.97125L8.79952 7.91248L11.1949 3.09867C11.347 2.79291 11.6591 2.59961 12.0006 2.59961Z" fill="#171719"/>
<path fill-rule="evenodd" clip-rule="evenodd" d="M4.60062 19.9996C4.60062 19.5026 5.00356 19.0996 5.50062 19.0996H18.5006C18.9977 19.0996 19.4006 19.5026 19.4006 19.9996C19.4006 20.4967 18.9977 20.8996 18.5006 20.8996H5.50062C5.00356 20.8996 4.60062 20.4967 4.60062 19.9996Z" fill="#171719"/>
</svg>
