<svg width="24" height="24" viewBox="0 0 24 24" fill="none" xmlns="http://www.w3.org/2000/svg">
<path fill-rule="evenodd" clip-rule="evenodd" d="M11.9996 3.89961C7.5261 3.89961 3.89961 7.5261 3.89961 11.9996C3.89961 16.4731 7.5261 20.0996 11.9996 20.0996C16.4731 20.0996 20.0996 16.4731 20.0996 11.9996C20.0996 7.5261 16.4731 3.89961 11.9996 3.89961ZM2.09961 11.9996C2.09961 6.53199 6.53199 2.09961 11.9996 2.09961C17.4672 2.09961 21.8996 6.53199 21.8996 11.9996C21.8996 17.4672 17.4672 21.8996 11.9996 21.8996C6.53199 21.8996 2.09961 17.4672 2.09961 11.9996Z" fill="#171719"/>
<path d="M12.9996 16.4996C12.9996 17.0519 12.5519 17.4996 11.9996 17.4996C11.4473 17.4996 10.9996 17.0519 10.9996 16.4996C10.9996 15.9473 11.4473 15.4996 11.9996 15.4996C12.5519 15.4996 12.9996 15.9473 12.9996 16.4996Z" fill="#171719"/>
<path fill-rule="evenodd" clip-rule="evenodd" d="M11.8643 6.60214C12.4367 6.58076 13.0083 6.69527 13.5246 6.93831C14.0412 7.18146 14.4896 7.54745 14.82 8.00827C15.1509 8.46977 15.3506 9.00909 15.3917 9.57409C15.4328 10.1393 15.3131 10.7013 15.0495 11.2038C14.7863 11.7055 14.391 12.1267 13.9103 12.4331L13.9029 12.4378L13.8954 12.4424C13.5766 12.637 13.32 12.893 13.1404 13.1844C12.9649 13.4693 12.8664 13.7822 12.8475 14.0988V14.3746H11.0475V14.0524L11.0486 14.0304C11.0798 13.3968 11.2733 12.7834 11.608 12.2402C11.9406 11.7004 12.4019 11.2471 12.949 10.9113C13.1739 10.7665 13.3456 10.5771 13.4555 10.3676C13.566 10.1569 13.6128 9.92911 13.5964 9.70469C13.5801 9.48008 13.5004 9.25687 13.3572 9.0571C13.2135 8.85665 13.0092 8.68517 12.758 8.56691C12.5065 8.44855 12.2214 8.39005 11.9314 8.40088C11.6415 8.41171 11.364 8.4912 11.1261 8.62662C10.8886 8.76187 10.7027 8.94579 10.5789 9.15341C10.4556 9.3603 10.3961 9.58663 10.3998 9.81138L8.6 9.84046C8.59084 9.27393 8.74215 8.71941 9.03273 8.23187C9.32286 7.74506 9.73984 7.34461 10.2355 7.0624C10.7309 6.78036 11.2918 6.62352 11.8643 6.60214Z" fill="#171719"/>
</svg>
