<svg width="24" height="24" viewBox="0 0 24 24" fill="none" xmlns="http://www.w3.org/2000/svg">
<path d="M8.39999 12.2498C8.39999 10.2615 10.0118 8.64976 12 8.64976C13.9882 8.64976 15.6 10.2615 15.6 12.2498C15.6 14.238 13.9882 15.8498 12 15.8498C10.0118 15.8498 8.39999 14.238 8.39999 12.2498Z" fill="#171719"/>
<path fill-rule="evenodd" clip-rule="evenodd" d="M10.1097 2.09967L13.8899 2.09967C14.4145 2.09916 14.8566 2.09872 15.272 2.22485C15.6367 2.33561 15.9761 2.51719 16.2706 2.75921C16.606 3.03482 16.8509 3.4029 17.1415 3.83961L17.9817 5.09974L18.835 5.09974C19.3649 5.09973 19.816 5.09971 20.1865 5.12998C20.5756 5.16177 20.9542 5.23141 21.3162 5.41582C21.8618 5.69386 22.3055 6.1375 22.5835 6.68317C22.7679 7.0451 22.8376 7.4237 22.8694 7.81286C22.8996 8.18328 22.8996 8.63445 22.8996 9.1643V16.8351C22.8996 17.365 22.8996 17.8162 22.8694 18.1866C22.8376 18.5758 22.7679 18.9544 22.5835 19.3163C22.3055 19.862 21.8618 20.3056 21.3162 20.5837C20.9542 20.7681 20.5756 20.8377 20.1865 20.8695C19.8161 20.8998 19.3649 20.8998 18.835 20.8997H5.1642C4.63435 20.8998 4.18315 20.8998 3.81272 20.8695C3.42356 20.8377 3.04497 20.7681 2.68304 20.5837C2.13737 20.3056 1.69373 19.862 1.41569 19.3163C1.23128 18.9544 1.16164 18.5758 1.12985 18.1866C1.09958 17.8162 1.0996 17.365 1.09961 16.8352V9.16434C1.0996 8.63449 1.09958 8.18328 1.12985 7.81286C1.16164 7.4237 1.23128 7.0451 1.41569 6.68317C1.69373 6.1375 2.13737 5.69386 2.68304 5.41582C3.04497 5.23141 3.42356 5.16177 3.81272 5.12998C4.18315 5.09971 4.63433 5.09973 5.1642 5.09974L6.01837 5.09974L6.85768 3.84035C7.14824 3.40345 7.39314 3.03523 7.72856 2.7595C8.0231 2.51738 8.3625 2.33572 8.72733 2.22491C9.14279 2.09872 9.58501 2.09916 10.1097 2.09967ZM12 6.84976C9.01766 6.84976 6.6 9.26742 6.6 12.2498C6.6 15.2321 9.01766 17.6498 12 17.6498C14.9823 17.6498 17.4 15.2321 17.4 12.2498C17.4 9.26742 14.9823 6.84976 12 6.84976Z" fill="#171719"/>
</svg>
