<svg width="24" height="24" viewBox="0 0 24 24" fill="none" xmlns="http://www.w3.org/2000/svg">
<path d="M9.99951 15.7998C10.3433 15.7998 10.6375 15.6774 10.8823 15.4326C11.1271 15.1878 11.2495 14.8936 11.2495 14.5498C11.2495 14.2061 11.1271 13.9118 10.8823 13.667C10.6375 13.4222 10.3433 13.2998 9.99951 13.2998C9.65576 13.2998 9.36149 13.4222 9.11669 13.667C8.8719 13.9118 8.74951 14.2061 8.74951 14.5498C8.74951 14.8936 8.8719 15.1878 9.11669 15.4326C9.36149 15.6774 9.65576 15.7998 9.99951 15.7998ZM7.49951 18.2998H12.4995V17.9404C12.4995 17.6904 12.4318 17.4613 12.2964 17.2529C12.161 17.0446 11.9735 16.8883 11.7339 16.7842C11.463 16.6696 11.1844 16.5811 10.8979 16.5186C10.6115 16.4561 10.312 16.4248 9.99951 16.4248C9.68701 16.4248 9.38753 16.4561 9.10107 16.5186C8.81461 16.5811 8.53597 16.6696 8.26513 16.7842C8.02555 16.8883 7.83805 17.0446 7.70263 17.2529C7.56722 17.4613 7.49951 17.6904 7.49951 17.9404V18.2998Z" fill="#171719"/>
<path fill-rule="evenodd" clip-rule="evenodd" d="M5.36952 2.11623C5.57348 2.09956 5.81553 2.09958 6.06985 2.09961H15.0639L20.3996 7.70211V19.4294C20.3996 19.6837 20.3996 19.9257 20.383 20.1297C20.3648 20.3521 20.3224 20.6072 20.1925 20.8622C20.0103 21.2197 19.7197 21.5104 19.3622 21.6925C19.1072 21.8224 18.8521 21.8648 18.6297 21.883C18.4257 21.8997 18.1837 21.8996 17.9294 21.8996H6.06979C5.81549 21.8996 5.57347 21.8997 5.36952 21.883C5.14711 21.8648 4.89201 21.8224 4.63703 21.6925C4.27952 21.5104 3.98886 21.2197 3.8067 20.8622C3.67678 20.6072 3.6344 20.3521 3.61623 20.1297C3.59956 19.9257 3.59958 19.6837 3.59961 19.4294V4.56985C3.59958 4.31553 3.59956 4.07349 3.61623 3.86952C3.6344 3.64712 3.67678 3.39201 3.8067 3.13703C3.98886 2.77952 4.27952 2.48886 4.63703 2.3067C4.89201 2.17678 5.14711 2.1344 5.36952 2.11623ZM5.3996 3.99941C5.3996 3.94419 5.44437 3.89941 5.4996 3.89941H13.0996V8.89981H18.5996V19.9994C18.5996 20.0546 18.5548 20.0994 18.4996 20.0994H5.4996C5.44437 20.0994 5.3996 20.0546 5.3996 19.9994V3.99941ZM14.8996 7.09981V4.53692L17.3404 7.09981H14.8996Z" fill="#171719"/>
</svg>
