<svg width="24" height="24" viewBox="0 0 24 24" fill="none" xmlns="http://www.w3.org/2000/svg">
<path fill-rule="evenodd" clip-rule="evenodd" d="M5.36952 2.11671C5.57348 2.10005 5.81553 2.10007 6.06985 2.1001H15.0639L20.3996 7.7026L20.3996 19.4299C20.3996 19.6842 20.3996 19.9262 20.383 20.1302C20.3648 20.3526 20.3224 20.6077 20.1925 20.8627C20.0103 21.2202 19.7197 21.5108 19.3622 21.693C19.1072 21.8229 18.8521 21.8653 18.6297 21.8835C18.4257 21.9001 18.1837 21.9001 17.9294 21.9001H6.06979C5.81549 21.9001 5.57347 21.9001 5.36952 21.8835C5.14711 21.8653 4.89201 21.8229 4.63703 21.693C4.27952 21.5108 3.98886 21.2202 3.8067 20.8627C3.67678 20.6077 3.6344 20.3526 3.61622 20.1302C3.59956 19.9262 3.59958 19.6842 3.59961 19.4299V4.57034C3.59958 4.31602 3.59956 4.07397 3.61622 3.87001C3.6344 3.6476 3.67678 3.39249 3.8067 3.13752C3.98886 2.78001 4.27952 2.48935 4.63703 2.30719C4.892 2.17727 5.14711 2.13488 5.36952 2.11671ZM5.3996 3.9999C5.3996 3.94467 5.44437 3.8999 5.4996 3.8999H13.0996V8.90029H18.5996V19.9999C18.5996 20.0551 18.5548 20.0999 18.4996 20.0999H5.4996C5.44437 20.0999 5.3996 20.0551 5.3996 19.9999V3.9999ZM14.8996 7.10029V4.5374L17.3404 7.10029H14.8996Z" fill="#171719"/>
<path d="M12.4996 15.3005H7.49963V13.5005H12.4996V15.3005Z" fill="#171719"/>
<path d="M7.49963 18.3005H12.4996V16.5005H7.49963V18.3005Z" fill="#171719"/>
</svg>
