<svg width="24" height="24" viewBox="0 0 24 24" fill="none" xmlns="http://www.w3.org/2000/svg">
<path fill-rule="evenodd" clip-rule="evenodd" d="M20.8996 15L20.8996 18.4304C20.8996 18.6847 20.8996 18.9267 20.883 19.1307C20.8648 19.3531 20.8224 19.6082 20.6925 19.8632C20.5103 20.2207 20.2197 20.5113 19.8622 20.6935C19.6072 20.8234 19.3521 20.8658 19.1297 20.884C18.9257 20.9006 18.6837 20.9006 18.4294 20.9006H5.56985C5.31555 20.9006 5.07347 20.9006 4.86952 20.884C4.64712 20.8658 4.39201 20.8234 4.13703 20.6935C3.77952 20.5113 3.48886 20.2207 3.3067 19.8632C3.17678 19.6082 3.1344 19.3531 3.11623 19.1307C3.09956 18.9267 3.09958 18.6847 3.09961 18.4303V15H4.89961V19.0003C4.89961 19.0555 4.94439 19.1003 4.99961 19.1003H18.9996C19.0548 19.1003 19.0996 19.0555 19.0996 19.0003V15H20.8996Z" fill="#171719"/>
<path d="M11.0995 4.00059V13.4186L8.36632 10.8462C8.00436 10.5055 7.43478 10.5228 7.09411 10.8847C6.75345 11.2467 6.7707 11.8163 7.13266 12.1569L11.3827 16.1569C11.7292 16.4831 12.2698 16.4831 12.6163 16.1569L16.8663 12.1569C17.2283 11.8163 17.2455 11.2467 16.9049 10.8847C16.5642 10.5228 15.9946 10.5055 15.6327 10.8462L12.8995 13.4186V4.00059C12.8995 3.50353 12.4965 3.10059 11.9995 3.10059C11.5024 3.10059 11.0995 3.50353 11.0995 4.00059Z" fill="#171719"/>
</svg>
