<svg width="24" height="24" viewBox="0 0 24 24" fill="none" xmlns="http://www.w3.org/2000/svg">
<path fill-rule="evenodd" clip-rule="evenodd" d="M5.36952 2.11671C5.57348 2.10005 5.81553 2.10007 6.06985 2.1001L13.6996 2.1001V8.9001H20.3996L20.3996 19.4299C20.3996 19.6842 20.3996 19.9262 20.383 20.1302C20.3648 20.3526 20.3224 20.6077 20.1925 20.8627C20.0103 21.2202 19.7197 21.5108 19.3622 21.693C19.1072 21.8229 18.8521 21.8653 18.6297 21.8835C18.4257 21.9001 18.1837 21.9001 17.9294 21.9001H6.06979C5.81549 21.9001 5.57347 21.9001 5.36952 21.8835C5.14711 21.8653 4.89201 21.8229 4.63703 21.693C4.27952 21.5108 3.98886 21.2202 3.8067 20.8627C3.67678 20.6077 3.6344 20.3526 3.61622 20.1302C3.59956 19.9262 3.59958 19.6842 3.59961 19.4299V4.57034C3.59958 4.31602 3.59956 4.07397 3.61622 3.87001C3.6344 3.6476 3.67678 3.39249 3.8067 3.13752C3.98886 2.78001 4.27952 2.48935 4.63703 2.30719C4.892 2.17727 5.14711 2.13488 5.36952 2.11671ZM9.99972 15.8002C10.3435 15.8002 10.6377 15.6778 10.8825 15.433C11.1273 15.1882 11.2497 14.8939 11.2497 14.5502C11.2497 14.2064 11.1273 13.9122 10.8825 13.6674C10.6377 13.4226 10.3435 13.3002 9.99972 13.3002C9.65597 13.3002 9.3617 13.4226 9.11691 13.6674C8.87212 13.9122 8.74972 14.2064 8.74972 14.5502C8.74972 14.8939 8.87212 15.1882 9.11691 15.433C9.3617 15.6778 9.65597 15.8002 9.99972 15.8002ZM12.4997 18.3002V17.9408C12.4997 17.6908 12.432 17.4616 12.2966 17.2533C12.1612 17.045 11.9737 16.8887 11.7341 16.7845C11.4633 16.67 11.1846 16.5814 10.8982 16.5189C10.6117 16.4564 10.3122 16.4252 9.99972 16.4252C9.68722 16.4252 9.38774 16.4564 9.10128 16.5189C8.81483 16.5814 8.53618 16.67 8.26535 16.7845C8.02576 16.8887 7.83826 17.045 7.70285 17.2533C7.56743 17.4616 7.49972 17.6908 7.49972 17.9408V18.3002H12.4997Z" fill="#171719"/>
<path d="M19.5643 6.82552L15.7742 2.84591V6.82552H19.5643Z" fill="#171719"/>
</svg>
