<svg width="24" height="24" viewBox="0 0 24 24" fill="none" xmlns="http://www.w3.org/2000/svg">
<path fill-rule="evenodd" clip-rule="evenodd" d="M6.06985 2.09961C5.81553 2.09958 5.57348 2.09956 5.36952 2.11622C5.14711 2.1344 4.89201 2.17678 4.63703 2.3067C4.27952 2.48886 3.98886 2.77952 3.8067 3.13703C3.67678 3.39201 3.6344 3.64712 3.61623 3.86952C3.59956 4.07349 3.59958 4.31553 3.59961 4.56985V19.4294C3.59958 19.6837 3.59956 19.9257 3.61623 20.1297C3.6344 20.3521 3.67678 20.6072 3.8067 20.8622C3.98886 21.2197 4.27952 21.5104 4.63703 21.6925C4.89201 21.8224 5.14711 21.8648 5.36952 21.883C5.57347 21.8997 5.81549 21.8996 6.06979 21.8996H17.9294C18.1837 21.8996 18.4257 21.8997 18.6297 21.883C18.8521 21.8648 19.1072 21.8224 19.3622 21.6925C19.7197 21.5104 20.0103 21.2197 20.1925 20.8622C20.3224 20.6072 20.3648 20.3521 20.383 20.1297C20.3996 19.9257 20.3996 19.6837 20.3996 19.4294V8.89961H13.6996V2.09961L6.06985 2.09961ZM12.4995 15.3H7.49951V13.5H12.4995V15.3ZM7.49951 18.3H12.4995V16.5H7.49951V18.3Z" fill="#171719"/>
<path d="M15.7742 2.84543L19.5643 6.82503H15.7742V2.84543Z" fill="#171719"/>
</svg>
