<svg width="24" height="24" viewBox="0 0 24 24" fill="none" xmlns="http://www.w3.org/2000/svg">
<path fill-rule="evenodd" clip-rule="evenodd" d="M3.61769 3.11623C3.82166 3.09956 4.0637 3.09959 4.31802 3.09961H19.6775C19.9318 3.09959 20.1739 3.09956 20.3779 3.11623C20.6003 3.1344 20.8554 3.17678 21.1103 3.3067C21.4679 3.48886 21.7585 3.77952 21.9407 4.13703C22.0706 4.39201 22.113 4.64712 22.1311 4.86953C22.1478 5.07347 22.1478 5.31555 22.1478 5.56985V14.9294C22.1478 15.1837 22.1478 15.4258 22.1311 15.6297C22.113 15.8521 22.0706 16.1072 21.9407 16.3622C21.7585 16.7197 21.4679 17.0104 21.1103 17.1925C20.8554 17.3224 20.6003 17.3648 20.3779 17.383C20.1739 17.3997 19.9318 17.3996 19.6775 17.3996L12.9004 17.3996V19.5996H18V21.3996H5.99998V19.5996H11.1004V17.3996L4.31802 17.3996C4.0637 17.3996 3.82165 17.3997 3.61769 17.383C3.39529 17.3648 3.14018 17.3224 2.8852 17.1925C2.52769 17.0104 2.23703 16.7197 2.05487 16.3622C1.92495 16.1072 1.88257 15.8521 1.8644 15.6297C1.84773 15.4257 1.84776 15.1837 1.84778 14.9294V5.56985C1.84776 5.31553 1.84773 5.07349 1.8644 4.86953C1.88257 4.64712 1.92495 4.39201 2.05487 4.13703C2.23703 3.77952 2.52769 3.48886 2.8852 3.3067C3.14018 3.17678 3.39529 3.1344 3.61769 3.11623ZM3.74783 4.89941C3.6926 4.89941 3.64783 4.94419 3.64783 4.99941V15.4994C3.64783 15.5546 3.6926 15.5994 3.74783 15.5994H20.2478C20.303 15.5994 20.3478 15.5546 20.3478 15.4994V4.99941C20.3478 4.94419 20.303 4.89941 20.2478 4.89941H3.74783Z" fill="#0E0E0F"/>
</svg>
