<svg width="24" height="24" viewBox="0 0 24 24" fill="none" xmlns="http://www.w3.org/2000/svg">
<path d="M14.4995 3.1001C14.0025 3.1001 13.5995 3.50304 13.5995 4.0001C13.5995 4.49716 14.0025 4.9001 14.4995 4.9001H17.8267L8.36314 14.3637C8.01167 14.7152 8.01167 15.285 8.36315 15.6365C8.71462 15.988 9.28447 15.988 9.63594 15.6365L19.0995 6.17289V9.5001C19.0995 9.99716 19.5025 10.4001 19.9995 10.4001C20.4966 10.4001 20.8995 9.99716 20.8995 9.5001V4.0001C20.8995 3.50304 20.4966 3.1001 19.9995 3.1001H14.4995Z" fill="#171719"/>
<path d="M20.8829 19.1302C20.8996 18.9262 20.8996 18.6842 20.8995 18.4299L20.8995 14.0001L19.0996 14.0009V19.0009C19.0996 19.0561 19.0548 19.1009 18.9996 19.1009H4.9996C4.94437 19.1009 4.8996 19.0561 4.8996 19.0009V5.00088C4.8996 4.94565 4.94437 4.90088 4.9996 4.90088H9.99959L9.99955 3.1001L5.56979 3.1001C5.31547 3.10008 5.07343 3.10005 4.86946 3.11672C4.64706 3.13489 4.39195 3.17727 4.13697 3.30719C3.77946 3.48935 3.4888 3.78001 3.30664 4.13752C3.17672 4.3925 3.13434 4.64761 3.11617 4.87002C3.0995 5.07398 3.09953 5.31602 3.09955 5.57034V18.4299C3.09953 18.6842 3.0995 18.9262 3.11617 19.1302C3.13434 19.3526 3.17672 19.6077 3.30664 19.8627C3.4888 20.2202 3.77946 20.5109 4.13697 20.693C4.39195 20.8229 4.64706 20.8653 4.86947 20.8835C5.07341 20.9002 5.31544 20.9001 5.56974 20.9001H18.4293C18.6836 20.9001 18.9257 20.9002 19.1296 20.8835C19.352 20.8653 19.6071 20.8229 19.8621 20.693C20.2196 20.5109 20.5103 20.2202 20.6924 19.8627C20.8224 19.6077 20.8648 19.3526 20.8829 19.1302Z" fill="#171719"/>
</svg>
