<svg width="24" height="24" viewBox="0 0 24 24" fill="none" xmlns="http://www.w3.org/2000/svg">
<path fill-rule="evenodd" clip-rule="evenodd" d="M9.34007 4.14994C9.12186 4.09877 8.90019 4.09927 8.71288 4.09969L3.77754 4.09976C3.6573 4.09972 3.519 4.09967 3.39796 4.10956C3.25893 4.12092 3.06556 4.14968 2.86406 4.25235C2.60064 4.38657 2.38647 4.60075 2.25224 4.86417C2.14957 5.06567 2.12081 5.25904 2.10945 5.39807C2.09956 5.51911 2.09961 5.65742 2.09964 5.77766L2.09961 18.2219C2.09958 18.3421 2.09953 18.4804 2.10942 18.6014C2.12078 18.7405 2.14954 18.9338 2.25221 19.1353C2.38643 19.3988 2.6006 19.6129 2.86403 19.7472C3.06553 19.8498 3.2589 19.8786 3.39793 19.89C3.51897 19.8998 3.65727 19.8998 3.77751 19.8998H20.2218C20.342 19.8998 20.4803 19.8998 20.6013 19.89C20.7404 19.8786 20.9337 19.8498 21.1352 19.7472C21.3987 19.6129 21.6128 19.3988 21.7471 19.1353C21.8497 18.9338 21.8785 18.7405 21.8899 18.6014C21.8997 18.4804 21.8997 18.342 21.8997 18.2218L21.8996 7.77763C21.8996 7.6574 21.8997 7.5191 21.8898 7.39806C21.8784 7.25903 21.8497 7.06567 21.747 6.86417C21.6128 6.60074 21.3986 6.38657 21.1352 6.25235C20.9337 6.14968 20.7403 6.12092 20.6013 6.10956C20.4802 6.09967 20.3419 6.09972 20.2217 6.09976L12.0282 6.09976C11.9012 6.09976 11.8349 6.09955 11.7859 6.09736C11.7713 6.09671 11.7622 6.096 11.7571 6.09554C11.7512 6.09377 11.7455 6.09146 11.7401 6.08864C11.7361 6.08548 11.729 6.07962 11.7181 6.06998C11.6813 6.0375 11.6334 5.99159 11.5421 5.90338L10.4003 4.80113L10.3651 4.76709C10.2307 4.63668 10.0715 4.48237 9.87899 4.36763C9.71158 4.26785 9.52981 4.19443 9.34007 4.14994ZM15.0997 13.0498C15.5809 13.0498 15.9929 12.8785 16.3356 12.5357C16.6783 12.193 16.8497 11.7811 16.8497 11.2998C16.8497 10.8186 16.6783 10.4066 16.3356 10.0639C15.9929 9.72116 15.5809 9.5498 15.0997 9.5498C14.6184 9.5498 14.2064 9.72116 13.8637 10.0639C13.521 10.4066 13.3497 10.8186 13.3497 11.2998C13.3497 11.7811 13.521 12.193 13.8637 12.5357C14.2064 12.8785 14.6184 13.0498 15.0997 13.0498ZM11.5997 16.0467V16.5498H18.5997V16.0467C18.5997 15.6967 18.5049 15.3758 18.3153 15.0842C18.1257 14.7925 17.8632 14.5738 17.5278 14.4279C17.1486 14.2675 16.7585 14.1436 16.3575 14.0561C15.9564 13.9686 15.5372 13.9248 15.0997 13.9248C14.6622 13.9248 14.2429 13.9686 13.8418 14.0561C13.4408 14.1436 13.0507 14.2675 12.6715 14.4279C12.3361 14.5738 12.0736 14.7925 11.884 15.0842C11.6945 15.3758 11.5997 15.6967 11.5997 16.0467Z" fill="#171719"/>
</svg>
