<svg width="24" height="24" viewBox="0 0 24 24" fill="none" xmlns="http://www.w3.org/2000/svg">
<path d="M12.3583 9.62678C12.2116 9.32948 11.7877 9.32948 11.6409 9.62678L10.8437 11.2423C10.7854 11.3603 10.6728 11.4421 10.5425 11.4611L8.75972 11.7201C8.43163 11.7678 8.30063 12.171 8.53804 12.4024L9.82806 13.6599C9.92234 13.7518 9.96536 13.8842 9.9431 14.0139L9.63857 15.7895C9.58252 16.1162 9.92549 16.3654 10.2189 16.2112L11.8135 15.3728C11.93 15.3116 12.0693 15.3116 12.1858 15.3728L13.7803 16.2112C14.0738 16.3654 14.4168 16.1162 14.3607 15.7895L14.0562 14.0139C14.0339 13.8842 14.077 13.7518 14.1712 13.6599L15.4613 12.4024C15.6987 12.171 15.5677 11.7678 15.2396 11.7201L13.4568 11.4611C13.3265 11.4421 13.2139 11.3603 13.1556 11.2423L12.3583 9.62678Z" fill="#171719"/>
<path fill-rule="evenodd" clip-rule="evenodd" d="M8.66394 5.89927C8.79094 5.89927 8.85725 5.89948 8.9063 5.90167C8.92085 5.90233 8.93002 5.90303 8.93505 5.90349C8.94094 5.90526 8.94666 5.90757 8.95213 5.9104C8.95607 5.91355 8.96316 5.91941 8.97408 5.92905C9.01089 5.96154 9.05874 6.00744 9.15011 6.09566L10.2919 7.1979L10.3271 7.23195C10.4615 7.36235 10.6207 7.51667 10.8132 7.63141C10.9806 7.73118 11.1624 7.8046 11.3521 7.84909C11.5703 7.90026 11.792 7.89977 11.9793 7.89935L20.0996 7.89927L20.0997 18.0993H3.89962L3.89965 5.89927H8.66394ZM9.34007 4.14945C9.12186 4.09828 8.90019 4.09878 8.71288 4.0992L3.77755 4.09927C3.65731 4.09923 3.519 4.09918 3.39796 4.10907C3.25893 4.12043 3.06556 4.14919 2.86406 4.25186C2.60064 4.38609 2.38647 4.60026 2.25224 4.86368C2.14957 5.06518 2.12081 5.25855 2.10945 5.39758C2.09956 5.51862 2.09961 5.65693 2.09964 5.77717L2.09961 18.2214C2.09958 18.3416 2.09953 18.4799 2.10942 18.601C2.12078 18.74 2.14954 18.9334 2.25221 19.1349C2.38643 19.3983 2.6006 19.6125 2.86403 19.7467C3.06553 19.8493 3.2589 19.8781 3.39793 19.8895C3.51897 19.8994 3.65727 19.8993 3.77752 19.8993H20.2218C20.342 19.8993 20.4803 19.8994 20.6013 19.8895C20.7404 19.8781 20.9337 19.8493 21.1352 19.7467C21.3987 19.6125 21.6128 19.3983 21.7471 19.1349C21.8497 18.9334 21.8785 18.74 21.8899 18.601C21.9008 18.4674 21.8997 18.3331 21.8997 18.1993L21.8996 7.77721C21.8996 7.65698 21.8997 7.51861 21.8898 7.39758C21.8784 7.25854 21.8497 7.06518 21.747 6.86368C21.6128 6.60025 21.3986 6.38608 21.1352 6.25186C20.9337 6.14919 20.7403 6.12043 20.6013 6.10907C20.4802 6.09918 20.3419 6.09923 20.2217 6.09927L12.0282 6.09927C11.9012 6.09927 11.8349 6.09907 11.7859 6.09687C11.7713 6.09622 11.7622 6.09552 11.7571 6.09505C11.7512 6.09328 11.7455 6.09097 11.7401 6.08815C11.7361 6.08499 11.729 6.07913 11.7181 6.06949C11.6813 6.03701 11.6334 5.9911 11.5421 5.90289L10.3651 4.7666C10.2307 4.6362 10.0715 4.48188 9.87899 4.36714C9.71158 4.26737 9.52981 4.19395 9.34007 4.14945Z" fill="#171719"/>
</svg>
