<svg width="24" height="24" viewBox="0 0 24 24" fill="none" xmlns="http://www.w3.org/2000/svg">
<path d="M13.3383 9.88965C13.0011 10.2549 13.0239 10.8243 13.3891 11.1614C13.7544 11.4986 14.3238 11.4758 14.6609 11.1106L19.0996 6.30198V10.0001C19.0996 10.4972 19.5025 10.9001 19.9996 10.9001C20.4966 10.9001 20.8996 10.4972 20.8996 10.0001V4.0001C20.8996 3.50304 20.4966 3.1001 19.9996 3.1001H14.4996C14.0025 3.1001 13.5996 3.50304 13.5996 4.0001C13.5996 4.49715 14.0025 4.9001 14.4996 4.9001L17.944 4.9001L13.3383 9.88965Z" fill="#171719"/>
<path d="M4.89961 14.0001C4.89961 13.503 4.49666 13.1001 3.99961 13.1001C3.50255 13.1001 3.09961 13.503 3.09961 14.0001V20.0001C3.09961 20.4972 3.50255 20.9001 3.99961 20.9001H9.4996C9.99666 20.9001 10.3996 20.4972 10.3996 20.0001C10.3996 19.503 9.99666 19.1001 9.4996 19.1001H6.1724L10.636 14.6365C10.9875 14.285 10.9875 13.7152 10.636 13.3637C10.2845 13.0122 9.71468 13.0122 9.36321 13.3637L4.89961 17.8273V14.0001Z" fill="#171719"/>
</svg>
