<svg width="24" height="24" viewBox="0 0 24 24" fill="none" xmlns="http://www.w3.org/2000/svg">
<path fill-rule="evenodd" clip-rule="evenodd" d="M9.34013 4.14994C9.12192 4.09877 8.90025 4.09927 8.71294 4.09969L3.77761 4.09976C3.65737 4.09972 3.51906 4.09967 3.39802 4.10956C3.25899 4.12092 3.06562 4.14968 2.86412 4.25235C2.6007 4.38657 2.38653 4.60075 2.2523 4.86417C2.14963 5.06567 2.12087 5.25904 2.10951 5.39807C2.09962 5.51911 2.09967 5.65742 2.09971 5.77766L2.09968 18.2219C2.09964 18.3421 2.09959 18.4804 2.10948 18.6014C2.12084 18.7405 2.1496 18.9338 2.25227 19.1353C2.38649 19.3988 2.60066 19.6129 2.86409 19.7472C3.06559 19.8498 3.25896 19.8786 3.39799 19.89C3.51903 19.8998 3.65734 19.8998 3.77758 19.8998H20.2218C20.3421 19.8998 20.4804 19.8998 20.6014 19.89C20.7404 19.8786 20.9338 19.8498 21.1353 19.7472C21.3987 19.6129 21.6129 19.3988 21.7471 19.1353C21.8498 18.9338 21.8786 18.7405 21.8899 18.6014C21.8998 18.4804 21.8998 18.342 21.8997 18.2218L21.8997 7.77763C21.8997 7.6574 21.8997 7.5191 21.8898 7.39806C21.8785 7.25903 21.8497 7.06567 21.7471 6.86417C21.6128 6.60074 21.3987 6.38657 21.1352 6.25235C20.9337 6.14968 20.7404 6.12092 20.6013 6.10956C20.4803 6.09967 20.342 6.09972 20.2218 6.09976L12.0283 6.09976C11.9013 6.09976 11.835 6.09955 11.7859 6.09736C11.7714 6.09671 11.7622 6.096 11.7572 6.09554C11.7513 6.09377 11.7456 6.09146 11.7401 6.08864C11.7362 6.08548 11.7291 6.07962 11.7182 6.06998C11.6814 6.0375 11.6335 5.99159 11.5421 5.90338L10.4003 4.80113L10.3652 4.76709C10.2307 4.63668 10.0716 4.48237 9.87905 4.36763C9.71164 4.26785 9.52987 4.19443 9.34013 4.14994ZM11.6411 9.62629C11.7878 9.329 12.2117 9.329 12.3585 9.62629L13.1557 11.2418C13.214 11.3598 13.3266 11.4416 13.4569 11.4606L15.2397 11.7196C15.5678 11.7673 15.6988 12.1705 15.4614 12.4019L14.1713 13.6594C14.0771 13.7513 14.0341 13.8837 14.0563 14.0134L14.3608 15.789C14.4169 16.1158 14.0739 16.3649 13.7805 16.2107L12.1859 15.3724C12.0694 15.3111 11.9302 15.3111 11.8136 15.3724L10.2191 16.2107C9.92562 16.3649 9.58265 16.1158 9.63869 15.789L9.94322 14.0134C9.96548 13.8837 9.92246 13.7513 9.82819 13.6594L8.53816 12.4019C8.30075 12.1705 8.43176 11.7673 8.75984 11.7196L10.5426 11.4606C10.6729 11.4416 10.7855 11.3598 10.8438 11.2418L11.6411 9.62629Z" fill="#171719"/>
</svg>
