<svg width="24" height="24" viewBox="0 0 24 24" fill="none" xmlns="http://www.w3.org/2000/svg">
<path fill-rule="evenodd" clip-rule="evenodd" d="M6.65141 2.60108C6.10433 2.60106 5.63355 2.60104 5.26689 2.63382C4.91627 2.66517 4.45471 2.73757 4.08829 3.04444C3.62863 3.4294 3.37764 4.00874 3.41118 4.60737C3.43792 5.08457 3.7008 5.47081 3.91773 5.74804C4.14459 6.03795 4.46656 6.38136 4.84076 6.78047L9.60007 11.857L9.59991 18.2567C9.59901 18.3167 9.59617 18.5049 9.65185 18.6882C9.69769 18.8392 9.77284 18.9796 9.87301 19.1015C9.99469 19.2495 10.1528 19.3515 10.2033 19.3841L12.2751 20.7651C12.3775 20.8335 12.4997 20.915 12.6103 20.9749C12.7203 21.0346 12.9614 21.1559 13.2716 21.1374C13.6218 21.1165 13.9454 20.9433 14.1571 20.6635C14.3446 20.4157 14.3773 20.1478 14.3887 20.0231C14.4002 19.8979 14.4001 19.751 14.4001 19.6279L14.4001 11.857L19.1592 6.78045C19.5334 6.38137 19.8554 6.03792 20.0822 5.74801C20.2992 5.47078 20.562 5.08454 20.5888 4.60735C20.6223 4.00872 20.3713 3.42939 19.9116 3.04443C19.5452 2.73757 19.0837 2.66517 18.7331 2.63382C18.3664 2.60104 17.8957 2.60106 17.3486 2.60108H6.65141Z" fill="#171719"/>
</svg>
