<svg width="24" height="24" viewBox="0 0 24 24" fill="none" xmlns="http://www.w3.org/2000/svg">
<path fill-rule="evenodd" clip-rule="evenodd" d="M15.0997 13.0503C15.5809 13.0503 15.9929 12.8789 16.3356 12.5362C16.6783 12.1935 16.8497 11.7815 16.8497 11.3003C16.8497 10.819 16.6783 10.4071 16.3356 10.0644C15.9929 9.72165 15.5809 9.55029 15.0997 9.55029C14.6184 9.55029 14.2064 9.72165 13.8637 10.0644C13.521 10.4071 13.3497 10.819 13.3497 11.3003C13.3497 11.7815 13.521 12.1935 13.8637 12.5362C14.2064 12.8789 14.6184 13.0503 15.0997 13.0503ZM18.5997 16.5503V16.0472C18.5997 15.6972 18.5049 15.3763 18.3153 15.0847C18.1257 14.793 17.8632 14.5743 17.5278 14.4284C17.1486 14.268 16.7585 14.144 16.3575 14.0565C15.9564 13.969 15.5372 13.9253 15.0997 13.9253C14.6622 13.9253 14.2429 13.969 13.8418 14.0565C13.4408 14.144 13.0507 14.268 12.6715 14.4284C12.3361 14.5743 12.0736 14.793 11.884 15.0847C11.6945 15.3763 11.6997 15.7972 11.5997 16.0472V16.5503H18.5997Z" fill="#171719"/>
<path fill-rule="evenodd" clip-rule="evenodd" d="M8.66394 5.90025C8.79094 5.90025 8.85725 5.90045 8.9063 5.90265C8.92085 5.9033 8.93002 5.90401 8.93505 5.90447C8.94094 5.90624 8.94666 5.90855 8.95213 5.91137C8.95607 5.91453 8.96316 5.92039 8.97408 5.93003C9.01089 5.96251 9.05874 6.00842 9.15011 6.09663L10.2919 7.19888L10.3271 7.23293C10.4615 7.36333 10.6207 7.51764 10.8132 7.63238C10.9806 7.73216 11.1624 7.80558 11.3521 7.85007C11.5703 7.90124 11.792 7.90074 11.9793 7.90032L20.0996 7.90025L20.0997 18.1002H3.89962L3.89965 5.90025H8.66394ZM9.34007 4.15043C9.12186 4.09926 8.90019 4.09976 8.71288 4.10018L3.77755 4.10024C3.65731 4.10021 3.519 4.10016 3.39796 4.11005C3.25893 4.12141 3.06556 4.15017 2.86406 4.25284C2.60064 4.38706 2.38647 4.60123 2.25224 4.86466C2.14957 5.06616 2.12081 5.25953 2.10945 5.39856C2.09956 5.5196 2.09961 5.6579 2.09964 5.77814L2.09961 18.2223C2.09958 18.3426 2.09953 18.4809 2.10942 18.6019C2.12078 18.741 2.14954 18.9343 2.25221 19.1358C2.38643 19.3993 2.6006 19.6134 2.86403 19.7477C3.06553 19.8503 3.2589 19.8791 3.39793 19.8904C3.51897 19.9003 3.65727 19.9003 3.77752 19.9003H20.2218C20.342 19.9003 20.4803 19.9003 20.6013 19.8904C20.7404 19.8791 20.9337 19.8503 21.1352 19.7477C21.3987 19.6134 21.6128 19.3993 21.7471 19.1358C21.8497 18.9343 21.8785 18.741 21.8899 18.6019C21.9008 18.4684 21.8997 18.3341 21.8997 18.2002L21.8996 7.77819C21.8996 7.65795 21.8997 7.51958 21.8898 7.39855C21.8784 7.25952 21.8497 7.06615 21.747 6.86466C21.6128 6.60123 21.3986 6.38706 21.1352 6.25284C20.9337 6.15017 20.7403 6.12141 20.6013 6.11005C20.4802 6.10016 20.3419 6.10021 20.2217 6.10024L12.0282 6.10025C11.9012 6.10025 11.8349 6.10004 11.7859 6.09785C11.7713 6.0972 11.7622 6.09649 11.7571 6.09603C11.7512 6.09426 11.7455 6.09195 11.7401 6.08913C11.7361 6.08597 11.729 6.08011 11.7181 6.07047C11.6813 6.03798 11.6334 5.99208 11.5421 5.90387L10.3651 4.76757C10.2307 4.63717 10.0715 4.48286 9.87899 4.36811C9.71158 4.26834 9.52981 4.19492 9.34007 4.15043Z" fill="#171719"/>
</svg>
