<svg width="24" height="24" viewBox="0 0 24 24" fill="none" xmlns="http://www.w3.org/2000/svg">
<path fill-rule="evenodd" clip-rule="evenodd" d="M11.9996 2.1001C6.53199 2.1001 2.09961 6.53248 2.09961 12.0001C2.09961 17.4677 6.53199 21.9001 11.9996 21.9001C17.4672 21.9001 21.8996 17.4677 21.8996 12.0001C21.8996 6.53248 17.4672 2.1001 11.9996 2.1001ZM8.9996 11.0001C9.55188 11.0001 9.9996 10.5524 9.9996 10.0001C9.9996 9.44784 9.55188 9.00012 8.9996 9.00012C8.44731 9.00012 7.9996 9.44784 7.9996 10.0001C7.9996 10.5524 8.44731 11.0001 8.9996 11.0001ZM14.9996 11.0001C15.5519 11.0001 15.9996 10.5524 15.9996 10.0001C15.9996 9.44784 15.5519 9.00012 14.9996 9.00012C14.4473 9.00012 13.9996 9.44784 13.9996 10.0001C13.9996 10.5524 14.4473 11.0001 14.9996 11.0001ZM8.5475 13.022C8.97729 12.7723 9.52812 12.9183 9.7778 13.3481C10.234 14.1334 11.0846 14.6602 12.0496 14.6602C13.0146 14.6602 13.8652 14.1334 14.3214 13.3481C14.5711 12.9183 15.1219 12.7723 15.5517 13.022C15.9815 13.2717 16.1275 13.8225 15.8778 14.2523C15.114 15.567 13.6846 16.4602 12.0496 16.4602C10.4146 16.4602 8.98517 15.567 8.22139 14.2523C7.9717 13.8225 8.11771 13.2717 8.5475 13.022Z" fill="#171719"/>
</svg>
