<svg width="24" height="24" viewBox="0 0 24 24" fill="none" xmlns="http://www.w3.org/2000/svg">
<path fill-rule="evenodd" clip-rule="evenodd" d="M11.9571 3.89972C11.9856 3.89957 12.0141 3.89957 12.0426 3.89972C12.9307 5.16296 13.6167 6.57859 14.0535 8.0996H9.94616C10.383 6.57859 11.069 5.16296 11.9571 3.89972ZM14.3914 4.25847C15.0582 5.45245 15.5755 6.74127 15.918 8.0996H19.1008C18.0978 6.27723 16.4137 4.88252 14.3914 4.25847ZM19.825 9.8996H16.2624C16.3531 10.5867 16.3999 11.2877 16.3999 11.9996C16.3999 12.7115 16.3531 13.4125 16.2624 14.0996H19.825C20.0042 13.4299 20.0998 12.7259 20.0998 11.9996C20.0998 11.2733 20.0042 10.5693 19.825 9.8996ZM19.1009 15.8996H15.918C15.5755 17.2579 15.0582 18.5468 14.3914 19.7407C16.4137 19.1167 18.0978 17.722 19.1009 15.8996ZM12.0426 20.0995C12.0141 20.0996 11.9856 20.0996 11.9571 20.0995C11.069 18.8363 10.383 17.4206 9.94615 15.8996H14.0536C13.6167 17.4206 12.9307 18.8363 12.0426 20.0995ZM9.60826 19.7407C7.58598 19.1167 5.90184 17.722 4.89883 15.8996H8.08166C8.42417 17.2579 8.94148 18.5468 9.60826 19.7407ZM4.17473 14.0996H7.7373C7.64664 13.4125 7.59985 12.7115 7.59985 11.9996C7.59985 11.2877 7.64664 10.5867 7.73731 9.8996H4.17473C3.99544 10.5693 3.89985 11.2733 3.89985 11.9996C3.89985 12.7259 3.99544 13.4299 4.17473 14.0996ZM4.89884 8.0996H8.08167C8.42419 6.74127 8.9415 5.45245 9.60828 4.25846C7.586 4.88252 5.90186 6.27722 4.89884 8.0996ZM11.9998 2.09961C6.53223 2.09961 2.09985 6.53199 2.09985 11.9996C2.09985 17.4672 6.53223 21.8996 11.9998 21.8996C17.4675 21.8996 21.8998 17.4672 21.8998 11.9996C21.8998 6.53199 17.4675 2.09961 11.9998 2.09961ZM9.55517 14.0996H14.4445C14.5468 13.4145 14.5999 12.7132 14.5999 11.9996C14.5999 11.286 14.5468 10.5847 14.4445 9.8996H9.55518C9.45287 10.5847 9.39985 11.286 9.39985 11.9996C9.39985 12.7132 9.45287 13.4145 9.55517 14.0996Z" fill="#51535A"/>
</svg>
