<svg width="24" height="24" viewBox="0 0 24 24" fill="none" xmlns="http://www.w3.org/2000/svg">
<path d="M11.9492 6C12.4185 6 12.7998 6.40333 12.7998 6.90039V16.9004C12.7998 17.3974 12.4185 17.8008 11.9492 17.8008C11.4802 17.8006 11.0996 17.3973 11.0996 16.9004V12.8008H4.7998V16.9004C4.7998 17.3974 4.41846 17.8008 3.94922 17.8008C3.48016 17.8006 3.09961 17.3973 3.09961 16.9004V6.90039C3.09961 6.40347 3.48016 6.00022 3.94922 6C4.41846 6 4.7998 6.40333 4.7998 6.90039V11H11.0996V6.90039C11.0996 6.40347 11.4802 6.00022 11.9492 6Z" fill="currentColor"/>
<path d="M18.944 18.2644V17.0164H15.188C14.792 17.0164 14.468 16.7284 14.468 16.3204C14.468 16.0324 14.576 15.7924 14.792 15.5404L18.74 10.8604C19.004 10.5484 19.208 10.3804 19.64 10.3804C20.036 10.3804 20.36 10.6924 20.36 11.0884V15.8044H21.008C21.356 15.8044 21.62 16.0804 21.62 16.4164C21.62 16.7524 21.356 17.0164 21.008 17.0164H20.36V18.2644C20.36 18.6604 20.048 18.9604 19.652 18.9604C19.256 18.9604 18.944 18.6604 18.944 18.2644ZM16.184 15.8044H18.944V12.4804L16.184 15.8044Z" fill="currentColor"/>
</svg>
