<svg width="24" height="24" viewBox="0 0 24 24" fill="none" xmlns="http://www.w3.org/2000/svg">
<path d="M12.0635 6C12.5327 6 12.9141 6.40333 12.9141 6.90039V16.9004C12.9141 17.3974 12.5327 17.8008 12.0635 17.8008C11.5944 17.8006 11.2139 17.3973 11.2139 16.9004V12.8008H4.91406V16.9004C4.91406 17.3974 4.53271 17.8008 4.06348 17.8008C3.59442 17.8006 3.21387 17.3973 3.21387 16.9004V6.90039C3.21387 6.40347 3.59442 6.00022 4.06348 6C4.53271 6 4.91406 6.40333 4.91406 6.90039V11H11.2139V6.90039C11.2139 6.40347 11.5944 6.00022 12.0635 6Z" fill="currentColor"/>
<path d="M17.8462 19.0444C16.6102 19.0444 15.6862 18.6124 15.0022 17.9524C14.8702 17.8444 14.7622 17.6404 14.7622 17.4244C14.7622 17.0404 15.0862 16.7164 15.4702 16.7164C15.6862 16.7164 15.8422 16.8004 15.9622 16.9084C16.4902 17.4364 17.0902 17.7124 17.8702 17.7124C18.6982 17.7124 19.3222 17.2084 19.3222 16.4404V16.4164C19.3222 15.5884 18.5662 15.1204 17.3902 15.1204H17.0902C16.7422 15.1204 16.4542 14.8324 16.4542 14.4844C16.4542 14.2924 16.5382 14.1124 16.7662 13.8844L18.7342 11.7844H15.6862C15.3262 11.7844 15.0382 11.4964 15.0382 11.1484C15.0382 10.7884 15.3262 10.5004 15.6862 10.5004H19.9822C20.4022 10.5004 20.7142 10.7524 20.7142 11.1484C20.7142 11.4964 20.5462 11.7004 20.2942 11.9524L18.3142 14.0044C19.5862 14.1604 20.7862 14.8084 20.7862 16.3564V16.3804C20.7862 17.9284 19.5982 19.0444 17.8462 19.0444Z" fill="currentColor"/>
</svg>
