<svg width="24" height="24" viewBox="0 0 24 24" fill="none" xmlns="http://www.w3.org/2000/svg">
<path d="M13.5994 6C14.0686 6 14.45 6.40333 14.45 6.90039V16.9004C14.45 17.3974 14.0686 17.8008 13.5994 17.8008C13.1303 17.8006 12.7498 17.3973 12.7498 16.9004V12.8008H6.44995V16.9004C6.44995 17.3974 6.0686 17.8008 5.59937 17.8008C5.13031 17.8006 4.74976 17.3973 4.74976 16.9004V6.90039C4.74976 6.40347 5.13031 6.00022 5.59937 6C6.0686 6 6.44995 6.40333 6.44995 6.90039V11H12.7498V6.90039C12.7498 6.40347 13.1303 6.00022 13.5994 6Z" fill="currentColor"/>
<path d="M17.7863 18.2284V11.8924L16.9223 12.1564C16.8383 12.1804 16.7303 12.1924 16.6583 12.1924C16.3103 12.1924 16.0103 11.9044 16.0103 11.5684C16.0103 11.2564 16.2023 11.0164 16.5023 10.9324L17.7743 10.5244C18.0623 10.4404 18.2783 10.3924 18.4943 10.3924H18.5183C18.9383 10.3924 19.2503 10.7164 19.2503 11.1244V18.2284C19.2503 18.6364 18.9263 18.9604 18.5183 18.9604C18.1223 18.9604 17.7863 18.6364 17.7863 18.2284Z" fill="currentColor"/>
</svg>
