<svg width="24" height="24" viewBox="0 0 24 24" fill="none" xmlns="http://www.w3.org/2000/svg">
<path d="M12.0393 6C12.5085 6 12.8899 6.40333 12.8899 6.90039V16.9004C12.8899 17.3974 12.5085 17.8008 12.0393 17.8008C11.5702 17.8006 11.1897 17.3973 11.1897 16.9004V12.8008H4.88989V16.9004C4.88989 17.3974 4.50855 17.8008 4.03931 17.8008C3.57025 17.8006 3.1897 17.3973 3.1897 16.9004V6.90039C3.1897 6.40347 3.57025 6.00022 4.03931 6C4.50855 6 4.88989 6.40333 4.88989 6.90039V11H11.1897V6.90039C11.1897 6.40347 11.5702 6.00022 12.0393 6Z" fill="currentColor"/>
<path d="M14.6062 18.2044C14.6062 17.9164 14.7382 17.6764 14.9902 17.4724L17.5702 15.2764C18.7222 14.3044 19.1422 13.7644 19.1422 13.0084C19.1422 12.1804 18.5542 11.7004 17.7862 11.7004C17.1142 11.7004 16.6462 12.0124 16.1302 12.6364C16.0222 12.7564 15.8542 12.8644 15.6142 12.8644C15.2422 12.8644 14.9422 12.5644 14.9422 12.1924C14.9422 12.0364 15.0022 11.8684 15.1102 11.7364C15.7942 10.8844 16.5742 10.3804 17.8942 10.3804C19.5382 10.3804 20.6662 11.3884 20.6662 12.8884V12.9124C20.6662 14.2324 19.9702 14.9524 18.4822 16.1644L16.7542 17.6044H20.1622C20.5222 17.6044 20.8102 17.8924 20.8102 18.2524C20.8102 18.6124 20.5222 18.9004 20.1622 18.9004H15.3982C14.9422 18.9004 14.6062 18.6364 14.6062 18.2044Z" fill="currentColor"/>
</svg>
