<svg className={className} viewBox="0 0 24 24" fill="none" xmlns="http://www.w3.org/2000/svg">
<path d="M14.3887 2.35059C15.4755 2.35058 16.3461 2.34975 17.0498 2.40723C17.7725 2.46627 18.3988 2.59038 18.9746 2.88379C19.8964 3.35354 20.6455 4.10358 21.1152 5.02539C21.4086 5.60112 21.5327 6.22673 21.5918 6.94922C21.6493 7.65299 21.6494 8.52425 21.6494 9.61133V14.3887C21.6494 15.4757 21.6493 16.347 21.5918 17.0508C21.5327 17.7734 21.4086 18.3988 21.1152 18.9746C20.6455 19.8965 19.8964 20.6464 18.9746 21.1162C18.3988 21.4096 17.7725 21.5337 17.0498 21.5928C16.3461 21.6503 15.4755 21.6504 14.3887 21.6504H9.61035C8.52347 21.6504 7.65291 21.6503 6.94922 21.5928C6.2267 21.5337 5.60114 21.4095 5.02539 21.1162C4.1034 20.6464 3.35357 19.8966 2.88379 18.9746C2.59041 18.3988 2.46628 17.7734 2.40723 17.0508C2.34973 16.347 2.3496 15.4757 2.34961 14.3887V9.61133C2.3496 8.52425 2.34973 7.65299 2.40723 6.94922C2.46628 6.22673 2.59044 5.60113 2.88379 5.02539C3.35357 4.10347 4.10345 3.35354 5.02539 2.88379C5.60112 2.59054 6.22673 2.46626 6.94922 2.40723C7.6529 2.34974 8.52348 2.35058 9.61035 2.35059H14.3887ZM11.252 13.373C9.7446 12.0589 7.51451 12.006 5.94727 13.248L4.15039 14.6719C4.15094 15.6385 4.15531 16.3429 4.20117 16.9043C4.25111 17.5153 4.34484 17.8775 4.4873 18.1572C4.78449 18.7405 5.25857 19.2155 5.8418 19.5127C6.1216 19.6553 6.48435 19.7489 7.0957 19.7988C7.71752 19.8496 8.51457 19.8506 9.64941 19.8506H14.3496C15.4844 19.8506 16.2815 19.8496 16.9033 19.7988C17.5147 19.7489 17.8774 19.6553 18.1572 19.5127C18.1857 19.4982 18.2123 19.4802 18.2402 19.4648L11.252 13.373ZM9.64941 4.15039C8.51458 4.15039 7.71752 4.15037 7.0957 4.20117C6.48435 4.25112 6.1216 4.34572 5.8418 4.48828C5.25871 4.78551 4.78443 5.25963 4.4873 5.84277C4.34477 6.12256 4.25111 6.48541 4.20117 7.09668C4.1504 7.71847 4.14941 8.51573 4.14941 9.65039V12.5039L4.8916 11.916C7.10088 10.1651 10.2443 10.2393 12.3691 12.0918L19.4512 18.2656C19.4714 18.2296 19.4929 18.1941 19.5117 18.1572C19.6542 17.8775 19.7479 17.5153 19.7979 16.9043C19.8487 16.2825 19.8496 15.4853 19.8496 14.3506V9.65039C19.8496 8.51572 19.8486 7.71847 19.7979 7.09668C19.7479 6.48536 19.6543 6.12257 19.5117 5.84277C19.2146 5.25958 18.7404 4.7855 18.1572 4.48828C17.8774 4.34572 17.5147 4.25112 16.9033 4.20117C16.2815 4.15038 15.4844 4.15039 14.3496 4.15039H9.64941ZM15.5 6.15039C16.7979 6.15039 17.8496 7.20213 17.8496 8.5C17.8496 9.79787 16.7979 10.8496 15.5 10.8496C14.2021 10.8496 13.1504 9.79787 13.1504 8.5C13.1504 7.20213 14.2021 6.15039 15.5 6.15039ZM15.5 7.84961C15.141 7.84961 14.8496 8.14102 14.8496 8.5C14.8496 8.85899 15.141 9.15039 15.5 9.15039C15.859 9.15039 16.1504 8.85899 16.1504 8.5C16.1504 8.14102 15.859 7.84961 15.5 7.84961Z" fill="currentColor"/>
</svg>
