<svg width="24" height="24" viewBox="0 0 24 24" fill="none" xmlns="http://www.w3.org/2000/svg">
<path d="M5.91016 13.1909C7.49167 11.9792 9.71183 12.0625 11.1982 13.3892L19.502 20.8022C19.3333 20.9168 19.1577 21.0224 18.9746 21.1157C18.3988 21.4091 17.7725 21.5332 17.0498 21.5923C16.3461 21.6498 15.4756 21.6499 14.3887 21.6499H9.61035C8.52345 21.6499 7.65291 21.6498 6.94922 21.5923C6.22661 21.5332 5.6012 21.4091 5.02539 21.1157C4.10353 20.646 3.35358 19.8969 2.88379 18.9751C2.59038 18.3993 2.46627 17.773 2.40723 17.0503C2.37956 16.7116 2.36486 16.3342 2.35742 15.9126L5.91016 13.1909ZM14.3887 2.3501C15.4756 2.35009 16.3461 2.35024 17.0498 2.40771C17.7725 2.46676 18.3988 2.59087 18.9746 2.88428C19.8964 3.35407 20.6455 4.10402 21.1152 5.02588C21.4086 5.60168 21.5328 6.2271 21.5918 6.94971C21.6493 7.6534 21.6494 8.52394 21.6494 9.61084V14.3892C21.6494 15.4761 21.6493 16.3466 21.5918 17.0503C21.5328 17.773 21.4086 18.3993 21.1152 18.9751C21.0011 19.199 20.8692 19.4118 20.7236 19.6138L12.3301 12.1206C10.2347 10.2505 7.10534 10.1331 4.87598 11.8413L2.34961 13.7769V9.61084C2.3496 8.52395 2.34974 7.6534 2.40723 6.94971C2.46626 6.22713 2.59046 5.60166 2.88379 5.02588C3.35357 4.10388 4.1034 3.35406 5.02539 2.88428C5.60117 2.59095 6.22665 2.46675 6.94922 2.40771C7.65291 2.35023 8.52346 2.35009 9.61035 2.3501H14.3887ZM15.5 6.15088C14.2021 6.15088 13.1504 7.20262 13.1504 8.50049C13.1507 9.79813 14.2023 10.8501 15.5 10.8501C16.7977 10.8501 17.8493 9.79813 17.8496 8.50049C17.8496 7.20262 16.7979 6.15088 15.5 6.15088ZM15.5 7.8501C15.859 7.8501 16.1504 8.1415 16.1504 8.50049C16.1501 8.85925 15.8588 9.15088 15.5 9.15088C15.1412 9.15088 14.8499 8.85925 14.8496 8.50049C14.8496 8.1415 15.141 7.8501 15.5 7.8501Z" fill="#0E0E0F"/>
</svg>
