<svg width="24" height="24" viewBox="0 0 24 24" fill="none" xmlns="http://www.w3.org/2000/svg">
<path fill-rule="evenodd" clip-rule="evenodd" d="M3.86725 4.60352C3.4758 4.6035 3.12923 4.60349 2.8421 4.62695C2.53632 4.65193 2.21947 4.70794 1.91101 4.8651C1.45942 5.0952 1.09227 5.46235 0.862175 5.91394C0.705009 6.2224 0.649 6.53925 0.624016 6.84503C0.600557 7.13216 0.600571 7.4786 0.600587 7.87006V16.1369C0.600571 16.5283 0.600557 16.8749 0.624016 17.162C0.649 17.4678 0.705009 17.7846 0.862175 18.0931C1.09227 18.5447 1.45942 18.9118 1.91101 19.1419C2.21947 19.2991 2.53632 19.3551 2.8421 19.3801C3.12923 19.4036 3.47569 19.4035 3.86715 19.4035H20.1339C20.5254 19.4035 20.8719 19.4036 21.1591 19.3801C21.4648 19.3551 21.7817 19.2991 22.0901 19.1419C22.5417 18.9118 22.9089 18.5447 23.139 18.0931C23.2961 17.7846 23.3522 17.4678 23.3771 17.162C23.4006 16.8749 23.4006 16.5284 23.4006 16.1369V7.87018C23.4006 7.47869 23.4006 7.13218 23.3771 6.84503C23.3522 6.53925 23.2961 6.2224 23.139 5.91394C22.9089 5.46235 22.5417 5.0952 22.0901 4.8651C21.7817 4.70794 21.4648 4.65193 21.1591 4.62695C20.8719 4.60349 20.5255 4.6035 20.134 4.60352H3.86725ZM2.40016 6.99797C2.40016 6.6666 2.66879 6.39797 3.00016 6.39797H21.0001C21.3315 6.39797 21.6001 6.6666 21.6001 6.99797V16.998C21.6001 17.3293 21.3315 17.598 21.0001 17.598H3.00016C2.66879 17.598 2.40016 17.3293 2.40016 16.998V6.99797ZM7.00018 8.99982H5.00018V10.9998H7.00018V8.99982ZM11.0002 8.99982H9.00018V10.9998H11.0002V8.99982ZM13.0002 8.99982H15.0002V10.9998H13.0002V8.99982ZM19.0002 8.99982H17.0002V10.9998H19.0002V8.99982ZM5.00018 12.9998H7.00018V14.9998H5.00018V12.9998ZM15.0002 12.9998H9.00018V14.9998H15.0002V12.9998ZM17.0002 12.9998H19.0002V14.9998H17.0002V12.9998Z" fill="#171719"/>
</svg>
