<svg width="24" height="24" viewBox="0 0 24 24" fill="none" xmlns="http://www.w3.org/2000/svg">
<path fill-rule="evenodd" clip-rule="evenodd" d="M5.67831 5.04996C7.32674 3.08801 9.66306 2.09961 11.9968 2.09961C14.3302 2.09961 16.6568 3.07779 18.3156 5.05031C21.1805 8.45666 20.7357 13.4824 17.6543 16.5749L17.6532 16.576C15.9046 18.3246 13.8924 20.45 13.0482 21.3417C12.9906 21.4025 12.9385 21.4576 12.8922 21.5064C12.407 22.024 11.5866 22.024 11.1014 21.5064C11.0551 21.4576 11.003 21.4025 10.9454 21.3417C10.1012 20.45 8.08902 18.3246 6.34039 16.576L6.33925 16.5749C3.25862 13.4831 2.81228 8.44716 5.67831 5.04996ZM11.9968 3.89961C10.1708 3.89961 8.34745 4.67095 7.05592 6.20848L7.05461 6.21003C4.84153 8.83263 5.13515 12.8157 7.61375 15.3038C9.22205 16.9121 11.0464 18.831 11.9968 19.8341C12.9472 18.831 14.7715 16.9122 16.3798 15.3038C18.8579 12.8163 19.1529 8.84238 16.938 6.20891C15.6367 4.66147 13.8233 3.89961 11.9968 3.89961ZM11.9968 9.35961C11.4538 9.35961 11.0168 9.79667 11.0168 10.3396C11.0168 10.8826 11.4538 11.3196 11.9968 11.3196C12.5397 11.3196 12.9768 10.8826 12.9768 10.3396C12.9768 9.79667 12.5397 9.35961 11.9968 9.35961ZM9.21678 10.3396C9.21678 8.80255 10.4597 7.55961 11.9968 7.55961C13.5338 7.55961 14.7768 8.80255 14.7768 10.3396C14.7768 11.8767 13.5338 13.1196 11.9968 13.1196C10.4597 13.1196 9.21678 11.8767 9.21678 10.3396Z" fill="#51535A"/>
</svg>
