<svg width="24" height="24" viewBox="0 0 24 24" fill="none" xmlns="http://www.w3.org/2000/svg">
<path fill-rule="evenodd" clip-rule="evenodd" d="M20.3172 4.99222C21.2331 5.23717 21.9573 5.96137 22.2023 6.87727C22.6496 8.53867 22.6496 11.9999 22.6496 11.9999C22.6496 11.9999 22.6496 15.4612 22.2023 17.1226C21.9573 18.0385 21.2331 18.7627 20.3172 19.0076C18.6558 19.4549 11.9996 19.4549 11.9996 19.4549C11.9996 19.4549 5.34336 19.4549 3.68196 19.0076C2.76606 18.7627 2.04186 18.0385 1.79691 17.1226C1.34961 15.4612 1.34961 11.9999 1.34961 11.9999C1.34961 11.9999 1.34961 8.53867 1.79691 6.87727C2.04186 5.96137 2.76606 5.23717 3.68196 4.99222C5.34336 4.54492 11.9996 4.54492 11.9996 4.54492C11.9996 4.54492 18.6558 4.54492 20.3172 4.99222ZM9.86962 8.80518V15.1952L15.4076 12.0002L9.86962 8.80518Z" fill="#171719"/>
</svg>
