<svg width="24" height="24" viewBox="0 0 24 24" fill="none" xmlns="http://www.w3.org/2000/svg">
<path fill-rule="evenodd" clip-rule="evenodd" d="M12.5107 2.43228L18.3469 2.43221C18.6202 2.43218 18.8805 2.43216 19.0997 2.45007C19.3388 2.46961 19.6131 2.51517 19.8872 2.65483C20.2715 2.85065 20.5839 3.16312 20.7798 3.54744C20.9194 3.82154 20.965 4.09579 20.9845 4.33488C21.0024 4.55412 21.0024 4.8143 21.0024 5.08767L21.0024 18.9118C21.0024 19.1852 21.0024 19.4454 20.9845 19.6646C20.965 19.9037 20.9194 20.178 20.7798 20.4521C20.5839 20.8364 20.2715 21.1489 19.8872 21.3447C19.6131 21.4844 19.3388 21.5299 19.0997 21.5495C18.8805 21.5674 18.6203 21.5673 18.3469 21.5673L12.5107 21.5674L12.5107 19.6324L18.9595 19.6323C19.0189 19.6323 19.067 19.5842 19.067 19.5248L19.067 4.47472C19.067 4.41535 19.0189 4.36722 18.9595 4.36722L12.5107 4.36729L12.5107 2.43228Z" fill="currentColor"/>
<path d="M10.8262 17.2744C10.4371 16.9082 10.4186 16.2959 10.7848 15.9068L13.5501 12.9686L3.42662 12.9686C2.89229 12.9686 2.45912 12.5354 2.45912 12.0011C2.45912 11.4668 2.89229 11.0336 3.42662 11.0336L13.5501 11.0336L10.7848 8.09544C10.4186 7.70634 10.4371 7.09403 10.8262 6.72781C11.2153 6.3616 11.8277 6.38015 12.1939 6.76926L16.4939 11.338C16.8445 11.7106 16.8445 12.2917 16.4939 12.6642L12.1939 17.233C11.8277 17.6221 11.2153 17.6406 10.8262 17.2744Z" fill="currentColor"/>
</svg>
