<svg className={className} viewBox="0 0 24 24" fill="none" xmlns="http://www.w3.org/2000/svg">
<path fill-rule="evenodd" clip-rule="evenodd" d="M10.9414 2.43228L5.10528 2.43221C4.8319 2.43218 4.57167 2.43216 4.35243 2.45007C4.11334 2.46961 3.83909 2.51517 3.56499 2.65483C3.18067 2.85065 2.86821 3.16312 2.67239 3.54744C2.53273 3.82154 2.48716 4.09579 2.46763 4.33488C2.44972 4.55412 2.44974 4.8143 2.44977 5.08767L2.44977 18.9118C2.44974 19.1852 2.44971 19.4454 2.46763 19.6646C2.48716 19.9037 2.53273 20.178 2.67239 20.4521C2.86821 20.8364 3.18067 21.1489 3.56499 21.3447C3.83909 21.4844 4.11333 21.5299 4.35243 21.5495C4.57168 21.5674 4.83188 21.5673 5.10528 21.5673L10.9414 21.5674L10.9414 19.6324L4.49261 19.6323C4.43324 19.6323 4.38511 19.5842 4.38511 19.5248L4.38511 4.47472C4.38511 4.41535 4.43324 4.36722 4.49261 4.36722L10.9414 4.36729L10.9414 2.43228Z" fill="currentColor"/>
<path d="M15.0694 17.2744C14.6803 16.9082 14.6617 16.2959 15.028 15.9068L17.7933 12.9686L7.66978 12.9686C7.13545 12.9686 6.70228 12.5354 6.70228 12.0011C6.70228 11.4668 7.13545 11.0336 7.66978 11.0336L17.7933 11.0336L15.028 8.09544C14.6617 7.70634 14.6803 7.09403 15.0694 6.72781C15.4585 6.3616 16.0708 6.38015 16.437 6.76926L20.737 11.338C21.0877 11.7106 21.0877 12.2917 20.737 12.6642L16.437 17.233C16.0708 17.6221 15.4585 17.6406 15.0694 17.2744Z" fill="currentColor"/>
</svg>
