<svg width="24" height="24" viewBox="0 0 24 24" fill="none" xmlns="http://www.w3.org/2000/svg">
<path fill-rule="evenodd" clip-rule="evenodd" d="M14.3885 2.3501H9.61063C8.52357 2.35009 7.65287 2.35008 6.94911 2.40758C6.22645 2.46663 5.60089 2.59076 5.02504 2.88417C4.10305 3.35395 3.35345 4.10355 2.88368 5.02555C2.59027 5.60139 2.46614 6.22695 2.4071 6.94962C2.3496 7.65338 2.3496 8.52406 2.34961 9.61112V14.389C2.3496 15.4761 2.3496 16.3468 2.4071 17.0506C2.46614 17.7732 2.59027 18.3988 2.88368 18.9747C3.35345 19.8966 4.10305 20.6462 5.02504 21.116C5.60089 21.4094 6.22645 21.5336 6.94911 21.5926C7.65286 21.6501 8.52351 21.6501 9.61054 21.6501H14.3885C15.4755 21.6501 16.3463 21.6501 17.05 21.5926C17.7727 21.5336 18.3982 21.4094 18.9741 21.116C19.8961 20.6462 20.6457 19.8966 21.1155 18.9747C21.4089 18.3988 21.533 17.7732 21.592 17.0506C21.6495 16.3468 21.6495 15.4761 21.6495 14.3891V9.61115C21.6495 8.52407 21.6495 7.65339 21.592 6.94962C21.533 6.22695 21.4089 5.60139 21.1155 5.02555C20.6457 4.10355 19.8961 3.35395 18.9741 2.88417C18.3982 2.59076 17.7727 2.46663 17.05 2.40758C16.3463 2.35008 15.4756 2.35009 14.3885 2.3501ZM6.54944 7.84952C6.54944 8.56716 7.12996 9.14895 7.84897 9.14895C8.56504 9.14895 9.14555 8.56421 9.14555 7.84952C9.14555 7.13189 8.56504 6.5501 7.84897 6.5501C7.12996 6.5501 6.54944 7.13189 6.54944 7.84952ZM6.7292 17.3501H8.96875V10.1324H6.7292V17.3501ZM17.3494 17.3501H15.1128V13.8416C15.1128 13.0059 15.098 11.9279 13.9488 11.9279C12.7848 11.9279 12.608 12.8405 12.608 13.7826V17.3501H10.3744V10.1324H12.5196V11.1188H12.5491C12.8467 10.5517 13.5775 9.95223 14.6649 9.95223C16.9309 9.95223 17.3494 11.4466 17.3494 13.3898V17.3501Z" fill="#171719"/>
</svg>
