<svg width="24" height="24" viewBox="0 0 24 24" fill="none" xmlns="http://www.w3.org/2000/svg">
<path fill-rule="evenodd" clip-rule="evenodd" d="M8.89963 6.88895C8.89963 5.26198 10.2635 3.90009 11.9996 3.90009C13.7358 3.90009 15.0996 5.26198 15.0996 6.88895V10.1002L8.89963 10.1003V6.88895ZM7.09963 10.1002V6.88895C7.09963 4.2204 9.31751 2.1001 11.9996 2.1001C14.6817 2.1001 16.8996 4.2204 16.8996 6.88895V10.1002C17.0762 10.1002 17.2528 10.1002 17.4294 10.1002C17.6837 10.1001 17.9257 10.1001 18.1297 10.1168C18.3521 10.1349 18.6072 10.1773 18.8622 10.3072C19.2197 10.4894 19.5104 10.7801 19.6925 11.1376C19.8224 11.3925 19.8648 11.6477 19.883 11.8701C19.8997 12.074 19.8996 12.3161 19.8996 12.5704V19.4299C19.8996 19.6842 19.8997 19.9262 19.883 20.1302C19.8648 20.3526 19.8224 20.6077 19.6925 20.8627C19.5104 21.2202 19.2197 21.5109 18.8622 21.693C18.6072 21.8229 18.3521 21.8653 18.1297 21.8835C17.9257 21.9002 17.6837 21.9001 17.4294 21.9001H6.56985C6.31553 21.9001 6.07349 21.9002 5.86953 21.8835C5.64712 21.8653 5.39201 21.8229 5.13703 21.693C4.77952 21.5109 4.48886 21.2202 4.3067 20.8627C4.17678 20.6077 4.1344 20.3526 4.11623 20.1302C4.09956 19.9262 4.09959 19.6842 4.09961 19.4299L4.09961 12.6002L4.09961 12.5704C4.09959 12.3161 4.09956 12.074 4.11623 11.8701C4.1344 11.6477 4.17678 11.3925 4.3067 11.1376C4.48886 10.7801 4.77952 10.4894 5.13703 10.3072C5.39201 10.1773 5.64712 10.1349 5.86953 10.1168C6.07347 10.1001 6.3155 10.1001 6.5698 10.1002C6.74639 10.1002 6.92304 10.1002 7.09963 10.1002Z" fill="#171719"/>
</svg>
