<svg width="24" height="24" viewBox="0 0 24 24" fill="none" xmlns="http://www.w3.org/2000/svg">
<path d="M14.4299 4.57789C14.4299 3.25711 13.359 2.18994 12.0405 2.18994C11.0617 2.18994 10.1818 2.78693 9.82017 3.69648L7.02988 10.7138V21.8052L18.1349 21.8052C18.3513 21.8052 18.5604 21.8052 18.7387 21.7918C18.9355 21.7769 19.1583 21.7425 19.3873 21.6403C19.7131 21.495 19.9913 21.2609 20.1903 20.9648C20.3301 20.7567 20.4022 20.5431 20.4505 20.3517C20.4943 20.1783 20.5301 19.9723 20.5671 19.7591L21.618 13.71C21.7242 13.0985 21.8138 12.5829 21.8501 12.1589C21.8879 11.7177 21.8788 11.2795 21.7216 10.8499C21.4876 10.2106 21.0362 9.67395 20.4463 9.334C20.05 9.10554 19.6199 9.02162 19.1787 8.98334C18.7547 8.94654 18.2314 8.94656 17.6106 8.94657L14.4299 8.94657V4.57789Z" fill="#171719"/>
<path d="M5.22989 21.8052V10.8018L3.80779 10.8018C3.68755 10.8017 3.54924 10.8017 3.4282 10.8116C3.28917 10.8229 3.0958 10.8517 2.8943 10.9544C2.63088 11.0886 2.4167 11.3028 2.28248 11.5662C2.17981 11.7677 2.15105 11.961 2.13969 12.1001C2.1298 12.2211 2.12985 12.3594 2.12989 12.4797L2.1299 20.1273C2.12986 20.2475 2.12981 20.3858 2.1397 20.5069C2.15106 20.6459 2.17982 20.8393 2.28249 21.0408C2.41671 21.3042 2.63089 21.5183 2.89431 21.6526C3.09581 21.7552 3.28918 21.784 3.42821 21.7954C3.54923 21.8052 3.6875 21.8052 3.80773 21.8052H5.22989Z" fill="#171719"/>
</svg>
