<svg width="24" height="24" viewBox="0 0 24 24" fill="none" xmlns="http://www.w3.org/2000/svg">
<path fill-rule="evenodd" clip-rule="evenodd" d="M5.50521 4.08008H18.494C20.375 4.08008 21.8996 5.60468 21.8996 7.48568V15.5443C21.8996 17.4253 20.375 18.9499 18.494 18.9499H13.8707L12.3065 21.6526C12.1679 21.9001 11.8016 21.9001 11.663 21.6526L10.0988 18.9499H5.50521C3.62421 18.9499 2.09961 17.4253 2.09961 15.5443V7.48568C2.09961 5.60468 3.62421 4.08008 5.50521 4.08008ZM6.70307 13.7623C6.32687 13.7623 5.98037 13.6039 5.70317 13.3366V13.6633H4.58447V8.73306H5.70317V10.2973C5.98037 10.03 6.31697 9.87156 6.70307 9.87156C7.73267 9.87156 8.57417 10.7428 8.57417 11.8219C8.57417 12.901 7.73267 13.7623 6.70307 13.7623ZM10.3859 13.6633H9.25727V10.426C9.25727 9.88146 8.96027 9.62406 8.65337 9.61416V8.61426C9.40577 8.66376 10.3859 9.15876 10.3859 10.4161V13.6633ZM12.9698 13.7623C11.8907 13.7623 11.0195 12.8911 11.0195 11.812C11.0195 10.7329 11.8907 9.86166 12.9698 9.86166C14.0489 9.86166 14.9201 10.7329 14.9201 11.812C14.9201 12.8911 14.0489 13.7623 12.9698 13.7623ZM19.4048 13.3861C19.4048 14.8909 18.2564 15.2176 17.4644 15.2473V14.2573C18.1772 14.2177 18.3356 13.8712 18.3257 13.2475V13.1782C18.0485 13.4554 17.6921 13.6237 17.2961 13.6237C16.2665 13.6237 15.425 12.7822 15.425 11.7526C15.425 10.723 16.2665 9.88146 17.2961 9.88146C17.6921 9.88146 18.0485 10.0498 18.3257 10.327V9.99036H19.4048V13.3861ZM18.3851 11.7426C18.3851 12.2475 17.9594 12.6633 17.4347 12.6633C16.91 12.6633 16.4843 12.2475 16.4843 11.7426C16.4843 11.2377 16.91 10.8219 17.4347 10.8219C17.9594 10.8219 18.3851 11.2377 18.3851 11.7426ZM7.53471 11.8218C7.53471 12.3465 7.10901 12.7821 6.57441 12.7821C6.03981 12.7821 5.61411 12.3564 5.61411 11.8218C5.61411 11.2872 6.03981 10.8615 6.57441 10.8615C7.10901 10.8615 7.53471 11.2872 7.53471 11.8218ZM13.8905 11.8218C13.8905 12.3267 13.4747 12.7425 12.9698 12.7425C12.4649 12.7425 12.0491 12.3267 12.0491 11.8218C12.0491 11.3169 12.4649 10.9011 12.9698 10.9011C13.4747 10.9011 13.8905 11.3169 13.8905 11.8218Z" fill="#171719"/>
</svg>
