<svg width="24" height="24" viewBox="0 0 24 24" fill="none" xmlns="http://www.w3.org/2000/svg">
<path fill-rule="evenodd" clip-rule="evenodd" d="M9.94961 1.85059H9.9142H9.91418C9.38432 1.85057 8.93315 1.85056 8.56272 1.88083C8.17356 1.91262 7.79497 1.98225 7.43304 2.16667C6.88737 2.4447 6.44372 2.88835 6.16569 3.43402C5.98128 3.79595 5.91164 4.17454 5.87985 4.5637C5.84958 4.93413 5.8496 5.3853 5.84961 5.91516V5.91519V5.95059V18.0506V18.086V18.086C5.8496 18.6159 5.84958 19.067 5.87985 19.4375C5.91164 19.8266 5.98128 20.2052 6.16569 20.5672C6.44372 21.1128 6.88737 21.5565 7.43304 21.8345C7.79497 22.0189 8.17356 22.0886 8.56272 22.1203C8.93315 22.1506 9.38432 22.1506 9.91418 22.1506H9.9142H9.94961H14.0496H14.085H14.085C14.6149 22.1506 15.0661 22.1506 15.4365 22.1203C15.8256 22.0886 16.2042 22.0189 16.5662 21.8345C17.1118 21.5565 17.5555 21.1128 17.8335 20.5672C18.0179 20.2052 18.0876 19.8266 18.1194 19.4375C18.1496 19.067 18.1496 18.6159 18.1496 18.086V18.0506V5.95059V5.91518C18.1496 5.38531 18.1496 4.93413 18.1194 4.5637C18.0876 4.17454 18.0179 3.79595 17.8335 3.43402C17.5555 2.88835 17.1118 2.4447 16.5662 2.16667C16.2042 1.98225 15.8256 1.91262 15.4365 1.88083C15.0661 1.85056 14.6149 1.85057 14.085 1.85059H14.085H14.0496H9.94961ZM8.25022 3.77048C8.31611 3.73691 8.43145 3.69755 8.7093 3.67485C8.99765 3.65129 9.3747 3.65059 9.94961 3.65059H14.0496C14.6245 3.65059 15.0016 3.65129 15.2899 3.67485C15.5678 3.69755 15.6831 3.73691 15.749 3.77048C15.956 3.87594 16.1242 4.04422 16.2297 4.2512C16.2633 4.31709 16.3026 4.43243 16.3253 4.71028C16.3489 4.99863 16.3496 5.37568 16.3496 5.95059V18.0506C16.3496 18.6255 16.3489 19.0025 16.3253 19.2909C16.3026 19.5687 16.2633 19.6841 16.2297 19.75C16.1242 19.957 15.956 20.1252 15.749 20.2307C15.6831 20.2643 15.5678 20.3036 15.2899 20.3263C15.0016 20.3499 14.6245 20.3506 14.0496 20.3506H9.94961C9.3747 20.3506 8.99765 20.3499 8.7093 20.3263C8.43145 20.3036 8.31611 20.2643 8.25022 20.2307C8.04324 20.1252 7.87496 19.957 7.7695 19.75C7.73593 19.6841 7.69657 19.5687 7.67387 19.2909C7.65031 19.0025 7.64961 18.6255 7.64961 18.0506V5.95059C7.64961 5.37568 7.65031 4.99863 7.67387 4.71028C7.69657 4.43243 7.73593 4.31709 7.7695 4.2512C7.87496 4.04422 8.04324 3.87594 8.25022 3.77048ZM9.99956 17.8248C9.62677 17.8248 9.32456 18.127 9.32456 18.4998C9.32456 18.8726 9.62677 19.1748 9.99956 19.1748H13.9996C14.3723 19.1748 14.6746 18.8726 14.6746 18.4998C14.6746 18.127 14.3723 17.8248 13.9996 17.8248H9.99956Z" fill="#171719"/>
</svg>
