<svg width="24" height="24" viewBox="0 0 24 24" fill="none" xmlns="http://www.w3.org/2000/svg">
<path fill-rule="evenodd" clip-rule="evenodd" d="M4.09961 2.49961C4.09961 2.00255 4.50255 1.59961 4.99961 1.59961C5.49666 1.59961 5.89961 2.00255 5.89961 2.49961C5.89961 3.38725 6.05916 3.69262 6.18288 3.81634C6.3066 3.94006 6.61196 4.09961 7.4996 4.09961C7.99666 4.09961 8.3996 4.50255 8.3996 4.99961C8.3996 5.49667 7.99666 5.89961 7.4996 5.89961C6.61196 5.89961 6.3066 6.05916 6.18288 6.18288C6.05916 6.3066 5.89961 6.61197 5.89961 7.49961C5.89961 7.99667 5.49666 8.39961 4.99961 8.39961C4.50255 8.39961 4.09961 7.99667 4.09961 7.49961C4.09961 6.61197 3.94006 6.3066 3.81634 6.18288C3.69262 6.05916 3.38725 5.89961 2.49961 5.89961C2.00255 5.89961 1.59961 5.49667 1.59961 4.99961C1.59961 4.50255 2.00255 4.09961 2.49961 4.09961C3.38725 4.09961 3.69262 3.94006 3.81634 3.81634C3.94006 3.69262 4.09961 3.38725 4.09961 2.49961ZM17.4998 3.59976C17.0028 3.59976 16.5998 4.0027 16.5998 4.49976C16.5998 5.1999 16.4715 5.38026 16.4259 5.42586C16.3804 5.47145 16.2 5.59976 15.4998 5.59976C15.0028 5.59976 14.5998 6.0027 14.5998 6.49976C14.5998 6.99681 15.0028 7.39976 15.4998 7.39976C16.2 7.39976 16.3804 7.52806 16.4259 7.57365C16.4715 7.61925 16.5998 7.79961 16.5998 8.49976C16.5998 8.99681 17.0028 9.39976 17.4998 9.39976C17.9969 9.39976 18.3998 8.99681 18.3998 8.49976C18.3998 7.79961 18.5281 7.61925 18.5737 7.57365C18.6193 7.52806 18.7997 7.39976 19.4998 7.39976C19.9969 7.39976 20.3998 6.99681 20.3998 6.49976C20.3998 6.0027 19.9969 5.59976 19.4998 5.59976C18.7997 5.59976 18.6193 5.47145 18.5737 5.42586C18.5281 5.38026 18.3998 5.1999 18.3998 4.49976C18.3998 4.0027 17.9969 3.59976 17.4998 3.59976ZM6.49985 14.5998C6.00279 14.5998 5.59985 15.0027 5.59985 15.4998C5.59985 16.1999 5.47155 16.3803 5.42595 16.4259C5.38036 16.4715 5.19999 16.5998 4.49985 16.5998C4.0028 16.5998 3.59985 17.0027 3.59985 17.4998C3.59985 17.9968 4.0028 18.3998 4.49985 18.3998C5.19999 18.3998 5.38036 18.5281 5.42595 18.5737C5.47155 18.6192 5.59985 18.7996 5.59985 19.4998C5.59985 19.9968 6.00279 20.3998 6.49985 20.3998C6.99691 20.3998 7.39985 19.9968 7.39985 19.4998C7.39985 18.7996 7.52815 18.6192 7.57374 18.5737C7.61934 18.5281 7.79971 18.3998 8.49985 18.3998C8.9969 18.3998 9.39985 17.9968 9.39985 17.4998C9.39985 17.0027 8.9969 16.5998 8.49985 16.5998C7.79971 16.5998 7.61934 16.4715 7.57374 16.4259C7.52815 16.3803 7.39985 16.1999 7.39985 15.4998C7.39985 15.0027 6.99691 14.5998 6.49985 14.5998Z" fill="#171719"/>
<path fill-rule="evenodd" clip-rule="evenodd" d="M10.8433 7.71128C10.3116 7.44779 9.68737 7.4478 9.15573 7.71133C8.87012 7.85289 8.62954 8.09507 8.42144 8.30454L8.30456 8.42143C8.09514 8.62952 7.85302 8.87011 7.71149 9.15571C7.44804 9.68732 7.44805 10.3115 7.71153 10.8431C7.85308 11.1287 8.09521 11.3693 8.30464 11.5773L17.4214 20.6942C17.6296 20.9037 17.8702 21.1459 18.1559 21.2875C18.6874 21.5509 19.3116 21.5509 19.8431 21.2875C20.1288 21.1459 20.3694 20.9037 20.5776 20.6943L20.6945 20.5774C20.904 20.3692 21.1462 20.1286 21.2877 19.8429C21.5511 19.3114 21.5511 18.6872 21.2877 18.1557C21.1462 17.87 20.904 17.6294 20.6945 17.4213L11.5776 8.30444C11.3695 8.09499 11.1289 7.85283 10.8433 7.71128ZM9.92881 9.34293C9.96786 9.30387 10.0312 9.30387 10.0702 9.34292L14.363 13.6356L13.6359 14.3628L9.34317 10.07C9.30412 10.031 9.30412 9.96768 9.34317 9.92863L9.92881 9.34293Z" fill="#171719"/>
</svg>
