<svg width="24" height="24" viewBox="0 0 24 24" fill="none" xmlns="http://www.w3.org/2000/svg">
<path d="M2.75098 5C2.75098 4.30964 3.31062 3.75 4.00098 3.75H20.001C20.6913 3.75 21.251 4.30964 21.251 5C21.251 5.69036 20.6913 6.25 20.001 6.25H4.00098C3.31062 6.25 2.75098 5.69036 2.75098 5Z" fill="#171719"/>
<path d="M2.75098 19C2.75098 18.3096 3.31062 17.75 4.00098 17.75H20.001C20.6913 17.75 21.251 18.3096 21.251 19C21.251 19.6904 20.6913 20.25 20.001 20.25H4.00098C3.31062 20.25 2.75098 19.6904 2.75098 19Z" fill="#171719"/>
<path d="M4.00098 10.75C3.31062 10.75 2.75098 11.3096 2.75098 12C2.75098 12.6904 3.31062 13.25 4.00098 13.25H20.001C20.6913 13.25 21.251 12.6904 21.251 12C21.251 11.3096 20.6913 10.75 20.001 10.75H4.00098Z" fill="#171719"/>
</svg>
