<svg width="24" height="24" viewBox="0 0 24 24" fill="none" xmlns="http://www.w3.org/2000/svg">
<path fill-rule="evenodd" clip-rule="evenodd" d="M4.32083 3.85498C4.06651 3.85496 3.82446 3.85493 3.6205 3.8716C3.39809 3.88977 3.14298 3.93215 2.88801 4.06207C2.5305 4.24423 2.23984 4.53489 2.05768 4.8924C1.92776 5.14738 1.88537 5.40249 1.8672 5.6249C1.85054 5.82886 1.85056 6.0709 1.85059 6.32523V17.6847C1.85056 17.9391 1.85054 18.1811 1.8672 18.3851C1.88537 18.6075 1.92776 18.8626 2.05768 19.1176C2.23984 19.4751 2.5305 19.7657 2.88801 19.9479C3.14298 20.0778 3.39809 20.1202 3.6205 20.1384C3.82446 20.155 4.06651 20.155 4.32083 20.155H19.6803C19.9347 20.155 20.1767 20.155 20.3807 20.1384C20.6031 20.1202 20.8582 20.0778 21.1132 19.9479C21.4707 19.7657 21.7613 19.4751 21.9435 19.1176C22.0734 18.8626 22.1158 18.6075 22.134 18.3851C22.1506 18.1811 22.1506 17.9391 22.1506 17.6848V6.32522C22.1506 6.07092 22.1506 5.82884 22.134 5.6249C22.1158 5.40249 22.0734 5.14738 21.9435 4.8924C21.7613 4.53489 21.4707 4.24423 21.1132 4.06207C20.8582 3.93215 20.6031 3.88977 20.3807 3.8716C20.1767 3.85493 19.9347 3.85496 19.6803 3.85498H4.32083ZM3.65023 5.74667C3.65023 5.69144 3.695 5.64667 3.75023 5.64667H20.2502C20.3055 5.64667 20.3502 5.69144 20.3502 5.74667V18.2467C20.3502 18.3019 20.3055 18.3467 20.2502 18.3467H3.75023C3.69501 18.3467 3.65023 18.3019 3.65023 18.2467V5.74667ZM6.80449 7.5415C6.41293 7.23532 5.8473 7.30455 5.54113 7.69612C5.23495 8.08768 5.30418 8.65331 5.69575 8.95948L12.0057 13.8933L18.3051 8.959C18.6964 8.6525 18.7651 8.08681 18.4586 7.69551C18.1521 7.3042 17.5864 7.23546 17.1951 7.54197L12.0047 11.6076L6.80449 7.5415Z" fill="#171719"/>
</svg>
