<svg width="24" height="24" viewBox="0 0 24 24" fill="none" xmlns="http://www.w3.org/2000/svg">
<path d="M3.10059 5.0001C3.10059 4.50304 3.50353 4.1001 4.00059 4.1001H20.0006C20.4976 4.1001 20.9006 4.50304 20.9006 5.0001C20.9006 5.49715 20.4976 5.9001 20.0006 5.9001H4.00059C3.50353 5.9001 3.10059 5.49715 3.10059 5.0001Z" fill="#171719"/>
<path d="M3.10059 19.0001C3.10059 18.503 3.50353 18.1001 4.00059 18.1001H20.0006C20.4976 18.1001 20.9006 18.503 20.9006 19.0001C20.9006 19.4972 20.4976 19.9001 20.0006 19.9001H4.00059C3.50353 19.9001 3.10059 19.4972 3.10059 19.0001Z" fill="#171719"/>
<path d="M4.00059 11.1001C3.50353 11.1001 3.10059 11.503 3.10059 12.0001C3.10059 12.4972 3.50353 12.9001 4.00059 12.9001H20.0006C20.4976 12.9001 20.9006 12.4972 20.9006 12.0001C20.9006 11.503 20.4976 11.1001 20.0006 11.1001H4.00059Z" fill="#171719"/>
</svg>
