<svg width="24" height="24" viewBox="0 0 24 24" fill="none" xmlns="http://www.w3.org/2000/svg">
<path d="M12.0002 1.9502C12.7182 1.9502 13.3002 2.53223 13.3002 3.2502V10.7002H20.7502C21.4681 10.7002 22.0502 11.2822 22.0502 12.0002C22.0502 12.7182 21.4681 13.3002 20.7502 13.3002H13.3002V20.7502C13.3002 21.4682 12.7182 22.0502 12.0002 22.0502C11.2822 22.0502 10.7002 21.4682 10.7002 20.7502V13.3002H3.25019C2.53222 13.3002 1.9502 12.7182 1.9502 12.0002C1.9502 11.2822 2.53222 10.7002 3.25019 10.7002H10.7002V3.2502C10.7002 2.53223 11.2822 1.9502 12.0002 1.9502Z" fill="#171719"/>
</svg>
