<svg width="24" height="24" viewBox="0 0 24 24" fill="none" xmlns="http://www.w3.org/2000/svg">
<path fill-rule="evenodd" clip-rule="evenodd" d="M15 5.9001C13.8402 5.9001 12.9 6.8403 12.9 8.0001C12.9 9.1599 13.8402 10.1001 15 10.1001C16.1598 10.1001 17.1 9.1599 17.1 8.0001C17.1 6.8403 16.1598 5.9001 15 5.9001ZM11.1 8.0001C11.1 5.84619 12.8461 4.1001 15 4.1001C17.1539 4.1001 18.9 5.84619 18.9 8.0001C18.9 10.154 17.1539 11.9001 15 11.9001C12.8461 11.9001 11.1 10.154 11.1 8.0001ZM10.5494 16.1157C9.44358 16.8529 8.89994 17.7725 8.89994 18.6667C8.89994 18.8105 8.89903 18.9544 8.90176 19.0982C12.8671 19.1733 16.8343 19.1 20.7999 19.1C20.8993 19.1 20.9987 19.1001 21.0981 19.0982C21.1008 18.9544 21.0999 18.8105 21.0999 18.6667C21.0999 17.7725 20.5563 16.8529 19.4504 16.1157C18.3509 15.3826 16.78 14.9 14.9999 14.9C13.2198 14.9 11.649 15.3826 10.5494 16.1157ZM9.55096 14.618C10.9849 13.662 12.914 13.1 14.9999 13.1C17.0858 13.1 19.015 13.662 20.4489 14.618C21.8766 15.5698 22.8999 16.9835 22.8999 18.6667C22.8999 18.8996 22.9057 19.1336 22.8867 19.3659C22.872 19.5466 22.8364 19.7708 22.7201 19.9991C22.5619 20.3096 22.3095 20.562 21.999 20.7202C21.7708 20.8365 21.5465 20.872 21.3658 20.8868C21.2034 20.9001 21.0134 20.9 20.8267 20.9H9.17316C8.98651 20.9 8.79649 20.9001 8.63406 20.8868C8.45333 20.872 8.2291 20.8365 8.00086 20.7202C7.69039 20.562 7.43797 20.3096 7.27978 19.9991C7.16349 19.7708 7.12792 19.5466 7.11315 19.3659C7.09417 19.1336 7.09994 18.8996 7.09994 18.6667C7.09994 16.9835 8.12331 15.5698 9.55096 14.618ZM2.96494 15.7276C4.00607 15.0335 5.38403 14.6242 6.8674 14.6012C6.38133 15.1677 5.97481 15.8132 5.69765 16.5308C5.01777 16.6716 4.42526 16.9174 3.9634 17.2253C3.21948 17.7212 2.8997 18.3076 2.8997 18.8335C2.8997 18.9218 2.89959 19.0102 2.90105 19.0986C3.70103 19.1118 4.5012 19.0999 5.30123 19.0999C5.30318 19.2303 5.3079 19.375 5.31913 19.5125C5.34299 19.8045 5.40884 20.292 5.67597 20.8163C5.6903 20.8444 5.70499 20.8723 5.72004 20.8999L3.1414 20.8999C2.9688 20.8999 2.79299 20.9 2.64243 20.8886C2.4753 20.8759 2.26744 20.8455 2.05277 20.7455C1.70089 20.5815 1.41809 20.2987 1.25412 19.9468C1.15408 19.7322 1.12369 19.5243 1.11104 19.3572C1.09786 19.183 1.09969 19.008 1.0997 18.8335C1.0997 17.5185 1.89921 16.4381 2.96494 15.7276ZM5.39982 10C5.39982 9.39249 5.89231 8.9 6.49982 8.9C7.10733 8.9 7.59982 9.39249 7.59982 10C7.59982 10.6075 7.10733 11.1 6.49982 11.1C5.89231 11.1 5.39982 10.6075 5.39982 10ZM6.49982 7.1C4.8982 7.1 3.59982 8.39837 3.59982 10C3.59982 11.6016 4.8982 12.9 6.49982 12.9C8.10145 12.9 9.39982 11.6016 9.39982 10C9.39982 8.39837 8.10145 7.1 6.49982 7.1Z" fill="#171719"/>
</svg>
