<svg width="24" height="24" viewBox="0 0 24 24" fill="none" xmlns="http://www.w3.org/2000/svg">
<path fill-rule="evenodd" clip-rule="evenodd" d="M15 4.1001C12.8461 4.1001 11.1 5.84619 11.1 8.0001C11.1 10.154 12.8461 11.9001 15 11.9001C17.1539 11.9001 18.9 10.154 18.9 8.0001C18.9 5.84619 17.1539 4.1001 15 4.1001ZM14.9999 13.6C12.914 13.6 10.9848 14.162 9.5509 15.118C8.12325 16.0698 7.09988 17.4835 7.09988 19.1667L7.09987 19.1838C7.09979 19.2413 7.09969 19.3198 7.10616 19.3938C7.17595 20.1915 7.80839 20.8239 8.60607 20.8937C8.68005 20.9002 8.75855 20.9001 8.81606 20.9L8.83321 20.9H21.1665L21.1836 20.9C21.2411 20.9001 21.3197 20.9002 21.3937 20.8937C22.1914 20.8239 22.8238 20.1915 22.8936 19.3938C22.9001 19.3198 22.9 19.2413 22.8999 19.1838L22.8999 19.1667C22.8999 17.4835 21.8765 16.0698 20.4488 15.118C19.0149 14.162 17.0858 13.6 14.9999 13.6ZM5.29996 19.1667C5.29996 17.5554 5.93843 16.1839 6.86746 15.1011C5.38403 15.1241 4.00601 15.5335 2.96484 16.2276C1.89912 16.938 1.09961 18.0184 1.09961 19.3334C1.09961 20.1985 1.80092 20.8999 2.66603 20.8999H5.7196C5.49795 20.4932 5.3556 20.0366 5.31309 19.5507C5.29862 19.3853 5.29966 19.2162 5.29992 19.1745L5.29996 19.1667ZM3.59972 10C3.59972 8.39837 4.89809 7.1 6.49972 7.1C8.10134 7.1 9.39972 8.39837 9.39972 10C9.39972 11.6016 8.10134 12.9 6.49972 12.9C4.89809 12.9 3.59972 11.6016 3.59972 10Z" fill="#171719"/>
</svg>
