<svg width="24" height="24" viewBox="0 0 24 24" fill="none" xmlns="http://www.w3.org/2000/svg">
<path d="M12.8996 7.10029H11.0996V11.1003H7.09956V12.9003H11.0996V16.9003H12.8996V12.9003H16.8995V11.1003H12.8996V7.10029Z" fill="#171719"/>
<path fill-rule="evenodd" clip-rule="evenodd" d="M9.61065 2.3501C8.52358 2.35009 7.6529 2.35008 6.94912 2.40758C6.22646 2.46663 5.6009 2.59076 5.02505 2.88417C4.10306 3.35395 3.35346 4.10355 2.88368 5.02554C2.59027 5.60139 2.46614 6.22695 2.4071 6.94962C2.3496 7.65339 2.3496 8.52407 2.34961 9.61114L2.34961 14.389C2.3496 15.4761 2.34959 16.3468 2.4071 17.0506C2.46614 17.7732 2.59027 18.3988 2.88368 18.9746C3.35346 19.8966 4.10306 20.6462 5.02505 21.116C5.6009 21.4094 6.22646 21.5336 6.94912 21.5926C7.65288 21.6501 8.52353 21.6501 9.61056 21.6501H14.3886C15.4756 21.6501 16.3463 21.6501 17.0501 21.5926C17.7727 21.5336 18.3983 21.4094 18.9741 21.116C19.8961 20.6462 20.6457 19.8966 21.1155 18.9746C21.4089 18.3988 21.5331 17.7732 21.5921 17.0506C21.6496 16.3468 21.6496 15.4762 21.6496 14.3891V9.61115C21.6496 8.52411 21.6496 7.65337 21.5921 6.94962C21.5331 6.22695 21.4089 5.60139 21.1155 5.02554C20.6457 4.10355 19.8961 3.35395 18.9741 2.88417C18.3983 2.59076 17.7727 2.46663 17.0501 2.40758C16.3463 2.35008 15.4756 2.35009 14.3885 2.3501H9.61065ZM5.84224 4.48798C6.12204 4.34541 6.48435 4.25156 7.0957 4.20161C7.71756 4.1508 8.51465 4.1501 9.6496 4.1501H14.3496C15.4846 4.1501 16.2816 4.1508 16.9035 4.20161C17.5149 4.25156 17.8772 4.34541 18.157 4.48798C18.7403 4.78519 19.2145 5.25942 19.5117 5.84273C19.6543 6.12253 19.7481 6.48484 19.7981 7.09619C19.8489 7.71805 19.8496 8.51514 19.8496 9.6501V14.3501C19.8496 15.4851 19.8489 16.2821 19.7981 16.904C19.7481 17.5154 19.6543 17.8777 19.5117 18.1575C19.2145 18.7408 18.7403 19.215 18.157 19.5122C17.8772 19.6548 17.5149 19.7486 16.9035 19.7986C16.2816 19.8494 15.4846 19.8501 14.3496 19.8501H9.6496C8.51465 19.8501 7.71756 19.8494 7.0957 19.7986C6.48435 19.7486 6.12204 19.6548 5.84224 19.5122C5.25893 19.215 4.78469 18.7408 4.48749 18.1575C4.34492 17.8777 4.25107 17.5154 4.20112 16.904C4.15031 16.2821 4.14961 15.4851 4.14961 14.3501V9.6501C4.14961 8.51514 4.15031 7.71805 4.20112 7.09619C4.25107 6.48484 4.34492 6.12253 4.48749 5.84273C4.78469 5.25942 5.25893 4.78519 5.84224 4.48798Z" fill="#171719"/>
</svg>
