<svg width="24" height="24" viewBox="0 0 24 24" fill="none" xmlns="http://www.w3.org/2000/svg">
<g clip-path="url(#clip0_1342_73701)">
<path d="M11.7344 1.03609C11.937 0.980244 12.1533 0.989098 12.3516 1.06343L20.3516 4.06343C20.7417 4.20989 21 4.58323 21 4.99996V12C21 16.5496 17.9333 20.1515 12.4473 22.8945C12.1657 23.0352 11.8343 23.0352 11.5527 22.8945C6.06672 20.1515 3.00002 16.5496 3 12V4.99996C3 4.58323 3.25832 4.20989 3.64844 4.06343L11.6484 1.06343L11.7344 1.03609ZM5 5.69332V12C5.00002 15.3493 7.13622 18.3346 12 20.8759C16.8638 18.3346 19 15.3493 19 12V5.69332L12 3.06832L5 5.69332ZM12 6.74996C12.4417 6.74996 12.7998 7.10807 12.7998 7.54976V10.4502H15.7002C16.1419 10.4502 16.5 10.8083 16.5 11.25C16.5 11.6916 16.1419 12.0498 15.7002 12.0498H12.7998V14.9502C12.7998 15.3918 12.4417 15.75 12 15.75C11.5583 15.75 11.2002 15.3918 11.2002 14.9502V12.0498H8.2998C7.85811 12.0498 7.5 11.6916 7.5 11.25C7.5 10.8083 7.85811 10.4502 8.2998 10.4502H11.2002V7.54976C11.2002 7.10807 11.5583 6.74996 12 6.74996Z" fill="black"/>
</g>
<defs>
<clipPath id="clip0_1342_73701">
<rect width="24" height="24" fill="white"/>
</clipPath>
</defs>
</svg>
