<svg width="24" height="24" viewBox="0 0 24 24" fill="none" xmlns="http://www.w3.org/2000/svg">
<path fill-rule="evenodd" clip-rule="evenodd" d="M12.0004 3.98846C11.9734 4.03466 11.9447 4.08389 11.914 4.13657L9.60545 8.10012C9.59899 8.11121 9.59181 8.12384 9.58389 8.13778C9.50622 8.27441 9.35655 8.53772 9.1077 8.71852C8.85885 8.89932 8.56217 8.9603 8.40823 8.99195C8.39252 8.99518 8.37829 8.9981 8.36575 9.00082L3.88281 9.97158C3.82323 9.98448 3.76754 9.99655 3.71524 10.008C3.75082 10.048 3.78878 10.0905 3.8294 10.1359L6.88558 13.5563C6.89413 13.5659 6.90392 13.5766 6.91473 13.5885C7.02067 13.7045 7.22484 13.9283 7.3199 14.2208C7.41495 14.5134 7.38127 14.8143 7.36379 14.9705C7.36201 14.9865 7.36039 15.0009 7.3591 15.0137L6.89705 19.5772C6.89091 19.6378 6.88517 19.6945 6.8799 19.7478C6.92893 19.7263 6.98108 19.7034 7.03686 19.6788L11.2342 17.8291C11.246 17.824 11.2592 17.818 11.2738 17.8113C11.417 17.7465 11.6928 17.6214 12.0004 17.6214C12.308 17.6214 12.5839 17.7465 12.727 17.8113C12.7416 17.818 12.7549 17.824 12.7666 17.8291L16.964 19.6788C17.0198 19.7034 17.0719 19.7263 17.1209 19.7478C17.1157 19.6945 17.1099 19.6378 17.1038 19.5772L16.6417 15.0137C16.6404 15.0009 16.6388 14.9865 16.637 14.9705C16.6196 14.8143 16.5859 14.5133 16.6809 14.2208C16.776 13.9283 16.9802 13.7045 17.0861 13.5885C17.0969 13.5766 17.1067 13.5659 17.1153 13.5563L20.1714 10.1359C20.2121 10.0905 20.25 10.048 20.2856 10.008C20.2333 9.99655 20.1776 9.98449 20.118 9.97158L15.6351 9.00082C15.6225 8.9981 15.6083 8.99518 15.5926 8.99195C15.4387 8.9603 15.142 8.89932 14.8931 8.71852C14.6443 8.53772 14.4946 8.27442 14.4169 8.13778C14.409 8.12384 14.4018 8.11121 14.3954 8.10012L12.0868 4.13657C12.0561 4.08389 12.0275 4.03466 12.0004 3.98846ZM10.902 2.3787C11.0913 2.1421 11.4424 1.79346 12.0004 1.79346C12.5584 1.79346 12.9095 2.1421 13.0988 2.3787C13.2734 2.59691 13.447 2.89524 13.6157 3.18502C13.6245 3.20025 13.6334 3.21546 13.6422 3.23063L15.9508 7.19419C15.9588 7.20795 15.9662 7.22057 15.973 7.23225C15.9862 7.23512 16.0005 7.23822 16.016 7.24159L20.499 8.21236C20.5161 8.21607 20.5333 8.21979 20.5506 8.22351C20.8783 8.29436 21.2157 8.3673 21.4771 8.46592C21.7607 8.57286 22.2007 8.79904 22.3732 9.3297C22.5456 9.86036 22.3225 10.302 22.156 10.5552C22.0024 10.7887 21.7723 11.046 21.5488 11.2959C21.5371 11.3091 21.5254 11.3222 21.5137 11.3353L18.4575 14.7556C18.4469 14.7675 18.4372 14.7784 18.4282 14.7885C18.4295 14.802 18.431 14.8165 18.4326 14.8324L18.8946 19.3959C18.8964 19.4133 18.8982 19.4308 18.9 19.4483C18.9338 19.7819 18.9687 20.1253 18.9557 20.4045C18.9417 20.7072 18.8625 21.1956 18.4111 21.5236C17.9597 21.8516 17.4707 21.7759 17.1785 21.6957C16.909 21.6218 16.5932 21.4825 16.2864 21.3472C16.2703 21.3401 16.2542 21.333 16.2381 21.3259L12.0407 19.4763C12.0262 19.4699 12.0128 19.464 12.0004 19.4585C11.988 19.464 11.9747 19.4699 11.9601 19.4763L7.76271 21.3259C7.74664 21.333 7.73053 21.3401 7.7144 21.3472C7.40764 21.4825 7.09183 21.6218 6.82232 21.6957C6.53009 21.7759 6.04112 21.8516 5.58971 21.5236C5.1383 21.1956 5.05919 20.7072 5.0451 20.4045C5.0321 20.1253 5.06699 19.7819 5.10088 19.4484C5.10266 19.4308 5.10444 19.4133 5.10621 19.3959L5.56826 14.8324C5.56986 14.8165 5.57133 14.802 5.57268 14.7885C5.56368 14.7784 5.55395 14.7675 5.54334 14.7556L2.48716 11.3353C2.47547 11.3222 2.46374 11.3091 2.452 11.2959C2.22852 11.046 1.99843 10.7887 1.84486 10.5552C1.67834 10.302 1.45525 9.86036 1.62768 9.3297C1.8001 8.79904 2.24017 8.57286 2.5237 8.46592C2.78518 8.3673 3.12256 8.29436 3.45028 8.22351C3.4675 8.21979 3.4847 8.21607 3.50186 8.21236L7.9848 7.24159C8.00037 7.23822 8.01464 7.23513 8.02786 7.23225C8.03468 7.22057 8.04203 7.20795 8.05005 7.19419L10.3586 3.23063C10.3674 3.21546 10.3763 3.20026 10.3852 3.18503C10.5538 2.89525 10.7274 2.59692 10.902 2.3787Z" fill="#171719"/>
</svg>
