<svg width="24" height="24" viewBox="0 0 24 24" fill="none" xmlns="http://www.w3.org/2000/svg">
<path fill-rule="evenodd" clip-rule="evenodd" d="M10.9011 2.3787C11.0904 2.1421 11.4415 1.79346 11.9994 1.79346C12.5574 1.79346 12.9085 2.1421 13.0978 2.3787C13.2724 2.59691 13.4461 2.89524 13.6147 3.18502C13.6236 3.20025 13.6324 3.21546 13.6413 3.23063L15.9498 7.19419C15.9578 7.20795 15.9652 7.22057 15.972 7.23225C15.9852 7.23512 15.9995 7.23822 16.0151 7.24159L20.498 8.21236C20.5152 8.21607 20.5324 8.21979 20.5496 8.22351C20.8773 8.29436 21.2147 8.3673 21.4762 8.46592C21.7597 8.57286 22.1998 8.79904 22.3722 9.3297C22.5446 9.86036 22.3215 10.302 22.155 10.5552C22.0014 10.7887 21.7713 11.046 21.5479 11.2959C21.5361 11.3091 21.5244 11.3222 21.5127 11.3353L18.4565 14.7556C18.4459 14.7675 18.4362 14.7784 18.4272 14.7885C18.4285 14.802 18.43 14.8165 18.4316 14.8324L18.8937 19.3959C18.8954 19.4133 18.8972 19.4308 18.899 19.4483C18.9329 19.7819 18.9678 20.1253 18.9548 20.4045C18.9407 20.7072 18.8616 21.1956 18.4101 21.5236C17.9587 21.8516 17.4698 21.7759 17.1775 21.6957C16.908 21.6218 16.5922 21.4825 16.2855 21.3472C16.2693 21.3401 16.2532 21.333 16.2371 21.3259L12.0398 19.4763C12.0252 19.4699 12.0118 19.464 11.9994 19.4585C11.9871 19.464 11.9737 19.4699 11.9591 19.4763L7.76174 21.3259C7.74566 21.333 7.72956 21.3401 7.71343 21.3472C7.40666 21.4825 7.09085 21.6218 6.82135 21.6957C6.52911 21.7759 6.04014 21.8516 5.58873 21.5236C5.13733 21.1956 5.05821 20.7072 5.04412 20.4045C5.03113 20.1253 5.06601 19.7819 5.0999 19.4484C5.10168 19.4308 5.10346 19.4133 5.10523 19.3959L5.56728 14.8324C5.56889 14.8165 5.57036 14.802 5.5717 14.7885C5.5627 14.7784 5.55297 14.7675 5.54236 14.7556L2.48618 11.3353C2.47449 11.3222 2.46277 11.3091 2.45102 11.2959C2.22754 11.046 1.99746 10.7887 1.84388 10.5552C1.67736 10.302 1.45428 9.86036 1.6267 9.3297C1.79912 8.79904 2.23919 8.57286 2.52272 8.46592C2.7842 8.3673 3.12159 8.29436 3.4493 8.22351C3.46652 8.21979 3.48372 8.21607 3.50088 8.21236L7.98382 7.24159C7.99939 7.23822 8.01367 7.23513 8.02688 7.23225C8.0337 7.22057 8.04106 7.20795 8.04907 7.19419L10.3576 3.23063C10.3665 3.21546 10.3753 3.20026 10.3842 3.18503C10.5528 2.89525 10.7265 2.59692 10.9011 2.3787Z" fill="#171719"/>
</svg>
