<svg width="24" height="24" viewBox="0 0 24 24" fill="none" xmlns="http://www.w3.org/2000/svg">
<path fill-rule="evenodd" clip-rule="evenodd" d="M9.61163 2.3501H14.3895C15.4766 2.35009 16.3473 2.35008 17.0511 2.40758C17.7737 2.46663 18.3993 2.59076 18.9751 2.88417C19.8971 3.35395 20.6467 4.10355 21.1165 5.02554C21.4099 5.60139 21.534 6.22695 21.5931 6.94962C21.6506 7.65339 21.6506 8.52407 21.6506 9.61115V14.3891C21.6506 15.4761 21.6506 16.3468 21.5931 17.0506C21.534 17.7732 21.4099 18.3988 21.1165 18.9747C20.6467 19.8966 19.8971 20.6462 18.9751 21.116C18.3993 21.4094 17.7737 21.5336 17.0511 21.5926C16.3473 21.6501 15.4766 21.6501 14.3895 21.6501H9.61163C8.52455 21.6501 7.65387 21.6501 6.9501 21.5926C6.22744 21.5336 5.60187 21.4094 5.02603 21.116C4.10404 20.6462 3.35443 19.8966 2.88465 18.9747C2.59125 18.3988 2.46712 17.7732 2.40807 17.0506C2.35057 16.3468 2.35058 15.4761 2.35059 14.389V9.61115C2.35058 8.52407 2.35057 7.65339 2.40807 6.94962C2.46712 6.22695 2.59125 5.60139 2.88465 5.02554C3.35443 4.10355 4.10404 3.35395 5.02603 2.88417C5.60187 2.59076 6.22744 2.46663 6.9501 2.40758C7.65387 2.35008 8.52455 2.35009 9.61163 2.3501Z" fill="#171719"/>
</svg>
