<svg width="24" height="24" viewBox="0 0 24 24" fill="none" xmlns="http://www.w3.org/2000/svg">
<path fill-rule="evenodd" clip-rule="evenodd" d="M10.0002 1.7002C5.41623 1.7002 1.7002 5.41623 1.7002 10.0002C1.7002 14.5842 5.41623 18.3002 10.0002 18.3002C11.8231 18.3002 13.5087 17.7125 14.878 16.7163L19.5811 21.4194C20.0888 21.9271 20.9119 21.9271 21.4196 21.4194C21.9272 20.9117 21.9272 20.0886 21.4196 19.5809L16.7165 14.8778C17.7126 13.5086 18.3002 11.823 18.3002 10.0002C18.3002 5.41623 14.5841 1.7002 10.0002 1.7002ZM4.30019 10.0002C4.30019 6.85217 6.85217 4.3002 10.0002 4.3002C13.1482 4.3002 15.7002 6.85217 15.7002 10.0002C15.7002 13.1482 13.1482 15.7002 10.0002 15.7002C6.85217 15.7002 4.30019 13.1482 4.30019 10.0002Z" fill="#171719"/>
</svg>
