<svg width="24" height="24" viewBox="0 0 24 24" fill="none" xmlns="http://www.w3.org/2000/svg">
<path fill-rule="evenodd" clip-rule="evenodd" d="M9.61163 2.3501H14.3895C15.4766 2.35009 16.3473 2.35008 17.0511 2.40758C17.7737 2.46663 18.3993 2.59076 18.9751 2.88417C19.8971 3.35395 20.6467 4.10355 21.1165 5.02554C21.4099 5.60139 21.534 6.22695 21.5931 6.94962C21.6506 7.65339 21.6506 8.52407 21.6506 9.61115V14.3891C21.6506 15.4761 21.6506 16.3468 21.5931 17.0506C21.534 17.7732 21.4099 18.3988 21.1165 18.9747C20.6467 19.8966 19.8971 20.6462 18.9751 21.116C18.3993 21.4094 17.7737 21.5336 17.0511 21.5926C16.3473 21.6501 15.4766 21.6501 14.3895 21.6501H9.61163C8.52455 21.6501 7.65387 21.6501 6.9501 21.5926C6.22744 21.5336 5.60187 21.4094 5.02603 21.116C4.10404 20.6462 3.35443 19.8966 2.88465 18.9747C2.59125 18.3988 2.46712 17.7732 2.40807 17.0506C2.35057 16.3468 2.35058 15.4761 2.35059 14.389V9.61115C2.35058 8.52407 2.35057 7.65339 2.40807 6.94962C2.46712 6.22695 2.59125 5.60139 2.88465 5.02554C3.35443 4.10355 4.10404 3.35395 5.02603 2.88417C5.60187 2.59076 6.22744 2.46663 6.9501 2.40758C7.65387 2.35008 8.52455 2.35009 9.61163 2.3501ZM7.09668 4.20161C6.48533 4.25156 6.12301 4.34541 5.84321 4.48798C5.25991 4.78519 4.78567 5.25942 4.48846 5.84273C4.3459 6.12253 4.25204 6.48484 4.20209 7.09619C4.15128 7.71805 4.15058 8.51514 4.15058 9.6501V14.3501C4.15058 15.4851 4.15128 16.2821 4.20209 16.904C4.25204 17.5154 4.3459 17.8777 4.48846 18.1575C4.78567 18.7408 5.25991 19.215 5.84321 19.5122C6.12301 19.6548 6.48533 19.7486 7.09668 19.7986C7.71854 19.8494 8.51562 19.8501 9.65058 19.8501H14.3506C15.4855 19.8501 16.2826 19.8494 16.9045 19.7986C17.5158 19.7486 17.8781 19.6548 18.1579 19.5122C18.7412 19.215 19.2155 18.7408 19.5127 18.1575C19.6553 17.8777 19.7491 17.5154 19.7991 16.904C19.8499 16.2821 19.8506 15.4851 19.8506 14.3501V9.6501C19.8506 8.51514 19.8499 7.71805 19.7991 7.09619C19.7491 6.48484 19.6553 6.12253 19.5127 5.84273C19.2155 5.25942 18.7412 4.78519 18.1579 4.48798C17.8781 4.34541 17.5158 4.25156 16.9045 4.20161C16.2826 4.1508 15.4855 4.1501 14.3506 4.1501H9.65058C8.51562 4.1501 7.71854 4.1508 7.09668 4.20161Z" fill="#171719"/>
</svg>
