<svg width="24" height="24" viewBox="0 0 24 24" fill="none" xmlns="http://www.w3.org/2000/svg">
<path fill-rule="evenodd" clip-rule="evenodd" d="M5.07083 2.59961C4.81651 2.59959 4.57446 2.59956 4.3705 2.61623C4.14809 2.6344 3.89298 2.67678 3.63801 2.8067C3.2805 2.98886 2.98984 3.27952 2.80768 3.63703C2.67776 3.89201 2.63537 4.14712 2.6172 4.36953C2.60054 4.57349 2.60056 4.81553 2.60059 5.06985V18.9294C2.60056 19.1837 2.60054 19.4257 2.6172 19.6297C2.63537 19.8521 2.67776 20.1072 2.80768 20.3622C2.98984 20.7197 3.2805 21.0104 3.63801 21.1925C3.89298 21.3224 4.14809 21.3648 4.3705 21.383C4.57445 21.3997 4.81647 21.3996 5.07077 21.3996H18.9304C19.1846 21.3996 19.4267 21.3997 19.6307 21.383C19.8531 21.3648 20.1082 21.3224 20.3632 21.1925C20.7207 21.0104 21.0113 20.7197 21.1935 20.3622C21.3234 20.1072 21.3658 19.8521 21.384 19.6297C21.4006 19.4258 21.4006 19.1837 21.4006 18.9294V5.06985C21.4006 4.81555 21.4006 4.57347 21.384 4.36953C21.3658 4.14712 21.3234 3.89201 21.1935 3.63703C21.0113 3.27952 20.7207 2.98886 20.3632 2.8067C20.1082 2.67678 19.8531 2.6344 19.6307 2.61623C19.4267 2.59956 19.1847 2.59959 18.9303 2.59961H5.07083ZM4.4006 4.49957C4.4006 4.44434 4.44537 4.39957 4.5006 4.39957H19.5006C19.5558 4.39957 19.6006 4.44434 19.6006 4.49957V8.60039H4.4006V4.49957ZM4.4006 10.4004V19.4996C4.4006 19.5548 4.44537 19.5996 4.5006 19.5996H8.60043V10.4004H4.4006ZM10.4004 19.5996H19.5006C19.5558 19.5996 19.6006 19.5548 19.6006 19.4996V10.4004H10.4004V19.5996Z" fill="#171719"/>
</svg>
