<svg width="24" height="24" viewBox="0 0 24 24" fill="none" xmlns="http://www.w3.org/2000/svg">
<path fill-rule="evenodd" clip-rule="evenodd" d="M13.1783 2.85025C12.4282 2.51671 11.5719 2.51671 10.8218 2.85025C10.2991 3.08266 9.9215 3.5085 9.59318 3.97203C9.26778 4.43144 8.90971 5.04995 8.47415 5.80232L2.9797 15.2927C2.5425 16.0479 2.18318 16.6685 1.94608 17.181C1.70695 17.6979 1.52515 18.2389 1.5846 18.8091C1.66987 19.627 2.09841 20.3703 2.76355 20.8539C3.22722 21.191 3.78652 21.3048 4.35366 21.3568C4.91599 21.4084 5.63311 21.4084 6.50568 21.4084H17.4944C18.367 21.4084 19.0841 21.4084 19.6465 21.3568C20.2136 21.3048 20.7729 21.191 21.2366 20.8539C21.9017 20.3703 22.3303 19.627 22.4155 18.8091C22.475 18.2389 22.2932 17.6979 22.054 17.181C21.8169 16.6685 21.4576 16.0479 21.0204 15.2927L15.526 5.80231C15.0904 5.04995 14.7323 4.43144 14.4069 3.97203C14.0786 3.5085 13.701 3.08266 13.1783 2.85025Z" fill="#171719"/>
</svg>
