<svg width="24" height="24" viewBox="0 0 24 24" fill="none" xmlns="http://www.w3.org/2000/svg">
<path fill-rule="evenodd" clip-rule="evenodd" d="M14.7126 2.03271C15.0724 2.17485 15.3012 2.53103 15.2807 2.91735L14.9338 9.46977H18.7496C19.107 9.46977 19.4305 9.68124 19.574 10.0086C19.7174 10.3359 19.6535 10.7171 19.4112 10.9799L9.48478 21.7446C9.21565 22.0365 8.78707 22.1175 8.42995 21.944C8.07284 21.7706 7.87155 21.3836 7.93455 20.9917L8.95813 14.6227H5.24962C4.89963 14.6227 4.58137 14.4198 4.43368 14.1025C4.28599 13.7852 4.33564 13.4111 4.56098 13.1433L13.6933 2.29031C13.9424 1.9943 14.3528 1.89058 14.7126 2.03271ZM7.18317 12.8227H10.0143C10.278 12.8227 10.5284 12.9383 10.6993 13.139C10.8703 13.3397 10.9448 13.6052 10.9029 13.8655L10.1855 18.3295L16.6955 11.2698H13.9849C13.738 11.2698 13.5018 11.1683 13.3319 10.9891C13.162 10.8099 13.0731 10.5688 13.0862 10.3222L13.3412 5.50444L7.18317 12.8227Z" fill="#171719"/>
</svg>
