<svg width="24" height="24" viewBox="0 0 24 24" fill="none" xmlns="http://www.w3.org/2000/svg">
<path fill-rule="evenodd" clip-rule="evenodd" d="M14.363 2.06299C14.7228 2.20512 14.9515 2.5613 14.9311 2.94763L14.5842 9.50005H18.4C18.7574 9.50005 19.0809 9.71152 19.2243 10.0389C19.3678 10.3662 19.3039 10.7474 19.0616 11.0102L9.13517 21.7749C8.86604 22.0667 8.43746 22.1478 8.08034 21.9743C7.72323 21.8009 7.52194 21.4139 7.58494 21.0219L8.60852 14.653H4.90001C4.55002 14.653 4.23177 14.4501 4.08407 14.1328C3.93638 13.8155 3.98603 13.4413 4.21137 13.1735L13.3437 2.32058C13.5928 2.02457 14.0032 1.92085 14.363 2.06299Z" fill="#171719"/>
</svg>
