<svg width="24" height="24" viewBox="0 0 24 24" fill="none" xmlns="http://www.w3.org/2000/svg">
<path fill-rule="evenodd" clip-rule="evenodd" d="M5.06985 2.59961H18.9294C19.1837 2.59959 19.4257 2.59956 19.6297 2.61623C19.8521 2.6344 20.1072 2.67678 20.3622 2.8067C20.7197 2.98886 21.0104 3.27952 21.1925 3.63703C21.3224 3.89201 21.3648 4.14712 21.383 4.36953C21.3996 4.57347 21.3996 4.8155 21.3996 5.0698L21.3996 8.60059H2.59961L2.59961 5.06985C2.59959 4.81553 2.59956 4.57349 2.61623 4.36953C2.6344 4.14712 2.67678 3.89201 2.8067 3.63703C2.98886 3.27952 3.27952 2.98886 3.63703 2.8067C3.89201 2.67678 4.14712 2.6344 4.36952 2.61623C4.57349 2.59956 4.81553 2.59959 5.06985 2.59961ZM2.59961 10.4006L2.59961 18.9294C2.59959 19.1837 2.59956 19.4257 2.61623 19.6297C2.6344 19.8521 2.67678 20.1072 2.8067 20.3622C2.98886 20.7197 3.27952 21.0104 3.63703 21.1925C3.89201 21.3224 4.14712 21.3648 4.36952 21.383C4.57347 21.3997 4.81549 21.3996 5.06979 21.3996L8.59945 21.3996V10.4006H2.59961ZM10.3994 21.3996L18.9294 21.3996C19.1837 21.3996 19.4257 21.3997 19.6297 21.383C19.8521 21.3648 20.1072 21.3224 20.3622 21.1925C20.7197 21.0104 21.0104 20.7197 21.1925 20.3622C21.3224 20.1072 21.3648 19.8521 21.383 19.6297C21.3996 19.4258 21.3996 19.1837 21.3996 18.9294L21.3996 10.4006H10.3994V21.3996Z" fill="#171719"/>
</svg>
