<svg width="24" height="24" viewBox="0 0 24 24" fill="none" xmlns="http://www.w3.org/2000/svg">
<path fill-rule="evenodd" clip-rule="evenodd" d="M16.129 18.1295L18.7633 20.7638L20.0361 19.491L3.77262 3.22754L2.49983 4.50033L5.28576 7.28626C3.75891 8.40074 2.51956 9.88553 1.6998 11.6085C1.58184 11.8564 1.58184 12.1442 1.6998 12.3921C3.53068 16.2403 7.45462 18.9003 11.9998 18.9003C13.4561 18.9003 14.8486 18.6272 16.129 18.1295ZM13.5706 15.5711L12.0976 14.0981C12.0652 14.0996 12.0326 14.1004 11.9998 14.1004C10.84 14.1004 9.89983 13.1602 9.89983 12.0004C9.89983 11.9676 9.90058 11.935 9.90206 11.9026L8.42907 10.4296C8.21737 10.9101 8.09983 11.4415 8.09983 12.0004C8.09983 14.1543 9.84592 15.9004 11.9998 15.9004C12.5587 15.9004 13.0901 15.7828 13.5706 15.5711ZM15.8224 12.7773L19.301 16.2558C20.5594 15.2053 21.5879 13.8885 22.2999 12.3921C22.4178 12.1442 22.4178 11.8564 22.2999 11.6085C20.469 7.76032 16.545 5.10034 11.9998 5.10034C10.8328 5.10034 9.70681 5.27569 8.64665 5.60148L11.2229 8.17775C11.474 8.127 11.7338 8.10037 11.9998 8.10037C14.1537 8.10037 15.8998 9.84646 15.8998 12.0004C15.8998 12.2664 15.8732 12.5262 15.8224 12.7773Z" fill="#171719"/>
</svg>
