<svg width="24" height="24" viewBox="0 0 24 24" fill="none" xmlns="http://www.w3.org/2000/svg">
<path fill-rule="evenodd" clip-rule="evenodd" d="M10.026 2.42717C11.1117 1.32502 12.8895 1.3251 13.9752 2.42718L15.0882 3.55697C15.2727 3.7442 15.5251 3.84872 15.7878 3.84675L17.3737 3.83488C18.9207 3.8233 20.1777 5.08046 20.1662 6.62745L20.1544 8.21332C20.1524 8.47619 20.257 8.72858 20.4442 8.91296L21.574 10.026C22.6761 11.1117 22.6761 12.8895 21.574 13.9753L20.4442 15.0882C20.257 15.2726 20.1524 15.5251 20.1544 15.7879L20.1662 17.3738C20.1777 18.9207 18.9207 20.1778 17.3737 20.1663L15.7878 20.1544C15.525 20.1525 15.2726 20.257 15.0881 20.4442L13.9752 21.574C12.8895 22.6761 11.1117 22.6761 10.026 21.574L8.9129 20.4442C8.72853 20.257 8.47608 20.1525 8.21322 20.1544L6.62738 20.1663C5.08039 20.1778 3.82329 18.9208 3.83487 17.3737L3.84674 15.7879C3.84871 15.5251 3.74413 15.2726 3.5569 15.0881L2.42717 13.9752C1.32505 12.8895 1.32506 11.1117 2.42717 10.026L3.55695 8.91294C3.74416 8.7285 3.84871 8.47611 3.84674 8.21331L3.83487 6.62744C3.82329 5.08038 5.08037 3.8233 6.62743 3.83488L8.2133 3.84675C8.4761 3.84872 8.72851 3.74416 8.91294 3.55694L10.026 2.42717ZM15.3753 8.85324L16.6258 10.1479L10.8241 15.7519L7.37529 12.4206L8.62582 11.126L10.8241 13.2493L15.3753 8.85324Z" fill="#171719"/>
</svg>
