<svg width="24" height="24" viewBox="0 0 24 24" fill="none" xmlns="http://www.w3.org/2000/svg">
<path fill-rule="evenodd" clip-rule="evenodd" d="M13.9752 2.42718C12.8895 1.3251 11.1117 1.32502 10.026 2.42717L8.91294 3.55694C8.72851 3.74416 8.4761 3.84872 8.2133 3.84675L6.62743 3.83488C5.08037 3.8233 3.82329 5.08038 3.83487 6.62744L3.84674 8.21331C3.84871 8.47611 3.74416 8.7285 3.55695 8.91294L2.42717 10.026C1.32506 11.1117 1.32505 12.8895 2.42717 13.9752L3.5569 15.0881C3.74413 15.2726 3.84871 15.5251 3.84674 15.7879L3.83487 17.3737C3.82329 18.9208 5.08039 20.1778 6.62738 20.1663L8.21322 20.1544C8.47608 20.1525 8.72853 20.257 8.9129 20.4442L10.026 21.574C11.1117 22.6761 12.8895 22.6761 13.9752 21.574L15.0881 20.4442C15.2726 20.257 15.525 20.1525 15.7878 20.1544L17.3737 20.1663C18.9207 20.1778 20.1778 18.9207 20.1662 17.3738L20.1544 15.7879C20.1524 15.5251 20.257 15.2726 20.4442 15.0882L21.574 13.9753C22.6761 12.8895 22.6761 11.1117 21.574 10.026L20.4442 8.91296C20.257 8.72858 20.1524 8.47619 20.1544 8.21332L20.1662 6.62745C20.1778 5.08046 18.9207 3.8233 17.3737 3.83488L15.7878 3.84675C15.5251 3.84872 15.2727 3.7442 15.0882 3.55697L13.9752 2.42718ZM11.3083 3.69037C11.6888 3.30402 12.3122 3.30395 12.6929 3.6904L13.8058 4.82017C14.3319 5.35408 15.0518 5.65231 15.8013 5.6467L17.3872 5.63483C17.9295 5.63077 18.3703 6.07148 18.3663 6.61396L18.3544 8.19983C18.3489 8.94923 18.6469 9.66916 19.181 10.1952L20.3107 11.3082C20.6972 11.6889 20.6972 12.3123 20.3107 12.693L19.181 13.8059C18.647 14.332 18.3489 15.0518 18.3544 15.8013L18.3663 17.3872C18.3703 17.9295 17.9296 18.3703 17.3872 18.3663L15.8013 18.3544C15.0519 18.3489 14.332 18.647 13.8059 19.181L12.6929 20.3108C12.3122 20.6972 11.6889 20.6972 11.3082 20.3108L10.1952 19.181C9.66918 18.647 8.94931 18.3489 8.19991 18.3544L6.614 18.3663C6.07152 18.3703 5.63076 17.9295 5.63482 17.3872L5.64669 15.8013C5.6523 15.0518 5.35413 14.332 4.82022 13.8059L3.6904 12.6929C3.30398 12.3123 3.30397 11.6889 3.6904 11.3083L4.82017 10.1952C5.35412 9.66921 5.6523 8.94935 5.64669 8.19984L5.63482 6.61397C5.63076 6.07153 6.07152 5.63077 6.61395 5.63483L8.19982 5.6467C8.94934 5.65231 9.66918 5.35415 10.1952 4.8202L11.3083 3.69037Z" fill="#171719"/>
<path d="M11.6418 7.72737C11.7886 7.43007 12.2125 7.43007 12.3592 7.72737L13.3769 9.78945C13.4352 9.90751 13.5478 9.98934 13.6781 10.0083L15.9537 10.3389C16.2818 10.3866 16.4128 10.7898 16.1754 11.0212L14.5288 12.6263C14.4345 12.7182 14.3915 12.8506 14.4137 12.9804L14.8024 15.2468C14.8585 15.5736 14.5155 15.8228 14.2221 15.6685L12.1867 14.5984C12.0701 14.5372 11.9309 14.5372 11.8144 14.5984L9.77899 15.6685C9.48554 15.8228 9.14257 15.5736 9.19861 15.2468L9.58734 12.9804C9.60959 12.8506 9.56657 12.7182 9.4723 12.6263L7.82562 11.0212C7.58822 10.7898 7.71922 10.3866 8.04731 10.3389L10.323 10.0083C10.4532 9.98934 10.5659 9.90751 10.6241 9.78945L11.6418 7.72737Z" fill="#171719"/>
</svg>
