<svg width="24" height="24" viewBox="0 0 24 24" fill="none" xmlns="http://www.w3.org/2000/svg">
<path fill-rule="evenodd" clip-rule="evenodd" d="M22.2999 12.3919C22.4178 12.144 22.4178 11.8562 22.2999 11.6083C20.469 7.76008 16.545 5.1001 11.9998 5.1001C7.45462 5.1001 3.53068 7.76008 1.6998 11.6083C1.58184 11.8562 1.58184 12.144 1.6998 12.3919C3.53068 16.2401 7.45462 18.9 11.9998 18.9C16.545 18.9 20.469 16.2401 22.2999 12.3919ZM9.89982 12.0001C9.89982 10.8403 10.84 9.90012 11.9998 9.90012C13.1596 9.90012 14.0998 10.8403 14.0998 12.0001C14.0998 13.1599 13.1596 14.1001 11.9998 14.1001C10.84 14.1001 9.89982 13.1599 9.89982 12.0001ZM11.9998 8.10012C9.84591 8.10012 8.09983 9.84621 8.09983 12.0001C8.09983 14.154 9.84591 15.9001 11.9998 15.9001C14.1537 15.9001 15.8998 14.154 15.8998 12.0001C15.8998 9.84621 14.1537 8.10012 11.9998 8.10012Z" fill="#171719"/>
</svg>
