<svg width="24" height="24" viewBox="0 0 24 24" fill="none" xmlns="http://www.w3.org/2000/svg">
<path fill-rule="evenodd" clip-rule="evenodd" d="M18.6558 2.21177C19.1875 1.94827 19.8117 1.94829 20.3434 2.21182C20.629 2.35339 20.8696 2.59556 21.0776 2.80503L21.1945 2.92193C21.404 3.13003 21.6461 3.37062 21.7876 3.65621C22.0511 4.18783 22.051 4.812 21.7876 5.34361C21.646 5.6292 21.4039 5.86978 21.1945 6.07786L11.3724 15.8999H8.0996V12.6271L17.9215 2.80494C18.1296 2.59548 18.3702 2.35332 18.6558 2.21177ZM19.5703 3.84326C19.5313 3.8042 19.4679 3.8042 19.4289 3.84325L9.89965 13.3725V14.0997H10.6269L20.156 4.57038C20.195 4.53133 20.195 4.46802 20.156 4.42897L19.5703 3.84326Z" fill="#171719"/>
<path fill-rule="evenodd" clip-rule="evenodd" d="M7.46285 2.6001C6.79405 2.60009 6.23807 2.60008 5.78432 2.63715C5.31179 2.67576 4.87145 2.75901 4.45604 2.97068C3.81629 3.29665 3.29616 3.81678 2.97019 4.45653C2.75853 4.87194 2.67527 5.31228 2.63666 5.78482C2.59959 6.23856 2.5996 6.79454 2.59961 7.46335V16.5369C2.5996 17.2057 2.59959 17.7616 2.63666 18.2154C2.67527 18.6879 2.75853 19.1283 2.97019 19.5437C3.29616 20.1834 3.81629 20.7036 4.45604 21.0295C4.87145 21.2412 5.31179 21.3244 5.78432 21.3631C6.23807 21.4001 6.79405 21.4001 7.46285 21.4001H16.5364C17.2052 21.4001 17.7612 21.4001 18.215 21.3631C18.6875 21.3244 19.1279 21.2412 19.5433 21.0295C20.183 20.7035 20.7032 20.1834 21.0291 19.5436C21.2408 19.1282 21.324 18.6879 21.3626 18.2153C21.3997 17.7616 21.3997 17.2056 21.3997 16.5368L21.3996 11.0001L19.5996 11.0001L19.5997 16.5001C19.5997 17.215 19.599 17.6971 19.5686 18.0688C19.5391 18.43 19.4861 18.6071 19.4253 18.7265C19.2719 19.0275 19.0271 19.2723 18.7261 19.4257C18.6067 19.4865 18.4296 19.5395 18.0684 19.569C17.6967 19.5994 17.2146 19.6001 16.4997 19.6001H7.49961C6.78469 19.6001 6.30263 19.5994 5.9309 19.569C5.56968 19.5395 5.39259 19.4865 5.27322 19.4257C4.97216 19.2723 4.7274 19.0275 4.574 18.7265C4.51318 18.6071 4.46019 18.43 4.43068 18.0688C4.40031 17.6971 4.39961 17.215 4.39961 16.5001V7.5001C4.39961 6.78518 4.40031 6.30312 4.43068 5.93139C4.46019 5.57017 4.51318 5.39308 4.574 5.27371C4.7274 4.97265 4.97216 4.72789 5.27322 4.57449C5.39259 4.51367 5.56968 4.46068 5.9309 4.43117C6.30263 4.4008 6.78469 4.4001 7.49961 4.4001H12.9996V2.6001L7.46285 2.6001Z" fill="#171719"/>
</svg>
