<svg width="24" height="24" viewBox="0 0 24 24" fill="none" xmlns="http://www.w3.org/2000/svg">
<rect width="24" height="23.9999" rx="4" fill="#237BFF"/>
<path fill-rule="evenodd" clip-rule="evenodd" d="M12.0006 6.51562C12.1998 6.51562 12.3819 6.62838 12.4706 6.80674L13.8679 9.6148L16.9982 7.89908C17.178 7.80057 17.3986 7.81566 17.5632 7.93773C17.7279 8.0598 17.8064 8.26652 17.7644 8.46712L16.4519 14.7316C16.401 14.9748 16.1865 15.149 15.9381 15.149H8.0631C7.81464 15.149 7.60021 14.9748 7.54926 14.7316L6.23676 8.46712C6.19473 8.26652 6.27329 8.0598 6.43793 7.93773C6.60258 7.81566 6.8232 7.80057 7.00293 7.89908L10.1333 9.6148L11.5306 6.80674C11.6193 6.62838 11.8014 6.51562 12.0006 6.51562Z" fill="white"/>
<path fill-rule="evenodd" clip-rule="evenodd" d="M7.68393 16.6656C7.68393 16.3757 7.91898 16.1406 8.20893 16.1406H15.7922C16.0822 16.1406 16.3172 16.3757 16.3172 16.6656C16.3172 16.9556 16.0822 17.1906 15.7922 17.1906H8.20893C7.91898 17.1906 7.68393 16.9556 7.68393 16.6656Z" fill="white"/>
</svg>
