<svg width="24" height="24" viewBox="0 0 24 24" fill="none" xmlns="http://www.w3.org/2000/svg">
<rect width="24" height="23.9999" rx="4" fill="#CBE0FF"/>
<g clip-path="url(#clip0_1346_123646)">
<path d="M11.8451 5.18512C11.9633 5.15254 12.0894 5.1577 12.2051 5.20107L16.8717 6.95107C17.0993 7.0365 17.25 7.25428 17.25 7.49737V11.5807C17.25 14.2346 15.4611 16.3358 12.2609 17.9358C12.0967 18.018 11.9033 18.018 11.7391 17.9358C8.53892 16.3358 6.75001 14.2346 6.75 11.5807V7.49737C6.75 7.25428 6.90069 7.0365 7.12826 6.95107L11.7949 5.20107L11.8451 5.18512ZM12 8.5182C11.7423 8.5182 11.5334 8.7271 11.5334 8.98476V10.6767H9.84155C9.5839 10.6767 9.375 10.8856 9.375 11.1432C9.375 11.4009 9.5839 11.6098 9.84155 11.6098H11.5334V13.3017C11.5334 13.5593 11.7423 13.7682 12 13.7682C12.2577 13.7682 12.4666 13.5593 12.4666 13.3017V11.6098H14.1584C14.4161 11.6098 14.625 11.4009 14.625 11.1432C14.625 10.8856 14.4161 10.6767 14.1584 10.6767H12.4666V8.98476C12.4666 8.7271 12.2577 8.5182 12 8.5182Z" fill="#237BFF"/>
</g>
<defs>
<clipPath id="clip0_1346_123646">
<rect width="14" height="14" fill="white" transform="translate(5 5)"/>
</clipPath>
</defs>
</svg>
