<svg width="24" height="24" viewBox="0 0 24 24" fill="none" xmlns="http://www.w3.org/2000/svg">
<rect width="24" height="24" rx="6" fill="#F2F3F4"/>
<g clip-path="url(#clip0_1270_43232)">
<path d="M11.8489 3.51074C7.16797 3.51074 3.35938 7.31934 3.35938 12.0003C3.35938 16.6813 7.16797 20.4899 11.8489 20.4899C16.5299 20.4899 20.3385 16.6813 20.3385 12.0003C20.3385 7.31934 16.5299 3.51074 11.8489 3.51074Z" fill="#B7B9C0"/>
<path d="M10.9048 8.79233C11.2174 8.79233 11.4708 8.28554 11.4708 7.66038C11.4708 7.03523 11.2174 6.52844 10.9048 6.52844C10.5923 6.52844 10.3389 7.03523 10.3389 7.66038C10.3389 8.28554 10.5923 8.79233 10.9048 8.79233Z" fill="white"/>
<path d="M12.4148 8.79233C12.7274 8.79233 12.9808 8.28554 12.9808 7.66038C12.9808 7.03523 12.7274 6.52844 12.4148 6.52844C12.1022 6.52844 11.8488 7.03523 11.8488 7.66038C11.8488 8.28554 12.1022 8.79233 12.4148 8.79233Z" fill="white"/>
<path d="M8.03169 9.68457C6.9755 9.68457 6.11621 10.5439 6.11621 11.6001C6.11621 12.6562 6.9755 13.5155 8.03169 13.5155C9.08788 13.5155 9.94717 12.6562 9.94717 11.6001C9.94717 10.5439 9.08788 9.68457 8.03169 9.68457Z" fill="#B7B9C0"/>
<path d="M8.03507 9.11035C6.66164 9.11035 5.5448 10.2277 5.5448 11.6006C5.5448 12.9736 6.66212 14.0909 8.03507 14.0909C9.40802 14.0909 10.5253 12.9736 10.5253 11.6006C10.5253 10.2277 9.40802 9.11035 8.03507 9.11035ZM8.03507 13.5166C6.97888 13.5166 6.11959 12.6573 6.11959 11.6011C6.11959 10.5449 6.97888 9.68562 8.03507 9.68562C9.09126 9.68562 9.95055 10.5449 9.95055 11.6011C9.95055 12.6573 9.09126 13.5166 8.03507 13.5166Z" fill="white"/>
<path d="M18.1496 4.6416C16.7764 4.6416 15.6593 5.75882 15.6593 7.13211C15.6593 8.5054 16.7764 9.62214 18.1496 9.62214C19.5227 9.62214 20.6398 8.50492 20.6398 7.13211C20.6398 5.7593 19.5227 4.6416 18.1496 4.6416ZM18.1496 9.04741C17.0936 9.04741 16.2345 8.18819 16.2345 7.13211C16.2345 6.07603 17.0936 5.21682 18.1496 5.21682C19.2056 5.21682 20.0647 6.07603 20.0647 7.13211C20.0647 8.18819 19.2056 9.04741 18.1496 9.04741Z" fill="white"/>
<path d="M18.1466 5.2168C17.0906 5.2168 16.2314 6.07601 16.2314 7.13209C16.2314 8.18818 17.0906 9.04739 18.1466 9.04739C19.2025 9.04739 20.0617 8.18818 20.0617 7.13209C20.0617 6.07601 19.2025 5.2168 18.1466 5.2168Z" fill="#B7B9C0"/>
</g>
<defs>
<clipPath id="clip0_1270_43232">
<rect width="18" height="18" fill="white" transform="translate(3 3)"/>
</clipPath>
</defs>
</svg>
