<svg width="25" height="24" viewBox="0 0 25 24" fill="none" xmlns="http://www.w3.org/2000/svg">
<g clip-path="url(#clip0_6232_185050)">
<mask id="mask0_6232_185050" style="mask-type:luminance" maskUnits="userSpaceOnUse" x="0" y="6" width="25" height="13">
<path d="M0.986328 12.1806C0.986328 15.5559 6.20793 18.2922 12.6489 18.2922C19.0898 18.2922 24.3114 15.5559 24.3114 12.1806C24.3114 8.80538 19.0898 6.06905 12.6489 6.06905C6.20793 6.06905 0.986328 8.80538 0.986328 12.1806Z" fill="white"/>
</mask>
<g mask="url(#mask0_6232_185050)">
<path d="M0.986328 12.1806C0.986328 15.5559 6.20793 18.2922 12.6489 18.2922C19.0898 18.2922 24.3114 15.5559 24.3114 12.1806C24.3114 8.80538 19.0898 6.06905 12.6489 6.06905C6.20793 6.06905 0.986328 8.80538 0.986328 12.1806Z" fill="url(#paint0_radial_6232_185050)"/>
</g>
<mask id="mask1_6232_185050" style="mask-type:luminance" maskUnits="userSpaceOnUse" x="0" y="5" width="25" height="14">
<path d="M0.5 5.37313H24.7969V18.9882H0.5V5.37313Z" fill="white"/>
</mask>
<g mask="url(#mask1_6232_185050)">
<path d="M12.6484 17.8385C18.8377 17.8385 23.8553 15.3054 23.8553 12.1806C23.8553 9.05594 18.8377 6.52279 12.6484 6.52279C6.45901 6.52279 1.44141 9.05594 1.44141 12.1806C1.44141 15.3054 6.45901 17.8385 12.6484 17.8385Z" fill="#777BB3"/>
</g>
<mask id="mask2_6232_185050" style="mask-type:luminance" maskUnits="userSpaceOnUse" x="0" y="5" width="25" height="14">
<path d="M0.5 5.37313H24.7969V18.9882H0.5V5.37313Z" fill="white"/>
</mask>
<g mask="url(#mask2_6232_185050)">
<path d="M7.3218 12.8822C7.83073 12.8822 8.21066 12.7887 8.45106 12.6043C8.68888 12.4219 8.85314 12.1059 8.93923 11.665C9.01951 11.253 8.98892 10.9652 8.84837 10.81C8.70466 10.6514 8.39395 10.571 7.92488 10.571H7.11157L6.66068 12.8822H7.3218ZM4.66167 15.7291C4.62392 15.7291 4.58806 15.7123 4.56406 15.6832C4.54001 15.6542 4.53027 15.616 4.53748 15.579L5.73242 9.45432C5.74398 9.39511 5.79607 9.35233 5.85665 9.35233H8.43204C9.24143 9.35233 9.84387 9.57126 10.2225 10.0031C10.6032 10.4372 10.7208 11.0441 10.5719 11.8067C10.5114 12.1174 10.4072 12.406 10.2623 12.6644C10.1172 12.923 9.9255 13.1623 9.69235 13.3758C9.41328 13.636 9.09742 13.8247 8.75439 13.9357C8.41681 14.0452 7.98326 14.1008 7.46581 14.1008H6.42298L6.12518 15.6271C6.11362 15.6863 6.06157 15.7291 6.00099 15.7291H4.66167Z" fill="#12141A"/>
<path d="M7.21548 10.697H7.92448C8.49061 10.697 8.68726 10.8208 8.75408 10.8945C8.86493 11.017 8.88585 11.2751 8.81461 11.6411C8.73455 12.0508 8.58615 12.3413 8.37347 12.5044C8.15572 12.6714 7.80173 12.7561 7.3214 12.7561H6.81378L7.21548 10.697ZM8.43164 9.22624H5.85621C5.73506 9.22624 5.63091 9.3118 5.60779 9.43025L4.41286 15.555C4.39843 15.6289 4.41792 15.7053 4.46597 15.7634C4.51405 15.8215 4.58568 15.8552 4.66127 15.8552H6.00055C6.12174 15.8552 6.22589 15.7696 6.24901 15.6511L6.5269 14.2268H7.46541C7.99615 14.2268 8.44294 14.1692 8.79326 14.0555C9.15354 13.9389 9.48501 13.7412 9.77839 13.4679C10.021 13.2455 10.2209 12.9959 10.3723 12.7259C10.5238 12.4558 10.6326 12.1546 10.6958 11.8307C10.8525 11.028 10.7252 10.3851 10.3174 9.92019C9.91366 9.45971 9.27916 9.22624 8.43164 9.22624ZM6.50674 13.0082H7.3214C7.86138 13.0082 8.26358 12.9069 8.52785 12.7042C8.79217 12.5015 8.97043 12.1632 9.06306 11.6891C9.15169 11.2339 9.11132 10.9127 8.94196 10.7256C8.77238 10.5384 8.43328 10.4449 7.92448 10.4449H7.00685L6.50674 13.0082ZM8.43164 9.47837C9.2064 9.47837 9.77159 9.68091 10.1269 10.086C10.4821 10.4912 10.589 11.0567 10.4473 11.7827C10.389 12.0817 10.2903 12.3552 10.1514 12.6029C10.0123 12.8508 9.83073 13.0774 9.60632 13.283C9.33889 13.5323 9.0418 13.71 8.71489 13.8158C8.38798 13.9219 7.9716 13.9747 7.46541 13.9747H6.31823L6.00055 15.603H4.66127L5.85621 9.47837H8.43164Z" fill="white"/>
<path d="M13.6425 14.1008C13.6047 14.1008 13.5689 14.084 13.5449 14.0549C13.5208 14.0258 13.5111 13.9876 13.5183 13.9507L14.0469 11.2407C14.0972 10.983 14.0848 10.798 14.012 10.7199C13.9675 10.6721 13.8337 10.592 13.438 10.592H12.4804L11.8158 13.9987C11.8043 14.058 11.7522 14.1008 11.6916 14.1008H10.3629C10.3251 14.1008 10.2893 14.084 10.2652 14.0549C10.2412 14.0258 10.2314 13.9876 10.2387 13.9507L11.4336 7.82597C11.4451 7.76676 11.4972 7.72398 11.5578 7.72398H12.8866C12.9244 7.72398 12.9602 7.74079 12.9842 7.76983C13.0083 7.79891 13.018 7.8371 13.0108 7.87408L12.7224 9.35232H13.7526C14.5374 9.35232 15.0696 9.49015 15.3795 9.77372C15.6955 10.063 15.794 10.5255 15.6726 11.1486L15.1166 13.9987C15.105 14.058 15.053 14.1008 14.9924 14.1008H13.6425Z" fill="#12141A"/>
<path d="M12.8862 7.5979H11.5574C11.4362 7.5979 11.3321 7.68345 11.309 7.80191L10.114 13.9266C10.0996 14.0005 10.1191 14.077 10.1672 14.1351C10.2153 14.1932 10.2869 14.2268 10.3625 14.2268H11.6912C11.8124 14.2268 11.9166 14.1413 11.9397 14.0228L12.5843 10.718H13.4376C13.8326 10.718 13.9155 10.802 13.9188 10.8057C13.9428 10.8313 13.9743 10.9503 13.9223 11.2167L13.3937 13.9266C13.3793 14.0005 13.3988 14.077 13.4468 14.1351C13.4949 14.1932 13.5666 14.2268 13.6421 14.2268H14.992C15.1131 14.2268 15.2173 14.1413 15.2404 14.0228L15.7963 11.1727C15.9268 10.5037 15.8152 10.0018 15.4648 9.68091C15.1303 9.37495 14.5702 9.22624 13.7522 9.22624H12.8755L13.1346 7.89814C13.149 7.82423 13.1295 7.74775 13.0815 7.68967C13.0334 7.63156 12.9617 7.5979 12.8862 7.5979ZM12.8862 7.85003L12.5685 9.47837H13.7522C14.497 9.47837 15.0107 9.60788 15.2935 9.86656C15.5762 10.1254 15.6609 10.5448 15.5479 11.1246L14.992 13.9747H13.6421L14.1707 11.2648C14.2309 10.9565 14.2088 10.7462 14.1043 10.6341C13.9998 10.522 13.7776 10.4659 13.4376 10.4659H12.3757L11.6912 13.9747H10.3625L11.5574 7.85003H12.8862Z" fill="white"/>
<path d="M17.7749 12.8821C18.2838 12.8821 18.6638 12.7886 18.9042 12.6043C19.142 12.422 19.3063 12.1059 19.3924 11.665C19.4727 11.253 19.4421 10.9652 19.3015 10.81C19.1578 10.6514 18.8471 10.571 18.378 10.571H17.5647L17.1138 12.8821H17.7749ZM15.1148 15.7291C15.0771 15.7291 15.0412 15.7123 15.0172 15.6832C14.9932 15.6542 14.9834 15.6159 14.9906 15.579L16.1855 9.45431C16.1971 9.3951 16.2492 9.35232 16.3098 9.35232H18.8852C19.6946 9.35232 20.297 9.57126 20.6757 10.0031C21.0564 10.4372 21.1739 11.044 21.0251 11.8067C20.9644 12.1174 20.8603 12.406 20.7154 12.6643C20.5703 12.923 20.3786 13.1623 20.1455 13.3758C19.8664 13.636 19.5505 13.8246 19.2075 13.9357C18.8699 14.0452 18.4364 14.1008 17.9189 14.1008H16.8761L16.5784 15.6271C16.5668 15.6863 16.5147 15.7291 16.4541 15.7291H15.1148Z" fill="#12141A"/>
<path d="M17.6686 10.697H18.3776C18.9437 10.697 19.1403 10.8208 19.2072 10.8945C19.3181 11.017 19.339 11.2751 19.2677 11.6411C19.1876 12.0508 19.0392 12.3413 18.8266 12.5044C18.6088 12.6714 18.2548 12.7561 17.7745 12.7561H17.2669L17.6686 10.697ZM18.8847 9.22624H16.3093C16.1882 9.22624 16.084 9.3118 16.0609 9.43025L14.866 15.555C14.8516 15.6289 14.871 15.7053 14.9191 15.7634C14.9672 15.8215 15.0388 15.8552 15.1144 15.8552H16.4537C16.5748 15.8552 16.679 15.7696 16.7021 15.6511L16.98 14.2268H17.9185C18.4492 14.2268 18.896 14.1692 19.2463 14.0555C19.6066 13.9389 19.9382 13.7411 20.2316 13.4678C20.4742 13.2454 20.674 12.9959 20.8254 12.7259C20.9769 12.4558 21.0857 12.1546 21.1488 11.8307C21.3056 11.0279 21.1782 10.3851 20.7705 9.92014C20.3667 9.45971 19.7323 9.22624 18.8847 9.22624ZM16.9599 13.0082H17.7745C18.3145 13.0082 18.7167 12.9069 18.9809 12.7042C19.2453 12.5015 19.4235 12.1632 19.5161 11.6891C19.6048 11.2339 19.5644 10.9127 19.395 10.7256C19.2255 10.5384 18.8864 10.4449 18.3776 10.4449H17.4599L16.9599 13.0082ZM18.8847 9.47837C19.6595 9.47837 20.2247 9.68091 20.5799 10.086C20.9352 10.4912 21.0421 11.0567 20.9004 11.7827C20.8421 12.0817 20.7434 12.3552 20.6045 12.6029C20.4654 12.8508 20.2838 13.0774 20.0594 13.283C19.792 13.5323 19.4949 13.71 19.168 13.8158C18.8411 13.9219 18.4247 13.9747 17.9185 13.9747H16.7713L16.4537 15.603H15.1144L16.3093 9.47837H18.8847Z" fill="white"/>
</g>
</g>
<defs>
<radialGradient id="paint0_radial_6232_185050" cx="0" cy="0" r="1" gradientUnits="userSpaceOnUse" gradientTransform="translate(7.98857 8.2177) scale(15.3146 15.2563)">
<stop stop-color="#AEB2D5"/>
<stop offset="0.3" stop-color="#AEB2D5"/>
<stop offset="0.75" stop-color="#484C89"/>
<stop offset="1" stop-color="#484C89"/>
</radialGradient>
<clipPath id="clip0_6232_185050">
<rect width="24" height="24" fill="white" transform="translate(0.5)"/>
</clipPath>
</defs>
</svg>
