<svg width="25" height="24" viewBox="0 0 25 24" fill="none" xmlns="http://www.w3.org/2000/svg">
<path d="M8.53125 24C10.7393 24 12.5312 22.208 12.5312 20V16H8.53125C6.32325 16 4.53125 17.792 4.53125 20C4.53125 22.208 6.32325 24 8.53125 24Z" fill="#0ACF83"/>
<path d="M4.53125 12C4.53125 9.792 6.32325 8 8.53125 8H12.5312V16H8.53125C6.32325 16 4.53125 14.208 4.53125 12Z" fill="#A259FF"/>
<path d="M4.53125 4C4.53125 1.792 6.32325 0 8.53125 0H12.5312V8H8.53125C6.32325 8 4.53125 6.208 4.53125 4Z" fill="#F24E1E"/>
<path d="M12.5312 0H16.5313C18.7393 0 20.5313 1.792 20.5313 4C20.5313 6.208 18.7393 8 16.5313 8H12.5312V0Z" fill="#FF7262"/>
<path d="M20.5313 12C20.5313 14.208 18.7393 16 16.5313 16C14.3233 16 12.5312 14.208 12.5312 12C12.5312 9.792 14.3233 8 16.5313 8C18.7393 8 20.5313 9.792 20.5313 12Z" fill="#1ABCFE"/>
</svg>
