<svg width="25" height="24" viewBox="0 0 25 24" fill="none" xmlns="http://www.w3.org/2000/svg">
<g clip-path="url(#clip0_6232_185077)">
<path d="M22.5703 18.0607C21.9888 18.0607 21.4311 17.7846 21.078 17.3229L17.7385 12.9564L14.3984 17.3229C14.0453 17.7846 13.4877 18.0607 12.9061 18.0607H11.582L16.6118 11.4832L11.6077 4.939H12.9318C13.5133 4.939 14.0716 5.21456 14.4241 5.67621L17.7379 10.01L21.0523 5.67621C21.4048 5.21456 21.9631 4.939 22.5446 4.939H23.8687L18.864 11.4832L23.8944 18.0607H22.5703Z" fill="#B0C1D4"/>
<path d="M23.2672 5.23721L18.4909 11.4832L23.2928 17.7625H22.5723C22.0803 17.7625 21.6156 17.5329 21.3168 17.1422L17.7405 12.4655L14.1643 17.1422C13.8655 17.5335 13.4008 17.7625 12.9088 17.7625H12.1883L16.9902 11.4832L12.2127 5.23721H12.9332C13.4253 5.23721 13.8899 5.46684 14.1887 5.85751L17.7399 10.5008L21.2912 5.85751C21.59 5.46625 22.0546 5.23721 22.5467 5.23721H23.2672ZM24.4744 4.64077H23.2672H22.5467C21.8733 4.64077 21.2267 4.96046 20.8176 5.49547L17.7405 9.51967L14.6635 5.49547C14.2537 4.96046 13.6072 4.64077 12.9338 4.64077H12.2133H11.0061L11.7391 5.59925L16.2387 11.4832L11.7141 17.3999L10.9805 18.3589H12.1877H12.9082C13.5816 18.3589 14.2281 18.0392 14.6373 17.5042L17.7399 13.4466L20.8426 17.5042C21.2518 18.0392 21.8983 18.3589 22.5723 18.3589H23.2928H24.5L23.767 17.4005L19.2424 11.4837L23.7419 5.59985L24.4744 4.64077Z" fill="#66798F"/>
<path d="M6.46503 18.6574C3.34086 18.6574 0.798828 16.0277 0.798828 12.7956V10.204C0.798828 6.97249 3.34086 4.34278 6.46503 4.34278C9.58919 4.34278 12.1312 6.9719 12.1312 10.204V12.6924L2.58815 12.693V12.7956C2.58815 15.0412 4.32738 16.8681 6.46503 16.8681C7.64419 16.8681 8.78698 16.274 9.52179 15.2797C9.89636 14.7722 10.4469 14.4817 11.032 14.4817H11.9082L11.7602 14.8831C10.9288 17.1406 8.80129 18.6574 6.46503 18.6574ZM10.3419 10.9036V10.204C10.3419 7.95841 8.60267 6.13211 6.46503 6.13211C4.32738 6.13211 2.58815 7.95841 2.58815 10.204V10.9036H10.3419Z" fill="#B0C1D4"/>
<path d="M6.46442 4.64091C9.42397 4.64091 11.8324 7.13702 11.8324 10.2039V12.3947H2.28933V12.7955C2.28933 15.2057 4.16215 17.1662 6.46442 17.1662C7.76944 17.1662 8.9832 16.5089 9.76096 15.4568C10.0639 15.047 10.5214 14.7804 11.0314 14.7804H11.4799L11.4805 14.781C10.692 16.9211 8.67483 18.3597 6.46442 18.3597C3.50488 18.3597 1.09644 15.8636 1.09644 12.7961V10.2045C1.09644 7.13702 3.50488 4.64091 6.46442 4.64091ZM2.28933 11.2018H10.6395V10.2039C10.6395 7.7943 8.76669 5.8338 6.46442 5.8338C4.16215 5.8338 2.28933 7.7943 2.28933 10.2039V11.2018ZM6.46442 4.04447C3.17564 4.04447 0.5 6.80779 0.5 10.2039V12.7955C0.5 16.1922 3.17564 18.9555 6.46442 18.9555C8.92474 18.9555 11.165 17.3606 12.04 14.9868L12.3352 14.1852L11.4811 14.184H11.032C10.3508 14.184 9.71324 14.5186 9.28142 15.1025C8.60207 16.021 7.54935 16.5698 6.46442 16.5698C4.55342 16.5698 2.98716 14.9814 2.89054 12.9911H11.8324H12.4288V12.3947V10.2045C12.4288 6.80779 9.7532 4.04447 6.46442 4.04447ZM2.88577 10.6053V10.2039C2.88577 8.12294 4.49139 6.43024 6.46442 6.43024C8.43745 6.43024 10.0431 8.12294 10.0431 10.2039V10.6053H2.88577Z" fill="#66798F"/>
</g>
<defs>
<clipPath id="clip0_6232_185077">
<rect width="24" height="24" fill="white" transform="translate(0.5)"/>
</clipPath>
</defs>
</svg>
