<svg width="25" height="24" viewBox="0 0 25 24" fill="none" xmlns="http://www.w3.org/2000/svg">
<g clip-path="url(#clip0_6232_185082)">
<path d="M21.875 0H3.125C1.67525 0 0.5 1.17525 0.5 2.625V21.375C0.5 22.8247 1.67525 24 3.125 24H21.875C23.3247 24 24.5 22.8247 24.5 21.375V2.625C24.5 1.17525 23.3247 0 21.875 0Z" fill="#092E20"/>
<path d="M17.973 8.83107V15.0398C17.973 17.1791 17.8165 18.2051 17.347 19.0921C16.912 19.9445 16.3381 20.4835 15.1555 21.0749L12.6684 19.8923C13.8511 19.3358 14.425 18.8488 14.7902 18.1007C15.1729 17.3356 15.2948 16.4485 15.2948 14.1181V8.83107H17.973ZM13.7122 4.69482V17.0922C12.3383 17.353 11.3295 17.4574 10.2339 17.4574C6.96414 17.4574 5.25977 15.9792 5.25977 13.1442C5.25977 10.4137 7.06858 8.63982 9.86852 8.63982C10.3033 8.63982 10.6338 8.67451 11.0338 8.77886V4.69501L13.7122 4.69482ZM10.1295 10.7963C8.77295 10.7963 7.99023 11.6311 7.99023 13.0919C7.99023 14.5182 8.73817 15.3008 10.1122 15.3008C10.4077 15.3008 10.6512 15.2834 11.0338 15.2314V10.9353C10.7208 10.831 10.46 10.7963 10.1295 10.7963ZM17.973 4.70907V7.45707H15.2948V4.70917L17.973 4.70907Z" fill="#FFFFFD"/>
</g>
<defs>
<clipPath id="clip0_6232_185082">
<rect width="24" height="24" fill="white" transform="translate(0.5)"/>
</clipPath>
</defs>
</svg>
