<svg width="25" height="24" viewBox="0 0 25 24" fill="none" xmlns="http://www.w3.org/2000/svg">
<g clip-path="url(#clip0_6232_185043)">
<path d="M0.5 8.68571C0.5 5.64543 0.5 4.12529 1.09168 2.96405C1.61213 1.9426 2.4426 1.11213 3.46405 0.591679C4.62529 0 6.14543 0 9.18571 0H15.8143C18.8546 0 20.3747 0 21.5359 0.591679C22.5574 1.11213 23.3879 1.9426 23.9083 2.96405C24.5 4.12529 24.5 5.64543 24.5 8.68571V15.3143C24.5 18.3546 24.5 19.8747 23.9083 21.0359C23.3879 22.0574 22.5574 22.8879 21.5359 23.4083C20.3747 24 18.8546 24 15.8143 24H9.18571C6.14543 24 4.62529 24 3.46405 23.4083C2.4426 22.8879 1.61213 22.0574 1.09168 21.0359C0.5 19.8747 0.5 18.3546 0.5 15.3143V8.68571Z" fill="#001E36"/>
<path d="M5.64258 17.5854V7.03151C5.64258 6.95971 5.67258 6.91869 5.74258 6.91869C6.77597 6.91869 7.8089 6.85715 8.84258 6.85715C10.5199 6.85715 12.336 7.43066 12.9726 9.18535C13.1226 9.61612 13.2026 10.0571 13.2026 10.5187C13.2026 11.4007 13.0026 12.1289 12.6026 12.7033C11.4852 14.3077 9.54858 14.2828 7.81258 14.2828V17.5751C7.82615 17.6726 7.74309 17.7187 7.66258 17.7187H5.76258C5.68258 17.7187 5.64258 17.6777 5.64258 17.5854ZM7.82258 8.89817V12.3443C8.51091 12.3948 9.2312 12.4002 9.89258 12.1802C10.6227 11.9696 11.0226 11.3376 11.0226 10.5802C11.0429 9.93488 10.6912 9.31568 10.0926 9.08279C9.43918 8.8111 8.5279 8.79483 7.82258 8.89817Z" fill="#31A8FF"/>
<path d="M19.4397 11.6635C19.1371 11.504 18.8149 11.3874 18.4818 11.3167C18.0537 11.216 16.3652 10.8632 16.3646 11.746C16.3796 12.2389 17.162 12.4804 17.5077 12.6212C18.7213 13.0379 20.0946 13.7826 20.0676 15.2798C20.1047 17.1436 18.2989 17.8886 16.751 17.8888C15.9452 17.8971 15.1057 17.7723 14.3682 17.4264C14.2978 17.3892 14.2525 17.3095 14.2555 17.2283V15.4449C14.2476 15.3734 14.3243 15.3109 14.3843 15.3623C15.1069 15.7993 15.9634 16.0115 16.7993 16.0228C17.1683 16.0228 17.8997 15.9871 17.8941 15.4449C17.8941 14.9246 17.0192 14.6854 16.6705 14.5532C16.165 14.3727 15.6856 14.1228 15.2456 13.8101C14.6307 13.3715 14.245 12.6683 14.2555 11.8946C14.2519 10.1397 15.9141 9.35204 17.4111 9.35167C18.1109 9.3459 18.8624 9.39772 19.5139 9.68192C19.6076 9.7095 19.627 9.80817 19.6266 9.89659V11.5644C19.6325 11.6679 19.5175 11.7032 19.4397 11.6635Z" fill="#31A8FF"/>
</g>
<defs>
<clipPath id="clip0_6232_185043">
<rect width="24" height="24" fill="white" transform="translate(0.5)"/>
</clipPath>
</defs>
</svg>
