<svg width="25" height="24" viewBox="0 0 25 24" fill="none" xmlns="http://www.w3.org/2000/svg">
<g clip-path="url(#clip0_6232_185103)">
<path d="M13.9174 4.29333L17.6727 6.48667C17.8078 6.56333 17.8111 6.78 17.6727 6.85333L13.2092 9.46C13.0741 9.54 12.916 9.53333 12.7875 9.46L8.32729 6.85333C8.19224 6.77667 8.18565 6.56 8.32729 6.48667L12.0793 4.29333V0L2.5 5.59667V16.79L6.17624 14.6433V10.2567C6.17294 10.1 6.35741 9.99 6.49247 10.0733L10.956 12.68C11.0911 12.76 11.1668 12.9033 11.1668 13.05V18.2633C11.1701 18.42 10.9889 18.53 10.8539 18.4467L7.09859 16.2533L3.41906 18.4033L12.9984 24L22.5776 18.4033L18.9047 16.2567L15.1494 18.45C15.0176 18.53 14.8299 18.4267 14.8365 18.2667V13.0533C14.8365 12.8967 14.9221 12.7567 15.0473 12.6833L19.5075 10.0767C19.6393 9.99333 19.8271 10.1 19.8238 10.26V14.6467L23.5 16.7933V5.59667L13.9174 0V4.29333Z" fill="#12141A"/>
</g>
<defs>
<clipPath id="clip0_6232_185103">
<rect width="21" height="24" fill="white" transform="translate(2.5)"/>
</clipPath>
</defs>
</svg>
