<svg width="25" height="24" viewBox="0 0 25 24" fill="none" xmlns="http://www.w3.org/2000/svg">
<path d="M23.2351 7.03684C23.2351 6.63459 23.149 6.27891 22.975 5.97364C22.8039 5.67364 22.5478 5.42212 22.2046 5.22316C19.369 3.58804 16.5312 1.95844 13.6968 0.322355C12.9329 -0.119005 12.192 -0.102925 11.4336 0.344675C10.3051 1.0102 4.6553 4.24708 2.9717 5.2222C2.27834 5.62348 1.9409 6.23788 1.9409 7.03636C1.93994 10.3239 1.94114 13.6114 1.93994 16.8992C1.93994 17.2928 2.0225 17.6415 2.18882 17.942C2.35994 18.2513 2.61962 18.5098 2.97122 18.7131C4.65458 19.6882 10.3054 22.9251 11.4336 23.5906C12.192 24.0382 12.9331 24.0543 13.6973 23.6129C16.5317 21.9766 19.3697 20.3468 22.2053 18.7121C22.5567 18.5088 22.8163 18.2501 22.9875 17.9412C23.1535 17.6405 23.2361 17.2918 23.2363 16.8982C23.2363 16.8982 23.2363 10.3244 23.2351 7.03684Z" fill="#5C8DBC"/>
<path d="M12.6208 11.9357L2.18896 17.942C2.36008 18.2513 2.61976 18.5098 2.97136 18.7131C4.65472 19.6882 10.3055 22.9251 11.4338 23.5906C12.1922 24.0385 12.9333 24.0543 13.6974 23.6132C16.5318 21.9764 19.3698 20.3468 22.2054 18.7124C22.5568 18.5089 22.8165 18.2501 22.9876 17.9412L12.6208 11.9357Z" fill="#1A4674"/>
<path d="M9.53076 13.7149C10.138 14.7745 11.2789 15.4892 12.5879 15.4892C13.905 15.4892 15.0527 14.7653 15.6568 13.6945L12.6208 11.9357L9.53076 13.7149Z" fill="#1A4674"/>
<path d="M23.2351 7.03708C23.2351 6.6346 23.1489 6.27892 22.9749 5.97388L12.6206 11.9352L22.9874 17.941C23.1535 17.6405 23.236 17.2916 23.2363 16.898C23.2363 16.898 23.2363 10.3246 23.2351 7.03708Z" fill="#1B598E"/>
<path d="M22.6654 12.3648H21.8554V13.1751H21.0451V12.3648H20.2351V11.5548H21.0451V10.7448H21.8554V11.5548H22.6654V12.3648ZM19.7095 12.3648H18.8995V13.1751H18.0893V12.3648H17.2793V11.5548H18.0893V10.7448H18.8995V11.5548H19.7095V12.3648Z" fill="white"/>
<path d="M15.6571 13.6944C15.053 14.7656 13.9053 15.4894 12.5882 15.4894C11.2792 15.4894 10.138 14.7744 9.53107 13.7148C9.22611 13.1831 9.06598 12.5806 9.06667 11.9676C9.06667 10.0227 10.6435 8.44613 12.5882 8.44613C13.889 8.44613 15.0242 9.15197 15.634 10.2008L18.7123 8.42837C17.4888 6.31637 15.2047 4.89557 12.5884 4.89557C8.68243 4.89557 5.51611 8.06189 5.51611 11.9676C5.51611 13.2492 5.85691 14.4507 6.45283 15.4872C7.67299 17.6103 9.96403 19.04 12.5884 19.04C15.2176 19.04 17.5118 17.6045 18.7305 15.4752L15.6571 13.6944Z" fill="white"/>
</svg>
