<svg width="25" height="24" viewBox="0 0 25 24" fill="none" xmlns="http://www.w3.org/2000/svg">
<path d="M10.0176 7.98781L22.8984 12L10.0176 3.45361V7.98781Z" fill="#004D40"/>
<path d="M16.4896 0H5.2708L2.5 4.8H10.9L16.4896 0Z" fill="#26A69A"/>
<path d="M22.8984 12L16.488 0L10.8984 4.8L22.8984 12Z" fill="#00897B"/>
<path d="M10.1934 20.4396L22.8984 12L10.1934 15.3768V20.4396Z" fill="#004D40"/>
<path d="M10.9003 16.2582L22.9003 12L10.899 7.75439L8.65625 12L10.9003 16.2582Z" fill="#00897B"/>
<path d="M10.9 7.75395L8.5564 6.93555L3.1336 11.9995L8.5564 17.0761L10.9 16.2571V7.75395ZM10.9 19.2121H2.5L5.2708 23.9995H16.4896L10.9084 19.2067L10.9 19.2121Z" fill="#26A69A"/>
<path d="M2.5 4.7998L9.2104 7.1638L10.9 4.7998H2.5Z" fill="#00796B"/>
<path d="M10.9082 19.2072L16.4894 24L22.8998 12L10.9082 19.2072Z" fill="#00897B"/>
<path d="M10.9 19.2L9.2614 16.8306L2.5 19.2126H10.9V19.2Z" fill="#00796B"/>
<path d="M10.8983 16.2574L8.55469 17.0764L10.8983 19.1998V16.2574ZM10.8983 4.7998L8.55469 6.93581L10.8983 7.7542V4.7998Z" fill="#00695C"/>
</svg>
