<svg width="25" height="24" viewBox="0 0 25 24" fill="none" xmlns="http://www.w3.org/2000/svg">
<path d="M23.2375 7.03774C23.2373 6.63526 23.1511 6.27934 22.9771 5.9743C22.806 5.6743 22.5499 5.4223 22.2065 5.22358C19.3709 3.5887 16.5329 1.95886 13.6985 0.32206C12.9341 -0.119061 12.1932 -0.102741 11.4348 0.344619C10.3061 1.01014 4.65578 4.2475 2.97194 5.22238C2.27858 5.6239 1.94114 6.2383 1.94114 7.03678C1.93994 10.3248 1.94114 13.6128 1.93994 16.9008C1.93994 17.2944 2.0225 17.6431 2.18882 17.9438C2.35994 18.2529 2.61962 18.5114 2.97122 18.7149C4.65482 19.6903 10.3061 22.9272 11.4343 23.5929C12.1932 24.0408 12.9343 24.0566 13.6985 23.6153C16.5331 21.9785 19.3716 20.3489 22.2075 18.714C22.5588 18.5107 22.8185 18.252 22.9896 17.9429C23.1557 17.6424 23.2385 17.2934 23.2385 16.8998C23.2385 16.8998 23.2387 10.3257 23.2375 7.03774Z" fill="#A179DC"/>
<path d="M12.6218 11.9369L2.18896 17.9438C2.35984 18.2529 2.61952 18.5114 2.97088 18.7149C4.6552 19.6903 10.3062 22.9272 11.4342 23.5929C12.1931 24.0408 12.9342 24.0566 13.6984 23.6153C16.533 21.9785 19.3715 20.3489 22.2074 18.714C22.5587 18.5107 22.8184 18.252 22.9895 17.9429L12.6218 11.9369Z" fill="#280068"/>
<path d="M23.2378 7.03774C23.2375 6.63526 23.1514 6.27934 22.9774 5.9743L12.6221 11.9369L22.9898 17.9429C23.1559 17.6424 23.2385 17.2934 23.2387 16.8998C23.2387 16.8998 23.239 10.3257 23.2378 7.03774Z" fill="#390091"/>
<path d="M18.7646 9.69119V10.8139H19.8874V9.69119H20.449V10.8139H21.5714V11.3755H20.449V12.4982H21.5717V13.0596H20.449V14.1823H19.8874V13.0596H18.7649V14.1823H18.2033V13.0596H17.0806V12.498H18.2033V11.3753H17.0806V10.8139H18.2033V9.69119H18.7646ZM19.8874 11.3753H18.7646V12.4982H19.8874V11.3753Z" fill="white"/>
<path d="M12.6447 4.05212C15.5734 4.05212 18.1304 5.6426 19.4998 8.00684L19.4866 7.98404L16.0407 9.96812C15.362 8.81852 14.1173 8.04284 12.6896 8.027L12.6447 8.02676C10.4676 8.02676 8.70244 9.79148 8.70244 11.9688C8.70244 12.6806 8.89228 13.348 9.22252 13.9245C9.90172 15.1108 11.1792 15.911 12.6449 15.911C14.119 15.911 15.4037 15.1005 16.0798 13.9017L16.0635 13.9305L19.5039 15.9237C18.1496 18.2678 15.6274 19.8532 12.7328 19.8849L12.6447 19.8854C9.70684 19.8854 7.14268 18.2851 5.77636 15.9086C5.08743 14.71 4.72589 13.3513 4.72804 11.9688C4.72804 7.59668 8.27236 4.05212 12.6447 4.05212Z" fill="white"/>
</svg>
