<svg width="25" height="24" viewBox="0 0 25 24" fill="none" xmlns="http://www.w3.org/2000/svg">
<g clip-path="url(#clip0_6232_185063)">
<path fill-rule="evenodd" clip-rule="evenodd" d="M23.6872 10.961L13.4939 0.768463C12.9073 0.181346 11.9551 0.181346 11.3677 0.768463L9.2511 2.88511L11.9362 5.57017C12.5602 5.35935 13.2756 5.50075 13.7731 5.99821C14.2728 6.49875 14.4132 7.22035 14.1973 7.8464L16.785 10.4341C17.4111 10.2184 18.1334 10.358 18.6334 10.8588C19.3322 11.5574 19.3322 12.6896 18.6334 13.3887C17.9344 14.0877 16.8022 14.0877 16.1028 13.3887C15.5772 12.8625 15.4473 12.0905 15.7135 11.4429L13.3002 9.0296L13.3 15.3803C13.4703 15.4648 13.6312 15.5773 13.7731 15.7187C14.4719 16.4172 14.4719 17.5495 13.7731 18.249C13.074 18.9478 11.9413 18.9478 11.2432 18.249C10.5444 17.5495 10.5444 16.4172 11.2432 15.7187C11.4159 15.5463 11.6157 15.4159 11.8288 15.3283V8.91843C11.6157 8.83134 11.4162 8.70172 11.2432 8.52804C10.7138 7.99933 10.5865 7.2224 10.8577 6.57227L8.21109 3.92512L1.22178 10.9139C0.634407 11.5015 0.634407 12.4537 1.22178 13.0408L11.4151 23.2336C12.002 23.8208 12.9539 23.8208 13.5415 23.2336L23.6872 13.0882C24.2743 12.5008 24.2743 11.5482 23.6872 10.961Z" fill="#DE4C36"/>
</g>
<defs>
<clipPath id="clip0_6232_185063">
<rect width="23.4375" height="23.3463" fill="white" transform="translate(0.78125 0.328125)"/>
</clipPath>
</defs>
</svg>
