<svg width="25" height="24" viewBox="0 0 25 24" fill="none" xmlns="http://www.w3.org/2000/svg">
<g clip-path="url(#clip0_6232_185101)">
<path d="M13.0855 23.4155C19.0665 23.4155 23.9151 18.3048 23.9151 12.0005C23.9151 5.69613 19.0665 0.585449 13.0855 0.585449C7.10445 0.585449 2.25586 5.69613 2.25586 12.0005C2.25586 18.3048 7.10445 23.4155 13.0855 23.4155Z" fill="#616161"/>
<path d="M15.1363 18.1092C19.9857 18.1092 23.917 14.3047 23.917 9.61171C23.917 4.9187 19.9857 1.11426 15.1363 1.11426C10.2868 1.11426 6.35547 4.9187 6.35547 9.61171C6.35547 14.3047 10.2868 18.1092 15.1363 18.1092Z" fill="#212121"/>
<path d="M14.5474 1.75586C14.5474 1.75586 17.4743 2.92663 16.2444 3.96979C15.6221 4.49722 14.8313 4.77645 14.0937 5.12183C13.2373 5.52281 12.3551 5.87112 11.5812 6.43192C10.9964 6.85574 10.4438 7.31117 10.0469 7.92348C9.57158 8.65638 9.29176 9.45836 9.24376 10.3341C9.20044 11.1226 9.34679 11.8801 9.6746 12.5937C10.1423 13.6123 10.9016 14.3575 11.8979 14.8703C12.6074 15.2355 13.3596 15.4047 14.1534 15.386C15.083 15.3643 15.9394 15.1009 16.708 14.5705C17.1441 14.2696 17.4918 13.888 17.8197 13.47C18.199 12.9865 18.5051 12.4667 18.768 11.9187C19.0952 11.2373 19.3417 10.5232 19.6127 9.81837C19.8205 9.27865 20.0324 8.736 20.355 8.25422C21.572 6.43894 22.7428 8.1951 22.7428 8.1951C22.7428 8.1951 22.1574 5.85356 20.4012 4.0974C18.6451 2.34124 14.5474 1.75586 14.5474 1.75586Z" fill="#3949AB"/>
<path d="M20.9881 9.36628C20.7306 12.652 20.0826 15.1083 19.1969 16.933C17.8505 20.265 14.4558 22.5492 10.57 22.212C6.48698 21.8572 3.18072 18.5141 2.86695 14.4275C2.61817 11.1886 4.19051 8.30088 6.66435 6.66941C8.68861 5.17726 11.5271 4.58485 13.9635 4.09781C15.9374 3.70326 16.9127 3.10851 17.3389 2.49444C17.758 1.89032 17.4331 1.04795 16.7464 0.785698C15.17 0.184507 13.439 -0.101161 11.6214 0.0323068C5.33201 0.494176 0.38609 5.91953 0.501996 12.2247C0.627854 19.1223 6.5742 24.598 13.6363 23.9488C19.0078 23.4548 23.4567 19.3132 24.3354 13.9914C24.7212 11.6563 24.4097 9.43536 23.6019 7.46905C23.2232 6.54823 21.9259 6.46452 21.4769 7.35314C21.1327 8.03511 21.0209 8.94831 20.9881 9.36628Z" fill="#E0E0E0"/>
</g>
<defs>
<clipPath id="clip0_6232_185101">
<rect width="24" height="24" fill="white" transform="translate(0.5)"/>
</clipPath>
</defs>
</svg>
