<svg width="25" height="24" viewBox="0 0 25 24" fill="none" xmlns="http://www.w3.org/2000/svg">
<g clip-path="url(#clip0_6232_185046)">
<path d="M0.5 8.68571C0.5 5.64543 0.5 4.12529 1.09168 2.96405C1.61213 1.9426 2.4426 1.11213 3.46405 0.591679C4.62529 0 6.14543 0 9.18571 0H15.8143C18.8546 0 20.3747 0 21.5359 0.591679C22.5574 1.11213 23.3879 1.9426 23.9083 2.96405C24.5 4.12529 24.5 5.64543 24.5 8.68571V15.3143C24.5 18.3546 24.5 19.8747 23.9083 21.0359C23.3879 22.0574 22.5574 22.8879 21.5359 23.4083C20.3747 24 18.8546 24 15.8143 24H9.18571C6.14543 24 4.62529 24 3.46405 23.4083C2.4426 22.8879 1.61213 22.0574 1.09168 21.0359C0.5 19.8747 0.5 18.3546 0.5 15.3143V8.68571Z" fill="#49021F"/>
<path d="M8.72178 7.02472V17.5434C8.72178 17.6535 8.67349 17.7086 8.57691 17.7085H6.62876C6.54277 17.7085 6.49985 17.6535 6.5 17.5434V7.02472C6.5 6.93672 6.54829 6.89269 6.64487 6.8926H8.59298C8.66689 6.88183 8.73229 6.94891 8.72178 7.02472Z" fill="#FF3366"/>
<path d="M14.4856 17.8736C13.7446 17.8851 13.0103 17.7272 12.3363 17.4112C10.9052 16.7319 10.2834 15.2285 10.2835 13.6793C10.2712 12.134 11.0896 10.6616 12.4248 9.93091C13.3465 9.40727 14.4307 9.27424 15.4677 9.36948V6.11646C15.4677 6.03956 15.4999 6.00087 15.5643 6.00087H17.5929C17.6483 5.99274 17.6974 6.04306 17.6895 6.09992V15.859C17.6895 16.2617 17.7294 16.6629 17.7539 17.0644C17.7579 17.133 17.7182 17.2009 17.6573 17.2296C17.134 17.4534 16.5889 17.6195 16.0312 17.7249C15.5213 17.8215 15.0041 17.8712 14.4856 17.8736ZM15.4677 15.826V11.318C14.0039 10.9113 12.5695 12.0289 12.5697 13.5802C12.5343 15.2049 13.9829 16.2714 15.4677 15.826Z" fill="#FF3366"/>
</g>
<defs>
<clipPath id="clip0_6232_185046">
<rect width="24" height="24" fill="white" transform="translate(0.5)"/>
</clipPath>
</defs>
</svg>
