<svg width="25" height="24" viewBox="0 0 25 24" fill="none" xmlns="http://www.w3.org/2000/svg">
<g clip-path="url(#clip0_6232_185075)">
<path d="M12.3848 0.09375C6.30678 0.0937504 6.68633 2.72955 6.68633 2.72955L6.69311 5.46021H12.4932V6.28009H4.38933C4.38933 6.28009 0.5 5.839 0.5 11.9718C0.5 18.1046 3.89469 17.8871 3.89469 17.8871H5.92067V15.0412C5.92067 15.0412 5.81146 11.6465 9.26115 11.6465H15.0138C15.0138 11.6465 18.2459 11.6988 18.2459 8.52289V3.27162C18.2459 3.27162 18.7366 0.09375 12.3848 0.09375ZM9.18662 1.93C9.76369 1.93 10.2301 2.39641 10.2301 2.97348C10.2301 3.55055 9.76369 4.01696 9.18662 4.01696C8.60955 4.01696 8.14314 3.55055 8.14314 2.97348C8.14314 2.39641 8.60955 1.93 9.18662 1.93Z" fill="url(#paint0_linear_6232_185075)"/>
<path d="M12.5574 23.9113C18.6354 23.9113 18.2559 21.2755 18.2559 21.2755L18.2491 18.5449H12.449V17.725H20.5529C20.5529 17.725 24.4422 18.1661 24.4422 12.0333C24.4422 5.90049 21.0475 6.11797 21.0475 6.11797H19.0215V8.96382C19.0215 8.96382 19.1307 12.3585 15.681 12.3585H9.92836C9.92836 12.3585 6.69629 12.3063 6.69629 15.4822V20.7334C6.69629 20.7334 6.20557 23.9113 12.5574 23.9113ZM15.7556 22.0751C15.1785 22.0751 14.7121 21.6087 14.7121 21.0316C14.7121 20.4545 15.1785 19.9881 15.7556 19.9881C16.3326 19.9881 16.7991 20.4545 16.7991 21.0316C16.7991 21.6087 16.3326 22.0751 15.7556 22.0751Z" fill="url(#paint1_linear_6232_185075)"/>
</g>
<defs>
<linearGradient id="paint0_linear_6232_185075" x1="2.80089" y1="2.23607" x2="14.6658" y2="13.9826" gradientUnits="userSpaceOnUse">
<stop stop-color="#387EB8"/>
<stop offset="1" stop-color="#366994"/>
</linearGradient>
<linearGradient id="paint1_linear_6232_185075" x1="10.0835" y1="9.77894" x2="22.8252" y2="21.824" gradientUnits="userSpaceOnUse">
<stop stop-color="#FFE052"/>
<stop offset="1" stop-color="#FFC331"/>
</linearGradient>
<clipPath id="clip0_6232_185075">
<rect width="24" height="24" fill="white" transform="translate(0.5)"/>
</clipPath>
</defs>
</svg>
