<svg width="24" height="24" viewBox="0 0 24 24" fill="none" xmlns="http://www.w3.org/2000/svg">
<path d="M18.494 4.08008H5.50521C3.62421 4.08008 2.09961 5.60468 2.09961 7.48568V15.5443C2.09961 17.4253 3.62421 18.9499 5.50521 18.9499H10.0988L11.663 21.6526C11.8016 21.9001 12.1679 21.9001 12.3065 21.6526L13.8707 18.9499H18.494C20.375 18.9499 21.8996 17.4253 21.8996 15.5443V7.48568C21.8996 5.60468 20.375 4.08008 18.494 4.08008Z" fill="#00C73C"/>
<path fill-rule="evenodd" clip-rule="evenodd" d="M5.70268 13.3366C5.97988 13.6039 6.32638 13.7623 6.70258 13.7623C7.73218 13.7623 8.57368 12.901 8.57368 11.8219C8.57368 10.7428 7.73218 9.87156 6.70258 9.87156C6.31648 9.87156 5.97988 10.03 5.70268 10.2973V8.73306H4.58398V13.6633H5.70268V13.3366ZM9.25678 13.6633H10.3854V10.4161C10.3854 9.15876 9.40528 8.66376 8.65288 8.61426V9.61416C8.95978 9.62406 9.25678 9.88146 9.25678 10.426V13.6633ZM11.019 11.812C11.019 12.8911 11.8902 13.7623 12.9693 13.7623C14.0484 13.7623 14.9196 12.8911 14.9196 11.812C14.9196 10.7329 14.0484 9.86166 12.9693 9.86166C11.8902 9.86166 11.019 10.7329 11.019 11.812ZM17.4639 15.2473C18.2559 15.2176 19.4043 14.8909 19.4043 13.3861V9.99036H18.3252V10.327C18.048 10.0498 17.6916 9.88146 17.2956 9.88146C16.266 9.88146 15.4245 10.723 15.4245 11.7526C15.4245 12.7822 16.266 13.6237 17.2956 13.6237C17.6916 13.6237 18.048 13.4554 18.3252 13.1782V13.2475C18.3351 13.8712 18.1767 14.2177 17.4639 14.2573V15.2473ZM17.4342 12.6633C17.9589 12.6633 18.3846 12.2475 18.3846 11.7426C18.3846 11.2377 17.9589 10.8219 17.4342 10.8219C16.9095 10.8219 16.4838 11.2377 16.4838 11.7426C16.4838 12.2475 16.9095 12.6633 17.4342 12.6633ZM6.57392 12.7821C7.10852 12.7821 7.53422 12.3465 7.53422 11.8218C7.53422 11.2872 7.10852 10.8615 6.57392 10.8615C6.03932 10.8615 5.61362 11.2872 5.61362 11.8218C5.61362 12.3564 6.03932 12.7821 6.57392 12.7821ZM12.9693 12.7425C13.4742 12.7425 13.89 12.3267 13.89 11.8218C13.89 11.3169 13.4742 10.9011 12.9693 10.9011C12.4644 10.9011 12.0486 11.3169 12.0486 11.8218C12.0486 12.3267 12.4644 12.7425 12.9693 12.7425Z" fill="white"/>
</svg>
