<svg width="24" height="24" viewBox="0 0 24 24" fill="none" xmlns="http://www.w3.org/2000/svg">
<path d="M22.2023 6.87727C21.9573 5.96137 21.2331 5.23717 20.3172 4.99222C18.6558 4.54492 11.9996 4.54492 11.9996 4.54492C11.9996 4.54492 5.34336 4.54492 3.68196 4.99222C2.76606 5.23717 2.04186 5.96137 1.79691 6.87727C1.34961 8.53867 1.34961 11.9999 1.34961 11.9999C1.34961 11.9999 1.34961 15.4612 1.79691 17.1226C2.04186 18.0385 2.76606 18.7627 3.68196 19.0076C5.34336 19.4549 11.9996 19.4549 11.9996 19.4549C11.9996 19.4549 18.6558 19.4549 20.3172 19.0076C21.2331 18.7627 21.9573 18.0385 22.2023 17.1226C22.6496 15.4612 22.6496 11.9999 22.6496 11.9999C22.6496 11.9999 22.6496 8.53867 22.2023 6.87727Z" fill="#FF0000"/>
<path d="M9.87012 15.1947V8.80469L15.4081 11.9997L9.87012 15.1947Z" fill="white"/>
</svg>
