<svg width="24" height="24" viewBox="0 0 24 24" fill="none" xmlns="http://www.w3.org/2000/svg">
<path d="M8.95557 21.9472C10.2363 21.9472 10.798 21.0597 12.3933 21.0597C13.9887 21.0597 14.3706 21.9135 15.7862 21.9135C17.2017 21.9135 18.1117 20.5879 18.9993 19.2846C19.9879 17.7904 20.3924 16.33 20.4261 16.2625C20.3362 16.2401 17.6624 15.1054 17.6624 11.9485C17.6624 9.20724 19.7745 7.97144 19.8868 7.88156C18.4937 5.8144 16.3704 5.76946 15.7974 5.76946C14.2358 5.76946 12.9551 6.74687 12.1462 6.74687C11.2811 6.74687 10.1352 5.82564 8.77582 5.82564C6.19187 5.82564 3.57422 8.02761 3.57422 12.1732C3.57422 14.7459 4.55163 17.4759 5.74249 19.2397C6.76483 20.7339 7.6636 21.9585 8.95557 21.9585V21.9472ZM12.2473 5.5223C13.1798 5.5223 14.3594 4.8707 15.0559 4.00564C15.6851 3.21922 16.1457 2.11823 16.1457 1.01724C16.1457 0.871192 16.1345 0.713908 16.1007 0.601562C15.0559 0.646501 13.8089 1.32058 13.0562 2.23058C12.4608 2.92712 11.9215 4.00564 11.9215 5.11786C11.9215 5.27514 11.944 5.44366 11.9664 5.49983C12.0338 5.51107 12.135 5.5223 12.2473 5.5223Z" fill="black"/>
</svg>
