<svg width="24" height="24" viewBox="0 0 24 24" fill="none" xmlns="http://www.w3.org/2000/svg">
<path fill-rule="evenodd" clip-rule="evenodd" d="M14.3885 2.34961H9.61063C8.52357 2.3496 7.65287 2.3496 6.94911 2.4071C6.22645 2.46614 5.60089 2.59027 5.02504 2.88368C4.10305 3.35346 3.35345 4.10306 2.88368 5.02506C2.59027 5.6009 2.46614 6.22646 2.4071 6.94913C2.3496 7.6529 2.3496 8.52357 2.34961 9.61063V14.3886C2.3496 15.4756 2.3496 16.3463 2.4071 17.0501C2.46614 17.7728 2.59027 18.3983 2.88368 18.9742C3.35345 19.8962 4.10305 20.6458 5.02504 21.1155C5.60089 21.4089 6.22645 21.5331 6.94911 21.5921C7.65286 21.6496 8.52351 21.6496 9.61054 21.6496H14.3885C15.4755 21.6496 16.3463 21.6496 17.05 21.5921C17.7727 21.5331 18.3982 21.4089 18.9741 21.1155C19.8961 20.6458 20.6457 19.8962 21.1155 18.9742C21.4089 18.3983 21.533 17.7728 21.592 17.0501C21.6495 16.3463 21.6495 15.4756 21.6495 14.3886V9.61066C21.6495 8.52358 21.6495 7.6529 21.592 6.94913C21.533 6.22646 21.4089 5.6009 21.1155 5.02506C20.6457 4.10306 19.8961 3.35346 18.9741 2.88368C18.3982 2.59027 17.7727 2.46614 17.05 2.4071C16.3463 2.3496 15.4756 2.3496 14.3885 2.34961Z" fill="#0A66C2"/>
<path fill-rule="evenodd" clip-rule="evenodd" d="M6.5498 7.84923C6.5498 8.56687 7.13032 9.14866 7.84933 9.14866C8.5654 9.14866 9.14592 8.56391 9.14592 7.84923C9.14592 7.13159 8.5654 6.5498 7.84933 6.5498C7.13032 6.5498 6.5498 7.13159 6.5498 7.84923ZM6.72956 17.3498H8.96911V10.1321H6.72956V17.3498ZM17.3497 17.3498H15.1131V13.8414C15.1131 13.0056 15.0984 11.9277 13.9492 11.9277C12.7852 11.9277 12.6084 12.8402 12.6084 13.7823V17.3498H10.3747V10.1321H12.52V11.1185H12.5494C12.8471 10.5514 13.5779 9.95194 14.6652 9.95194C16.9313 9.95194 17.3497 11.4463 17.3497 13.3895V17.3498Z" fill="white"/>
</svg>
