<svg width="24" height="24" viewBox="0 0 24 24" fill="none" xmlns="http://www.w3.org/2000/svg">
<path d="M11.9447 11.5748L4.07422 19.9256C4.31809 20.8346 5.14578 21.4997 6.12867 21.4997C6.52034 21.4997 6.88985 21.3962 7.20762 21.2041L7.22979 21.1893L16.0831 16.0827L11.9373 11.5674L11.9447 11.5748Z" fill="#EA4335"/>
<path d="M19.9031 10.1561H19.8957L16.075 7.93164L11.7666 11.7671L16.0898 16.0903L19.8957 13.8955C20.5608 13.5333 21.0116 12.8313 21.0116 12.0258C21.0116 11.2202 20.5682 10.5182 19.9031 10.1635V10.1561Z" fill="#FBBC04"/>
<path d="M4.0739 4.08203C4.02956 4.25939 4 4.43676 4 4.6289V19.387C4 19.5791 4.02217 19.7565 4.0739 19.9338L12.2104 11.7973L4.0739 4.08203Z" fill="#4285F4"/>
<path d="M12.0038 12.0037L16.0758 7.93173L7.22979 2.80299C6.91202 2.61085 6.53512 2.5 6.12867 2.5C5.14578 2.5 4.31809 3.1725 4.07422 4.07409L12.0038 11.9963V12.0037Z" fill="#34A853"/>
</svg>
